<svg width="183" height="196" viewBox="0 0 183 196" fill="none" xmlns="http://www.w3.org/2000/svg">
<path d="M41 0L44.2951 16.7049L61 20L44.2951 23.2951L41 40L37.7049 23.2951L21 20L37.7049 16.7049L41 0Z" fill="#000033"/>
<path d="M170 62L172.142 72.8582L183 75L172.142 77.1418L170 88L167.858 77.1418L157 75L167.858 72.8582L170 62Z" fill="#000033"/>
<path d="M27.3611 101.978V57.7292C27.3611 54.9976 25.1467 52.7832 22.4151 52.7832V52.7832C20.0829 52.7832 18.0675 54.4124 17.5789 56.6929L5.51146 113.007C5.17661 114.57 5.26655 116.194 5.77192 117.71L17.9577 154.267C18.2617 155.179 18.4167 156.134 18.4167 157.096V171.297C18.4167 175.002 15.4132 178.005 11.7083 178.005V178.005C8.00342 178.005 5 181.009 5 184.714V184.714C5 188.419 8.00342 191.422 11.7083 191.422H60.9028C64.6077 191.422 67.6111 188.419 67.6111 184.714V184.714C67.6111 181.009 64.6077 178.005 60.9028 178.005H60.3892C55.28 178.005 51.7863 172.845 53.6838 168.101L57.2647 159.149C58.1611 156.908 58.1138 154.4 57.1335 152.195L43.1386 120.706C41.703 117.476 38.4998 115.394 34.965 115.394H33.8296C26.9618 115.394 22.6562 122.814 26.0636 128.776L36.3056 146.7" stroke="#000033" stroke-width="8.94444" stroke-linecap="round"/>
<path d="M143.639 101.978V57.7292C143.639 54.9976 145.853 52.7832 148.585 52.7832V52.7832C150.917 52.7832 152.932 54.4124 153.421 56.6929L165.489 113.007C165.823 114.57 165.733 116.194 165.228 117.71L153.042 154.267C152.738 155.179 152.583 156.134 152.583 157.096V171.297C152.583 175.002 155.587 178.005 159.292 178.005V178.005C162.997 178.005 166 181.009 166 184.714V184.714C166 188.419 162.997 191.422 159.292 191.422H110.097C106.392 191.422 103.389 188.419 103.389 184.714V184.714C103.389 181.009 106.392 178.005 110.097 178.005H110.611C115.72 178.005 119.214 172.845 117.316 168.101L113.735 159.149C112.839 156.908 112.886 154.4 113.866 152.195L127.861 120.706C129.297 117.476 132.5 115.394 136.035 115.394H137.17C144.038 115.394 148.344 122.814 144.936 128.776L134.694 146.7" stroke="#000033" stroke-width="8.94444" stroke-linecap="round"/>
<path fill-rule="evenodd" clip-rule="evenodd" d="M74.6097 59.7826C73.8152 63.6633 72.2813 67.3665 70.099 70.6724C72.2813 73.9783 73.8152 77.6815 74.6097 81.5623C78.4905 82.3568 82.1937 83.8907 85.4996 86.073C88.8055 83.8907 92.5086 82.3568 96.3894 81.5623C97.1839 77.6815 98.7178 73.9783 100.9 70.6724C98.7178 67.3665 97.1839 63.6633 96.3894 59.7826C92.5086 58.9881 88.8055 57.4542 85.4996 55.2718C82.1937 57.4542 78.4905 58.9881 74.6097 59.7826ZM94.0148 32.2137C91.4094 23.8624 79.5897 23.8624 76.9843 32.2137C75.3261 37.5289 69.2573 40.0427 64.3263 37.4568C56.5788 33.3938 48.221 41.7516 52.2839 49.4992C54.8699 54.4301 52.3561 60.499 47.0408 62.1572C38.6895 64.7625 38.6895 76.5823 47.0408 79.1877C52.3561 80.8459 54.8699 86.9147 52.2839 91.8457C48.221 99.5932 56.5788 107.951 64.3263 103.888C69.2573 101.302 75.3261 103.816 76.9843 109.131C79.5897 117.482 91.4094 117.482 94.0148 109.131C95.673 103.816 101.742 101.302 106.673 103.888C114.42 107.951 122.778 99.5932 118.715 91.8457C116.129 86.9147 118.643 80.8459 123.958 79.1877C132.31 76.5823 132.31 64.7625 123.958 62.1572C118.643 60.499 116.129 54.4301 118.715 49.4992C122.778 41.7516 114.42 33.3938 106.673 37.4568C101.742 40.0427 95.673 37.5289 94.0148 32.2137Z" fill="#357080"/>
</svg>
