<svg width="199" height="203" viewBox="0 0 199 203" fill="none" xmlns="http://www.w3.org/2000/svg">
<path d="M58 0.950195L61.2951 17.6551L78 20.9502L61.2951 24.2453L58 40.9502L54.7049 24.2453L38 20.9502L54.7049 17.6551L58 0.950195Z" fill="#357080"/>
<path d="M95.5 15.9502L97.5594 26.3907L108 28.4502L97.5594 30.5096L95.5 40.9502L93.4406 30.5096L83 28.4502L93.4406 26.3907L95.5 15.9502Z" fill="#357080"/>
<path d="M18 30.9502L19.6476 39.3026L28 40.9502L19.6476 42.5978L18 50.9502L16.3524 42.5978L8 40.9502L16.3524 39.3026L18 30.9502Z" fill="#000033"/>
<path d="M18 117.303H63.8182M18 101.95H62.1818M18 131.95H72" stroke="#000033" stroke-width="6.92593"/>
<path d="M136.288 134.831L193 191.543M149.136 103.814C149.136 79.5889 129.497 59.9502 105.271 59.9502C81.0459 59.9502 61.4072 79.5889 61.4072 103.814C61.4072 128.04 81.0459 147.679 105.271 147.679C129.497 147.679 149.136 128.04 149.136 103.814Z" stroke="#357080" stroke-width="11" stroke-linecap="round"/>
<path d="M113.352 165.571V193.274C113.352 195.187 111.801 196.737 109.889 196.737H9.46296C7.55042 196.737 6 195.187 6 193.274V63.4132C6 61.5006 7.55042 59.9502 9.46296 59.9502H61.4074" stroke="#000033" stroke-width="11" stroke-linecap="round"/>
<path d="M81.0041 103.716H85.9801C86.3112 103.716 86.6025 103.637 86.8541 103.478C87.1124 103.312 87.311 103.081 87.45 102.783C87.5891 102.485 87.6619 102.137 87.6686 101.74C87.6686 101.349 87.599 101.005 87.46 100.707C87.3209 100.409 87.1223 100.181 86.864 100.022C86.6124 99.8561 86.3178 99.7733 85.9801 99.7733H81.0041V97.4989H86.0496C86.864 97.4989 87.5792 97.6743 88.195 98.0253C88.8108 98.3762 89.2875 98.8728 89.6252 99.5151C89.9695 100.157 90.1417 100.899 90.1417 101.74C90.1417 102.587 89.9695 103.332 89.6252 103.975C89.2875 104.617 88.8074 105.114 88.185 105.464C87.5692 105.815 86.8574 105.991 86.0496 105.991H81.0041V103.716ZM80.0208 97.4989H82.3946V111.95H80.0208V97.4989ZM84.4903 105.544L86.9534 105.087L90.7475 111.95H87.897L84.4903 105.544ZM95.6143 111.95H93.1909V97.5088H95.6143V111.95ZM103.332 112.099C102.636 112.099 101.968 112.033 101.325 111.901C100.69 111.761 100.09 111.56 99.5276 111.295C98.9714 111.03 98.4615 110.702 97.998 110.311L99.2594 108.414C99.8156 108.884 100.438 109.242 101.127 109.487C101.822 109.725 102.557 109.845 103.332 109.845C104.298 109.845 105.047 109.672 105.576 109.328C106.113 108.984 106.381 108.497 106.381 107.868V107.858C106.381 107.414 106.262 107.064 106.023 106.805C105.785 106.54 105.474 106.348 105.09 106.229C104.706 106.103 104.212 105.988 103.61 105.882C103.59 105.875 103.57 105.872 103.55 105.872C103.53 105.872 103.51 105.868 103.491 105.862L103.312 105.832C102.345 105.673 101.55 105.484 100.928 105.266C100.306 105.047 99.7759 104.657 99.3389 104.094C98.9019 103.531 98.6834 102.733 98.6834 101.7V101.69C98.6834 100.776 98.8886 99.9951 99.2992 99.3462C99.7097 98.6973 100.306 98.204 101.087 97.8663C101.868 97.5286 102.809 97.3598 103.908 97.3598C104.424 97.3598 104.941 97.4194 105.457 97.5386C105.98 97.6511 106.49 97.82 106.987 98.0451C107.49 98.2636 107.977 98.5384 108.447 98.8695L107.295 100.826C106.738 100.429 106.172 100.128 105.596 99.9223C105.02 99.717 104.457 99.6144 103.908 99.6144C102.994 99.6144 102.285 99.7833 101.782 100.121C101.286 100.452 101.037 100.922 101.037 101.531V101.541C101.037 101.998 101.166 102.359 101.425 102.624C101.683 102.889 102.004 103.084 102.388 103.21C102.779 103.329 103.322 103.458 104.017 103.597C104.043 103.604 104.067 103.61 104.086 103.617C104.113 103.617 104.139 103.62 104.166 103.627C104.199 103.634 104.235 103.64 104.275 103.647C104.315 103.654 104.351 103.66 104.384 103.667C105.278 103.846 106.023 104.061 106.619 104.312C107.222 104.564 107.725 104.968 108.129 105.524C108.533 106.08 108.735 106.838 108.735 107.799V107.818C108.735 108.719 108.523 109.49 108.099 110.133C107.675 110.775 107.06 111.265 106.252 111.603C105.444 111.934 104.471 112.099 103.332 112.099ZM115.856 112.099C114.81 112.099 113.899 111.884 113.125 111.454C112.357 111.017 111.764 110.394 111.347 109.586C110.936 108.779 110.731 107.822 110.731 106.716V102.753C110.731 101.647 110.936 100.69 111.347 99.8826C111.764 99.0748 112.357 98.4523 113.125 98.0153C113.899 97.5783 114.81 97.3598 115.856 97.3598C116.724 97.3598 117.508 97.5452 118.21 97.916C118.919 98.2868 119.505 98.8231 119.968 99.525C120.438 100.22 120.759 101.045 120.931 101.998H118.488C118.369 101.535 118.18 101.131 117.922 100.786C117.664 100.435 117.356 100.167 116.998 99.9819C116.647 99.7965 116.267 99.7038 115.856 99.7038C115.307 99.7038 114.83 99.8296 114.426 100.081C114.029 100.326 113.721 100.677 113.502 101.134C113.284 101.591 113.174 102.131 113.174 102.753V106.716C113.174 107.338 113.284 107.878 113.502 108.335C113.721 108.792 114.029 109.143 114.426 109.388C114.83 109.633 115.307 109.755 115.856 109.755C116.273 109.755 116.657 109.666 117.008 109.487C117.366 109.308 117.674 109.047 117.932 108.702C118.19 108.358 118.376 107.944 118.488 107.461H120.931C120.753 108.414 120.428 109.242 119.958 109.944C119.495 110.639 118.909 111.172 118.2 111.543C117.498 111.914 116.717 112.099 115.856 112.099ZM128.103 112.099C127.076 112.099 126.172 111.881 125.391 111.444C124.61 111 124.004 110.378 123.573 109.576C123.143 108.769 122.928 107.835 122.928 106.776V102.683C122.928 101.624 123.143 100.694 123.573 99.8925C124.004 99.0847 124.61 98.4623 125.391 98.0253C126.172 97.5816 127.076 97.3598 128.103 97.3598C129.129 97.3598 130.033 97.5816 130.814 98.0253C131.595 98.4623 132.201 99.0847 132.632 99.8925C133.062 100.694 133.277 101.624 133.277 102.683V106.776C133.277 107.835 133.062 108.769 132.632 109.576C132.201 110.378 131.595 111 130.814 111.444C130.033 111.881 129.129 112.099 128.103 112.099ZM128.103 109.745C128.645 109.745 129.122 109.626 129.533 109.388C129.95 109.149 130.271 108.812 130.496 108.375C130.721 107.931 130.834 107.421 130.834 106.845V102.614C130.834 102.038 130.721 101.531 130.496 101.094C130.271 100.651 129.95 100.31 129.533 100.071C129.122 99.8329 128.645 99.7137 128.103 99.7137C127.56 99.7137 127.08 99.8329 126.662 100.071C126.252 100.31 125.934 100.651 125.709 101.094C125.484 101.531 125.371 102.038 125.371 102.614V106.845C125.371 107.421 125.484 107.931 125.709 108.375C125.934 108.812 126.252 109.149 126.662 109.388C127.08 109.626 127.56 109.745 128.103 109.745Z" fill="#A17246"/>
</svg>
