<svg width="1049" height="945" viewBox="0 0 1049 945" fill="none" xmlns="http://www.w3.org/2000/svg">
<path d="M90.9462 834.858H163.787L127.576 715.479L90.9462 834.858ZM90.5739 664.49H171.886L261.296 940.661H196.135L177.285 879.269H77.4951L58.5984 940.708H0L90.5739 664.49ZM297.088 940.708H352.568V647.136H297.088V940.708ZM395.714 842.182V839.103C395.714 773.792 442.35 734.046 499.785 734.046C546.422 734.046 589.615 754.526 594.595 812.419H541.814C537.951 788.907 523.662 778.084 500.949 778.084C472.045 778.084 452.776 799.684 452.776 838.31V841.436C452.776 882.022 470.882 902.828 502.113 902.828C524.453 902.828 542.605 889.719 545.258 863.828H595.758C592.64 911.738 557.965 945 499.413 945C440.442 945 395.714 908.239 395.714 842.182ZM780.629 841.016V838.31C780.629 799.684 762.477 776.498 731.293 776.498C700.481 776.498 681.957 798.891 681.957 837.564V840.643C681.957 879.269 699.69 902.455 731.293 902.455C762.477 902.455 780.629 879.269 780.629 841.016ZM624.941 841.809V838.73C624.941 775.379 670.787 734.046 731.293 734.046C791.8 734.046 837.273 774.632 837.273 837.564V840.643C837.273 904.367 791.428 944.953 730.921 944.953C670.787 944.953 624.941 904.787 624.941 841.809ZM993.892 870.033V853.005H972.343C939.948 853.005 921.052 860.003 921.052 881.602C921.052 896.297 929.895 905.953 950.374 905.953C975.042 905.953 993.892 892.425 993.892 870.033ZM866.363 884.681C866.363 837.564 909.509 819.837 971.179 819.837H993.892V811.673C993.892 787.741 986.585 774.586 961.126 774.586C939.157 774.586 929.15 785.782 926.87 803.182H873.996C877.487 755.272 915.234 734.046 964.57 734.046C1013.91 734.046 1049 754.106 1049 808.967V940.708H994.637V916.357C983.094 932.591 965.315 944.953 933.758 944.953C897.128 944.953 866.27 927.226 866.27 884.681M545.77 373.064L406.14 205.122H685.401L545.77 373.064ZM700.9 186.602L545.77 0L235.511 373.204L390.641 559.806L545.77 373.204L700.9 559.806L856.03 373.204L700.9 186.602Z" fill="#1A5490"/>
</svg>
