<svg width="1049" height="293" viewBox="0 0 1049 293" fill="none" xmlns="http://www.w3.org/2000/svg">
<path d="M152.08 227.595L136.347 180.223H51.9169L35.1357 227.595H0L92.6463 0H100.862L186.866 227.595H152.08ZM95.6179 58.909L60.4823 157.673H128.306L95.6179 58.909ZM242.978 220.428V292.622H211.688V68.1737H242.978V81.4588C254.34 70.7957 269.898 65.0272 286.155 65.202C308.355 63.9784 329.856 71.8445 344.889 86.7029C360.097 104.533 367.613 126.733 365.865 149.283C366.914 170.959 359.398 192.285 344.714 209.241C329.506 225.323 306.782 233.888 283.533 232.49C275.317 232.49 267.276 231.266 259.41 228.819C253.117 227.595 247.348 224.623 242.978 220.428ZM242.978 102.785V196.655C246.299 200.151 250.495 202.948 255.389 204.346C261.158 206.793 267.625 208.017 273.918 208.017C313.074 208.017 332.478 187.915 332.478 147.884C334.051 131.802 329.156 115.72 318.668 102.785C306.781 92.4715 290.7 87.2273 274.268 88.6258C268.499 88.9754 263.08 90.3738 258.011 92.8211C252.417 95.0935 247.173 98.4148 242.803 102.261M393.135 87.2273H374.256V63.6287H393.31V28.1435L422.327 16.2568V63.6287H467.427V87.2273H422.677V171.133C421.803 181.796 424.25 192.46 429.669 201.375C435.437 208.017 444.003 211.338 452.743 210.29C460.784 210.115 468.65 208.192 475.817 204.521L480.013 230.742C467.077 234.063 453.617 235.636 440.332 235.461C427.746 235.636 415.685 230.217 407.469 220.603C398.379 210.29 393.484 196.83 394.009 183.02L393.135 87.2273ZM595.558 213.611C582.448 228.994 562.87 237.035 542.942 235.461C530.531 235.636 518.644 230.567 510.079 221.477C500.989 212.387 495.92 199.976 496.095 187.041C496.095 170.259 504.136 154.527 517.595 144.738C533.328 132.676 552.731 126.733 572.309 127.432C579.301 127.607 586.294 128.831 592.761 131.278C592.761 104.708 581.049 91.4226 557.8 91.4226C542.592 90.199 527.734 95.4431 516.547 105.757L504.485 81.284C511.302 76.0399 518.994 72.1942 527.21 69.7469C536.125 66.6004 545.389 65.0272 554.654 64.8524C573.183 63.1043 591.538 69.0477 605.697 81.1092C617.583 95.6179 623.352 114.147 621.604 132.851V191.76C620.031 202.948 625.1 214.135 634.365 220.603V235.287C625.275 235.811 616.36 234.063 608.144 230.217C602.026 226.721 597.656 220.778 595.558 213.611ZM592.936 151.905C586.818 150.332 580.35 149.283 574.057 148.933C561.297 148.409 548.711 152.604 538.572 160.47C530.007 166.763 524.937 176.727 524.937 187.39C524.937 204.346 534.726 212.912 554.654 212.912C570.037 212.387 584.196 204.696 593.111 191.935V151.905H592.936ZM752.358 97.366C746.939 93.1707 740.296 90.8982 733.479 90.7234C722.99 91.073 713.027 96.3172 706.908 105.232C699.217 115.196 695.197 127.607 695.546 140.368V235.811H666.878V68.1737H695.546V94.9187C703.937 76.3895 722.116 64.6776 741.869 65.0272C749.561 65.202 757.077 66.2508 764.419 67.8241L752.358 97.366Z" fill="#474747"/>
<path d="M924.714 169.211C917.023 169.211 916.848 167.463 924.714 165.366L1035.89 135.299C1043.58 132.677 1048.65 125.86 1049 118.168V23.4246C1049 16.0828 1044.28 13.8103 1038.16 18.7049L784.347 227.072C778.403 231.966 779.976 235.812 787.668 235.812H1034.84C1038.51 235.812 1042.18 234.413 1044.8 231.791C1047.43 229.344 1049 225.848 1049 222.352V184.245C1048.65 176.903 1042.53 171.134 1035.02 170.959L924.714 169.211Z" fill="#559C8B"/>
</svg>
