<svg width="1049" height="613" viewBox="0 0 1049 613" fill="none" xmlns="http://www.w3.org/2000/svg">
<path d="M796.361 84.5776C791.24 82.7112 787.069 78.8866 784.767 73.9454C782.466 69.0041 782.221 63.3508 784.087 58.2292C785.954 53.1076 789.778 48.9372 794.72 46.6354C799.661 44.3337 805.314 44.0891 810.436 45.9555C805.138 44.0284 799.513 43.1635 793.881 43.4103C788.25 43.6571 782.722 45.0107 777.613 47.3939C772.505 49.7771 767.915 53.1432 764.108 57.2999C760.3 61.4567 757.348 66.3227 755.421 71.6202C753.494 76.9177 752.629 82.5429 752.876 88.1746C753.123 93.8063 754.476 99.3343 756.859 104.443C759.243 109.551 762.609 114.141 766.765 117.948C770.922 121.756 775.788 124.708 781.086 126.635L991.94 203.345L810.436 269.417C805.138 271.344 799.513 272.209 793.881 271.962C788.25 271.715 782.722 270.361 777.613 267.978C772.505 265.595 767.915 262.229 764.108 258.072C760.3 253.915 757.348 249.049 755.421 243.752C753.494 238.454 752.629 232.829 752.876 227.197C753.123 221.566 754.476 216.038 756.859 210.929C759.243 205.821 762.609 201.231 766.765 197.424C770.922 193.616 775.788 190.664 781.086 188.737C764.81 194.655 751.551 206.796 744.227 222.489C736.903 238.182 736.112 256.142 742.03 272.418C747.948 288.694 760.089 301.953 775.782 309.277C791.475 316.601 809.435 317.392 825.711 311.474L1023.76 239.399C1031.15 236.713 1037.55 231.816 1042.06 225.371C1046.58 218.927 1049 211.248 1049 203.379C1049 195.51 1046.58 187.831 1042.06 181.387C1037.55 174.942 1031.15 170.044 1023.76 167.358L796.361 84.5776Z" fill="#018374"/>
<path d="M991.936 111.927L810.432 45.9555C805.134 44.0283 799.509 43.1635 793.877 43.4103C788.246 43.6571 782.718 45.0107 777.609 47.3939C772.501 49.7771 767.911 53.1431 764.104 57.2999C760.296 61.4566 757.344 66.3227 755.417 71.6202C753.49 76.9176 752.625 82.5428 752.872 88.1746C753.119 93.8063 754.472 99.3343 756.855 104.443C759.239 109.551 762.605 114.141 766.762 117.948C770.918 121.756 775.784 124.708 781.082 126.635C764.81 120.717 751.556 108.578 744.235 92.8879C736.914 77.1978 736.125 59.2419 742.043 42.9704C747.961 26.699 760.1 13.4447 775.79 6.12348C791.48 -1.19775 809.436 -1.98624 825.707 3.93147L1023.75 76.006C1031.15 78.6919 1037.54 83.5899 1042.06 90.0343C1046.57 96.4788 1049 104.157 1049 112.027C1049 119.896 1046.57 127.574 1042.06 134.019C1037.54 140.463 1031.15 145.361 1023.75 148.047L796.357 230.828C791.236 232.694 787.065 236.519 784.763 241.46C782.462 246.401 782.217 252.055 784.083 257.176C785.95 262.298 789.774 266.468 794.716 268.77C799.657 271.072 805.31 271.316 810.432 269.45C805.134 271.377 799.509 272.242 793.877 271.995C788.246 271.748 782.718 270.395 777.609 268.011C772.501 265.628 767.911 262.262 764.104 258.105C760.296 253.949 757.344 249.083 755.417 243.785C753.49 238.488 752.625 232.863 752.872 227.231C753.119 221.599 754.472 216.071 756.855 210.962C759.239 205.854 762.605 201.265 766.762 197.457C770.918 193.649 775.784 190.698 781.082 188.77L991.936 112.06" fill="#02BC94"/>
<path d="M284.629 315.375H250.01V299.4H248.942C244.226 305.935 237.967 311.203 230.722 314.735C223.478 318.267 215.472 319.954 207.419 319.645C182.671 319.645 149.385 299.633 149.385 251.472C149.385 210.482 177.601 184.401 210.087 184.401C217.734 184.134 225.322 185.833 232.125 189.337C238.928 192.841 244.719 198.031 248.942 204.412H250.01V187.736H284.629V315.375ZM218.692 288.493C235.735 288.493 250.643 273.585 250.643 252.006C250.643 229.66 236.802 215.018 218.958 215.018C196.612 215.018 185.973 233.395 185.973 251.706C185.973 270.016 196.245 288.493 218.692 288.493ZM355.203 262.945L346.932 270.917V315.375H310.911V123.699H346.832V230.994L387.288 187.869H430.946L379.85 240.299L438.817 315.375H395.459L355.203 262.945ZM664.013 218.653C658.394 217.593 652.688 217.057 646.97 217.053C625.691 217.053 615.018 230.394 615.018 253.24V315.375H579.098V187.869H614.251V207.58H615.018C618.586 200.716 623.925 194.932 630.481 190.827C637.038 186.721 644.573 184.445 652.306 184.234C656.237 184.116 660.168 184.475 664.013 185.301V218.653ZM559.987 250.605C560.06 253.805 559.881 257.005 559.453 260.177H464.699C464.855 268.861 468.392 277.141 474.558 283.258C480.724 289.374 489.033 292.844 497.718 292.929C502.768 293.114 507.779 291.981 512.258 289.642C516.738 287.302 520.531 283.838 523.266 279.588L552.916 290.394C542.91 307.071 525.2 319.811 497.451 319.811C459.363 319.811 429.579 292.129 429.579 250.605C429.579 214.118 453.526 183.5 495.05 183.5C537.107 183.6 559.987 215.018 559.987 250.705V250.605ZM464.966 235.697H524.6C523.751 228.384 520.245 221.638 514.747 216.741C509.25 211.845 502.145 209.14 494.783 209.14C487.421 209.14 480.316 211.845 474.818 216.741C469.321 221.638 465.814 228.384 464.966 235.697ZM0 133.838H62.7025C100.224 133.838 125.505 149.014 125.505 179.631C125.505 199.843 110.863 213.417 93.0198 217.686V218.22C120.702 221.955 135.077 241.567 135.077 263.212C135.077 296.565 107.928 315.375 71.7076 315.375H0V133.838ZM60.8348 162.321H35.9539V206.246H62.1689C79.979 206.246 87.9836 197.441 87.9836 183.333C87.9836 169.759 77.8445 162.321 60.8348 162.321ZM66.4046 234.196H35.9539V286.626H68.0055C86.6495 286.626 96.7553 276.787 96.7553 259.944C96.7553 244.835 85.8491 234.196 66.4046 234.196ZM107.962 466.762H37.9217V543.939H0V362.402H38.0551V433.743H108.095V362.402H146.017V543.939H107.962V466.762ZM289.232 543.939H253.545V527.964H252.744C248.832 534.317 243.319 539.532 236.757 543.085C230.196 546.638 222.816 548.405 215.356 548.208C194.611 548.208 169.03 535.434 169.03 492.043V416.433H204.984V487.507C204.984 506.151 213.755 516.257 227.597 516.257C243.306 516.257 253.145 505.351 253.145 484.072V416.433H289.099L289.232 543.939ZM443.02 539.97C443.02 587.331 421.708 612.378 374.614 612.378C343.696 612.378 321.784 597.77 313.379 573.256L346.398 561.249C349.066 573.49 358.105 583.095 376.749 583.095C398.294 583.095 409.467 569.521 409.467 544.74V528.497H408.8C403.901 534.507 397.671 539.295 390.604 542.484C383.537 545.673 375.825 547.176 368.077 546.874C335.091 546.874 308.043 521.06 308.043 479.803C308.043 441.481 334.424 412.464 369.811 412.464C377.35 412.236 384.827 413.892 391.565 417.281C398.303 420.671 404.089 425.687 408.4 431.875H409.734V416.433H443.287L443.02 539.97ZM376.749 515.49C394.559 515.49 409.201 500.848 409.201 479.836C409.201 457.99 395.092 443.615 377.015 443.615C355.436 443.615 344.263 461.726 344.263 479.569C344.263 497.413 354.369 515.49 376.749 515.49ZM468.234 352.33H504.188V432.376H505.255C509.215 426.052 514.764 420.877 521.347 417.366C527.931 413.854 535.319 412.13 542.777 412.364C571.26 412.364 591.205 431.242 591.205 470.664V543.839H555.284V472.865C555.284 453.988 546.245 444.116 531.337 444.116C515.628 444.116 504.188 455.055 504.188 476.601V543.939H468.234V352.33ZM738.089 479.302C738.163 482.502 737.984 485.703 737.555 488.875H642.801C642.956 497.553 646.489 505.828 652.648 511.943C658.807 518.059 667.107 521.533 675.786 521.627C680.841 521.81 685.856 520.677 690.341 518.338C694.825 516 698.625 512.535 701.368 508.286L731.018 519.058C721.012 535.735 703.302 548.475 675.519 548.475C637.464 548.475 607.647 520.793 607.647 479.269C607.647 442.782 631.628 412.197 673.151 412.197C715.209 412.097 738.089 443.582 738.089 479.269V479.302ZM643.068 464.394H702.702C701.853 457.081 698.347 450.335 692.849 445.439C687.352 440.542 680.246 437.837 672.885 437.837C665.523 437.837 658.418 440.542 652.92 445.439C647.423 450.335 643.916 457.081 643.068 464.394ZM812.364 450.786C811.564 441.748 805.694 436.411 797.723 436.411C789.184 436.411 784.682 442.014 784.682 447.584C784.682 454.788 788.651 459.291 810.23 466.762C837.112 475.534 846.917 489.108 846.917 507.485C846.917 530.832 829.107 548.475 797.689 548.475C765.204 548.475 749.762 531.432 748.428 506.685H780.646C781.447 516.69 786.783 523.995 798.49 523.995C800.359 524.137 802.237 523.892 804.007 523.274C805.777 522.656 807.401 521.68 808.775 520.405C810.15 519.131 811.246 517.586 811.996 515.868C812.746 514.149 813.132 512.295 813.131 510.42C813.131 501.615 806.995 496.312 787.817 489.908C763.87 482.204 751.363 470.231 751.363 450.252C751.363 427.373 770.007 412.197 797.422 412.197C825.638 412.197 841.347 428.407 844.116 450.786H812.364Z" fill="#05322B"/>
</svg>
