<svg width="511" height="511" viewBox="0 0 511 511" fill="none" xmlns="http://www.w3.org/2000/svg">
<path d="M510.327 239.363C502.259 106.234 391.318 0 255.5 0C119.681 0 8.7403 106.234 0.671875 239.363C0.671875 244.742 1.34424 250.121 2.01661 255.5C7.39556 299.876 24.2048 340.891 49.7548 375.182C96.1482 438.384 170.781 479.399 255.5 479.399C137.163 479.399 40.3416 387.284 32.2732 271.637C31.6008 266.258 31.6008 260.879 31.6008 255.5C31.6008 250.121 31.6008 244.742 32.2732 239.363C40.3416 123.716 137.163 31.6013 255.5 31.6013C340.218 31.6013 414.851 72.6158 461.244 135.818C486.794 170.109 503.604 211.124 508.983 255.5C509.655 260.879 510.327 266.258 510.327 270.965C510.327 265.586 511 260.207 511 254.828C511 250.121 511 244.742 510.327 239.363Z" fill="#89D329"/>
<path d="M0.672369 271.637C8.74079 404.766 119.682 511 255.5 511C391.319 511 502.259 404.766 510.328 271.637C510.328 266.258 509.655 260.879 508.983 255.5C503.604 211.124 486.795 170.11 461.245 135.819C414.852 72.6161 340.219 31.6016 255.5 31.6016C373.837 31.6016 470.658 123.716 478.727 239.363C479.399 244.742 479.399 250.121 479.399 255.5C479.399 260.879 479.399 266.258 478.727 271.637C470.658 387.957 373.837 479.399 255.5 479.399C170.782 479.399 96.1487 438.385 49.7553 375.182C24.2053 340.891 7.39606 299.877 2.01711 255.5C1.34474 250.121 0.672369 244.742 0.672369 240.036C0.672369 245.415 0 250.794 0 256.173C0 260.879 4.80916e-08 266.258 0.672369 271.637Z" fill="#00BCFF"/>
<path d="M223.898 49.083V119.682H272.981C285.084 119.682 294.497 110.269 294.497 98.166C294.497 92.1147 291.808 86.7354 287.773 82.7012C290.463 79.3394 292.48 74.6328 293.152 69.9262C293.152 58.496 283.739 49.083 272.309 49.083H223.898ZM240.035 63.8751H269.619C272.981 63.8751 275.671 66.5644 275.671 69.9262C275.671 73.2881 272.981 75.9774 269.619 75.9774H240.035V63.8751ZM240.035 90.7695H270.292C274.326 90.7695 277.016 93.4591 277.016 97.4933C277.016 101.528 274.326 104.217 270.292 104.217H240.035V90.7695Z" fill="#10384F"/>
<path d="M247.43 133.129L212.467 203.728H230.621L236 191.625H275.67L281.049 203.728H299.202L263.567 133.129H247.43ZM255.499 151.283L267.601 176.833H243.396L255.499 151.283Z" fill="#10384F"/>
<path d="M279.706 219.193H299.877L264.242 264.914V289.792H247.432V264.914L211.797 219.193H231.968L256.173 251.467L279.706 219.193Z" fill="#10384F"/>
<path d="M395.352 219.191V289.79H412.161V262.896H424.936L445.107 289.79H465.278L444.435 262.223C453.175 259.534 459.899 251.466 459.899 241.38C459.899 229.277 450.486 219.191 438.383 219.191H395.352ZM412.833 233.983H437.039C440.401 233.983 443.763 237.345 443.763 240.707C443.763 244.069 441.073 247.431 437.039 247.431H412.833V233.983Z" fill="#10384F"/>
<path d="M51.7715 219.191V289.79H100.854C112.957 289.79 122.37 280.377 122.37 268.274C122.37 262.223 119.681 256.844 115.647 252.81C118.336 249.448 120.353 244.741 121.025 240.035C121.025 228.604 111.612 219.191 100.182 219.191H51.7715ZM67.9079 233.983H97.492C100.854 233.983 103.544 236.673 103.544 240.035C103.544 243.396 100.854 246.086 97.492 246.086H67.9079V233.983ZM67.9079 260.878H98.1647C102.199 260.878 104.889 263.567 104.889 267.602C104.889 271.636 102.199 274.326 98.1647 274.326H67.9079V260.878Z" fill="#10384F"/>
<path d="M167.421 219.191L132.457 289.79H150.612L155.99 277.688H195.66L201.039 289.79H219.192L183.557 219.191H167.421ZM175.489 237.346L187.591 262.896H163.387L175.489 237.346Z" fill="#10384F"/>
<path d="M373.164 219.193V234.369H326.098V246.245H371.819V261.421H326.098V274.617H373.164V289.792H309.289V219.193H373.164Z" fill="#10384F"/>
<path d="M223.227 392.664V463.263H240.036V436.369H252.811L272.982 463.263H293.153L272.31 435.696C281.05 433.006 287.774 424.938 287.774 414.853C287.774 402.75 278.361 392.664 266.258 392.664H223.227ZM240.708 407.456H264.914C268.276 407.456 271.638 410.818 271.638 414.18C271.638 417.542 268.948 420.904 264.914 420.904H240.708V407.456Z" fill="#10384F"/>
<path d="M287.773 305.099V320.274H240.708V332.151H286.429V347.326H240.708V360.522H287.773V375.698H223.898V305.099H287.773Z" fill="#10384F"/>
</svg>
