<svg width="640" height="293" viewBox="0 0 640 293" fill="none" xmlns="http://www.w3.org/2000/svg">
<g filter="url(#filter0_d_421_490)">
<path d="M498.782 33.4551H99.4058C68.2931 33.4551 52.7367 33.4551 43.0712 43.1206C33.4058 52.786 33.4058 68.3424 33.4058 99.4551V171.237C33.4058 202.35 33.4058 217.906 43.0712 227.572C52.7367 237.237 68.2931 237.237 99.4058 237.237H543.267C548.648 237.237 553.01 241.599 553.01 246.98C553.01 254.154 558.826 259.97 566 259.97H580.005C586.511 259.97 589.764 259.97 592.425 259.22C599.125 257.332 604.362 252.095 606.25 245.395C607 242.734 607 239.481 607 232.975V230.104C607 226.273 607 224.357 606.738 222.755C605.352 214.275 598.705 207.627 590.225 206.242C588.623 205.98 586.707 205.98 582.875 205.98C580.002 205.98 578.565 205.98 577.363 205.784C571.003 204.744 566.018 199.759 564.978 193.399C564.782 192.197 564.782 190.76 564.782 187.886V99.4551C564.782 68.3424 564.782 52.786 555.117 43.1206C545.451 33.4551 529.895 33.4551 498.782 33.4551Z" fill="white"/>
</g>
<defs>
<filter id="filter0_d_421_490" x="0.405762" y="0.455078" width="639.594" height="292.515" filterUnits="userSpaceOnUse" color-interpolation-filters="sRGB">
<feFlood flood-opacity="0" result="BackgroundImageFix"/>
<feColorMatrix in="SourceAlpha" type="matrix" values="0 0 0 0 0 0 0 0 0 0 0 0 0 0 0 0 0 0 127 0" result="hardAlpha"/>
<feOffset/>
<feGaussianBlur stdDeviation="16.5"/>
<feComposite in2="hardAlpha" operator="out"/>
<feColorMatrix type="matrix" values="0 0 0 0 0 0 0 0 0 0 0 0 0 0 0 0 0 0 0.13 0"/>
<feBlend mode="normal" in2="BackgroundImageFix" result="effect1_dropShadow_421_490"/>
<feBlend mode="normal" in="SourceGraphic" in2="effect1_dropShadow_421_490" result="shape"/>
</filter>
</defs>
</svg>
