<svg width="648" height="318" viewBox="0 0 648 318" fill="none" xmlns="http://www.w3.org/2000/svg">
<path d="M73.8236 0H43.2406C37.596 0 33.0201 4.59534 33.0201 10.264V36.4884C33.0201 42.157 37.596 46.7523 43.2406 46.7523H72.8015C77.8817 46.7523 82 42.6165 82 37.5148V8.21118C82 3.67627 78.3393 0 73.8236 0Z" fill="#D0AB87"/>
<path d="M21.4238 50.9019H3.06615C1.37276 50.9019 0 52.2805 0 53.9811V71.6139C0 73.3145 1.37276 74.6931 3.06615 74.6931H21.4238C23.1172 74.6931 24.4899 73.3145 24.4899 71.6139V53.9811C24.4899 52.2806 23.1172 50.9019 21.4238 50.9019Z" fill="#D0AB87"/>
<g filter="url(#filter0_d_381_309)">
<path d="M506.782 58.4554H107.406C76.2931 58.4554 60.7367 58.4554 51.0712 68.1209C41.4058 77.7864 41.4058 93.3427 41.4058 124.455V196.238C41.4058 227.35 41.4058 242.907 51.0712 252.572C60.7367 262.238 76.2931 262.238 107.406 262.238H551.267C556.648 262.238 561.01 266.6 561.01 271.98C561.01 279.154 566.826 284.97 574 284.97H588.005C594.511 284.97 597.764 284.97 600.425 284.22C607.125 282.332 612.362 277.096 614.25 270.395C615 267.735 615 264.482 615 257.975V255.105C615 251.273 615 249.357 614.738 247.755C613.352 239.275 606.705 232.628 598.225 231.242C596.623 230.98 594.707 230.98 590.875 230.98C588.002 230.98 586.565 230.98 585.363 230.784C579.003 229.745 574.018 224.759 572.978 218.399C572.782 217.198 572.782 215.761 572.782 212.887V124.455C572.782 93.3427 572.782 77.7864 563.117 68.1209C553.451 58.4554 537.895 58.4554 506.782 58.4554Z" fill="white"/>
</g>
<defs>
<filter id="filter0_d_381_309" x="8.40576" y="25.4554" width="639.594" height="292.515" filterUnits="userSpaceOnUse" color-interpolation-filters="sRGB">
<feFlood flood-opacity="0" result="BackgroundImageFix"/>
<feColorMatrix in="SourceAlpha" type="matrix" values="0 0 0 0 0 0 0 0 0 0 0 0 0 0 0 0 0 0 127 0" result="hardAlpha"/>
<feOffset/>
<feGaussianBlur stdDeviation="16.5"/>
<feComposite in2="hardAlpha" operator="out"/>
<feColorMatrix type="matrix" values="0 0 0 0 0 0 0 0 0 0 0 0 0 0 0 0 0 0 0.13 0"/>
<feBlend mode="normal" in2="BackgroundImageFix" result="effect1_dropShadow_381_309"/>
<feBlend mode="normal" in="SourceGraphic" in2="effect1_dropShadow_381_309" result="shape"/>
</filter>
</defs>
</svg>
