<svg width="1050" height="504" viewBox="0 0 1050 504" fill="none" xmlns="http://www.w3.org/2000/svg">
<path d="M881.425 501.777C883.171 499.311 884.345 496.486 884.862 493.509L885.318 394.56C885.327 391.585 884.418 388.68 882.714 386.241H919.742L917.724 390.902C914.886 397.412 917.503 476.675 917.503 494.577C917.935 497.051 918.688 499.458 919.742 501.738L881.425 501.777ZM796.798 402.828C832.107 398.492 841.533 439.999 800.574 446.105L804.753 456.208C810.325 469.709 821.561 499.03 844.554 501.777C850.543 501.985 857.573 501.581 863.81 501.777H871.478C869.2 499.462 867.102 496.977 865.203 494.342C862.495 490.632 841.872 456.299 837.862 450.831C854.24 444.464 858.602 429.596 857.86 415.769C857.417 407.463 852.157 400.068 846.22 395.368C835.323 386.762 825.949 386.254 814.205 386.254L761.137 386.423C762.696 390.065 763.545 393.972 763.637 397.932L764.067 410.77C764.288 431.744 764.952 473.186 763.832 491.765C763.8 493.638 763.537 495.501 763.051 497.311C762.856 498.014 761.072 500.097 760.577 501.725H799.22C798.79 500.11 796.407 496.517 796.42 492.949L796.837 402.88L796.798 402.828ZM938.972 386.28H980.739C994.631 410.874 1010.08 433.372 1022.4 460.075C1023.25 461.911 1025.2 461.937 1025.34 460.869C1025.71 459.307 1025.34 401.513 1024.99 397.49C1024.74 393.652 1023.91 389.875 1022.54 386.28H1049C1047.69 389.466 1046.95 392.861 1046.84 396.305V501.62L1024.71 501.477C999.552 499.329 977.575 442.733 965.441 424.102L962.628 424.219L964.021 494.941C964.138 497.439 965.05 499.834 966.625 501.777H939.219C940.675 498.87 941.352 495.636 941.185 492.39L941.328 395.667C941.013 392.438 940.219 389.275 938.972 386.28ZM705.205 501.777C706.272 499.351 706.868 496.744 706.963 494.095V397.073C707.176 393.33 706.526 389.588 705.062 386.137H743.248C741.441 389.287 740.431 392.831 740.306 396.461L740.566 494.017C740.654 496.786 741.476 499.482 742.949 501.829L705.205 501.777ZM583.107 501.777C584.54 499.42 585.711 495.775 586.31 489.838L586.011 398.115C586.167 394.118 584.904 390.121 583.407 386.137H622.335C620.734 389.964 619.732 394.951 619.732 401.969L619.289 435.819C619.289 437.369 621.476 437.056 622.388 435.989L627.413 429.896C638.128 417.501 648.244 405.028 653.7 392.555C654.682 390.618 655.161 388.464 655.093 386.293H689.36L670.104 411.134L651.63 433.567C651.257 434.171 651.053 434.863 651.037 435.573C651.021 436.282 651.194 436.983 651.538 437.603C660.652 451.248 684.895 494.889 696.43 501.803H663.998C643.675 500.592 627.179 463.135 622.036 449.125C621.528 447.706 618.885 447.993 618.807 449.399L619.289 491.062C619.011 494.768 619.688 498.484 621.255 501.855L583.107 501.777Z" fill="#ED1C2E"/>
<path d="M467.078 501.774C468.474 498.717 469.265 495.419 469.408 492.061L469.486 394.883C469.196 391.895 468.31 388.996 466.882 386.355H504.196C502.827 389.072 501.921 391.998 501.514 395.013V480.33L523.986 480.708C534.871 480.89 540.716 479.302 549.401 476.06L546.406 501.696L467.104 501.774H467.078ZM418.462 501.774C420.209 499.308 421.383 496.483 421.9 493.506L422.355 394.557C422.364 391.582 421.455 388.677 419.751 386.238H456.779L454.761 390.899C451.923 397.409 454.54 476.672 454.54 494.574C454.972 497.048 455.725 499.455 456.779 501.735L418.462 501.774ZM405.196 386.915L405.13 411.574C396.472 406.366 376.422 399.14 367.061 406.835C365.762 407.915 364.699 409.252 363.94 410.762C363.18 412.272 362.74 413.922 362.648 415.61C362.648 422.602 372.451 426.703 377.542 429.163C387.385 433.929 395.769 436.22 403.92 443.967C409.765 449.539 414.244 458.288 414.244 467.037C414.244 478.495 410.338 488.624 401.133 495.759C386.708 506.916 349.055 503.701 332.872 496.826L331.687 472.089C343.47 484.21 391.577 491.618 382.463 465.071C379.313 457.103 352.245 450.75 343.561 441.35C332.82 430.531 328.146 405.455 343.561 393.698C351.034 387.996 359.458 385.131 373.024 384.649C385.64 384.207 392.84 385.34 405.248 386.902L405.196 386.915ZM263.1 417.146L251.135 451.401H276.341L263.1 417.146ZM206.738 501.774C209.154 500.822 211.215 499.143 212.636 496.969L246.721 398.945C247.079 394.703 246.785 390.43 245.849 386.277L287.069 386.199L287.485 392.37C300.323 426.599 312.561 460.97 327.325 494.6L331.843 501.774H289.569C289.829 489.08 288.709 480.448 281.757 468.717H246.409L238.467 494.756C238.199 497.075 238.199 499.416 238.467 501.735L206.738 501.774ZM137.2 402.825C172.51 398.489 181.936 439.996 140.976 446.102L145.155 456.205C150.728 469.706 161.964 499.027 184.956 501.774C190.945 501.982 197.976 501.578 204.212 501.774H211.881C209.599 499.462 207.501 496.977 205.605 494.339C202.897 490.629 182.274 456.296 178.264 450.828C194.643 444.461 199.004 429.593 198.262 415.766C197.82 407.46 192.56 400.065 186.623 395.365C175.725 386.759 166.351 386.251 154.608 386.251L101.553 386.407C103.112 390.049 103.96 393.956 104.053 397.916L104.482 410.754C104.704 431.728 105.354 473.17 104.248 491.749C104.215 493.622 103.953 495.485 103.467 497.295C103.271 497.998 101.488 500.081 100.993 501.709H139.622C139.205 500.094 136.823 496.501 136.836 492.933L137.252 402.864L137.2 402.825ZM34.3457 448.875L34.4759 484.249L47.7428 484.158C56.8565 483.768 63.9001 479.614 63.6397 466.699C63.9782 456.153 57.4424 449.773 47.4043 448.914H34.3847L34.3457 448.875ZM34.3457 403.788V433.903C38.4468 433.903 46.3367 434.254 50.49 432.835C54.6432 431.416 61.2571 427.914 61.1139 416.847C61.0098 409.777 54.7213 403.827 49.3963 403.827H34.2936L34.3457 403.788ZM0 501.774C0.494744 500.042 0.872312 498.584 1.11968 497.399C1.36706 496.214 1.60141 494.795 1.7967 493.337C1.992 491.879 2.20031 489.366 2.3956 485.968C2.5909 482.57 2.69505 479.784 2.69505 477.622V475.227L3.31999 413.774V411.431L3.16376 406.887C3.11585 403.04 2.86814 399.199 2.42164 395.378C2.30447 394.518 2.31749 393.633 2.12219 392.774C1.62745 390.704 0.95043 387.774 0.650979 386.147L42.3137 386.082L65.2932 386.329C71.0999 387.108 76.5528 389.565 80.9821 393.4C85.4113 397.235 88.6241 402.28 90.2257 407.915C91.6188 414.868 90.2257 422.888 86.6974 427.77C83.794 432.366 78.8857 435.283 74.0554 437.561C87.1922 441.141 95.5247 449.5 96.7485 464.993C96.9499 472.953 94.7594 480.79 90.4601 487.491C87.2723 492.545 82.4608 496.365 76.8156 498.323C70.8916 500.537 67.142 501.63 60.9968 501.852C58.0543 501.956 51.6096 502.073 42.4178 502.021L0 501.774Z" fill="#00A652"/>
<path fill-rule="evenodd" clip-rule="evenodd" d="M473.978 158.12C496.111 182.688 505.472 208.896 485.448 240.651C479.004 249.197 470.492 255.963 460.711 260.311C454.275 262.842 448.328 266.472 443.135 271.039C440.075 275.004 437.662 279.429 435.987 284.149C432.394 296.036 433.63 307.207 440.752 317.506L437.784 317.584C434.268 318.196 439.88 321.932 443.213 322.427C443.746 327.005 445.789 331.275 449.02 334.561C449.801 338.571 454.227 341.787 457.886 343.675L461.57 343.974C460.529 347.789 466.492 349.351 470.033 346.695C471.114 349.885 479.642 350.758 482.805 346.695L487.831 346.995C490.801 347.288 493.792 347.288 496.762 346.995C499.103 346.715 501.359 345.953 503.389 344.756C517.19 337.23 525.067 325.864 524.403 309.538C524.403 308.444 525.366 308.691 525.379 309.798C525.601 317.61 525.041 325.122 520.901 331.801C520.08 333.481 521.317 334.757 522.541 333.728C529.572 325.461 534.259 317.037 534.897 306.777L539.818 275.934C540.652 268.974 539.99 261.917 537.878 255.233L534.754 245.403C535.93 242.885 536.143 240.022 535.352 237.357C530.605 222.068 523.354 207.673 513.896 194.757C508.75 187.269 503.026 180.195 496.775 173.6L485.448 163.184L495.864 180.11C490.246 171.26 482.775 163.735 473.965 158.055L473.978 158.12ZM504.444 189.106C507.712 192.609 509.496 194.418 511.279 198.988C511.943 200.42 513.349 200.394 512.581 198.298C510.682 194.349 508.124 190.752 505.017 187.661C504.171 186.945 503.025 187.44 504.392 189.106H504.444ZM498.416 339.235C497.335 339.99 497.478 341.318 499.184 340.68C511.631 334.952 518.206 323.755 519.534 306.96C519.469 305.319 518.114 305.554 517.88 307.441C516.799 323.299 510.628 334.106 498.416 339.235Z" fill="#219C8F"/>
<path fill-rule="evenodd" clip-rule="evenodd" d="M514.937 138.84C523.217 174.657 544.777 194.095 587.703 196.36C601.335 195.761 609.693 187.741 619.197 182.13C625.434 178.445 629.496 175.451 638.349 173.563C643.557 172.43 650.457 173.719 655.782 175.217C669.284 179.604 675.624 182.703 682.902 195.788C685.623 196.92 683.084 193.848 682.434 192.468C682.733 191.296 686.795 197.089 688.644 199.042C689.295 199.993 688.188 200.553 687.472 200.344C685.728 199.693 686.691 199.98 687.056 201.373C689.659 203.625 692.563 208.729 694.49 213.481C697.745 211.658 699.58 218.35 696.221 219.067C699.45 222.347 699.737 227.946 699.086 232.412C701.338 235.016 699.463 237.502 695.948 240.041C696.443 242.905 695.596 244.897 693.695 246.173C691.43 250.079 690.284 254.272 685.259 257.761L682.577 264.075C680.871 266.966 678.541 268.111 676.275 270.585C674.443 272.536 672.226 274.088 669.765 275.142C654.311 279.347 638.518 278.787 623.233 269.804C620.486 268.632 620.63 269.309 623.728 271.614C630.928 276.821 644.833 279.855 653.816 280.389C656.59 280.298 657.202 282.68 653.322 283.761C640.914 284.802 623.559 284.047 613.521 278.058L581.297 263.867C573.486 259.453 567.405 254.454 563.239 248.79L556.131 239.677C553.022 239.14 550.213 237.493 548.228 235.042C537.128 220.968 528.483 205.122 522.657 188.171C519.08 178.696 516.276 168.948 514.273 159.02L512.033 142.095L519.845 168.42C514.637 156.468 514.637 149.177 514.976 138.866L514.937 138.84ZM526.303 186.531C527.305 190.031 528.875 193.343 530.951 196.334C532.253 198.027 531.823 199.029 530.052 197.024C527.709 193.6 526.993 191.712 525.053 186.479C524.701 185.294 525.456 184.487 526.355 186.479L526.303 186.531ZM672.122 263.411C673.554 262.917 674.296 263.607 672.565 264.713C658.959 271.145 646.929 274.178 630.303 265.768C628.832 264.674 629.704 263.581 631.605 264.583C646.539 272.603 658.634 269.96 672.109 263.398L672.122 263.411Z" fill="#ED1C2E"/>
<path fill-rule="evenodd" clip-rule="evenodd" d="M507.101 128.228C527.372 139.138 543.139 140.141 564.752 122.942C570.858 116.432 572.095 109.428 573.865 102.527C575.05 97.9965 574.972 94.7806 578.214 89.8722C580.456 86.6661 583.382 83.9979 586.781 82.0605C594.137 78.5452 597.965 77.2693 608.758 79.066C613.77 78.8447 613.601 77.5167 614.473 79.9904C616.739 79.8472 620.345 81.6959 623.483 82.9588C624.147 80.6414 629.472 82.5552 628.235 84.417C631.295 84.417 633.664 88.5573 635.461 90.9268C637.726 91.044 637.948 92.5022 637.271 94.6114C638.859 95.692 638.104 95.5228 637.818 96.9809C638.625 99.8062 640.044 102.189 639.341 106.095L639.679 110.599C640.239 112.696 641.177 113.581 641.307 115.807C641.182 117.569 640.69 119.286 639.862 120.846C634.068 129.725 632.271 135.636 620.892 138.552C619.33 139.203 619.59 140.44 621.504 140.271C627.311 138.8 630.11 136.365 634.524 132.459C635.826 131.157 637.127 131.808 635.826 134.087C630.514 140.245 622.806 146.312 615.359 148.187L594.606 156.793C589.237 158.284 583.607 158.586 578.11 157.678H572.42C570.845 158.98 567.134 158.186 565.324 157.991C554.102 156.845 546.147 153.798 534.689 148.565C524.925 144.919 498.143 124.661 507.036 128.254L507.101 128.228ZM533.075 143.851C535.228 144.946 537.546 145.68 539.936 146.026C541.121 146.52 541.394 147.458 539.624 147.328C536.981 146.868 534.416 146.035 532.007 144.854C531.369 144.333 531.708 143.279 533.075 143.812V143.851ZM635.357 114.583C635.786 113.698 637.023 113.815 636.75 115.13C633.417 124.244 629.225 131.157 617.481 134.959C616.27 135.141 615.958 133.657 617.325 133.175C628.092 129.92 632.141 123.697 635.357 114.583Z" fill="#26ABE0"/>
<path fill-rule="evenodd" clip-rule="evenodd" d="M519.612 174.723C498.156 152.889 494.12 133.633 507.778 102.725C513.48 92.1658 527.463 86.7887 535.327 81.659C540.535 78.2869 547.865 78.1958 552.695 71.9855C555.547 68.366 556.796 64.6294 557.734 59.7731C558.762 48.9538 562.069 49.6829 556.51 36.1426C557.109 34.3719 557.63 36.455 557.734 34.9578C558.007 30.8306 554.466 24.1775 554.323 29.2031C552.831 24.6877 550.586 20.4573 547.683 16.6913C550.287 14.8816 541.173 4.12739 539.363 6.48393C538.152 2.57805 533.309 0.586058 528.414 2.16143C527.385 -0.702881 526.513 -0.44249 524.156 1.32817C522.203 -0.286254 518.05 0.351705 516.345 1.32817C512.439 1.44535 511.397 -0.637783 506.84 1.86198L501.632 1.78386C498.807 1.90104 498.547 3.65868 495.813 4.38778C493.638 5.16895 492.089 7.68173 490.383 9.3222C481.725 20.4149 483.796 14.3347 479.122 30.1926C478.822 32.471 477.65 34.0073 477.494 31.0259C478.119 22.7584 480.098 17.6027 484.681 12.7984C487.506 9.29616 480.176 11.9912 476.387 18.6442C470.802 28.0183 463.928 39.085 464.527 49.5918L463.498 78.4692C463.758 86.5804 464.292 95.3296 467.404 101.683L469.591 109.078C468.68 111.682 471.036 116.135 471.974 118.4C477.768 132.461 484.668 141.536 495.643 154.243C503.963 165.401 527.659 184.761 519.73 174.723H519.612ZM502.075 154.478C499.86 152.115 498.04 149.411 496.685 146.471C495.617 145.169 494.341 145.169 495.162 147.434C496.773 150.641 498.823 153.608 501.255 156.248C502.14 156.86 503.325 155.988 502.127 154.439L502.075 154.478ZM501.776 9.02275C502.7 8.09836 502.309 6.88754 500.799 7.72079C490.735 15.7409 483.874 23.9823 483.691 40.7385C483.939 42.3789 485.488 42.2097 485.488 40.2567C485.254 25.0108 491.659 16.8215 501.776 9.00973V9.02275Z" fill="#006636"/>
<path fill-rule="evenodd" clip-rule="evenodd" d="M352.259 252.5C378.637 256.758 387.959 251.198 406.108 226.357C412.448 216.97 409.714 205.187 407.983 196.178C406.902 190.592 406.03 182.924 408.504 176.154C412.175 166.011 424.348 159.775 434.126 158.187C436.313 153.994 442.862 153.369 441.625 156.702C445.116 155.503 448.822 155.059 452.497 155.4C452.679 152.471 466.467 155.57 465.516 158.147C469.032 157.21 469.318 159.098 470.347 163.733C472.951 163.173 473.836 165.035 473.601 167.639C475.698 168.42 478.171 171.05 478.223 172.847C479.877 175.932 481.934 175.828 482.129 180.658L484.525 184.707C485.71 186.999 483.574 188.04 484.278 190.553C484.668 192.649 484.134 193.496 483.666 195.618C480.671 201.802 481.322 205.018 474.669 212.153C473.094 213.806 473.536 215.056 475.854 213.103C481.609 207.205 481.934 204.862 483.913 201.568C485.215 197.662 486.751 204.94 483.47 211.111C479.106 219.967 473.03 227.87 465.594 234.364L443.279 250.105C435.727 251.823 431.236 256.94 425.208 257.917L418.112 259.531C416.602 261.471 413.086 261.185 410.964 261.523C397.775 263.645 387.529 263.242 372.96 260.625C360.8 259.323 341.114 251.042 352.259 252.526V252.5ZM384.235 257.109C387.011 257.733 389.872 257.883 392.698 257.552C394.169 257.773 394.729 258.789 392.698 259.219C389.554 259.499 386.386 259.311 383.298 258.659C382.451 258.255 382.556 256.901 384.261 257.109H384.235ZM478.158 186.413C478.432 185.241 479.369 185.007 479.382 186.621C477.898 198.417 478.562 205.2 466.037 213.285C464.735 213.871 464.514 212.804 466.037 211.879C477.195 204.523 476.531 197.948 478.21 186.413H478.158Z" fill="#FAA61A"/>
<path fill-rule="evenodd" clip-rule="evenodd" d="M358.377 112.643C378.466 135.896 408.594 127.98 415.546 107.162C416.848 103.256 420.598 99.7928 425.441 97.5534C432.68 94.1943 441.156 96.4467 447.145 100.613C447.21 97.1498 451.311 98.6601 452.353 103.347C454.261 104.001 455.936 105.201 457.17 106.797C458.797 105.378 465.203 114.609 463.354 115.507C465.711 116.809 465.62 118.827 463.745 121.744C464.119 121.931 464.438 122.214 464.667 122.564C464.897 122.914 465.03 123.318 465.052 123.736C465.075 124.155 464.986 124.571 464.795 124.944C464.604 125.316 464.318 125.632 463.966 125.858C464.274 126.624 464.376 127.457 464.262 128.275C464.148 129.093 463.821 129.867 463.315 130.519C462.586 132.954 464.292 133.956 461.883 136.521L460.893 139.971C460.321 141.755 458.289 140.791 457.378 142.445C456.738 143.484 455.841 144.34 454.774 144.932C449.957 146.598 448.72 149.15 441.481 149.436C439.776 149.436 439.359 150.348 441.611 150.53C445.185 150.792 448.756 150 451.884 148.252C455.79 145.648 454.423 150.27 446.676 152.913C439.658 154.319 433.331 155.66 425.675 155.517C418.724 155.741 411.781 154.862 405.104 152.913C400.235 149.957 395.184 150.309 391.486 147.705L386.89 144.906C385.093 145.14 383.375 143.213 382.073 142.302C374.001 136.677 367.751 131.482 361.45 122.772C355.695 115.924 353.26 106.159 358.364 112.604L358.377 112.643ZM369.574 126.821C370.718 128.605 372.153 130.185 373.818 131.495C374.482 132.368 374.925 132.706 373.61 131.873C371.815 130.419 370.244 128.708 368.949 126.795C368.702 126.157 368.793 125.845 369.574 126.795V126.821ZM456.493 138.669C457.248 138.201 458.159 137.81 457.326 138.669C450.387 144.007 447.197 147.783 436.351 145.635C435.336 145.244 436.091 145.114 437.354 145.387C447.093 147.275 450.751 143.434 456.493 138.695V138.669Z" fill="#00A652"/>
</svg>
