<svg width="1049" height="500" viewBox="0 0 1049 500" fill="none" xmlns="http://www.w3.org/2000/svg">
<path fill-rule="evenodd" clip-rule="evenodd" d="M246.635 353.811C294.208 335.959 340.566 311.529 381.205 279.323C344.753 265.337 310.365 246.135 279.199 222.996C270.515 268.212 259.388 312.703 246.635 353.811Z" fill="#E51E15"/>
<path fill-rule="evenodd" clip-rule="evenodd" d="M400.049 182.697C379.534 161.026 363.564 134.185 352.326 105.062C332.382 102.933 313.991 99.4664 296.607 94.4258C293.482 136.42 287.444 180.036 279.197 222.99C319.735 217.411 360.583 204.209 400.049 182.697Z" fill="#F49200"/>
<path fill-rule="evenodd" clip-rule="evenodd" d="M279.197 222.993C310.364 246.137 344.752 265.334 381.204 279.32C404.273 261.03 425.497 240.233 444.054 216.705C427.625 207.888 412.941 196.313 400.049 182.695C360.583 204.207 319.735 217.409 279.197 222.993Z" fill="#EA590E"/>
<path fill-rule="evenodd" clip-rule="evenodd" d="M279.192 222.991C255.158 205.148 233.038 184.954 213.377 162.994C197.86 182.788 180.344 201.404 161.584 217.881C199.407 226.58 239.15 228.506 279.192 222.991Z" fill="#E74013"/>
<path fill-rule="evenodd" clip-rule="evenodd" d="M189.918 492.085C246.085 506.007 303.457 499.564 353.345 476.793C326.19 474.009 298.907 468.467 271.986 460.594C246.17 473.278 218.759 483.93 189.918 492.085Z" fill="#00378B"/>
<path fill-rule="evenodd" clip-rule="evenodd" d="M116.512 387.213C135.245 429.127 159.786 465.723 189.918 492.084C198.543 476.791 207.002 459.403 215.158 440.36C180.615 425.852 147.347 407.807 116.512 387.213Z" fill="#00378B"/>
<path fill-rule="evenodd" clip-rule="evenodd" d="M189.918 492.083C218.759 483.927 246.17 473.275 271.986 460.591C252.795 454.98 233.79 448.184 215.158 440.359C207.003 459.402 198.543 476.79 189.918 492.083Z" fill="#005DA9"/>
<path fill-rule="evenodd" clip-rule="evenodd" d="M246.635 353.809C270.424 383.689 296.033 410.381 322.489 432.01C356.578 410.002 387.131 384.415 413.678 356.657C362.6 369.864 304.151 368.274 246.635 353.809Z" fill="#7E1C7E"/>
<path fill-rule="evenodd" clip-rule="evenodd" d="M81.1855 270.375C88.5731 311.158 100.393 351.147 116.512 387.21C158.592 380.959 203.12 370.136 246.634 353.809C187.481 338.922 129.319 310.422 81.1855 270.375Z" fill="#7E1C7E"/>
<path fill-rule="evenodd" clip-rule="evenodd" d="M246.634 353.81C214.065 312.888 184.888 265.986 161.584 217.885C136.408 239.994 109.002 258.258 81.1855 270.376C129.319 310.424 187.481 338.928 246.634 353.81Z" fill="#B5151E"/>
<path fill-rule="evenodd" clip-rule="evenodd" d="M72.1816 182.529C72.8644 211.445 75.8834 241.112 81.1854 270.38C109.002 258.261 136.408 239.997 161.584 217.883C130.146 210.655 100.03 198.745 72.1816 182.529Z" fill="#DC0018"/>
<path fill-rule="evenodd" clip-rule="evenodd" d="M279.192 222.993C239.15 228.508 199.407 226.582 161.584 217.883C184.888 265.99 214.059 312.897 246.634 353.808C259.387 312.705 270.514 268.214 279.198 222.993H279.192Z" fill="#CD051B"/>
<path fill-rule="evenodd" clip-rule="evenodd" d="M381.205 279.322C406.595 289.062 432.987 296.274 459.988 300.52C475.259 278.901 488.29 256.621 498.91 234.208C478.886 231.653 460.585 225.577 444.05 216.707C425.504 240.235 404.274 261.032 381.205 279.322Z" fill="#EE7105"/>
<path fill-rule="evenodd" clip-rule="evenodd" d="M81.1856 270.378C52.6169 246.61 27.5793 218.772 7.97165 187.307C-0.621355 220.436 -2.09353 254.034 2.7177 286.31C28.2034 287.798 54.8732 281.84 81.1856 270.378Z" fill="#92127C"/>
<path fill-rule="evenodd" clip-rule="evenodd" d="M81.1846 270.38C75.8827 241.112 72.8637 211.445 72.1809 182.529C54.5682 172.272 37.8569 160.297 22.2924 146.701C19.7054 152.435 17.3105 158.313 15.1182 164.33C12.3446 171.947 9.9656 179.617 7.9707 187.309C27.5783 218.774 52.6159 246.612 81.1846 270.38Z" fill="#C50C1C"/>
<path fill-rule="evenodd" clip-rule="evenodd" d="M2.7207 286.305C8.49738 325.024 23.3151 361.839 45.7498 393.672C68.035 392.968 91.8565 390.877 116.515 387.213C72.4942 357.812 33.4336 323.216 2.7207 286.305Z" fill="#004A99"/>
<path fill-rule="evenodd" clip-rule="evenodd" d="M81.1886 270.375C54.8762 281.832 28.201 287.796 2.7207 286.302C33.439 323.213 72.4942 357.809 116.515 387.21C100.396 351.147 88.5761 311.158 81.1886 270.375Z" fill="#023187"/>
<path fill-rule="evenodd" clip-rule="evenodd" d="M189.918 492.084C159.786 465.723 135.245 429.127 116.512 387.213C91.8475 390.877 68.0314 392.968 45.7461 393.672C74.0854 433.896 114.581 466.171 164.32 484.275C172.806 487.358 181.346 489.956 189.918 492.084Z" fill="#005DA9"/>
<path fill-rule="evenodd" clip-rule="evenodd" d="M271.986 460.598C298.901 468.465 326.19 474.007 353.345 476.792C360.199 473.661 366.909 470.226 373.46 466.492C356.29 457.333 339.216 445.689 322.488 432.008C306.422 442.382 289.578 451.957 271.986 460.598Z" fill="#004A99"/>
<path fill-rule="evenodd" clip-rule="evenodd" d="M413.678 356.66C441.244 349.534 466.655 338.103 488.615 322.059C490.417 316.127 491.986 310.18 493.324 304.216C482.128 303.496 471.007 302.259 459.987 300.525C446.306 319.888 430.826 338.727 413.678 356.66Z" fill="#DF3216"/>
<path fill-rule="evenodd" clip-rule="evenodd" d="M498.908 234.207C488.288 256.62 475.257 278.9 459.986 300.524C471.006 302.258 482.128 303.501 493.324 304.215C498.588 280.831 500.354 257.287 498.908 234.207Z" fill="#F49200"/>
<path fill-rule="evenodd" clip-rule="evenodd" d="M322.486 432.015C339.219 445.691 356.288 457.34 373.458 466.493C423.031 438.224 463.228 392.901 484.271 335.07C485.844 330.75 487.29 326.408 488.613 322.061C466.653 338.105 441.236 349.541 413.676 356.667C387.129 384.42 356.576 410.007 322.486 432.015Z" fill="#9B1E3D"/>
<path fill-rule="evenodd" clip-rule="evenodd" d="M296.611 94.4335C313.995 99.4741 332.386 102.936 352.33 105.064C341.177 76.1486 334.69 44.9823 333.064 14.4027C321.617 10.3436 310.069 7.16988 298.489 4.84961C299.646 33.2103 298.926 63.3791 296.611 94.4335Z" fill="#FAB000"/>
<path fill-rule="evenodd" clip-rule="evenodd" d="M296.607 94.4311C298.922 63.3768 299.642 33.2079 298.485 4.84722C292.462 3.64174 286.435 2.66029 280.402 1.9082C280.354 27.0685 273.714 54.3677 262.102 81.7576C273.25 86.7768 284.691 90.9747 296.607 94.4311Z" fill="#F69C00"/>
<path fill-rule="evenodd" clip-rule="evenodd" d="M72.1816 182.526C100.03 198.741 130.146 210.652 161.584 217.879C133.101 159.094 113.381 98.5213 106.927 44.9043C99.2514 50.2436 91.8692 56.0203 84.807 62.2183C75.3179 98.0892 71.1628 139.47 72.1816 182.526Z" fill="#E74013"/>
<path fill-rule="evenodd" clip-rule="evenodd" d="M213.377 162.994C177.501 122.942 149.78 77.0269 133.464 28.7812C124.305 33.5978 115.44 38.9798 106.922 44.9058C113.387 98.5228 133.101 159.095 161.584 217.881C180.344 201.404 197.861 182.789 213.377 162.994Z" fill="#EC650A"/>
<path fill-rule="evenodd" clip-rule="evenodd" d="M262.104 81.7585C229.311 66.9994 199.094 45.1355 166.957 14.1719C155.451 18.2257 144.255 23.1063 133.465 28.7816C149.781 77.0273 177.502 122.947 213.378 162.995C233.573 137.221 250.375 109.442 262.104 81.7585Z" fill="#F49200"/>
<path fill-rule="evenodd" clip-rule="evenodd" d="M352.326 105.062C363.565 134.186 379.535 161.026 400.049 182.698C424.244 169.513 447.927 153.207 470.692 133.621C465.774 124.243 460.259 115.17 454.178 106.476C415.518 108.444 382.18 108.247 352.326 105.062Z" fill="#F07C00"/>
<path fill-rule="evenodd" clip-rule="evenodd" d="M444.051 216.708C458.303 198.631 470.976 178.949 481.698 157.549C478.455 149.388 474.78 141.398 470.699 133.621C447.928 153.207 424.246 169.513 400.051 182.699C412.943 196.316 427.627 207.891 444.051 216.708Z" fill="#F49200"/>
<path fill-rule="evenodd" clip-rule="evenodd" d="M498.909 234.208C497.245 207.731 491.367 181.866 481.696 157.549C470.975 178.949 458.302 198.631 444.055 216.708C460.585 225.578 478.885 231.659 498.909 234.208Z" fill="#EA590E"/>
<path fill-rule="evenodd" clip-rule="evenodd" d="M279.194 222.992H279.199C287.44 180.038 293.484 136.428 296.609 94.4333C284.693 90.9768 273.252 86.779 262.104 81.7598C250.375 109.443 233.573 137.222 213.373 162.996C233.039 184.956 255.159 205.15 279.194 222.992Z" fill="#F07C00"/>
<path fill-rule="evenodd" clip-rule="evenodd" d="M246.634 353.809C236.958 384.991 226.344 414.226 215.158 440.357C233.79 448.182 252.795 454.978 271.986 460.589C289.572 451.959 306.422 442.379 322.488 432.01C296.032 410.381 270.423 383.689 246.634 353.809Z" fill="#00378B"/>
<path fill-rule="evenodd" clip-rule="evenodd" d="M246.634 353.809C203.119 370.131 158.591 380.958 116.512 387.21C147.347 407.804 180.615 425.849 215.158 440.357C226.349 414.232 236.958 384.991 246.634 353.809Z" fill="#9B0C7C"/>
<path fill-rule="evenodd" clip-rule="evenodd" d="M246.635 353.813C304.151 368.279 362.6 369.868 413.678 356.661C430.827 338.729 446.306 319.889 459.988 300.527C432.987 296.276 406.595 289.064 381.205 279.324C340.566 311.531 294.208 335.96 246.635 353.813Z" fill="#CD051B"/>
<path fill-rule="evenodd" clip-rule="evenodd" d="M84.807 62.2207C58.8306 85.0287 37.2814 113.517 22.293 146.7C37.8628 160.296 54.5688 172.271 72.1815 182.528C71.1627 139.472 75.3179 98.0916 84.807 62.2207Z" fill="#EC650A"/>
<path fill-rule="evenodd" clip-rule="evenodd" d="M454.173 106.47C425.807 65.8944 385.115 33.3359 335.061 15.1205C334.394 14.8751 333.727 14.6351 333.061 14.4004C334.687 44.9853 341.174 76.1463 352.327 105.062C382.181 108.246 415.518 108.443 454.173 106.47Z" fill="#FEC200"/>
<path fill-rule="evenodd" clip-rule="evenodd" d="M280.403 1.90917C241.497 -2.95007 202.725 1.5838 166.955 14.1719C199.092 45.1356 229.309 66.9995 262.108 81.7585C273.714 54.3687 280.355 27.0695 280.403 1.90917Z" fill="#FEC200"/>
<mask id="mask0_813_1060" style="mask-type:luminance" maskUnits="userSpaceOnUse" x="569" y="110" width="480" height="279">
<path d="M569.984 110.422H1049V388.983H569.984V110.422Z" fill="white"/>
</mask>
<g mask="url(#mask0_813_1060)">
<path fill-rule="evenodd" clip-rule="evenodd" d="M967.662 197.258C967.662 182.925 968.19 174.076 972.356 165.478C984.592 167.041 1008.06 169.991 1022.09 166.006C1047.42 158.773 1049.08 128.775 1048.76 111.61C1034.45 110.49 1016.89 110.784 999.18 113.392C951.265 120.161 915.848 155.056 915.848 211.841V387.872H967.662V254.016H1003.08C1027.52 254.016 1030.95 237.134 1030.95 212.097H967.662V197.258ZM829.64 299.595C829.64 283.967 829.64 268.349 833.299 258.7C844.485 260.017 861.212 261.255 871.314 258.188C896.955 250.421 896.576 221.671 896.576 205.024C881.993 204.059 868.269 204.736 852.566 207.147C808.768 213.862 777.821 247.253 777.821 304.033V387.872H829.64V299.595ZM694.744 342.822C652.558 353.756 622.875 331.364 622.875 290.223V254.016C631.996 248.549 641.624 244.906 655.945 244.906C705.951 244.906 715.84 298.038 694.744 342.822ZM670.528 201.936C651.774 201.936 634.332 208.977 622.875 216.257V112.106C602.296 111.84 580.171 121.729 570.783 130.077V289.439C570.783 354.54 611.679 388.4 663.237 388.4C714.539 388.4 756.73 346.465 756.73 289.967C756.73 243.861 724.428 201.936 670.528 201.936Z" fill="#1B1918"/>
</g>
</svg>
