<svg width="1049" height="410" viewBox="0 0 1049 410" fill="none" xmlns="http://www.w3.org/2000/svg">
<path d="M1049 96.8711H0.861328V401.225H1049V96.8711Z" fill="#0D1B3C"/>
<path d="M1049 394.029H0.861328V409.252H1049V394.029Z" fill="#B09246"/>
<path d="M1049 88.8145H0.861328V104.037H1049V88.8145Z" fill="#B09246"/>
<path d="M17.2509 377.642V378.81H1034.06V118.998H16.1035V378.81H17.2509V377.642H18.3982V121.293H1031.75V376.495H17.2509V377.642H18.3982H17.2509Z" fill="#B09246"/>
<path d="M192.834 296.321H151.735L151.161 301.484C150.874 303.205 148.58 317.875 135.057 317.875C122.416 317.875 115.798 296.895 115.798 255.222C115.798 211.827 122.416 190.847 136.205 190.847C150.28 190.847 152.595 200.333 154.89 215.556L156.037 222.748H189.945L188.798 154.931L170.973 154.071L168.965 156.079C168.965 156.079 167.244 158.087 163.208 158.66C160.053 159.234 158.045 158.373 156.017 157.226L153.722 156.366L152.862 156.079C149.993 154.931 143.662 152.637 131.882 152.637C121.535 152.637 69.2285 157.513 69.2285 254.382C69.2285 341.17 105.431 359.282 135.611 359.282C171.813 359.282 191.646 330.536 192.506 302.386L192.834 296.321Z" fill="black"/>
<path d="M334.533 316.441C331.091 306.095 302.059 196.032 301.772 194.864C301.772 194.577 299.19 185.665 304.64 182.509L308.369 180.215L302.325 159.521H232.481L226.436 180.501L230.452 182.796C235.615 185.665 233.034 194.864 233.034 194.864C232.747 196.011 202.854 307.242 199.699 317.589C197.118 326.788 191.361 326.788 188.492 326.788L193.082 350.923H244.814L250.859 329.943L246.556 327.648C245.982 327.361 244.261 326.214 244.261 322.485C244.261 321.625 244.261 320.764 244.548 319.617C244.548 319.617 248.564 302.366 250.018 296.055C256.636 296.055 277.903 296.055 284.213 296.055C285.648 302.386 289.376 319.617 289.376 319.617C289.663 320.764 289.663 321.625 289.663 322.485C289.663 326.214 287.655 327.361 287.369 327.648L283.353 329.943L284.5 334.532L289.09 350.923H340.823L345.699 327.648C344.019 327.075 337.975 326.501 334.533 316.441ZM259.238 257.804C260.672 250.899 263.828 237.684 267.864 220.72C271.879 237.684 274.768 250.899 276.202 257.804C270.158 257.804 265.262 257.804 259.238 257.804Z" fill="black"/>
<path d="M975.143 312.693V196.013V195.439C974.857 193.718 973.709 185.379 982.335 183.084L988.092 181.65L981.761 158.949H926.013L919.682 181.65L925.439 183.084C934.064 185.092 932.917 193.718 932.63 195.439V196.013V196.586V312.693C932.63 324.474 928.041 326.769 927.754 326.769L923.451 328.777L924.312 333.653L929.188 350.33H978.626L984.67 329.063L980.081 326.769C980.02 326.789 975.143 324.187 975.143 312.693Z" fill="black"/>
<path d="M510.139 183.37L515.896 181.935L509.565 159.234H458.119C458.119 159.234 438 197.179 430.809 210.394C423.904 197.179 403.498 159.234 403.498 159.234H352.052L345.721 181.935L351.478 183.37C360.39 185.664 359.817 194.29 359.817 196.011V196.298V312.692C359.817 324.472 354.059 326.767 353.773 326.767L348.896 328.775L350.044 333.938L354.92 350.615H405.792L411.836 329.349L407.247 327.054C407.247 327.054 402.371 324.472 402.371 312.978C402.371 312.978 402.371 265.261 402.371 239.692C412.431 256.943 430.829 288.27 430.829 288.27C430.829 288.27 449.227 256.943 459.287 239.692C459.287 265.261 459.287 312.978 459.287 312.978C459.287 324.759 454.698 327.054 454.411 327.054L450.108 329.062L450.969 333.938L455.845 350.615H506.718L513.048 328.775L507.885 326.767C507.599 326.767 501.841 324.472 501.841 312.692V196.298V196.011C501.514 194.29 501.227 185.377 510.139 183.37Z" fill="black"/>
<path d="M572.505 312.693C572.505 312.693 572.505 285.382 572.505 276.777C575.947 276.777 579.409 276.777 579.409 276.777C623.664 276.777 645.218 257.518 645.218 218.139C645.218 181.342 620.509 159.502 579.409 159.502L522.226 159.215L521.079 163.517L515.916 181.916L521.673 183.35C530.586 185.645 530.012 194.27 530.012 195.991V196.278V312.672C530.012 324.453 524.255 326.748 523.968 326.748L519.092 328.755L520.239 333.918L525.115 350.596H575.988L582.032 329.329L577.442 327.034C577.094 326.788 572.505 324.186 572.505 312.693ZM572.505 198.593C573.939 198.593 575.66 198.593 575.66 198.593C586.867 198.593 600.082 202.035 600.082 217.852C600.082 231.641 592.89 237.398 575.66 237.398C575.66 237.398 573.939 237.398 572.505 237.398C572.505 229.633 572.505 206.645 572.505 198.593Z" fill="black"/>
<path d="M902.427 311.831C902.427 311.831 887.778 273.6 884.602 265.855C900.706 256.943 909.024 240.573 909.024 216.704C909.024 180.788 885.176 159.521 845.511 159.521L785.152 159.234L784.005 163.537L778.842 181.935L784.599 183.37C793.511 185.664 792.938 194.29 792.938 196.011V196.298V312.692C792.938 324.472 787.181 326.767 786.894 326.767L782.017 328.775L783.165 333.938L788.041 350.615H838.913L844.957 329.349L840.368 327.054C840.368 327.054 835.492 324.472 835.492 312.978C835.492 312.978 835.492 283.086 835.492 274.46C837.5 274.46 838.073 274.46 839.794 274.46C842.376 280.791 871.695 350.902 871.695 350.902H917.957L922.547 329.922L916.789 328.488C916.216 327.935 908.184 325.927 902.427 311.831ZM842.069 235.389C842.069 235.389 838.627 235.389 835.451 235.389C835.451 227.624 835.451 205.784 835.451 198.019C838.606 198.019 842.069 198.019 842.069 198.019C852.702 198.019 865.056 201.174 865.056 216.704C865.056 230.206 858.746 235.389 842.069 235.389Z" fill="black"/>
<path d="M769.929 316.441C766.487 306.095 737.455 196.032 737.169 194.864C737.169 194.577 734.587 185.665 740.037 182.509L743.766 180.215L737.722 159.521H667.918L661.874 180.501L665.89 182.796C671.053 185.665 668.471 194.864 668.471 194.864C668.185 196.011 638.292 307.242 635.424 317.589C632.842 326.788 627.085 326.788 624.217 326.788L628.806 350.923H680.539L686.583 329.943L682.281 327.648C681.707 327.361 679.986 326.214 679.986 322.485C679.986 321.625 679.986 320.764 680.273 319.617C680.273 319.617 684.288 302.366 685.743 296.055C692.361 296.055 713.628 296.055 719.938 296.055C721.372 302.386 725.101 319.617 725.101 319.617C725.388 320.764 725.388 321.625 725.388 322.485C725.388 326.214 723.38 327.361 723.093 327.648L719.077 329.943L720.225 334.532L724.814 350.923H776.547L781.423 327.648C779.129 327.075 773.392 326.501 769.929 316.441ZM694.348 257.804C696.069 250.899 698.937 237.684 702.974 220.72C706.989 237.684 709.878 250.899 711.599 257.804C705.268 257.804 700.392 257.804 694.348 257.804Z" fill="black"/>
<path d="M1007.9 335.393C1007.33 332.525 1004.46 332.238 1002.14 332.238H996.98V346.314H999.562V340.27H1002.14L1005.01 346.314H1007.88L1004.73 339.983C1007.04 339.716 1008.47 337.709 1007.9 335.393ZM1001.88 338.856H999.583V334.267H1001.59C1003.31 334.267 1005.03 334.553 1005.32 336.561C1005.61 338.569 1003.6 338.856 1001.88 338.856Z" fill="#B09246"/>
<path d="M1001.88 327.362C995.26 327.076 989.523 333.12 989.523 339.717C989.523 346.621 995.281 352.358 1002.16 352.071C1009.07 351.784 1014.23 346.027 1014.23 339.43C1013.95 332.525 1008.48 327.076 1001.88 327.362ZM1001.88 350.35C996.121 350.35 991.244 345.474 991.244 339.717C991.244 333.96 996.121 328.797 1001.88 329.083C1007.92 329.083 1012.51 333.96 1012.51 340.004C1012.51 345.454 1007.61 350.35 1001.88 350.35Z" fill="#B09246"/>
<path d="M187.385 288.557H146.286L145.712 293.72C145.425 295.441 143.417 310.111 129.608 310.111C116.967 310.111 110.349 289.131 110.349 247.458C110.349 204.351 116.967 183.084 130.756 183.084C144.831 183.084 147.146 192.57 149.441 207.793L150.588 214.984H155.465H184.496L183.349 147.168L165.811 146.307L163.803 148.315C163.803 148.315 162.082 150.323 158.046 150.897C154.891 151.47 152.883 150.61 150.855 149.462L148.56 148.602L147.7 148.315C144.831 147.168 138.5 144.873 126.72 144.873C116.373 144.873 64.0664 149.749 64.0664 246.618C64.0664 333.406 100.269 351.518 130.448 351.518C166.364 351.518 186.484 322.773 187.344 294.622V288.557" fill="#B09246"/>
<path d="M329.349 308.678C325.907 298.331 296.875 188.268 296.588 187.1C296.588 186.813 294.007 177.901 299.457 174.746L303.185 172.451L297.141 151.758H227.297L221.253 172.738L225.269 175.032C230.432 177.901 227.85 187.1 227.85 187.1C227.563 188.247 197.671 299.478 194.516 309.825C191.934 319.024 186.177 319.024 183.309 319.024L187.898 343.159H239.631L245.675 322.179L241.372 319.885C240.799 319.598 239.078 318.45 239.078 314.722C239.078 313.861 239.078 313.001 239.365 311.853C239.365 311.853 243.38 294.602 244.528 288.292C251.145 288.292 272.412 288.292 278.722 288.292C280.157 294.623 283.886 311.853 283.886 311.853C284.172 313.001 284.172 313.861 284.172 314.722C284.172 318.45 282.165 319.598 281.878 319.885L277.862 322.179L279.009 326.769L283.599 343.159H335.332L340.208 319.885C338.548 319.311 332.812 318.737 329.349 308.678ZM253.768 250.04C255.202 243.136 258.357 229.921 262.393 212.956C266.409 229.921 269.298 243.136 271.019 250.04C264.688 250.04 259.812 250.04 253.768 250.04Z" fill="#B09246"/>
<path d="M976.864 175.604L982.621 174.17L976.29 151.469H920.542L914.211 174.17L919.968 175.604C928.594 177.612 927.446 186.237 927.16 187.958V188.532V304.926C927.16 316.707 922.57 319.001 922.283 319.288L917.981 321.296L918.841 326.172L923.718 342.85H973.156L979.2 321.583L974.61 319.288C974.61 319.288 970.021 316.707 970.021 304.926V188.532V187.958C969.386 185.951 968.525 177.612 976.864 175.604Z" fill="#B09246"/>
<path d="M504.669 175.604L510.426 174.17L504.095 151.469H452.649C452.649 151.469 432.529 189.413 425.625 202.628C418.434 189.413 398.314 151.469 398.314 151.469H346.868L340.537 174.17L346.294 175.604C355.207 177.899 354.633 186.524 354.633 188.245V188.532V304.926C354.633 316.707 348.876 319.001 348.589 319.001L343.713 320.722L344.86 325.885L349.736 342.563H400.609L406.653 321.296L402.063 319.001C402.063 319.001 397.187 316.42 397.187 304.639C397.187 304.639 397.187 256.922 397.187 231.353C407.247 248.604 425.645 279.93 425.645 279.93C425.645 279.93 444.044 248.604 454.104 231.353C454.104 256.922 454.104 304.639 454.104 304.639C454.104 316.42 449.227 318.715 449.227 319.001L444.925 321.009L445.785 325.885L450.662 342.563H501.534L507.865 320.722L502.702 318.715C502.415 318.715 496.658 316.42 496.658 304.639V188.245V187.958C496.33 186.524 495.756 177.612 504.669 175.604Z" fill="#B09246"/>
<path d="M567.034 304.659C567.034 304.659 567.034 277.348 567.034 268.743C570.476 268.743 573.938 268.743 573.938 268.743C618.193 268.743 639.747 249.484 639.747 210.106C639.747 173.309 615.038 151.468 573.938 151.468L516.756 151.182L515.608 155.484L510.445 173.883L516.203 175.317C525.115 177.612 524.541 186.237 524.541 187.958V188.245V304.639C524.541 316.42 518.784 318.714 518.497 318.714L513.621 320.435L514.768 325.598L519.645 342.276H570.517L576.561 321.009L571.972 318.714C571.931 319.022 567.034 316.44 567.034 304.659ZM567.034 190.847C568.468 190.847 570.189 190.847 570.189 190.847C581.396 190.847 594.324 194.289 594.324 210.106C594.324 223.895 587.42 229.652 570.189 229.652C570.189 229.652 568.468 229.652 567.034 229.652C567.034 221.887 567.034 198.878 567.034 190.847Z" fill="#B09246"/>
<path d="M897.263 304.065C897.263 304.065 882.327 265.834 879.438 258.09C895.542 249.177 903.86 232.807 903.86 208.938C903.86 173.022 880.012 151.756 840.347 151.756L779.988 151.469L778.841 155.771L773.678 174.17L779.435 175.604C788.347 177.899 787.774 186.524 787.774 188.245V188.532V304.926C787.774 316.707 782.016 319.001 781.73 319.001L776.853 320.722L778.001 325.885L782.877 342.563H833.749L839.793 321.296L835.204 319.001C835.204 319.001 830.328 316.42 830.328 304.639C830.328 304.639 830.328 274.747 830.328 266.121C832.336 266.121 832.909 266.121 834.63 266.121C837.212 272.452 866.531 342.563 866.531 342.563H912.506L917.383 321.583L911.625 320.436C911.052 320.169 902.713 318.161 897.263 304.065ZM836.618 227.624C836.618 227.624 833.176 227.624 830 227.624C830 219.859 830 198.018 830 190.253C833.155 190.253 836.618 190.253 836.618 190.253C847.251 190.253 859.606 193.408 859.606 208.938C859.606 222.461 853.275 227.624 836.618 227.624Z" fill="#B09246"/>
<path d="M764.478 308.678C761.036 298.331 732.004 188.268 731.717 187.1C731.717 186.813 729.136 177.901 734.586 174.746L738.314 172.451L732.27 151.758H662.426L656.382 172.738L660.397 175.032C665.561 177.901 662.979 187.1 662.979 187.1C662.692 188.247 632.8 299.478 629.645 309.825C627.063 319.024 621.306 319.024 618.438 319.024L623.027 343.159H674.76L680.804 322.179L676.501 319.885C675.928 319.598 674.207 318.45 674.207 314.722C674.207 313.861 674.207 313.001 674.493 311.853C674.493 311.853 678.509 294.602 679.964 288.292C686.582 288.292 707.848 288.292 714.159 288.292C715.593 294.623 719.629 311.853 719.629 311.853C719.916 313.001 719.916 313.861 719.916 314.722C719.916 318.45 717.908 319.598 717.621 319.885L713.606 322.179L714.753 326.769L719.342 343.159H771.075L775.951 319.885C773.677 319.311 767.92 318.737 764.478 308.678ZM688.897 250.04C690.331 243.136 693.486 229.921 697.522 212.956C701.251 229.921 704.427 243.136 705.861 250.04C700.104 250.04 694.92 250.04 688.897 250.04Z" fill="#B09246"/>
<path d="M129.607 315.869C110.348 315.869 104.611 286.838 104.611 247.459C104.611 208.081 109.774 177.328 130.754 177.328C151.734 177.328 153.168 195.153 155.463 209.228H178.451L177.59 152.619L167.817 152.045C167.817 152.045 164.949 155.487 158.618 156.348C152.287 157.208 148.845 154.627 146.264 153.766C143.682 152.906 138.499 150.324 126.431 150.324C114.364 150.324 69.5352 157.802 69.5352 246.312C69.5352 334.821 107.193 345.455 130.18 345.455C162.654 345.455 180.479 320.172 181.34 294.008H151.16C151.447 294.316 148.866 315.869 129.607 315.869Z" fill="white"/>
<path d="M324.76 314.414C321.318 303.78 290.852 188.534 290.852 188.534C290.852 188.534 287.123 175.319 296.322 169.561L292.88 157.207H231.661L228.219 169.561C237.705 174.725 233.689 188.534 233.689 188.534C233.689 188.534 203.223 303.78 199.781 314.414C196.339 325.047 190.582 323.9 190.582 323.9L193.45 337.115H235.984L239.426 324.76C239.426 324.76 231.948 321.318 234.263 310.398C234.837 307.53 237.418 296.609 240.594 282.226H283.988C287.143 296.589 289.745 307.222 290.319 310.398C292.614 321.318 285.156 324.76 285.156 324.76L288.598 337.115H331.132L333.713 323.9C333.959 323.9 328.202 325.047 324.76 314.414ZM246.597 255.797C252.641 229.94 258.951 201.769 262.414 187.386C265.856 201.749 272.187 229.92 278.231 255.797H246.597Z" fill="white"/>
<path d="M760.156 314.414C756.714 303.78 726.248 188.534 726.248 188.534C726.248 188.534 722.519 175.319 731.719 169.561L728.276 157.207H667.057L663.615 169.561C673.102 174.725 669.086 188.534 669.086 188.534C669.086 188.534 638.62 303.78 635.178 314.414C631.736 325.047 625.979 323.9 625.979 323.9L628.847 337.115H671.094L674.536 324.76C674.536 324.76 667.057 321.318 669.373 310.398C669.946 307.53 672.528 296.609 675.704 282.226H719.098C722.253 296.589 724.855 307.222 725.429 310.398C727.723 321.318 720.266 324.76 720.266 324.76L723.708 337.115H766.241L769.11 323.9C769.356 323.9 763.619 325.047 760.156 314.414ZM681.707 255.797C687.751 229.94 694.061 201.769 697.524 187.386C700.679 201.749 707.297 229.92 713.341 255.797H681.707Z" fill="white"/>
<path d="M964.218 304.66C964.218 287.982 964.218 188.553 964.218 188.553C964.218 188.553 961.35 173.33 975.712 169.581L972.27 156.939H925.147L921.705 169.581C936.067 173.31 933.199 188.553 933.199 188.553C933.199 188.553 933.199 287.982 933.199 304.66C933.199 321.337 924.86 324.206 924.86 324.206L928.302 336.847H969.094L972.823 324.206C972.27 324.185 964.218 321.317 964.218 304.66Z" fill="white"/>
<path d="M503.232 169.87L499.79 157.229H456.109L425.356 215.005L394.604 157.229H350.922L347.48 169.87C361.843 173.599 360.122 188.842 360.122 188.842C360.122 188.842 360.122 288.272 360.122 304.949C360.122 321.626 350.349 324.495 350.349 324.495L354.078 337.136H396.038L399.48 324.495C399.48 324.495 391.141 321.626 391.141 304.949C391.141 293.168 391.141 240.862 391.141 210.396L425.336 268.746L459.531 210.396C459.531 240.575 459.531 293.168 459.531 304.949C459.531 321.626 451.192 324.495 451.192 324.495L454.921 337.136H496.881L500.323 324.495C500.323 324.495 490.55 321.626 490.55 304.949C490.55 288.272 490.55 188.842 490.55 188.842C490.55 188.842 488.87 173.599 503.232 169.87Z" fill="white"/>
<path d="M573.939 157.515L521.346 157.229L517.617 169.87C531.979 173.599 530.258 188.842 530.258 188.842C530.258 188.842 530.258 288.272 530.258 304.949C530.258 321.626 520.486 324.495 520.486 324.495L523.928 337.136H566.174L569.616 324.495C569.616 324.495 561.278 321.626 561.278 304.949C561.278 298.905 561.278 282.248 561.278 263.276H573.919C607.253 263.276 633.991 252.642 633.991 210.396C634.277 172.738 607.274 157.515 573.939 157.515ZM570.19 235.391H561.278C561.278 219.574 561.278 198.594 561.278 185.093H570.19C586.868 185.093 600.369 192.284 600.369 210.088C600.369 230.495 586.868 235.391 570.19 235.391Z" fill="white"/>
<path d="M891.793 306.096C886.63 292.881 876.857 267.292 871.96 255.224C887.47 248.606 897.817 235.104 897.817 208.961C897.817 172.472 871.96 157.515 840.04 157.515L784.004 157.229L780.275 169.87C794.638 173.599 792.917 188.842 792.917 188.842C792.917 188.842 792.917 288.272 792.917 304.949C792.917 321.626 783.144 324.495 783.144 324.495L786.873 337.136H829.119L832.561 324.495C832.561 324.495 824.223 321.626 824.223 304.949C824.223 298.618 824.223 280.814 824.223 260.694H838.011L869.912 337.136H907.569L910.151 326.216C910.192 325.929 898.698 323.901 891.793 306.096ZM836.618 233.383H824.264C824.264 214.124 824.264 195.439 824.264 184.519H836.618C852.435 184.519 865.363 191.71 865.363 208.941C865.343 228.487 852.415 233.383 836.618 233.383Z" fill="white"/>
<path d="M395.462 29.6056V24.1352H415.581V41.6732C412.426 44.2547 409.251 45.9757 406.095 47.1436C402.94 48.2909 399.478 48.8646 396.036 48.8646C391.446 48.8646 387.123 48.0041 383.394 45.9962C379.665 43.9884 376.777 41.12 374.769 37.3706C372.761 33.6418 371.9 29.3187 371.9 24.7294C371.9 20.14 372.761 15.817 374.769 11.8013C376.777 7.78557 379.358 4.89671 383.107 2.88885C386.836 0.881003 390.873 0.0205083 395.462 0.0205083C398.904 0.0205083 402.08 0.594173 404.661 1.74152C407.529 2.88886 409.537 4.32305 411.279 6.3309C412.713 8.33875 414.147 10.9203 414.721 14.0959L408.964 15.5301C408.39 13.2354 407.243 11.2276 406.382 9.77292C405.235 8.33874 403.801 7.19141 401.793 6.61774C399.785 5.75723 397.777 5.47037 395.175 5.47037C392.307 5.47037 389.705 6.04406 387.697 6.90457C385.689 7.76508 383.968 8.91241 382.534 10.3466C381.1 11.7808 380.239 13.215 379.665 14.936C378.518 17.8043 377.944 20.98 377.944 24.422C377.944 28.7246 378.805 32.1871 380.239 35.0554C381.673 37.9238 383.681 39.9317 386.57 41.3863C389.459 42.841 392.327 43.3942 395.482 43.3942C398.064 43.3942 400.953 42.8205 403.534 41.96C406.116 40.8127 408.124 39.9521 409.291 38.518V29.6056H395.462ZM427.649 48.0041V0.881012H448.629C452.932 0.881012 456.107 1.16784 458.115 2.02835C460.41 2.88886 462.131 4.32305 463.278 6.61774C464.712 8.62559 465.286 11.2071 465.286 13.8091C465.286 17.2511 464.139 19.8531 462.131 22.1478C459.836 24.4425 456.66 25.8767 452.071 26.4504C453.792 27.3109 454.939 27.8845 455.8 28.7451C457.521 30.4661 459.242 32.4739 460.963 35.076L469.302 48.0041H461.537L455.206 38.2311C453.485 35.3628 451.764 33.3549 450.616 31.6134C449.469 30.1793 448.322 29.0319 447.461 28.4582C446.601 27.8845 445.453 27.3109 444.593 27.3109C444.019 27.024 442.872 27.024 441.151 27.024H433.959V48.0041H427.649ZM433.959 21.5742H447.461C450.329 21.5742 452.624 21.2873 454.079 20.7137C455.513 20.14 456.947 19.2795 457.808 17.8453C458.668 16.4111 458.955 15.2638 458.955 13.5428C458.955 11.2481 458.095 9.52705 456.66 8.07239C454.939 6.63821 452.358 5.77771 448.895 5.77771H433.959V21.5742ZM512.716 0.881012H519.047V28.1919C519.047 33.0681 518.474 36.8175 517.326 39.399C516.179 42.2673 514.458 44.562 511.569 46.3035C508.701 48.0245 504.951 48.885 500.649 48.885C496.346 48.885 492.597 48.0245 489.728 46.5904C486.86 45.1562 484.852 42.8615 483.684 39.9727C482.537 37.1043 481.963 33.0681 481.963 28.1919V0.881012H488.294V28.1919C488.294 32.2076 488.581 35.3833 489.442 37.3911C490.302 39.399 491.449 40.8332 493.457 41.9805C495.178 43.1278 497.473 43.4147 500.362 43.4147C504.951 43.4147 508.127 42.2673 510.135 40.2595C512.143 38.2516 513.003 34.2154 513.003 28.1919V0.881012H512.716ZM535.991 48.0041V0.881012H553.816C556.971 0.881012 559.286 1.16785 561.007 1.45468C563.302 1.74152 565.31 2.60202 566.764 3.74936C568.199 4.8967 569.633 6.33089 570.493 8.33874C571.354 10.3466 571.927 12.3544 571.927 14.6696C571.927 18.6853 570.78 22.1478 568.199 24.7294C565.617 27.5977 561.007 29.0319 554.41 29.0319H542.342V48.2909H536.011V48.0041H535.991ZM542.322 23.2952H554.389C558.405 23.2952 561.294 22.4347 563.015 21.0005C564.736 19.5663 565.597 17.2716 565.597 14.6696C565.597 12.6618 565.023 10.9407 564.162 9.50656C563.302 8.07238 561.868 7.21189 560.147 6.63821C558.999 6.35138 557.278 6.35138 554.389 6.35138H542.322V23.2952ZM586.577 48.0041V0.881012H604.401C607.557 0.881012 609.872 1.16785 611.593 1.45468C613.887 1.74152 615.895 2.60202 617.35 3.74936C618.784 4.8967 620.218 6.33089 621.079 8.33874C621.939 10.3466 622.513 12.3544 622.513 14.6696C622.513 18.6853 621.366 22.1478 618.784 24.7294C616.203 27.5977 611.593 29.0319 604.996 29.0319H592.928V48.2909H586.597V48.0041H586.577ZM592.907 23.2952H604.975C608.991 23.2952 611.88 22.4347 613.601 21.0005C615.322 19.5663 616.182 17.2716 616.182 14.6696C616.182 12.6618 615.608 10.9407 614.748 9.50656C613.887 8.07238 612.453 7.21189 610.732 6.63821C609.585 6.35138 607.864 6.35138 604.975 6.35138H592.907V23.2952ZM635.154 25.0162C635.154 17.2511 637.162 10.9408 641.485 6.61774C645.788 2.3152 651.258 0 657.876 0C662.178 0 666.214 1.14736 669.657 3.15521C673.099 5.16306 675.701 8.03141 677.708 11.7808C679.429 15.5096 680.577 19.8326 680.577 24.422C680.577 29.2982 679.716 33.6213 677.708 37.3502C675.701 41.079 673.119 43.9678 669.37 45.9757C665.928 47.9836 661.891 48.8441 657.876 48.8441C653.573 48.8441 649.537 47.6967 646.095 45.6889C642.653 43.681 640.051 40.5258 638.043 36.7765C636.302 33.0681 635.154 29.0319 635.154 25.0162ZM641.751 25.0162C641.751 30.7734 643.186 35.0759 646.341 38.518C649.496 41.6732 653.245 43.3942 657.835 43.3942C662.424 43.3942 666.46 41.6732 669.329 38.518C672.484 35.0759 673.918 30.4661 673.918 24.4425C673.918 20.7137 673.344 17.2511 671.91 14.3828C670.476 11.5144 668.755 9.21974 666.153 7.76508C663.551 6.31041 660.99 5.47037 657.814 5.47037C653.512 5.47037 649.476 6.90456 646.32 10.0598C643.186 12.9486 641.751 18.1117 641.751 25.0162Z" fill="black"/>
<path d="M701.826 31.0386H1048.43V28.457H701.826V31.0386ZM0 31.0386H352.357V28.457H0V31.0386Z" fill="#0D1B3C"/>
</svg>
