<svg width="1050" height="344" viewBox="0 0 1050 344" fill="none" xmlns="http://www.w3.org/2000/svg">
<path d="M402.925 299.786C363.983 274.658 310.961 270.231 225.35 293.985C134.226 315.526 103.831 329.054 64.0692 301.446C48.8819 287.919 43.348 266.091 47.2217 234.609C56.6087 183.514 82.5768 134.098 128.139 79.6823C153.553 51.2342 177.288 26.9263 208.502 16.9859C232.523 10.9191 230.31 29.6932 227.277 32.4601C224.243 32.4601 218.996 33.0135 215.123 35.4935C211.802 37.9735 202.969 45.9873 202.702 57.0345C202.149 73.595 219.263 70.2952 226.723 61.1746C234.737 50.9473 246.604 31.3534 237.217 12.8457C233.343 6.22562 226.723 1.79855 218.156 0.138399C189.441 -1.52175 162.92 12.0054 138.346 27.1927C84.5034 64.4744 41.6879 116.39 17.3799 172.999C3.29938 207.248 -9.40796 256.13 9.65305 295.892C24.287 323.499 54.9486 338.154 91.39 335.1C117.071 332.333 147.733 324.053 168.72 319.093C189.441 314.112 296.019 277.384 330.821 341.187C330.821 341.187 342.421 318.539 371.423 318.273C395.177 316.059 429.692 325.18 454.82 343.688C446.56 331.267 422.806 312.78 402.925 299.786Z" fill="#E61A27"/>
<path d="M236.397 86.3242C216.516 73.3504 176.467 98.1912 144.432 141.007C115.165 179.395 102.457 224.137 116.271 244.572C136.706 268.88 174.807 233.524 190.835 214.75L193.048 212.537C204.095 200.67 212.663 186.569 220.656 172.775C220.656 172.775 228.116 160.355 228.67 159.801C233.363 158.981 238.897 157.588 245.23 155.661C245.23 155.928 220.922 196.53 223.423 216.697C224.243 222.764 223.689 245.412 245.517 252.053C274.785 257.033 297.986 234.385 318.707 214.217C318.707 214.217 322.294 210.897 324.221 208.97C323.667 210.897 323.114 213.664 323.114 213.664C314.547 243.485 326.147 249.573 333.341 252.053C355.149 258.406 381.117 226.638 381.383 226.638C380.83 236.578 378.616 244.858 389.11 251.499C399.051 255.086 408.991 249.573 416.718 244.592C444.326 225.265 466.42 194.89 484.374 168.655H473.061C473.061 168.655 444.9 209.257 426.658 218.091C426.658 218.091 423.338 219.751 421.411 218.358C418.932 216.431 420.038 212.291 421.411 209.237C421.411 208.97 491.835 87.185 491.835 87.185H458.714C458.714 87.185 455.127 92.9853 454.84 93.5386C454.574 93.2722 454.02 92.4319 453.733 91.8785C433.299 63.4305 386.63 107.066 351.562 157.875C338.035 177.489 320.901 199.297 303.233 215.037C303.233 215.037 276.999 239.345 265.685 221.944C261.545 214.771 262.918 203.99 265.132 197.083C278.392 159.801 300.753 125.84 326.721 105.406C333.895 99.8923 341.909 98.2322 345.782 100.425C349.656 102.618 350.209 108.152 347.709 111.739C341.642 111.472 336.949 113.399 333.075 117.539C325.348 125.553 322.581 133.28 325.061 140.74C336.928 157.588 360.683 124.18 359.576 104.012C359.309 96.8385 355.149 89.9314 349.349 86.3447C340.781 81.0978 327.541 82.471 318.974 86.6111C307.66 91.0382 289.419 105.939 278.925 117.826C265.665 132.46 242.75 148.754 235.577 147.094C237.237 140.453 256.564 100.958 236.397 86.3242ZM396.304 144.593C402.658 135.76 421.432 111.739 426.125 107.865C441.6 94.338 447.666 100.405 448.22 104.545C433.852 130.226 417.005 159.781 400.998 186.282L396.017 193.742C389.11 204.502 381.937 213.623 370.336 220.243C368.676 220.797 365.909 220.797 364.269 219.69C362.056 218.317 361.236 215.816 361.503 213.336C361.769 204.789 370.336 179.662 396.304 144.593ZM215.696 160.047C215.696 160.047 215.43 160.867 215.143 161.154L200.775 184.622C191.941 196.222 181.161 210.856 167.634 217.763C163.493 219.136 157.96 219.977 155.213 216.39C149.146 209.216 152.18 199.276 154.947 191.262L155.767 188.495C162.94 168.881 174.541 151.767 185.588 135.473C185.854 135.473 186.141 135.206 186.141 135.206C186.141 135.206 186.141 135.206 186.141 135.473C193.048 149 206.309 155.087 215.962 158.121C215.962 158.121 215.962 158.121 215.962 158.387C216.249 158.961 216.249 159.227 215.696 160.047ZM229.49 132.44C229.49 132.706 223.136 147.36 223.136 147.36C222.316 148.18 220.656 147.627 218.996 147.36L216.229 146.807C207.395 144.04 200.488 137.973 198.562 131.066C195.795 117.252 207.395 106.492 212.642 102.352C217.623 98.7651 225.35 97.1049 230.043 100.692C232.81 104.012 233.917 108.152 233.917 112.846C233.63 118.912 231.703 125.819 229.49 132.44Z" fill="#E61A27"/>
<path d="M648.708 176.893C645.388 169.986 637.948 165.579 629.934 166.133C603.699 168.613 578.018 190.154 564.491 221.082C557.318 237.089 553.444 250.083 550.964 271.071C559.244 261.684 575.825 246.21 594.599 237.663C594.599 237.663 597.079 217.495 610.34 199.828C615.321 192.367 625.261 180.5 636.308 183.821C645.982 187.141 642.662 214.195 629.688 240.163C620.014 259.491 605.38 278.552 590.48 291.813C577.219 302.86 557.892 316.387 541.044 305.893C530.284 299.539 525.037 286.279 526.123 269.165C531.37 220.57 553.178 179.414 584.946 132.458C617.534 88.8231 653.443 43.8145 701.751 20.06C711.691 15.0795 720.812 13.9932 728.539 17.0266C728.539 17.0266 683.243 41.8879 661.436 88.2697C655.923 99.8703 648.175 115.877 655.923 129.978C660.063 137.152 666.97 137.992 672.77 137.439C699.271 131.372 716.405 106.511 730.486 83.8631C738.5 66.7492 745.96 49.6148 745.96 30.5742C745.96 28.3607 745.96 25.3274 745.694 22.8474C758.401 16.2273 784.349 28.0943 784.349 28.0943C804.783 34.7144 847.865 67.856 862.499 74.2096C869.672 65.9294 881.273 53.4885 887.914 47.1553L878.24 41.355C863.052 31.968 846.758 23.1343 831.017 14.5671C794.843 -5.0473 765.575 1.85976 750.654 7.10666C744.853 9.3202 739.34 10.9803 739.34 10.9803C728.293 -1.17361 710.072 -0.0668184 696.812 3.25349C648.77 17.0676 604.027 50.7625 555.965 109.298C520.61 155.147 498.802 194.622 487.202 233.851C478.081 260.085 475.601 298.74 497.429 321.675C515.937 341.289 540.778 336.862 558.178 329.955C596.014 311.447 629.975 271.132 646.822 225.017C651.188 211.141 655.615 191.814 648.708 176.893ZM735.692 32.1934C730.711 89.6429 685.99 123.317 674.943 126.084C668.322 127.457 656.722 124.424 666.929 100.403C681.85 67.815 707.531 40.4737 735.139 26.3931C735.692 28.6067 735.692 29.9799 735.692 32.1934Z" fill="#E61A27"/>
<path d="M1000.25 39.6535C976.231 53.1806 951.369 62.0143 921.261 58.9809C912.981 68.3679 904.701 78.0419 897.24 87.9823C939.502 98.7426 984.224 74.7216 1009.35 52.0738C1035.87 29.1596 1049.4 0.158203 1049.4 0.158203C1049.4 0.158203 1029.52 22.806 1000.25 39.6535Z" fill="#E61A27"/>
<path d="M546.518 87.4287H515.036L497.369 116.143H528.851L546.518 87.4287Z" fill="#E61A27"/>
<path d="M921.261 302.552C917.941 304.765 913.247 303.105 914.908 297.858C919.335 284.331 937.002 256.99 937.002 256.99L986.151 170.006H952.456C950.796 172.486 947.475 178.573 947.475 178.573C945.815 176.093 941.409 170.293 939.461 168.899C931.181 163.652 919.294 166.132 911.013 170.826C874.839 191.813 848.604 233.789 827.616 266.09C827.616 266.09 805.809 302.265 793.655 305.032C784.268 305.851 785.088 293.165 785.641 290.111C789.228 268.57 797.795 248.135 806.362 229.628C823.763 217.474 843.644 201.733 861.865 184.332C901.073 146.784 934.215 104.256 939.195 94.8481C939.195 94.8481 933.948 95.9548 927.881 96.2213C897.773 138.483 835.917 199.499 817.143 208.62C825.423 188.739 878.999 93.1879 924.848 47.6259L932.022 40.7189C943.069 29.9586 954.669 18.6245 963.503 16.9643C964.323 16.9643 965.716 16.9643 966.823 19.1779C967.09 27.7451 964.056 33.8118 960.47 40.9853L955.489 51.4791C955.489 51.4791 962.663 50.1059 967.356 48.7122C972.87 38.4848 978.957 26.9048 976.743 13.0907C975.923 8.66358 972.87 5.36378 968.729 4.52346C955.202 2.04348 940.281 11.9839 928.414 20.2642L927.861 20.5306C866.558 68.5726 814.643 137.889 769.347 232.62C766.027 235.1 753.34 238.134 751.126 236.76C755.553 227.64 761.354 215.219 764.1 201.692C764.654 197.819 764.92 193.965 764.92 190.092C764.92 181.811 762.993 174.084 755.533 168.551C746.966 164.124 736.206 166.337 729.032 169.37C696.731 182.898 672.423 216.039 655.022 243.38C645.635 260.781 636.248 279.289 633.768 300.83C631.841 317.391 635.695 328.171 645.082 333.685C654.756 338.665 667.176 333.418 671.869 330.918C704.724 313.517 727.659 279.002 745.613 247.234C746.433 247.234 756.107 246.967 763.567 245.02H763.834C763.28 246.393 759.407 257.994 759.407 257.994C748.093 291.689 742.559 314.337 753.606 327.864C769.081 346.925 794.762 327.31 815.462 301.076C811.035 332.291 827.329 337.251 839.483 334.771C853.564 330.897 869.592 315.71 876.765 307.983C874.285 317.104 875.105 333.398 888.079 335.037C896.912 336.697 903.553 331.717 911.28 327.864C938.888 312.943 971.763 262.974 980.309 248.607H968.996C956.063 266.93 940.609 291.238 921.261 302.552ZM674.39 299.231C672.73 296.751 672.177 293.718 671.911 290.664C671.644 271.89 691.791 238.195 706.159 219.687C712.226 232.948 725.773 241.228 733.767 244.815C723.826 267.483 688.737 316.079 674.39 299.231ZM739.567 234.895C738.46 235.449 721.613 229.915 718.313 213.908C715.546 200.38 724.933 189.6 734.054 184.353C737.927 181.319 743.727 180.213 748.134 181.873C752.008 184.64 753.115 189.333 753.115 194.58C753.115 197.614 752.561 200.934 752.295 203.967V204.521C749.22 215.014 745.08 225.508 739.567 234.895ZM876.806 293.165L873.486 295.932C868.792 300.072 864.099 304.499 858.299 302.285C856.638 301.732 855.532 299.518 855.265 297.858C854.999 285.991 860.246 275.21 865.492 264.45L866.866 261.683C881.787 236.822 898.9 207.841 924.315 187.407C928.455 184.373 933.149 181.606 938.129 183.82C939.236 184.927 940.609 186.587 940.609 188.513C940.609 189.067 940.056 190.727 939.789 190.993C932.616 202.307 925.975 214.461 919.355 226.062C906.627 248.976 893.387 272.443 876.806 293.165Z" fill="#E61A27"/>
</svg>
