<svg width="1049" height="178" viewBox="0 0 1049 178" fill="none" xmlns="http://www.w3.org/2000/svg">
<path d="M35.1579 81.9511L140.898 0.858398H176.056L105.761 81.9511H175.769V96.129H105.761L176.056 177.222H140.898L35.1579 96.129H0L14.1779 81.9511H35.1579Z" fill="#0067B1"/>
<path d="M245.245 66.3591V79.6765H308.472V98.0955H245.245V111.413H314.7V132.68H220.29V44.498H314.7V66.0517H245.245M327.178 133.274V45.0922H369.424L399.194 100.103L428.963 45.0922H472.05V133.274H446.809V70.6206H445.682L411.651 133.274H386.696L352.952 70.6206H352.399V133.274H327.178ZM484.528 133.274V45.0922H558.818C577.237 45.0922 586.314 53.0212 586.314 69.7601C586.314 79.1233 582.339 85.0649 574.123 88.466C584.613 90.1665 589.141 96.6817 589.141 109.446C589.141 126.451 580.925 133.253 562.772 133.253H484.528V133.274ZM560.498 72.0343C560.498 67.7728 557.937 64.6586 553.983 64.6586H509.749V79.1233H553.983C558.245 79.4101 560.498 76.8491 560.498 72.0343ZM563.059 104.918C563.059 100.103 560.232 97.2555 556.257 97.2555H509.749V113.134H556.237C560.785 113.134 563.059 110.306 563.059 104.918ZM787.037 97.2555L770.032 66.0722L753.58 97.2555H787.037ZM706.232 133.274L753.867 45.0922H787.611L834.386 133.274H805.19L796.687 118.522H743.664L735.161 133.274H706.232ZM966.208 66.9328V88.4864H1014.13C1021.22 88.4864 1023.21 85.0854 1023.21 76.8696C1023.21 70.0675 1020.65 66.9532 1014.13 66.9532H966.208V66.9328ZM1049 73.7349C1049 88.1996 1045.6 95.5754 1035.4 98.1159C1043.9 100.39 1048.45 105.779 1048.45 114.834V132.987H1023.21V119.67C1023.21 112.007 1020.09 110.593 1011.86 110.593H966.494V133.274H941.253V45.0922H1015.54C1040.21 45.0922 1049 51.0543 1049 73.7349ZM624.299 66.9328V88.4864H672.221C679.31 88.4864 681.297 85.0854 681.297 76.8696C681.297 70.0675 678.736 66.9532 672.221 66.9532H624.299V66.9328ZM706.805 73.7349C706.805 88.1996 703.404 95.5754 693.201 98.1159C701.704 100.39 706.252 105.779 706.252 114.834V132.987H681.01V119.67C681.01 112.007 677.896 110.593 669.66 110.593H624.299V133.274H599.057V45.0922H673.348C698.016 45.0922 706.805 51.0543 706.805 73.7349ZM859.32 66.3591V79.6765H922.26V98.0955H859.32V111.413H928.489V132.68H834.079V44.498H928.489V66.0517H859.32V66.3591Z" fill="#0067B1"/>
</svg>
