<svg width="511" height="511" viewBox="0 0 511 511" fill="none" xmlns="http://www.w3.org/2000/svg">
<path d="M312.835 188.964C312.835 159.934 332.479 131.723 343.214 137.071C355.447 143.18 334.066 170.554 312.835 188.964ZM179.076 199.576C179.076 176.202 202.114 131.802 216.207 136.526C232.838 142.069 202.413 186.832 179.076 199.576ZM155.712 366.605C145.119 367.097 138.023 360.312 138.023 348.996C138.023 318.563 180.213 289.524 212.064 273.941C206.414 316.423 192.075 364.948 155.712 366.605ZM350.335 267.535C326.274 267.535 307.874 285.231 307.874 306.463C307.874 324.16 318.493 338.314 332.639 338.314C337.608 338.314 342.562 335.476 342.562 329.113C342.562 319.904 330.365 317.665 331.299 303.906C331.907 294.838 340.446 288.757 348.917 288.757C365.917 288.757 373.849 305.211 373.849 322.203C373.144 348.387 353.87 366.605 331.246 366.605C301.501 366.605 282.412 338.314 282.412 307.864C282.412 262.555 312.12 244.868 327.694 240.628C327.853 240.628 368.402 247.872 367.15 229.982C366.569 222.129 354.892 219.114 346.413 218.771C337.028 218.401 327.544 221.777 327.544 221.777C322.608 219.301 319.207 214.426 317.083 208.76C346.096 186.831 366.622 165.591 366.622 141.541C366.622 128.788 358.126 117.463 341.848 117.463C312.835 117.463 290.889 154.285 290.889 187.529C290.889 193.214 290.889 198.862 292.318 203.825C273.916 217.264 260.221 225.611 235.464 240.478C235.464 237.367 236.099 229.382 238.178 219.018C246.674 209.825 258.334 196.033 258.334 185.422C258.334 180.469 255.514 176.204 249.829 176.204C235.684 176.204 225.081 197.452 222.243 212.319C215.863 220.093 203.128 230.009 192.509 230.009C184.011 230.009 181.192 222.217 180.477 219.388C207.376 210.179 240.645 173.392 240.645 140.122C240.645 133.054 237.808 117.463 216.577 117.463C184.735 117.463 157.837 164.896 157.837 201.683C146.511 201.683 142.263 189.67 142.263 180.469C142.263 171.276 145.797 162.058 145.797 159.229C145.797 156.39 144.387 152.882 140.139 152.882C129.519 152.882 123.156 167.011 123.156 183.289C123.871 205.939 138.729 220.093 158.551 221.512C161.37 234.962 173.4 247.705 188.269 247.705C197.47 247.705 208.794 244.868 216.577 237.791C215.921 242.284 215.215 246.77 214.461 251.248C183.316 267.535 160.665 278.869 140.139 297.253C123.871 312.12 114.66 331.934 114.66 347.497C114.66 368.746 128.119 388.541 155.712 388.541C188.269 388.541 213.043 362.366 225.081 326.257C230.739 309.283 233.013 284.562 234.423 261.911C266.979 243.501 282.412 232.838 299.377 220.79C301.501 224.341 303.643 227.161 306.472 229.294C291.605 237.094 256.21 259.039 256.21 310.703C256.21 347.497 280.993 388.541 329.818 388.541C370.173 388.541 397.777 355.289 397.777 323.437C397.777 294.424 381.491 267.534 350.336 267.534L350.335 267.535ZM472.02 328.328C471.923 328.54 471.499 328.875 470.706 328.585C470.116 328.363 469.931 328.072 469.957 327.676C469.984 327.271 478.523 302.092 478.453 273.193C478.356 242.029 465.701 222.913 449.44 222.913C439.515 222.913 432.448 230.009 432.448 240.629C432.448 259.752 455.795 261.154 455.795 302.929C455.795 319.902 452.27 336.172 446.586 353.87C420.418 442.346 336.885 483.416 255.514 483.416C218.004 483.416 191.345 475.678 183.404 472.1C183.069 471.941 182.804 471.341 183.059 470.689C183.246 470.23 183.783 469.852 184.099 469.984C187.317 471.253 210.214 478.445 238.513 478.445C269.668 478.445 288.06 465.691 288.06 450.137C288.06 440.221 280.296 432.44 270.372 432.44C251.257 432.44 249.829 456.5 208.795 456.5C191.098 456.5 175.524 452.939 157.122 447.281C69.3607 420.392 27.5317 337.592 27.6128 255.486C27.6384 215.501 38.8312 183.668 39.0257 183.368C39.1472 183.131 39.6779 182.928 40.295 183.131C40.9202 183.368 41.0957 183.888 41.035 184.056C40.0033 187.378 32.5644 210.195 32.5644 238.487C32.5644 269.658 45.3006 288.052 61.5788 288.052C70.7704 288.052 78.5699 280.975 78.5699 271.079C78.5699 251.945 55.2066 249.846 55.2066 208.759C55.2066 191.088 58.7485 175.497 64.4077 157.095C91.2967 69.3512 174.123 28.2028 255.514 27.5938C293.34 27.3035 326.442 38.6192 327.694 39.6158C327.931 39.8089 328.161 40.3031 327.931 40.8851C327.659 41.5629 327.209 41.6251 326.981 41.5899C326.584 41.5629 305.062 32.5468 272.488 32.5468C242.056 32.5387 222.949 45.2912 222.949 61.5693C222.949 70.7704 230.025 78.5429 240.645 78.5429C259.752 78.5429 261.181 55.1971 302.214 55.1971C319.894 55.1971 335.485 58.7309 353.87 64.3902C442.354 91.2967 482.631 174.81 483.389 255.488C483.786 296.821 472.143 328.091 472.019 328.328H472.02ZM255.514 12.0206C121.042 12.0206 12.0395 121.005 12.0395 255.486C12.0395 389.977 121.042 498.944 255.514 498.944C389.985 498.944 498.97 389.977 498.97 255.486C498.97 121.729 389.985 12.0206 255.514 12.0206ZM255.514 511C114.661 511 0 397.054 0 255.486C0 114.625 114.66 0 255.514 0C396.349 0 511 114.625 511 255.486C511 397.054 396.349 511 255.514 511Z" fill="#3B73B9"/>
</svg>
