<svg width="66" height="59" viewBox="0 0 66 59" fill="none" xmlns="http://www.w3.org/2000/svg">
<path d="M33.1285 13.0717V0H0.449219V58.8226H65.8077V13.0717H33.1285ZM13.5209 52.2868H6.98507V45.7509H13.5209V52.2868ZM13.5209 39.2151H6.98507V32.6792H13.5209V39.2151ZM13.5209 26.1434H6.98507V19.6075H13.5209V26.1434ZM13.5209 13.0717H6.98507V6.53585H13.5209V13.0717ZM26.5926 52.2868H20.0568V45.7509H26.5926V52.2868ZM26.5926 39.2151H20.0568V32.6792H26.5926V39.2151ZM26.5926 26.1434H20.0568V19.6075H26.5926V26.1434ZM26.5926 13.0717H20.0568V6.53585H26.5926V13.0717ZM59.2719 52.2868H33.1285V45.7509H39.6643V39.2151H33.1285V32.6792H39.6643V26.1434H33.1285V19.6075H59.2719V52.2868ZM52.736 26.1434H46.2002V32.6792H52.736V26.1434ZM52.736 39.2151H46.2002V45.7509H52.736V39.2151Z" fill="black"/>
</svg>
