<svg width="180" height="133" viewBox="0 0 180 133" fill="none" xmlns="http://www.w3.org/2000/svg">
<path d="M18.9473 85.7755L22.6818 92.7835L23.2238 93.8006L24.3586 94.0017L32.1776 95.3878L26.6666 101.105L25.8668 101.935L26.0261 103.076L27.1241 110.941L19.9836 107.466L18.9473 106.962L17.911 107.466L10.7706 110.941L11.8686 103.076L12.0279 101.935L11.2281 101.105L5.71706 95.3878L13.5361 94.0017L14.6709 93.8006L15.2129 92.7835L18.9473 85.7755Z" stroke="#357080" stroke-width="4.73684"/>
<path d="M52.1055 95.2491L55.84 102.257L56.382 103.274L57.5168 103.475L65.3358 104.861L59.8248 110.579L59.025 111.408L59.1843 112.55L60.2823 120.415L53.1418 116.94L52.1055 116.436L51.0692 116.94L43.9288 120.415L45.0268 112.55L45.1861 111.408L44.3863 110.579L38.8753 104.861L46.6943 103.475L47.8291 103.274L48.3711 102.257L52.1055 95.2491Z" stroke="#357080" stroke-width="4.73684"/>
<path d="M127.895 95.2491L131.629 102.257L132.171 103.274L133.306 103.475L141.125 104.861L135.614 110.579L134.814 111.408L134.973 112.55L136.071 120.415L128.931 116.94L127.895 116.436L126.858 116.94L119.718 120.415L120.816 112.55L120.975 111.408L120.175 110.579L114.664 104.861L122.483 103.475L123.618 103.274L124.16 102.257L127.895 95.2491Z" stroke="#357080" stroke-width="4.73684"/>
<path d="M161.053 85.7755L164.787 92.7835L165.329 93.8006L166.464 94.0017L174.283 95.3878L168.772 101.105L167.972 101.935L168.132 103.076L169.23 110.941L162.089 107.466L161.053 106.962L160.017 107.466L152.876 110.941L153.974 103.076L154.133 101.935L153.334 101.105L147.823 95.3878L155.642 94.0017L156.776 93.8006L157.318 92.7835L161.053 85.7755Z" stroke="#357080" stroke-width="4.73684"/>
<path d="M90.0001 99.9864L93.7345 106.994L94.2765 108.012L95.4113 108.213L103.23 109.599L97.7193 115.316L96.9195 116.146L97.0789 117.287L98.1768 125.152L91.0364 121.677L90.0001 121.173L88.9638 121.677L81.8233 125.152L82.9213 117.287L83.0806 116.146L82.2808 115.316L76.7698 109.599L84.5888 108.213L85.7236 108.012L86.2656 106.994L90.0001 99.9864Z" stroke="#357080" stroke-width="4.73684"/>
<path d="M123.157 80.2019C123.157 72.9638 120.405 66.0222 115.506 60.9041C110.606 55.786 103.961 52.9107 97.0326 52.9107H82.9667C76.038 52.9107 69.393 55.786 64.4936 60.9041C59.5942 66.0222 56.8418 72.9638 56.8418 80.2019M107.854 23.6015C107.854 13.3007 99.8603 4.9502 89.9996 4.9502C80.139 4.9502 72.1454 13.3007 72.1454 23.6015C72.1454 33.9023 80.139 42.2528 89.9996 42.2528C99.8603 42.2528 107.854 33.9023 107.854 23.6015Z" stroke="#000033" stroke-width="9.47367" stroke-linecap="round"/>
</svg>
