<svg width="218" height="191" viewBox="0 0 218 191" fill="none" xmlns="http://www.w3.org/2000/svg">
<path d="M19.5 110.95L21.889 123.061L34 125.45L21.889 127.839L19.5 139.95L17.111 127.839L5 125.45L17.111 123.061L19.5 110.95Z" fill="#357080"/>
<path d="M47 9.9502L50.2951 26.6551L67 29.9502L50.2951 33.2453L47 49.9502L43.7049 33.2453L27 29.9502L43.7049 26.6551L47 9.9502Z" fill="#000033"/>
<path d="M115 49.9502L116.812 59.1379L126 60.9502L116.812 62.7625L115 71.9502L113.188 62.7625L104 60.9502L113.188 59.1379L115 49.9502Z" fill="#357080"/>
<path d="M80.5 41.3619L100.51 78.9132L101.739 81.2178L104.31 81.6736L146.207 89.1007L116.677 119.736L114.865 121.616L115.226 124.202L121.109 166.344L82.8482 147.726L80.5 146.583L78.1518 147.726L39.8909 166.344L45.7742 124.202L46.1353 121.616L44.323 119.736L14.7931 89.1007L56.6901 81.6736L59.2614 81.2178L60.4895 78.9132L80.5 41.3619Z" stroke="#000033" stroke-width="10.7333"/>
<path d="M179.566 29.6623L179.071 44.1995L178.983 46.8095L180.982 48.4899L192.116 57.8498L178.137 61.8719L175.627 62.594L174.647 65.0144L169.186 78.4959L161.041 66.4445L159.579 64.2808L156.974 64.0963L142.464 63.0684L151.409 51.5981L153.015 49.5388L152.386 47.0043L148.88 32.8875L162.553 37.8499L165.007 38.7408L167.223 37.359L179.566 29.6623Z" stroke="#357080" stroke-width="10.7333"/>
</svg>
