<svg width="1049" height="325" viewBox="0 0 1049 325" fill="none" xmlns="http://www.w3.org/2000/svg">
<path d="M564.341 247.862C561.8 249.562 559.239 250.976 556.699 252.389C553.298 254.09 540.268 259.478 526.95 259.478C514.76 259.478 505.991 254.95 502.017 252.676C487.86 243.887 482.471 229.73 480.197 214.425C479.357 207.91 479.357 201.108 479.357 199.121C479.357 174.187 486.999 160.604 494.928 152.388C499.456 148.147 508.819 139.644 525.516 139.644C534.859 139.644 547.336 141.345 555.818 145.32C556.658 145.893 560.633 148.147 562.907 149.561L563.747 160.317H567.148C567.148 157.776 566.861 155.502 566.861 152.962C566.861 147.86 567.148 142.759 567.148 137.391H562.907C555.818 137.391 553.851 136.551 546.762 135.69C538.547 134.563 534.019 134.563 530.044 134.563C499.743 134.563 484.725 148.721 477.349 158.35C465.446 174.494 464.893 192.626 464.893 199.141C464.893 206.23 465.733 234.545 487.265 251.836C501.709 263.74 517.014 264.027 523.816 264.027C543.935 264.027 556.965 256.385 563.767 252.697L564.341 247.862Z" fill="#061120"/>
<path d="M130.344 228.03C119.014 228.03 108.811 228.03 97.1944 228.03C99.1817 222.355 102.009 217.274 104.283 211.886C108.258 203.383 111.085 197.728 114.773 189.226C117.047 195.454 119.014 198.855 121.288 205.084C124.402 212.746 127.516 220.101 130.344 228.03ZM94.6539 261.179C90.966 261.179 87.565 260.893 84.1641 260.606C86.7046 253.251 89.5524 245.588 92.6665 238.52C93.7934 236.246 94.9407 233.992 96.0675 231.718C108.524 231.431 119.588 231.144 132.044 231.718C133.745 236.532 135.732 241.347 137.433 245.875C139.133 250.69 140.26 256.078 141.96 260.606C138.273 260.893 136.285 261.179 132.618 261.179V264.007C143.374 263.72 154.151 263.72 164.907 264.007V261.179C162.08 261.179 159.519 260.893 156.691 260.606C145.935 239.933 137.433 218.114 129.504 196.868C126.963 190.066 124.402 183.264 122.415 176.462H116.74C115.9 179.002 115.039 181.277 113.913 183.551C111.638 189.226 108.811 194.594 105.984 200.269C103.156 206.21 100.309 212.172 97.1944 218.114C94.367 224.055 90.966 230.017 87.8519 235.959C84.1641 243.048 80.2099 250.116 76.2352 257.205C75.3952 258.332 74.8216 260.032 73.9611 261.446C70.5601 261.733 67.4459 261.733 64.3318 262.019L64.0449 264.847C74.5347 264.56 84.7172 264.56 95.207 264.847V261.159" fill="#061120"/>
<path d="M634.306 227.192C622.976 227.192 612.773 227.192 601.157 227.192C603.144 221.517 605.971 216.436 608.245 211.048C612.22 202.545 615.047 196.891 618.735 188.388C621.009 194.617 622.976 198.018 625.25 204.246C628.631 212.175 631.479 219.55 634.306 227.192ZM598.882 260.629C595.195 260.629 591.794 260.342 588.393 260.055C590.933 252.7 593.781 245.037 596.895 237.969C598.022 235.695 599.169 233.441 600.296 231.167C612.753 230.88 623.816 230.593 636.273 231.167C637.973 235.982 639.961 240.796 641.661 245.324C643.362 250.139 644.488 255.527 646.189 260.055C642.501 260.342 640.514 260.629 636.846 260.629V263.456C647.603 263.169 658.379 263.169 669.135 263.456V260.629C666.308 260.629 663.747 260.342 660.92 260.055C650.164 239.383 641.661 217.563 633.732 196.317C631.192 189.515 628.631 182.713 626.644 175.911H620.968C620.128 178.185 619.268 180.726 618.141 183C615.867 188.675 613.04 194.043 610.212 199.718C607.385 205.66 604.537 211.622 601.423 217.563C598.596 223.505 595.195 229.467 592.08 235.408C588.393 242.497 584.438 249.565 580.464 256.367C579.624 257.494 579.05 259.194 578.19 260.608C574.789 260.895 571.674 260.895 568.56 261.182L568.273 264.009C578.763 263.722 588.946 263.722 599.436 264.009V260.608" fill="#061120"/>
<path d="M893.498 248.148C893.498 251.262 893.211 255.503 892.371 256.364C891.797 256.937 890.67 257.204 888.97 257.49C879.627 259.478 866.597 260.031 865.737 260.031C862.622 260.031 859.795 260.031 856.681 260.031C856.107 257.204 855.841 254.643 855.841 251.815C855.554 248.127 855.554 244.726 855.554 241.325C855.554 234.81 855.554 229.422 855.841 222.907C864.63 222.907 868.871 222.62 871.985 223.194C874.26 223.48 877.661 224.607 877.927 224.607C878.767 225.181 880.201 226.308 880.201 227.148C880.488 229.135 880.488 230.836 880.775 232.823H884.176C884.176 229.422 883.889 226.308 883.889 222.907C883.889 218.379 884.176 214.118 884.463 209.59H881.348C881.348 210.43 881.062 216.105 880.222 216.945C879.648 217.785 878.234 217.785 877.947 217.785C870.592 218.912 863.79 218.625 856.128 218.359C856.128 213.831 856.128 209.569 856.128 205.041C856.128 196.826 856.128 188.61 856.968 180.681C859.242 180.394 861.209 180.394 863.483 180.394C874.813 180.394 882.188 182.095 885.569 182.935C890.097 184.062 890.097 186.91 890.384 192.564H893.498C893.498 188.036 893.498 181.808 893.498 177.26C886.983 177.26 881.594 177.26 875.079 177.547C867.724 177.547 860.061 177.547 852.419 177.547C845.904 177.547 839.676 177.547 833.448 177.26V180.087C836.562 180.374 840.803 180.374 843.938 180.661C844.511 186.049 844.778 191.151 844.778 196.232C844.778 202.747 844.778 208.975 844.778 215.49C844.778 222.579 844.777 229.381 844.491 236.449C844.491 242.391 844.491 248.64 843.917 254.581C843.917 256.568 843.63 258.556 843.343 260.809C839.656 260.809 834.554 260.809 830.887 261.096V263.924C831.727 263.924 832.874 263.924 833.714 263.924C843.343 263.637 852.973 263.637 862.602 263.637H871.658C875.899 263.637 880.16 263.637 884.688 263.637C888.663 263.637 892.617 263.924 896.591 264.21C896.591 259.109 896.591 254.007 896.878 248.64H893.477" fill="#061120"/>
<path d="M969.715 247.023C969.428 249.851 969.428 253.252 969.141 256.079C965.74 256.919 962.339 257.493 958.938 258.066C946.748 259.767 941.093 259.48 935.992 259.48C935.418 254.665 935.152 250.137 934.865 245.323C934.578 240.221 934.578 235.407 934.578 230.305V213.587C934.578 205.945 934.578 198.569 935.152 191.214C935.439 187.526 935.726 183.859 936.279 180.458C939.68 180.171 943.368 179.618 946.769 179.331V176.504C942.528 176.504 935.726 176.791 931.464 176.791C924.949 176.791 918.147 176.791 911.632 176.504L911.345 179.331C915.033 179.618 918.7 180.171 922.388 180.171C923.228 189.801 924.088 199.43 924.088 209.059C924.088 217.848 923.802 226.617 923.802 235.407C923.515 249.297 923.802 251.264 922.101 259.193C918.413 259.193 914.172 259.48 910.484 259.48V263.168C919.827 263.168 929.19 263.168 938.246 263.168C949.862 263.168 961.479 263.168 973.095 263.168C973.095 260.894 973.095 258.64 973.095 256.653C973.095 253.825 973.095 249.564 973.095 247.023H969.715Z" fill="#061120"/>
<path d="M1045.05 247.023C1045.05 249.851 1044.76 253.252 1044.47 256.079C1041.07 256.919 1037.67 257.493 1034.27 258.066C1022.08 259.767 1016.42 259.48 1011.32 259.48C1010.75 254.665 1010.48 250.137 1010.2 245.323C1010.2 240.221 1010.2 235.407 1010.2 230.305V213.587C1010.2 205.945 1010.2 198.569 1010.77 191.214C1011.06 187.526 1011.34 183.859 1011.9 180.458C1015.3 180.171 1018.98 179.618 1022.39 179.331V176.504C1018.14 176.504 1011.34 176.791 1007.08 176.791C1000.57 176.791 993.764 176.791 987.249 176.504V179.331C990.937 179.618 994.604 180.171 998.292 180.171C999.132 189.801 999.993 199.43 999.993 209.059C999.993 217.848 999.993 226.617 999.993 235.407C999.706 249.297 999.993 251.264 998.292 259.193C994.604 259.193 990.363 259.48 986.675 259.48L986.389 263.168C995.731 263.168 1005.09 263.168 1014.15 263.168C1025.77 263.168 1037.38 263.168 1049 263.168C1049 260.894 1049 258.64 1049 256.653C1049 253.825 1049 249.564 1049 247.023H1045.05Z" fill="#061120"/>
<path d="M174.823 264.294C179.064 264.294 183.325 264.294 187.566 264.294C191.254 264.294 194.921 264.294 198.322 264.294C202.01 264.294 205.411 264.581 208.812 264.581C213.053 264.581 222.416 264.581 232.332 259.193C235.446 257.492 237.434 255.505 238.274 254.665C241.388 250.691 243.088 245.323 243.088 240.774C243.088 235.673 241.101 231.719 239.974 229.731C237.434 226.044 233.459 222.376 222.416 220.676C219.876 220.389 217.315 220.102 214.774 219.836L214.487 219.262C215.614 219.262 215.901 218.975 217.315 218.688C221.556 217.848 224.403 216.414 225.817 215.574C229.792 213.587 237.434 208.772 237.434 198.016C237.434 192.915 235.733 189.227 234.893 187.26C234.32 186.42 232.906 183.859 230.365 182.158C223.85 177.057 214.795 177.344 212.52 177.344C208.833 177.344 205.165 177.631 201.477 177.631C196.95 177.917 192.135 177.917 187.587 177.917C183.059 177.917 178.797 177.917 174.556 177.631L174.27 180.458C177.957 180.458 182.198 180.745 185.599 181.298C186.173 190.927 186.173 200.843 186.173 210.473C186.173 219.528 186.173 228.891 185.886 237.947C185.886 245.589 185.886 253.251 185.046 260.893C181.645 261.18 177.691 261.18 174.29 261.467V264.294H174.823ZM197.769 181.298C201.744 180.724 204.858 181.011 209.099 181.011C214.487 181.011 211.373 181.011 213.627 181.851C216.167 182.978 218.441 184.678 219.015 185.539C224.403 190.64 224.69 196.582 224.69 198.856C224.403 206.785 220.162 214.427 210.799 217.562C205.411 219.262 204.858 218.688 203.157 218.688C201.17 218.688 199.183 218.975 196.929 218.975C196.642 215.287 196.642 211.886 196.642 208.485C196.642 206.211 196.929 203.958 196.929 201.683C196.929 197.709 196.929 193.468 197.216 189.493C197.482 186.686 197.482 184.125 197.769 181.298ZM197.196 221.803C200.31 221.516 203.424 221.516 206.825 221.516C219.568 221.516 222.129 224.63 225.53 228.605C228.358 231.719 229.771 236.247 229.771 240.508C229.771 242.495 229.484 256.366 216.454 260.627C213.627 261.467 214.467 261.467 207.665 261.467C202.85 261.467 199.736 260.893 198.036 260.893C197.462 255.505 197.196 250.691 197.196 245.323C196.929 237.107 196.929 229.465 197.196 221.803Z" fill="#061120"/>
<path d="M422.974 260.626C420.434 260.626 417.873 260.339 415.332 260.339C413.632 258.925 411.931 257.512 410.517 256.364C406.276 252.39 402.589 248.436 398.327 244.461C394.926 241.06 393.226 237.946 389.825 234.545C386.71 231.431 383.883 228.316 380.769 225.202C379.355 223.502 377.942 221.801 376.528 220.388C377.655 220.388 379.642 219.814 383.043 218.974C386.731 218.134 388.718 217.56 392.099 215.86C396.34 213.586 404.555 208.505 404.555 197.441C404.842 192.34 402.855 188.939 401.441 187.238C400.868 186.111 398.901 183.263 396.053 181.563C388.964 177.035 379.048 177.322 377.347 177.322C372.82 177.322 368.292 177.609 363.743 177.609C355.528 177.609 347.312 177.609 339.097 177.609L338.81 180.436C342.498 180.723 346.165 181.01 349.566 181.276C350.14 189.779 350.14 198.281 350.14 206.497C350.14 215.839 350.14 224.915 349.853 234.258V245.875C349.566 250.976 349.279 255.791 348.726 260.892C345.325 260.892 341.637 261.179 338.236 261.179L337.949 264.006C341.924 264.006 346.165 264.006 350.406 264.006C357.208 264.006 365.71 264.006 372.779 264.006L373.066 261.179C369.665 261.179 366.263 260.892 362.863 260.892C362.289 255.504 361.736 250.136 361.449 245.035C361.162 240.22 361.162 235.118 361.162 230.591C361.162 227.19 360.875 223.789 360.875 220.388L361.162 220.674C368.804 227.476 374.766 234.278 381.834 241.634C388.923 248.722 395.725 256.078 401.953 264.006C408.182 263.72 416.397 264.293 422.913 264.58L422.974 260.626ZM363.764 181.297C367.739 181.01 367.452 180.723 371.119 180.723C375.647 180.723 377.921 180.723 380.175 181.01C385.276 182.423 392.365 186.398 392.365 196.867C392.365 201.682 390.665 207.357 386.69 211.025C384.149 213.299 381.015 214.426 379.888 214.712C370.832 218.113 364.87 217.54 362.043 217.253C362.33 212.151 362.33 207.05 362.33 201.948C362.35 194.901 363.211 188.385 363.764 181.297Z" fill="#061120"/>
<path d="M40.5456 260.342C36.0178 260.055 31.4899 260.055 26.9416 260.055C26.3679 251.553 26.1016 242.784 26.1016 233.994C26.1016 224.078 26.1016 213.875 25.8148 203.959C27.2284 203.672 28.6421 203.672 30.0558 203.672C40.2588 203.672 51.5886 205.66 54.1291 206.213C54.7027 206.5 56.9564 206.786 58.1037 207.626C60.0911 209.327 59.8042 213.855 59.8042 219.243L64.0452 219.53C63.7584 214.428 63.7584 209.614 63.7584 204.799C63.7584 198.571 64.0452 192.056 64.0452 186.094L60.0706 185.807C59.7837 190.621 59.7837 195.149 58.3701 196.563C57.2432 197.69 54.6823 197.977 54.1291 197.977C43.0861 200.517 27.208 199.964 25.2411 199.964C25.2411 190.048 25.2411 180.132 25.5279 170.216C25.8148 161.713 26.3679 153.497 26.6548 144.995C30.0558 144.708 33.4568 144.708 36.8578 144.708C49.8881 144.708 60.3779 146.409 64.9057 147.249C65.1926 147.535 67.733 147.822 69.7204 148.949C71.9945 150.076 71.9945 151.776 72.2609 152.637C72.8345 154.337 73.1009 155.464 73.1009 158.865H77.0755C76.7887 152.924 77.0755 146.675 77.3624 140.733C67.1594 141.02 57.2432 141.02 46.7739 141.02C31.2031 141.02 15.8986 141.307 0.307319 140.733L0.0204879 144.421C4.26149 144.708 8.8098 145.261 13.0508 145.835C13.8908 154.891 13.8908 163.68 13.8908 172.469C13.8908 185.5 13.604 198.53 13.604 211.273C13.3171 227.705 13.604 243.562 12.1903 259.707C8.21566 259.994 3.97466 259.994 0 260.28V264.521C5.67515 264.235 11.6166 263.948 17.5581 263.948C24.647 263.948 32.289 264.235 39.3778 264.521L40.5456 260.342Z" fill="#061120"/>
<path d="M319.857 248.436C319.857 251.55 319.57 255.791 318.73 256.652C318.157 257.225 317.03 257.492 315.329 257.779C305.987 259.766 292.957 260.319 292.096 260.319C288.982 260.319 286.155 260.319 283.04 260.319C282.467 257.492 282.2 254.931 282.2 252.103C281.914 248.416 281.914 245.015 281.914 241.614C281.914 235.098 281.914 229.71 282.2 223.195C290.99 223.195 295.231 222.908 298.345 223.482C300.619 223.769 304.02 224.895 304.286 224.895C305.126 225.469 306.561 226.596 306.561 227.436C306.847 229.423 306.847 231.124 307.134 233.111H310.535C310.535 229.71 310.248 226.596 310.248 223.195C310.248 218.667 310.535 214.406 310.822 209.878H307.708C307.708 210.718 307.421 216.393 306.581 217.233C306.007 218.073 304.594 218.073 304.307 218.073C296.952 219.2 290.15 218.913 282.487 218.647C282.774 214.119 282.487 209.857 282.487 205.329C282.774 197.114 282.487 188.898 283.327 180.969C285.601 180.683 287.568 180.682 289.842 180.682C301.172 180.682 308.548 182.383 311.928 183.223C316.456 184.35 316.456 187.198 316.743 192.852H319.857C319.857 188.324 319.857 182.096 319.857 177.548C313.342 177.548 307.954 177.548 301.439 177.835C294.083 177.835 286.421 177.835 278.779 177.835C272.264 177.835 266.035 177.835 259.807 177.548L259.52 180.375C262.634 180.662 266.875 180.662 270.01 180.949C270.584 186.337 270.85 191.439 270.85 196.52C271.137 203.035 271.137 209.263 271.137 215.778C271.137 222.867 270.85 229.669 270.85 236.737C270.85 242.679 270.85 248.928 270.276 254.869C270.276 256.857 269.99 258.844 269.703 261.098C266.015 261.098 260.913 261.098 257.246 261.384V264.212C258.086 264.212 259.233 264.212 260.073 264.212C269.703 263.925 279.332 263.925 288.961 263.925H298.017C302.258 263.925 306.52 263.925 311.047 263.925C315.022 263.925 318.976 264.212 322.951 264.499C322.951 259.397 322.951 254.296 323.238 248.928H319.837" fill="#061120"/>
<path d="M413.92 221.802C427.524 221.515 441.107 221.802 454.425 221.802V218.114H438.854C430.351 218.114 422.136 218.114 413.92 218.114V221.802Z" fill="#061120"/>
<path d="M726.931 190.926C727.217 186.398 726.931 181.87 727.217 177.322C719.002 175.621 715.027 175.621 711.073 175.621C706.545 175.621 688.987 175.621 681.038 188.365C677.924 193.466 677.637 197.707 677.637 199.981C677.637 203.095 677.924 208.197 683.578 213.872C684.992 215.286 687.266 217.56 691.794 219.26C696.322 221.248 699.149 222.375 703.984 223.788C711.626 226.062 719.289 228.029 723.53 234.544C725.804 238.232 725.804 242.186 725.804 243.6C725.804 250.955 722.69 254.356 719.862 256.63C715.048 260.605 709.946 262.572 703.144 262.572C695.502 262.572 688.987 260.298 686.713 259.171C684.726 258.331 683.312 257.47 682.738 256.897C682.165 254.069 681.898 251.222 681.325 248.107H677.924C678.21 250.648 678.21 253.209 678.21 256.036C678.21 258.577 677.924 261.138 677.924 263.678C681.898 264.518 687.266 265.666 697.182 265.666C712.2 265.666 720.416 262.264 726.07 258.863C733.712 254.049 737.113 247.534 737.113 239.892C737.113 229.136 728.611 223.747 724.657 221.473C719.555 218.646 713.9 217.232 712.2 216.658C704.271 214.384 696.055 212.684 691.528 205.902C688.987 202.214 688.987 198.547 688.987 197.113C688.987 187.197 695.215 180.395 706.545 179.842C713.06 179.555 719.289 181.542 721.276 182.116C722.116 182.403 722.116 182.956 722.976 183.243C723.263 185.783 723.55 188.631 723.816 191.458H726.931" fill="#061120"/>
<path d="M819.556 192.342C819.843 187.814 819.843 181.585 819.843 177.037C807.386 177.324 794.909 177.877 782.452 177.877C770.262 177.877 757.805 177.303 745.902 177.037C745.615 181.565 745.328 187.793 745.328 192.608H749.016C749.303 190.067 749.59 186.093 749.856 183.552C760.059 181.278 763.747 181.565 776.203 181.565C776.203 185.54 777.043 188.08 777.043 192.055C777.043 198.57 776.757 205.085 776.757 211.6C776.757 217.829 776.757 224.057 776.757 230.572C776.47 240.488 776.183 250.404 775.343 260.32C771.655 260.32 767.988 260.321 764.3 260.607V263.435C767.988 263.435 772.516 263.148 776.203 263.148C783.292 263.148 791.508 263.148 798.576 263.435L798.863 260.607C795.462 260.607 791.508 260.32 788.107 260.32C787.82 254.932 787.533 249.278 787.533 243.889C787.533 234.834 787.82 225.471 787.82 216.415C788.107 208.486 788.107 200.557 788.394 192.342C788.394 188.367 788.967 185.826 789.521 181.852C804.251 181.852 807.366 181.852 815.581 183.552C815.581 186.093 816.155 190.067 816.155 192.608H819.556" fill="#061120"/>
<path d="M492.674 13.8909C492.674 12.7641 493.514 12.1904 494.948 12.1904C496.382 12.1904 497.489 12.4773 497.489 13.8909C497.489 15.0178 496.075 16.7182 494.948 16.7182C493.514 16.7182 492.674 15.3046 492.674 13.8909Z" fill="#061120"/>
<path d="M473.967 21.8185C473.967 21.8185 469.993 21.5317 469.726 25.2195C469.439 28.0469 472.84 28.6205 472.84 28.6205C472.84 28.6205 473.68 28.6205 473.68 29.4605C473.68 30.3005 470.566 34.562 474.807 36.2625C479.048 37.963 483.596 34.2752 484.723 33.4352C485.85 32.5952 488.411 29.1942 490.112 29.1942C491.812 29.1942 493.226 28.9074 493.513 29.7678C493.513 30.8947 490.398 31.1815 489.538 33.1688C488.964 34.2957 489.251 37.9835 489.251 37.9835C489.251 37.9835 488.411 38.8235 488.411 39.1103C488.411 39.9503 489.251 39.3972 489.538 40.2372C489.538 41.0772 486.137 44.2118 485.85 44.765C485.563 45.3386 485.276 47.8792 485.276 47.8792C484.99 47.3055 486.403 53.2675 488.391 53.2675C490.378 53.2675 497.446 50.4402 498.02 49.5797C498.594 48.7397 499.147 46.4655 498.594 44.4782C498.02 42.4908 497.467 41.9377 497.467 41.364C497.467 40.7904 498.594 38.8235 500.868 37.963C501.708 37.6762 501.441 36.5493 500.868 36.5493C498.594 36.2625 496.34 36.2625 496.053 35.4225C496.053 34.5825 499.741 34.8488 499.741 33.722C499.741 32.882 496.914 31.7347 496.914 30.321C496.914 29.7474 499.188 28.3337 499.188 28.0469C499.188 28.0469 497.2 27.2069 497.2 26.6332C496.914 24.6459 496.914 18.7044 496.36 18.4175C495.787 18.1307 494.086 17.2907 493.82 18.4175C493.533 19.5444 493.246 25.5064 492.119 26.3464C490.993 27.1864 486.444 28.0468 485.031 28.8869C483.617 29.7269 480.503 31.7142 478.802 31.7142C477.389 31.7142 475.688 31.4274 475.688 29.7269C475.688 28.0264 486.178 27.4527 486.178 26.6127C486.178 25.7727 474.561 25.4859 473.988 23.7854C473.393 22.6585 473.967 21.8185 473.967 21.8185ZM491.812 41.364C491.812 41.364 492.099 43.3513 492.386 44.4782C492.386 45.605 491.812 47.5923 493.799 47.3055C495.787 47.0187 494.639 44.1913 494.639 43.9045C493.799 41.9172 491.812 41.364 491.812 41.364Z" fill="#061120"/>
<path d="M440.263 50.9932H485.029C485.029 50.9932 486.443 52.12 486.156 53.5336C485.316 53.5336 439.976 53.5336 439.976 53.5336C439.976 53.5336 438.562 53.2468 438.562 52.12C438.562 51.28 440.263 50.9932 440.263 50.9932Z" fill="#061120"/>
<path d="M485.584 74.4941V68.5525C485.584 68.5525 485.584 67.1389 485.011 66.2784C484.437 65.4384 481.61 61.1769 481.323 61.1769C481.036 60.8901 479.909 60.6032 479.336 61.1769C478.762 61.7506 479.049 62.5906 479.336 62.8774C479.622 63.1642 481.036 65.7047 481.323 65.9915C481.61 66.2784 481.323 66.5652 481.036 66.5652C480.749 66.5652 474.234 66.2784 470.546 67.692C466.858 69.1057 466.858 69.3925 466.018 69.3925C465.178 69.3925 464.031 68.5525 460.917 68.2657C459.216 68.2657 457.516 69.1057 455.815 69.1057C454.115 69.1057 450.14 69.3926 448.46 70.2326C446.76 71.0726 444.219 72.5067 442.232 74.7604C440.531 76.7477 439.691 80.1487 438.257 81.8492C436.823 83.5497 434.856 86.0902 433.156 86.9507C433.156 86.9507 436.557 87.2375 436.27 88.3643C435.983 89.778 436.27 90.6385 434.856 93.7527C433.443 96.8668 432.316 98.5673 431.169 99.4278C430.042 100.268 433.156 99.7147 433.443 99.4278C434.016 99.141 434.856 98.301 435.43 98.5878C436.004 98.8747 435.43 101.702 435.143 102.562C434.856 103.136 433.73 104.837 433.73 104.837C433.73 104.837 435.43 105.677 437.417 105.677C439.958 105.39 441.105 103.136 441.658 101.436C442.232 99.4483 442.785 92.6463 442.785 92.6463C442.785 92.6463 447.026 93.7732 449.013 93.7732C451.288 93.7732 453.255 92.3595 453.828 93.4863C454.668 94.6132 452.701 98.8747 452.414 99.7147C452.128 100.555 447.313 112.458 447.026 113.319C446.739 114.159 446.739 115.593 446.739 115.593H455.529C455.529 115.593 458.643 106.537 461.47 102.849C464.297 99.1615 468.825 95.4941 469.686 95.7605C470.526 95.7605 468.559 97.461 468.559 97.461C468.559 97.461 464.031 103.136 462.617 106.25C461.204 109.651 460.077 111.925 460.077 115.88H464.318C464.318 115.88 465.445 108.791 466.592 105.677C467.719 102.562 469.993 97.461 471.12 96.621C471.694 96.0473 470.833 94.9205 470.546 95.2073C470.259 95.2073 471.386 94.3673 471.673 94.3673C471.96 94.3673 475.361 93.5273 475.361 91.54C475.074 89.5527 472.247 89.2658 471.673 89.2658C471.099 89.2658 466.285 89.5527 465.998 86.4385C465.711 83.3243 471.386 80.2102 471.386 80.2102C471.386 80.2102 476.775 76.2355 477.901 76.5223C478.475 76.5223 477.061 77.936 477.061 77.936C477.061 77.936 470.833 83.8775 470.833 84.738C470.546 85.3117 470.259 86.1517 470.546 86.4385C470.833 86.7253 472.534 85.8648 473.374 86.1517C474.5 86.7253 474.787 86.7253 475.361 87.5653C475.935 88.4053 477.348 91.54 479.889 91.54C482.429 91.54 483.003 88.9995 483.29 88.7127C483.577 88.4258 488.391 80.7838 488.391 80.7838C488.391 80.7838 488.678 79.9438 487.818 79.657C486.691 79.3702 481.302 80.7838 480.729 80.2306C480.155 79.6775 480.442 75.9897 480.442 75.1292C480.442 74.5555 479.868 74.2892 478.741 74.0023C477.901 74.0023 475.914 73.7155 469.399 76.8297C462.884 79.9438 462.044 80.8043 460.343 80.8043C458.643 80.8043 457.516 81.0912 457.229 80.5175C456.942 79.9438 456.942 76.5428 457.803 74.8423C458.643 73.4287 460.63 70.3145 462.904 71.4413C463.744 71.7282 463.191 72.5682 463.191 72.5682C463.191 72.5682 460.917 77.096 462.351 77.096C463.785 77.096 468.579 76.8092 468.579 76.8092C468.579 76.8092 469.706 73.695 470.854 72.5682C471.98 71.4413 473.128 69.7408 477.082 70.0277C481.323 70.3145 482.183 71.4413 482.183 71.7282C482.183 72.015 481.61 77.9565 482.183 78.2433C482.757 78.2433 489.272 77.6697 489.539 77.4033C489.805 77.137 490.379 76.2765 490.379 75.9897C490.379 75.416 490.379 74.8628 489.252 74.576C487.838 74.494 485.584 74.4941 485.584 74.4941ZM456.696 84.4102C456.696 84.4102 455.283 90.6385 455.856 90.9253C456.143 90.9253 459.831 90.6385 459.544 88.938C458.95 86.1107 456.696 84.4102 456.696 84.4102ZM458.663 94.0395C458.09 94.6132 451.308 111.884 451.021 112.171C450.734 112.745 451.021 113.298 452.148 111.331C453.275 109.344 463.765 94.9 464.052 94.3263C464.625 93.7527 465.178 93.1995 464.892 92.9127C464.605 92.6258 463.478 92.339 462.351 92.6258C461.511 93.1995 459.237 93.4863 458.663 94.0395ZM450.448 74.2277C449.874 74.5145 445.92 76.215 445.059 79.0424C444.199 81.8697 442.232 88.098 442.785 89.2453C443.359 90.3722 444.486 90.0853 445.326 89.5322C446.166 88.6922 447.313 87.258 447.313 86.418C447.313 85.2912 447.313 83.5907 447.887 81.8902C448.46 80.1897 449.3 77.3624 449.587 76.5019C450.448 75.3545 450.734 74.494 450.448 74.2277Z" fill="#061120"/>
<path d="M490.974 80.744C490.974 80.744 490.687 79.904 490.134 79.6172C489.56 79.6172 489.007 80.744 489.007 80.744L485.319 86.4192C485.319 86.4192 485.032 87.546 485.319 87.8328C485.893 88.1197 488.72 88.1197 489.56 87.8328C490.4 87.546 492.1 87.546 492.387 86.9928C492.674 86.3987 490.974 80.744 490.974 80.744Z" fill="#061120"/>
<path d="M490.973 89.7982C490.973 88.9582 491.813 88.0977 492.673 88.0977C493.513 88.0977 494.374 88.9377 494.374 89.7982C494.374 90.6382 493.534 91.4986 492.673 91.4986C491.526 91.2118 490.973 90.6586 490.973 89.7982Z" fill="#061120"/>
<path d="M519.001 67.1383C519.001 67.1383 520.128 66.2984 521.275 66.0115C522.402 65.7247 525.803 65.7247 525.803 65.7247L526.93 63.4505C526.93 63.4505 527.217 62.8769 527.77 62.8769C528.323 62.8769 528.61 64.8642 528.61 65.4174C528.61 66.2574 529.737 66.2574 530.31 66.2574C530.884 66.2574 531.15 65.9705 531.437 65.1305C531.437 64.2905 532.011 63.1432 532.011 63.1432C532.011 63.1432 532.585 62.8564 532.851 63.43C533.138 64.0037 532.851 66.2574 533.978 66.2574C535.105 66.2574 537.379 66.2574 537.379 66.2574V59.1685C537.379 59.1685 537.379 58.5949 536.805 58.3286C536.231 58.0417 534.265 58.0417 534.265 58.0417L532.564 56.0544C532.564 56.0544 531.724 55.7676 531.437 55.7676C531.15 55.7676 526.336 55.7676 526.336 55.7676C526.336 55.7676 525.209 56.0544 525.209 56.3412C524.922 56.6281 525.209 57.4681 525.209 57.4681C525.496 57.7549 526.623 58.8817 527.483 59.7422C527.77 60.3159 527.483 61.1559 527.483 61.1559C527.483 61.1559 525.496 62.5695 525.209 62.5695C524.922 62.5695 524.635 62.2827 524.635 61.1559C524.635 60.3159 524.062 57.1812 524.062 57.1812C524.062 57.1812 524.062 56.6076 523.775 56.3412C523.488 56.0749 514.719 55.7676 514.719 55.7676C514.719 55.7676 512.732 56.0544 511.605 56.8944C510.478 57.4681 510.191 58.0212 510.191 58.5949C510.191 58.8817 511.892 60.0086 512.179 60.0086C512.465 60.0086 521.234 64.2496 522.095 64.5364C522.935 64.8232 523.795 65.3764 523.508 65.3764C523.222 65.3764 522.095 65.3764 521.808 65.0896C521.521 64.8027 511.892 60.8486 511.605 60.5617C511.318 60.2749 509.331 59.1481 509.064 58.8612C508.491 58.5744 507.938 58.5744 506.79 59.4349C505.95 60.2749 505.09 60.8486 505.377 61.1354C505.663 61.7091 505.95 62.8359 510.478 66.2369C515.006 69.6379 516.706 69.9247 516.706 69.9247C516.706 69.9247 517.546 69.9247 517.833 69.6379L519.001 67.1383Z" fill="#061120"/>
<path d="M495.786 72.7946C495.786 72.7946 497.486 73.3683 497.773 74.2083C498.347 75.0483 498.9 81.5635 500.047 82.424C501.174 83.264 502.321 82.7108 502.588 83.264C502.874 83.8376 505.415 83.5508 505.415 83.5508C505.415 83.5508 505.415 82.1371 504.841 81.5635C504.268 80.9898 504.001 80.7235 503.428 80.7235C503.141 80.7235 502.014 81.8503 501.44 81.8503C501.153 81.8503 500.867 81.5635 500.6 80.4366C500.313 79.3098 499.473 72.5078 499.187 72.221C498.9 71.9342 498.613 71.6473 498.347 71.6473C498.08 71.6473 497.22 72.221 496.933 72.4873L495.786 72.7946ZM520.699 67.14C519.285 67.7136 518.158 69.6805 517.585 69.9673C517.011 70.2541 515.884 69.9673 515.884 69.9673C515.884 69.9673 512.77 68.5536 509.656 65.9926C506.542 63.7185 505.128 62.018 504.841 61.4648C504.554 61.178 504.001 60.8912 503.714 60.8912C503.428 60.8912 503.141 61.178 503.141 61.7312C503.141 62.3048 501.727 70.5205 501.727 70.5205C501.727 70.5205 501.153 71.0941 500.887 71.0941C500.621 71.0941 498.06 69.1068 497.773 69.1068C497.486 68.82 496.646 68.82 496.359 68.82C496.072 68.82 494.372 69.9468 494.085 69.66C493.798 69.3732 494.659 68.2463 495.499 67.9595C496.339 67.6727 496.626 67.6727 496.626 67.3858C496.626 67.099 494.085 54.3555 494.085 54.3555C494.085 54.3555 493.798 53.2287 493.245 52.9419C492.671 52.655 489.004 53.7819 488.43 54.0687C487.857 54.3555 487.857 55.7692 487.857 55.7692L486.443 56.056C486.443 56.056 485.029 60.5838 485.029 61.7312C484.743 62.858 483.903 64.5585 485.316 64.8453C486.443 65.1322 487.017 62.858 487.59 61.7312C489.004 60.0307 490.131 60.3175 490.131 60.3175C490.131 60.3175 487.017 63.7185 487.304 65.1322C487.59 66.5458 490.991 69.9468 491.278 71.6473C491.852 74.1878 495.806 89.2055 495.806 89.2055C495.806 89.2055 496.093 89.7791 496.646 89.7791C497.22 89.7791 499.76 87.7918 499.76 87.7918L500.047 85.5176C500.047 85.5176 502.034 86.6445 502.321 86.6445C502.895 86.3576 507.136 83.8172 510.537 82.4035C513.938 80.9898 515.638 80.1293 517.626 80.1293C519.613 79.8425 521.314 80.1293 521.314 80.4162C521.314 80.9898 520.74 82.4035 517.072 84.104C513.385 85.8045 510.557 86.3781 510.271 86.9313C509.984 87.2181 508.857 88.6318 508.57 90.0455C508.283 91.4591 508.283 94.0201 508.283 94.0201C508.283 94.0201 516.212 92.3196 521.314 88.9186C526.415 85.5176 530.103 82.1167 530.103 82.1167L530.676 75.8883L523.874 72.7741C523.874 72.7741 522.748 72.7741 523.034 72.2005C523.034 71.3605 524.448 67.6727 524.161 67.099C523.874 66.8122 523.874 66.259 523.034 66.259C522.113 66.2795 520.986 66.8531 520.699 67.14ZM513.917 77.6298C512.791 77.6298 507.402 78.2035 506.829 78.4698C506.255 78.7566 505.415 78.183 506.255 77.6298C506.829 77.0561 509.082 75.0893 513.61 75.3556C518.138 75.3556 521.826 77.0561 522.399 77.343C522.973 77.6298 523.526 78.4698 523.239 78.4698C522.953 78.4698 521.826 78.7566 521.252 78.4698C520.433 78.183 515.044 77.6298 513.917 77.6298Z" fill="#061120"/>
<path d="M502.301 58.0848C502.301 58.0848 501.174 57.2448 499.761 57.7979C498.347 58.3716 497.773 66.0136 498.347 67.4273C498.634 68.5541 499.761 69.1278 500.334 69.1278C500.908 69.1278 501.174 69.1278 501.748 65.44C502.014 62.039 502.301 58.0848 502.301 58.0848Z" fill="#061120"/>
<path d="M504.267 47.5932C504.267 47.5932 503.98 49.5805 503.98 49.8673C503.98 50.1541 503.406 50.441 503.14 50.7073C502.874 50.9737 496.912 51.5473 496.912 51.5473C496.912 51.5473 496.338 51.2605 496.072 51.8342C495.785 52.121 495.498 53.2478 495.785 54.6615C496.072 56.0751 496.625 56.9356 497.198 56.9356C497.772 56.9356 502.3 55.2351 502.874 55.2351C503.714 54.9483 504.287 55.2351 504.287 55.2351L504.574 57.2225H505.701C505.701 57.2225 508.528 54.3952 510.516 54.3952C512.216 54.3952 571.426 53.8215 571.426 53.8215V53.2478H572.266C572.266 53.2478 573.106 54.3747 574.254 54.3747C575.38 54.3747 579.642 53.2478 579.642 52.3873C579.642 51.5473 575.667 50.4 574.254 50.4C572.84 50.4 572.553 51.5268 572.553 51.5268H571.713L571.139 50.9532L510.516 50.3795C510.516 50.3795 507.688 49.2527 506.828 48.3922C505.988 47.5522 505.701 47.2653 505.414 46.9785L504.267 47.5932Z" fill="#061120"/>
<path d="M538.28 35.976C538.28 35.976 538.28 41.0775 537.706 41.9175C537.132 43.0443 535.165 44.1917 534.018 42.7575C532.891 41.6307 533.178 41.3438 532.891 41.3438C532.604 41.3438 532.318 41.057 532.051 41.6307C531.764 41.9175 531.478 42.4707 530.924 42.4707C530.638 42.4707 529.511 42.4707 529.511 42.4707V43.3107C529.511 43.3107 530.638 44.7243 531.211 45.0112C531.785 45.298 531.785 45.8512 531.785 45.8512C531.785 45.8512 530.371 46.4248 530.371 47.2648C530.371 48.1048 530.658 48.6785 530.084 48.9653C529.511 49.2522 526.397 49.539 525.27 49.539C524.143 49.539 519.595 49.539 519.328 49.2522C519.062 48.9653 519.041 46.4248 518.755 46.4248C518.468 46.138 517.915 45.8512 517.628 46.138C517.341 46.4248 514.8 49.539 513.94 49.539C513.1 49.539 511.113 50.1126 510.826 48.699C510.539 47.5721 511.666 45.5848 513.366 43.8843C515.067 42.1838 520.168 38.2092 524.409 38.2092C528.384 38.2092 534.899 38.496 534.899 38.496C534.899 38.496 537.726 35.6687 538.013 35.3818C537.993 35.976 538.28 35.976 538.28 35.976ZM525.803 43.3516C525.803 43.3516 525.516 42.778 523.262 43.6385C521.275 44.4785 520.435 44.7653 520.721 45.0521C521.008 45.339 522.422 46.179 522.996 46.179C523.569 46.179 524.696 45.6053 524.983 45.0521C525.516 44.4785 525.803 43.3516 525.803 43.3516Z" fill="#061120"/>
<path d="M537.418 49.5825C537.418 49.0089 537.418 47.042 537.131 46.4684C536.845 46.1815 535.718 45.6284 534.857 46.7552C534.017 47.882 533.73 49.5825 533.73 49.8694C534.017 49.8694 534.857 50.1562 535.431 50.1562C536.005 49.8694 537.131 49.8694 537.418 49.5825Z" fill="#061120"/>
<path d="M552.721 39.0917C553.008 39.0917 554.135 38.8048 556.122 39.9317C558.11 41.3453 558.11 41.6322 557.823 42.2058C557.536 42.4926 555.282 45.0332 555.282 45.6068C555.282 46.1805 554.996 46.7337 555.282 47.0205C555.569 47.0205 561.511 49.8478 562.371 49.8478C562.945 49.8478 565.199 50.1347 565.772 49.8478C566.346 49.561 567.76 49.0078 567.76 48.721C567.76 48.4342 567.76 44.48 567.76 44.48C567.76 44.48 567.473 43.0663 566.059 41.9395C564.645 40.8127 550.755 29.7492 550.755 29.7492C550.755 29.7492 550.181 28.9092 548.481 28.9092C546.78 29.196 544.506 29.4828 544.506 29.4828C544.506 29.4828 543.932 32.597 544.219 32.8838C544.506 32.8838 544.793 33.7238 545.633 33.7238C546.473 34.0107 549.034 34.0107 549.034 34.8507C549.034 35.6907 548.46 36.2643 547.62 36.838C546.78 37.4117 546.206 37.1248 546.206 37.9648C546.206 38.8048 547.046 39.6653 547.62 39.6653C548.194 39.6653 548.194 39.3785 549.034 39.0917C549.874 39.0917 550.447 38.518 550.734 39.0917C551.021 39.6653 551.021 40.5053 550.447 41.6322C549.874 42.4722 549.034 42.759 549.32 43.3327C549.607 43.9063 549.034 43.9063 549.607 44.4595C550.181 45.0332 551.021 45.8732 551.308 46.7337C551.595 47.5737 552.148 49.561 552.148 49.8478C552.148 50.1347 556.389 50.1347 556.962 49.8478C557.249 49.561 557.536 49.0078 557.249 49.0078C556.962 48.721 552.435 47.0205 552.148 46.1805C551.861 45.3405 552.148 44.7668 552.435 43.9063C552.435 42.4927 552.721 41.919 552.721 39.0917Z" fill="#061120"/>
<path d="M543.361 19.832V22.1062L566.881 41.6517C566.881 41.6517 568.582 43.3522 568.582 44.1922C568.582 45.0322 568.582 48.1668 568.869 48.4332C568.869 48.72 569.442 49.0068 569.996 49.0068C570.282 49.0068 573.397 48.4332 575.097 46.1795C577.084 43.9053 577.638 42.2049 577.638 41.6517C577.638 41.078 577.638 40.238 577.351 39.9512C577.064 39.6643 572.823 40.238 571.962 39.9512C571.122 39.6643 570.262 39.3775 569.975 39.3775C569.688 39.0907 544.754 20.4057 544.754 20.4057L543.361 19.832Z" fill="#061120"/>
<path d="M567.166 27.7607C567.166 27.7607 568.006 31.7354 563.765 31.7354C559.524 31.7354 559.79 28.3344 559.79 28.3344L567.166 27.7607Z" fill="#061120"/>
<path d="M579.625 26.6338V27.7606C579.625 27.7606 578.785 28.8874 577.925 29.4611C577.085 30.0348 575.098 30.8748 575.098 30.8748C575.098 30.8748 576.224 33.4153 576.224 34.2758C576.224 35.1158 576.224 37.9636 576.224 37.9636C576.224 37.9636 575.938 38.8036 573.684 38.8036C571.43 38.8036 570.857 37.9636 570.57 37.6768C570.57 37.3899 570.283 34.2758 570.283 34.2758C570.283 34.2758 569.709 32.8621 569.156 32.2884C568.583 31.7148 568.316 31.1616 568.029 30.8748C568.029 30.3011 569.156 27.7606 569.156 27.4738C569.443 27.1869 569.73 26.9001 569.73 26.9001L579.625 26.6338Z" fill="#061120"/>
<path d="M542.806 20.9587V18.6845L525.247 4.52734H523.547V5.65419C523.834 5.65419 541.392 20.385 541.679 20.6718C541.945 20.9587 542.806 20.9587 542.806 20.9587Z" fill="#061120"/>
<path d="M518.445 0C518.445 0 518.445 1.98731 519.285 2.82731C520.125 3.66732 521.273 4.24097 522.399 3.40097C523.526 2.56097 522.686 1.41366 522.113 0.860489C521.273 -3.72458e-06 518.445 0 518.445 0Z" fill="#061120"/>
<path d="M599.745 28.6215C599.745 28.6215 602.019 28.0478 602.859 25.2205C603.986 22.3931 604.273 19.279 601.446 16.4311C598.618 13.6038 595.217 15.0175 594.644 15.0175C594.07 15.3043 592.103 16.1443 591.816 16.718C591.53 17.2916 591.53 18.1316 592.656 17.8448C593.496 17.8448 596.631 17.2711 598.598 19.8321C600.298 22.3726 600.011 23.52 600.298 24.0731C600.298 24.9132 600.298 27.1873 600.012 27.761C599.458 28.6215 599.745 28.6215 599.745 28.6215Z" fill="#061120"/>
<path d="M584.439 37.3895C584.439 38.2295 584.726 40.2168 584.726 40.2168C584.726 40.2168 585.853 40.5036 587.267 40.2168C588.967 40.2168 590.668 40.5036 591.241 40.7904C591.815 41.3641 592.368 41.9173 592.081 42.2041C591.795 42.7778 588.967 42.4909 587.84 42.4909C586.713 42.4909 582.452 40.5036 582.165 39.9505C581.591 39.3768 581.038 39.3768 580.752 39.9505C580.465 40.2373 576.224 47.0393 575.65 47.5924C575.076 48.1661 575.076 49.0061 575.65 49.2929C576.49 49.5798 577.064 49.0061 577.637 49.2929C578.211 49.8666 577.35 50.7066 579.051 51.2803C580.751 51.8539 581.038 51.8539 581.591 51.5671C582.165 51.2803 584.132 47.3261 584.419 47.0393C584.706 46.7524 584.419 46.4656 583.845 45.9124C583.271 45.6256 581.305 44.2119 581.305 44.2119C581.305 44.2119 581.878 43.9251 582.718 43.9251C583.558 44.2119 586.119 45.3388 586.406 45.6256V47.0393C586.406 47.3261 583.866 51.8539 583.292 52.4276C582.718 53.0012 580.752 55.8286 578.764 56.1154C576.777 56.4022 576.777 56.1154 576.49 56.1154C576.203 56.1154 575.65 55.5417 574.79 55.2754C573.663 55.2754 550.716 55.2754 550.716 55.2754C550.716 55.2754 549.876 55.2754 549.589 55.8491C549.303 56.1359 549.016 58.1232 549.016 58.3896C549.016 58.6764 547.889 59.2296 547.602 59.2296C547.028 59.2296 545.615 59.5164 545.062 60.0696C544.222 60.6432 543.074 61.7701 543.074 61.7701V67.1584C543.074 67.1584 543.648 72.2599 544.775 75.9477C545.902 79.6355 546.475 83.8765 547.602 84.1634C548.442 84.4502 549.016 84.1634 549.589 84.1634C550.163 83.8765 552.13 82.4629 552.417 82.176C552.704 81.8892 552.99 81.6024 552.704 81.0492C552.417 80.4755 551.29 77.0745 550.716 75.6609C550.143 74.2472 549.303 71.1331 549.589 70.5594C549.876 69.9857 549.876 69.4326 550.429 69.4326C551.003 69.4326 552.417 70.8462 552.97 71.4199C553.257 71.7067 555.797 74.534 556.371 74.534C556.945 74.534 557.498 74.534 557.498 74.534V67.7321C557.498 67.7321 556.924 66.8921 554.384 65.7447C551.843 64.5974 547.868 64.0442 547.868 64.0442C547.868 64.0442 547.582 63.2042 547.868 63.2042C548.155 63.2042 553.544 62.3642 555.797 63.491C558.071 64.6179 557.785 64.6179 558.071 64.9047C558.358 65.1916 558.358 68.0189 558.645 68.3057C558.932 68.8794 558.932 69.4326 559.772 69.1457C560.899 68.8589 560.612 68.5721 561.759 68.3057C562.886 68.3057 565.447 68.0189 565.734 68.3057C566.308 68.5926 566.021 68.5926 566.308 68.5926C566.594 68.5926 567.721 68.5926 567.721 68.5926C567.721 68.5926 567.434 67.4657 566.881 67.1789C566.308 66.892 565.754 66.3389 565.467 65.7652C565.181 65.1915 565.181 63.2247 565.181 63.2247C565.181 63.2247 565.468 64.0647 566.594 64.6384C567.434 65.2121 568.295 65.4784 568.868 66.052C569.442 66.6257 569.442 66.892 569.155 67.4657C568.869 67.7525 568.315 68.5925 568.028 69.1662C568.028 69.7399 567.455 70.293 567.742 70.5799C568.029 70.8667 571.143 74.8209 571.143 74.8209C571.143 74.8209 571.716 75.1077 571.983 75.1077C572.556 75.1077 575.097 70.8667 577.371 69.4326C579.645 67.9984 579.911 66.8921 585.013 66.3184C590.114 65.7447 592.942 66.0316 592.942 66.0316C592.942 66.0316 593.515 65.7447 593.229 65.4579C592.942 65.1711 589.828 63.4706 585.874 63.7574C581.899 64.0442 579.932 65.4579 579.358 65.4579C578.785 65.4579 576.531 64.8842 575.384 64.0442C574.544 63.2042 572.556 61.2169 572.269 60.3564C572.269 59.5164 572.269 59.5164 572.269 59.5164C572.269 59.5164 572.843 59.2296 573.11 59.5164C573.683 59.8032 573.949 60.3564 574.236 60.3564C574.523 60.3564 577.064 60.3564 577.637 60.3564C577.924 60.3564 579.338 60.0696 581.038 58.9427C582.739 57.8159 586.713 52.7144 588.68 48.7398C590.668 44.7651 592.081 44.7651 592.081 44.7651C592.081 44.7651 591.508 48.1661 590.954 49.5798C590.381 50.9934 589.828 51.8539 589.828 52.6939C589.828 53.5339 590.401 54.3944 592.102 55.5213C593.802 56.3613 594.376 56.3613 594.376 56.0949C594.376 55.8286 595.216 50.7066 595.503 49.2929C595.503 47.8793 595.79 46.1788 595.503 45.3183C595.216 44.4783 594.663 43.9046 594.663 43.3309C594.663 42.7573 594.376 41.9173 594.663 41.6304C594.95 41.3436 597.49 39.93 597.49 36.529C597.49 33.4148 595.79 32.288 595.79 32.288C595.79 32.288 595.503 31.4479 595.79 31.1611C596.076 30.8743 599.477 28.6206 598.617 25.486C597.777 22.3718 596.343 20.0977 592.942 20.0977C589.541 20.0977 587.553 22.925 587.553 24.3386C587.553 25.7523 588.967 27.4528 590.954 27.4528C592.942 27.4528 592.368 26.326 594.069 26.6128C595.769 26.6128 595.769 28.0265 595.769 28.3133C595.769 28.887 594.929 30.8538 593.782 30.8538C592.655 30.8538 590.094 31.1406 590.094 31.1406C590.094 31.1406 588.393 31.4275 587.553 32.2675C586.427 33.1075 585.279 33.968 585.279 33.968V34.808C585.279 34.808 589.254 35.648 589.254 36.2216C589.254 36.7953 588.967 36.7953 588.414 37.0616C587.287 36.5494 584.439 36.8363 584.439 37.3895ZM561.493 60.9096L564.894 60.6228C564.894 60.6228 565.734 59.4959 567.168 58.9223C568.582 58.3486 569.995 57.5086 569.995 57.5086C569.995 57.5086 567.168 56.9349 564.607 58.3486C562.353 59.7623 561.493 60.9096 561.493 60.9096ZM575.097 66.5642C575.097 66.5642 575.097 66.8511 574.81 67.1379C574.523 67.4247 573.11 68.8384 572.536 68.8384C571.962 68.8384 571.122 67.9984 571.122 67.4247C571.122 66.8511 571.409 66.2979 571.409 66.2979L575.097 66.5642Z" fill="#061120"/>
<path d="M590.687 62.8968V61.7699C590.687 61.4831 586.713 58.0821 585.873 57.5289C585.033 56.9553 584.746 56.9553 584.172 57.2421C583.332 57.5289 581.345 59.5163 580.484 59.7826C579.644 60.0694 577.37 60.6226 575.383 60.3563C573.395 60.0694 573.969 61.1963 574.256 61.4831C574.83 61.7699 575.67 62.8968 577.083 62.8968C578.21 62.8968 581.611 62.8968 581.898 62.8968C582.185 62.8968 585.873 62.0568 586.999 62.0568C587.839 62.3231 590.687 62.8968 590.687 62.8968Z" fill="#061120"/>
<path d="M588.413 54.3941L625.23 83.8557C625.23 83.8557 626.07 84.6957 625.517 85.5562C624.943 86.3962 624.103 85.843 624.103 85.843L586.426 56.3814C586.426 56.3814 585.586 55.2546 586.426 54.3941C587.287 54.1073 588.413 54.3941 588.413 54.3941Z" fill="#061120"/>
<path d="M620.414 105.39C620.414 105.39 613.612 105.964 609.371 100.575C605.13 95.1869 605.13 94.0601 605.13 94.0601C605.13 94.0601 604.003 91.2327 604.29 90.3723C604.29 89.5323 606.564 86.9712 606.564 82.7302C606.277 78.4892 603.163 73.6746 601.462 71.6873C599.762 69.9868 595.521 67.1594 591.259 66.8726C587.018 66.5858 584.17 68.8599 583.904 69.1468C583.638 69.4336 583.33 69.9868 583.33 70.2736C583.617 70.5604 583.617 70.8473 584.17 70.8473C584.457 70.8473 588.985 70.8473 590.112 72.8346C591.526 74.8219 592.099 76.5224 591.812 77.3624C591.812 77.9361 591.526 78.4893 591.239 78.4893C590.952 78.4893 587.551 80.1898 586.424 82.4639C585.297 84.7381 584.724 86.9917 584.437 87.2786C584.15 87.5654 584.15 88.4054 583.597 88.4054C583.023 88.4054 581.61 84.7176 581.323 83.3039C581.036 81.8902 580.483 79.3293 580.749 76.7888C581.323 74.2483 582.449 73.1009 582.163 72.5477C581.876 71.9946 581.876 71.7078 581.323 71.7078C580.483 71.7078 579.048 74.5351 578.782 74.8219C578.516 75.1087 577.655 77.6492 577.655 77.9361C577.655 78.2229 577.368 78.5097 577.082 78.5097C576.795 78.5097 574.254 75.6824 574.254 75.6824H573.414V76.8092C573.414 76.8092 575.955 82.7507 576.528 85.0249C577.102 87.5654 578.229 91.8269 578.229 92.1137C578.229 92.4005 578.229 92.9537 578.803 92.9537C579.089 92.9537 583.33 94.0806 585.605 95.7811C587.879 97.4816 589.846 98.8952 590.419 99.4689C590.993 100.309 590.993 100.883 590.132 101.169C589.292 101.456 586.731 101.743 585.891 102.296C585.051 102.87 584.478 102.87 584.191 102.583C583.904 102.296 579.376 97.7684 578.249 96.6416C577.123 95.5147 575.975 92.9537 575.422 91.2532C574.848 89.5527 574.008 83.6112 573.435 82.4639C572.861 81.0503 572.021 78.7761 570.894 77.6492C569.767 76.5224 566.92 74.8219 566.92 74.8219V70.8473C566.92 70.8473 567.493 70.8473 567.206 70.5604C566.92 70.2736 565.793 69.4336 564.932 69.4336C564.092 69.1468 561.531 69.4336 560.691 70.0073C559.564 70.2941 558.991 70.5809 558.991 70.8473C558.991 71.1136 559.564 77.0756 559.564 77.3624C559.564 77.6492 559.564 78.2024 558.991 78.2024C558.417 78.2024 554.463 77.0756 554.463 77.3624C554.176 77.3624 553.889 77.9361 554.463 78.2024C554.75 78.4893 557.864 82.4434 557.864 82.4434C557.864 82.4434 558.151 82.7302 558.438 82.4434C558.724 82.1566 559.011 81.3166 559.278 81.3166C559.564 81.3166 560.404 83.3039 560.404 83.8571C560.691 84.6971 560.404 85.5576 560.978 85.8444C561.265 86.1312 563.519 86.1312 563.519 86.1312C563.519 86.1312 563.519 87.5449 564.092 88.1186C564.666 88.6922 566.08 89.2454 566.633 88.6922C567.473 88.1186 567.473 86.4181 566.92 85.8649C566.346 85.2912 564.932 85.0249 564.932 85.0249C564.932 85.0249 565.506 82.4844 565.772 81.6239C565.772 80.7839 566.346 78.2229 566.346 78.2229C566.346 78.2229 566.346 78.2229 566.92 78.2229C567.207 78.2229 568.907 79.6366 569.194 81.0502C569.481 82.4639 570.894 86.1517 570.607 90.1059C570.321 93.7937 570.034 94.3469 569.767 94.6337C569.481 94.9206 568.641 96.6211 566.94 97.4611C565.24 98.5879 561.552 100.288 557.598 103.976C553.623 107.377 549.956 112.192 549.382 113.892C548.808 115.593 549.095 115.306 549.095 115.306C549.095 115.306 550.222 115.593 550.509 115.593C550.796 115.593 558.438 115.593 558.438 115.593L559.278 115.019C559.278 114.732 561.552 109.918 567.493 107.664C573.435 105.39 575.422 105.124 576.836 105.124C578.249 105.124 578.249 104.837 578.536 105.124C578.823 105.41 580.524 109.938 581.937 110.225C583.351 110.512 584.211 110.799 585.625 109.938C587.039 109.098 588.452 106.25 590.153 105.124C591.853 103.997 592.98 102.583 594.681 102.583C596.381 102.583 595.808 103.157 596.094 103.423C596.381 103.689 596.934 105.697 597.795 106.537C598.635 107.377 600.909 108.525 600.909 108.525H605.437V107.398C605.437 107.398 602.896 105.697 601.749 103.157C600.622 100.616 600.335 98.6289 600.049 96.3547C600.049 94.3674 600.049 91.8269 599.475 90.4132C598.901 88.9995 597.774 87.2991 596.934 87.0122C596.361 86.7254 595.234 86.1722 595.234 86.1722C595.234 86.1722 594.947 85.5986 595.808 85.0454C596.934 84.4717 598.922 84.4717 599.495 84.7586C600.069 85.0454 601.483 86.1722 601.77 87.0327C602.056 87.8727 602.343 90.7206 602.056 91.8474C601.77 92.9742 600.069 99.2025 603.47 102.604C606.871 106.005 610.825 107.131 612.259 107.418C613.673 107.705 617.648 107.705 618.775 107.418C619.901 107.131 621.602 106.005 621.602 106.005L620.414 105.39ZM598.614 79.5956C598.614 79.5956 593.226 79.0219 592.386 82.1361C591.546 85.5371 591.812 86.3771 592.099 86.9508C592.386 87.5244 593.8 88.3644 594.087 89.2249C594.373 90.0649 594.373 96.8669 594.373 96.8669L594.087 101.108C594.087 101.108 593.513 101.682 592.96 101.395C592.386 101.108 591.546 100.268 590.972 97.7069C590.399 95.1664 589.559 88.6512 589.559 86.3771C589.846 83.8366 590.686 80.1488 592.099 79.2883C593.513 78.4483 594.373 77.8746 595.5 78.1614C596.34 78.1614 598.901 79.2883 598.901 79.2883L598.614 79.5956ZM553.562 111.905V110.778C553.562 110.778 557.249 105.964 562.351 103.136C567.739 100.309 569.993 99.4484 569.993 99.4484C569.993 99.4484 572.533 98.3216 572.82 99.7352C573.394 101.149 572.533 101.149 571.12 101.723C569.706 102.009 564.604 103.71 562.064 106.25C559.523 108.791 556.676 112.192 556.676 112.192L553.562 111.905Z" fill="#061120"/>
<path d="M455.264 288.387C454.977 289.514 454.424 290.928 453.277 291.215C451.863 291.788 450.736 290.641 450.449 289.514C450.736 288.1 451.023 286.687 452.437 286.113C454.137 285.539 455.264 287.24 455.264 288.387Z" fill="#061120"/>
<path d="M616.747 283.574C613.346 295.191 608.818 307.094 605.13 318.424C604.557 319.551 605.417 321.252 607.118 321.252C607.691 321.252 608.531 321.252 608.818 322.092L608.245 322.665H595.214L594.641 322.092C596.628 321.252 599.742 320.391 600.869 317.564C603.983 307.648 608.511 297.731 610.498 287.262C609.658 285.275 607.097 287.836 606.524 286.135C609.945 285.254 613.346 284.414 616.747 283.574Z" fill="#061120"/>
<path d="M549.608 283.84C545.633 295.743 541.392 307.36 537.705 319.243C537.418 320.37 538.831 321.517 539.692 321.783H541.106V322.623C536.578 322.91 531.476 323.197 527.215 322.623C528.055 321.21 530.329 321.497 531.743 320.349C536.557 310.433 539.672 299.103 543.359 288.347C543.359 287.507 542.519 286.934 541.659 286.934C540.798 286.934 539.671 287.22 539.118 286.647C542.232 285.253 546.207 284.7 549.608 283.84Z" fill="#061120"/>
<path d="M576.223 284.988C568.295 297.445 561.493 311.336 553.564 323.239C552.99 322.953 552.15 322.953 551.863 322.113C557.252 311.356 564.607 300.293 570.569 289.25L569.442 288.41C563.767 288.123 557.825 288.123 554.998 292.938L554.711 292.651L558.952 284.722C564.34 283.882 569.995 284.435 575.67 284.148L576.223 284.988Z" fill="#061120"/>
<path d="M501.73 300.845C502.017 302.545 501.443 304.246 499.743 303.959C496.916 303.959 499.456 300.845 496.916 300.271C490.974 300.271 488.126 307.073 486.713 311.601C485.873 314.428 485.586 318.116 487.553 320.103C488.966 321.517 491.527 321.23 493.494 320.39C494.068 319.817 494.908 318.977 495.768 319.263C495.481 320.677 494.355 322.378 492.654 323.504C490.114 324.344 486.426 325.205 484.152 323.218C481.877 320.39 481.324 317.542 482.164 313.301C483.004 307.073 487.839 301.111 493.781 298.857C496.342 298.284 500.317 298.017 501.73 300.845Z" fill="#061120"/>
<path d="M452.147 300.845C450.159 307.073 447.045 313.589 445.058 319.264C445.058 319.837 445.345 320.677 446.185 320.391C448.459 319.264 449.872 317.563 451.573 315.863L452.147 316.703C449.319 320.104 446.205 324.918 441.104 324.058L440.264 322.071C441.964 315.842 445.939 310.167 447.619 303.099C447.045 302.259 445.918 302.812 445.345 303.386C444.771 303.959 444.218 304.512 443.357 304.512L443.071 304.226C444.484 301.951 446.758 299.411 449.586 298.837C451.02 298.571 452.433 299.431 452.147 300.845Z" fill="#061120"/>
<path d="M465.464 300.845C465.464 303.119 464.051 305.086 464.624 306.787C468.599 303.386 472.266 297.444 478.228 299.144C479.929 300.558 479.355 303.385 478.515 305.086C476.528 309.614 474.274 314.715 472.573 318.403C474.848 321.517 476.548 316.703 478.802 316.129C479.376 317.829 477.388 318.956 475.974 320.37C473.987 322.357 471.16 324.345 468.619 323.771L467.779 322.357C469.767 316.682 472.881 310.741 475.708 303.939C475.995 302.525 475.134 301.111 473.434 301.398C467.759 304.512 464.092 311.314 461.244 316.129C459.83 318.669 458.97 322.644 456.429 324.345C455.589 324.058 454.442 323.218 454.729 322.357C457.003 317.256 460.957 311.027 462.084 303.939C461.244 301.951 459.81 304.225 458.683 304.512C458.396 305.086 457.843 305.926 457.269 305.926C457.843 303.385 459.81 300.251 462.371 298.837C464.051 298.284 465.464 299.431 465.464 300.845Z" fill="#061120"/>
<path d="M440.264 301.131C440.264 302.258 439.691 303.406 438.564 303.406C436.577 303.406 435.45 299.431 432.889 301.705C428.914 305.946 434.876 310.208 436.577 314.162C437.15 317.563 435.45 319.55 433.176 322.377C430.901 324.078 427.234 325.778 424.673 323.791C423.259 322.951 423.259 321.251 424.099 320.39C426.927 318.116 428.074 324.078 431.455 321.517C438.257 315.575 424.099 311.314 429.18 303.959C430.594 301.971 432.295 299.431 434.856 298.857C436.863 298.857 439.978 298.57 440.264 301.131Z" fill="#061120"/>
<path d="M599.457 284.414C592.368 286.115 586.713 291.769 583.312 298.018C586.427 297.178 590.401 296.891 592.655 299.719C594.929 302.833 594.642 307.074 593.782 310.762C592.368 315.863 588.967 319.817 584.439 322.665C582.165 323.792 578.498 323.792 576.51 322.092C571.983 317.277 571.983 313.589 573.396 307.361C576.224 296.031 587 284.414 599.17 283.574C599.457 283.574 599.457 284.127 599.457 284.414ZM585.3 299.719C583.599 300.006 582.186 300.559 580.772 301.706C578.231 307.381 574.257 315.597 579.071 320.965C580.485 321.805 582.759 321.251 584.173 320.125C587.861 315.31 590.401 309.082 589.274 302.853C588.414 301.419 587.287 299.719 585.3 299.719Z" fill="#061120"/>
<path d="M519.286 301.13C519.286 303.118 519.286 305.658 517.299 307.359C513.898 310.186 509.37 311.333 504.842 311.6C503.142 314.427 503.429 316.701 504.556 319.529C505.969 321.516 509.37 321.516 511.358 320.102C512.484 319.815 513.345 317.828 514.185 318.689C513.058 322.663 508.797 324.077 505.129 324.364C502.855 324.077 500.315 322.95 499.741 320.676C498.614 314.448 501.441 307.359 505.682 302.257C509.083 298.283 516.459 296.316 519.286 301.13ZM513.058 299.983C508.817 301.397 506.83 305.925 505.703 309.326C506.83 310.166 509.104 309.326 510.518 309.039C513.345 307.912 515.619 305.064 515.619 301.95C515.599 300.844 514.185 299.983 513.058 299.983Z" fill="#061120"/>
</svg>
