<svg width="44" height="43" viewBox="0 0 44 43" fill="none" xmlns="http://www.w3.org/2000/svg">
<path d="M38.2392 4.37012H6.20061C5.67551 4.37012 5.17191 4.57275 4.80061 4.93345C4.4293 5.29415 4.2207 5.78336 4.2207 6.29346V37.4166C4.2207 37.6692 4.27192 37.9193 4.37142 38.1527C4.47091 38.386 4.61675 38.5981 4.80061 38.7767C4.98446 38.9553 5.20272 39.0969 5.44294 39.1936C5.68315 39.2902 5.94061 39.34 6.20061 39.34H23.4438V25.7892H18.7641V20.5437H23.4438V16.6096C23.3469 15.6859 23.4592 14.7529 23.7727 13.8759C24.0863 12.9988 24.5936 12.1991 25.259 11.5327C25.9244 10.8663 26.7319 10.3493 27.6247 10.0182C28.5176 9.687 29.4742 9.5496 30.4275 9.6156C31.8285 9.60722 33.2287 9.67728 34.6213 9.82542V14.5463H31.7595C29.4916 14.5463 29.0596 15.5954 29.0596 17.1166V20.4912H34.4594L33.7574 25.7367H29.0596V39.34H38.2392C38.4992 39.34 38.7567 39.2902 38.9969 39.1936C39.2371 39.0969 39.4553 38.9553 39.6392 38.7767C39.8231 38.5981 39.9689 38.386 40.0684 38.1527C40.1679 37.9193 40.2191 37.6692 40.2191 37.4166V6.29346C40.2191 6.04088 40.1679 5.79078 40.0684 5.55743C39.9689 5.32408 39.8231 5.11205 39.6392 4.93345C39.4553 4.75485 39.2371 4.61318 38.9969 4.51652C38.7567 4.41987 38.4992 4.37012 38.2392 4.37012Z" fill="black"/>
</svg>
