<svg width="161" height="209" viewBox="0 0 161 209" fill="none" xmlns="http://www.w3.org/2000/svg">
<path fill-rule="evenodd" clip-rule="evenodd" d="M80.4974 41.9695C71.505 41.9695 62.7649 44.9422 55.6373 50.4249L54.1897 51.5385C42.8345 60.2733 36.1804 73.7868 36.1804 88.1128V89.2559C36.1804 96.7798 37.9322 104.2 41.297 110.93L45.7173 119.771C50.667 129.67 53.5666 140.448 54.2637 151.458H106.731C107.428 140.448 110.328 129.67 115.277 119.771L119.698 110.93C123.062 104.2 124.814 96.7798 124.814 89.2559V88.1128C124.814 73.7868 118.16 60.2733 106.805 51.5385L105.357 50.4249C98.2298 44.9422 89.4897 41.9695 80.4974 41.9695ZM106.566 161.886H54.4286C54.4286 163.395 54.9577 164.932 55.7288 165.998C56.1014 166.512 56.4549 166.813 56.7047 166.965C56.8245 167.038 56.9097 167.071 56.9576 167.085C57.0027 167.099 57.0255 167.1 57.0355 167.1H103.959C103.969 167.1 103.992 167.099 104.037 167.085C104.085 167.071 104.17 167.038 104.29 166.965C104.54 166.813 104.893 166.512 105.266 165.998C106.037 164.932 106.566 163.395 106.566 161.886ZM49.2796 42.1599C58.2299 35.275 69.2053 31.542 80.4974 31.542C91.7894 31.542 102.765 35.275 111.715 42.1599L113.163 43.2734C127.084 53.9821 135.242 70.5493 135.242 88.1128V89.2559C135.242 98.3986 133.113 107.416 129.024 115.593L124.604 124.434C119.599 134.444 116.994 145.481 116.994 156.672V161.886C116.994 165.59 115.772 169.267 113.713 172.112C112.59 173.664 111.059 175.159 109.173 176.183V177.527C109.173 183.792 104.896 189.936 98.7455 192.228V193.168C98.7455 201.807 91.7427 208.81 83.1042 208.81H77.8905C69.252 208.81 62.2492 201.807 62.2492 193.168V192.228C56.0984 189.936 51.8217 183.792 51.8217 177.527V176.183C49.9356 175.159 48.4052 173.664 47.282 172.112C45.2227 169.267 44.0011 165.59 44.0011 161.886V156.672C44.0011 145.481 41.3955 134.444 36.3907 124.434L31.9704 115.593C27.8816 107.416 25.7529 98.3986 25.7529 89.2559V88.1128C25.7529 70.5493 33.9107 53.9821 47.8319 43.2734L49.2796 42.1599ZM62.2492 177.527C62.2492 180.037 64.7563 182.741 67.463 182.741H93.5317C96.2384 182.741 98.7455 180.037 98.7455 177.527H62.2492ZM72.6767 193.168C72.6767 196.048 75.011 198.382 77.8905 198.382H83.1042C85.9837 198.382 88.318 196.048 88.318 193.168H72.6767Z" fill="#000033"/>
<path fill-rule="evenodd" clip-rule="evenodd" d="M80.5017 3.13969e-07C83.3812 -0.000988226 85.7163 2.33249 85.7173 5.21197L85.7207 15.3823C85.7217 18.2617 83.3883 20.5968 80.5088 20.5978C77.6293 20.5988 75.2942 18.2653 75.2932 15.3858L75.2897 5.21554C75.2888 2.33607 77.6222 0.000988543 80.5017 3.13969e-07ZM30.6963 14.7684C32.9378 12.9608 36.2201 13.3125 38.0277 15.554L44.6645 23.7837C46.4721 26.0252 46.1204 29.3076 43.8789 31.1151C41.6375 32.9227 38.3551 32.571 36.5475 30.3296L29.9107 22.0998C28.1032 19.8583 28.4549 16.576 30.6963 14.7684ZM130.304 14.7684C132.545 16.576 132.897 19.8583 131.089 22.0998L124.452 30.3296C122.645 32.571 119.363 32.9227 117.121 31.1151C114.88 29.3076 114.528 26.0252 116.336 23.7837L122.972 15.554C124.78 13.3125 128.062 12.9608 130.304 14.7684ZM0.211499 52.9974C1.02076 50.234 3.91699 48.6499 6.68041 49.4591L17.4225 52.6049C20.1859 53.4142 21.77 56.3104 20.9608 59.0738C20.1515 61.8372 17.2553 63.4214 14.4919 62.6121L3.74982 59.4664C0.9864 58.6571 -0.59776 55.7609 0.211499 52.9974ZM160.789 52.9974C161.598 55.7609 160.014 58.6571 157.25 59.4664L146.508 62.6121C143.745 63.4214 140.848 61.8372 140.039 59.0738C139.23 56.3104 140.814 53.4142 143.578 52.6049L154.32 49.4591C157.083 48.6499 159.979 50.234 160.789 52.9974Z" fill="#A17246"/>
<path d="M62.6333 74.4408V69.9801C62.6333 69.1194 63.3389 68.4216 64.2092 68.4216H69.0456C69.9159 68.4216 70.6215 69.1194 70.6215 69.9801V74.4408C70.6215 75.3016 69.9159 75.9993 69.0456 75.9993H64.2092C63.3389 75.9993 62.6333 75.3016 62.6333 74.4408Z" fill="#357080"/>
<path d="M57.0905 79.7613V77.3967C57.0905 76.9811 57.4311 76.6442 57.8513 76.6442H60.4053C60.8255 76.6442 61.1661 76.9811 61.1661 77.3967V79.7613C61.1661 80.1769 60.8255 80.5137 60.4053 80.5137H57.8513C57.4311 80.5137 57.0905 80.1769 57.0905 79.7613Z" fill="#357080"/>
<path d="M58.8294 100.103H65.7117C66.3087 100.103 66.794 99.6266 66.7985 99.0361L66.916 83.4323C66.9367 80.6866 69.1932 78.4715 71.9697 78.4715H86.8424C88.373 78.4715 89.6138 77.2444 89.6138 75.7306V69.6682C89.6138 68.8139 90.3093 68.1188 91.1731 68.1097L97.9346 68.0392C99.023 68.0278 99.9115 68.8973 99.9115 69.9738V75.65C99.9115 76.9263 98.8653 77.961 97.5748 77.961H92.1954C90.8253 77.961 89.7106 79.0516 89.6958 80.4065L89.4993 98.443C89.4875 99.5196 90.3668 100.399 91.4554 100.399H101.352C102.792 100.399 103.96 101.554 103.96 102.978V112.276C103.96 113.76 102.743 114.963 101.243 114.963H91.9669C90.3911 114.963 89.1079 113.71 89.087 112.152L88.9655 103.085C88.9483 101.8 87.8974 100.764 86.5987 100.752L68.3316 100.57C67.7343 100.565 67.2441 101.036 67.234 101.627L67.1255 107.959C67.1054 109.132 66.1383 110.072 64.9522 110.072H58.2316C57.5714 110.072 57.0361 109.543 57.0361 108.89V101.876C57.0361 100.897 57.839 100.103 58.8294 100.103Z" fill="#000033"/>
</svg>
