<svg width="43" height="43" viewBox="0 0 43 43" fill="none" xmlns="http://www.w3.org/2000/svg">
<path d="M21.213 17.5188C20.3553 17.5188 19.517 17.7731 18.8039 18.2496C18.0908 18.7261 17.535 19.4033 17.2068 20.1956C16.8786 20.988 16.7927 21.8599 16.96 22.701C17.1273 23.5422 17.5403 24.3148 18.1468 24.9213C18.7532 25.5277 19.5258 25.9407 20.367 26.108C21.2082 26.2753 22.08 26.1894 22.8724 25.8612C23.6647 25.533 24.342 24.9772 24.8184 24.2642C25.2949 23.5511 25.5492 22.7127 25.5492 21.8551C25.5492 21.2856 25.4371 20.7217 25.2191 20.1956C25.0012 19.6695 24.6818 19.1915 24.2792 18.7889C23.8765 18.3862 23.3985 18.0668 22.8724 17.8489C22.3463 17.6309 21.7824 17.5188 21.213 17.5188ZM38.5755 13.235C38.5663 11.8847 38.3177 10.5468 37.8411 9.28338C37.4902 8.35889 36.9472 7.51932 36.2479 6.82008C35.5487 6.12084 34.7091 5.57783 33.7846 5.22688C32.5212 4.75035 31.1833 4.50171 29.833 4.49251C27.5775 4.37012 26.9131 4.37012 21.213 4.37012C15.5129 4.37012 14.8484 4.37012 12.5929 4.49251C11.2426 4.50171 9.90471 4.75035 8.64129 5.22688C7.7168 5.57783 6.87723 6.12084 6.17799 6.82008C5.47875 7.51932 4.93574 8.35889 4.58479 9.28338C4.10826 10.5468 3.85962 11.8847 3.85042 13.235C3.72803 15.4905 3.72803 16.155 3.72803 21.8551C3.72803 27.5551 3.72803 28.2196 3.85042 30.4751C3.86924 31.8301 4.11755 33.1722 4.58479 34.4442C4.93419 35.3645 5.47675 36.1992 6.17592 36.8921C6.87216 37.5955 7.71352 38.1385 8.64129 38.4832C9.90471 38.9598 11.2426 39.2084 12.5929 39.2176C14.8484 39.34 15.5129 39.34 21.213 39.34C26.9131 39.34 27.5775 39.34 29.833 39.2176C31.1833 39.2084 32.5212 38.9598 33.7846 38.4832C34.7124 38.1385 35.5538 37.5955 36.25 36.8921C36.9492 36.1992 37.4917 35.3645 37.8411 34.4442C38.3172 33.1746 38.5658 31.831 38.5755 30.4751C38.6979 28.2196 38.6979 27.5551 38.6979 21.8551C38.6979 16.155 38.6979 15.4905 38.5755 13.235ZM34.1343 27.2229C34.0782 28.3019 33.8479 29.3648 33.4524 30.3702C33.113 31.2089 32.6084 31.9709 31.9686 32.6107C31.3288 33.2504 30.5669 33.7551 29.7281 34.0945C28.7131 34.468 27.6444 34.6746 26.5634 34.7065C25.182 34.7065 24.8149 34.7065 21.213 34.7065C17.6111 34.7065 17.2439 34.7065 15.8626 34.7065C14.7815 34.6746 13.7128 34.468 12.6978 34.0945C11.8307 33.7723 11.0477 33.2582 10.4073 32.5908C9.77374 31.9635 9.28447 31.2058 8.97351 30.3702C8.59856 29.3563 8.39757 28.2863 8.37902 27.2054C8.37902 25.8241 8.37902 25.4569 8.37902 21.8551C8.37902 18.2532 8.37902 17.886 8.37902 16.5047C8.39757 15.4238 8.59856 14.3538 8.97351 13.3399C9.29572 12.4728 9.80977 11.6898 10.4772 11.0494C11.1073 10.4192 11.8642 9.93049 12.6978 9.6156C13.7128 9.24213 14.7815 9.03546 15.8626 9.00363C17.2439 9.00363 17.6111 9.00363 21.213 9.00363C24.8149 9.00363 25.182 9.00363 26.5634 9.00363C27.6444 9.03546 28.7131 9.24213 29.7281 9.6156C30.5952 9.93781 31.3782 10.4519 32.0187 11.1193C32.6522 11.7466 33.1415 12.5043 33.4524 13.3399C33.8259 14.3549 34.0326 15.4236 34.0644 16.5047C34.0644 17.886 34.0644 18.2532 34.0644 21.8551C34.0644 25.4569 34.1868 25.8241 34.1343 27.2054V27.2229ZM31.3367 14.2141C31.1286 13.6493 30.8003 13.1364 30.3747 12.7108C29.9491 12.2852 29.4362 11.9569 28.8714 11.7488C28.0959 11.4799 27.2791 11.3497 26.4584 11.3641C25.0946 11.3641 24.7099 11.3641 21.213 11.3641C17.716 11.3641 17.3313 11.3641 15.9675 11.3641C15.1427 11.3722 14.3258 11.5261 13.5546 11.8187C12.9984 12.0174 12.4909 12.3323 12.0659 12.7423C11.6408 13.1523 11.3079 13.648 11.0892 14.1967C10.8353 14.9754 10.7112 15.7906 10.722 16.6096C10.722 17.9734 10.722 18.3581 10.722 21.8551C10.722 25.352 10.722 25.7367 10.722 27.1005C10.7393 27.9244 10.8929 28.7397 11.1766 29.5135C11.3848 30.0782 11.713 30.5912 12.1387 31.0168C12.5643 31.4424 13.0772 31.7707 13.642 31.9788C14.388 32.2532 15.1731 32.4067 15.9675 32.4334C17.3313 32.4334 17.716 32.4334 21.213 32.4334C24.7099 32.4334 25.0946 32.4334 26.4584 32.4334C27.2833 32.4254 28.1002 32.2715 28.8714 31.9788C29.4362 31.7707 29.9491 31.4424 30.3747 31.0168C30.8003 30.5912 31.1286 30.0782 31.3367 29.5135C31.6294 28.7422 31.7833 27.9254 31.7913 27.1005C31.7913 25.7367 31.7913 25.352 31.7913 21.8551C31.7913 18.3581 31.7913 17.9734 31.7913 16.6096C31.7919 15.7839 31.6377 14.9655 31.3367 14.1967V14.2141ZM21.213 28.5343C20.3367 28.5343 19.469 28.3614 18.6596 28.0255C17.8502 27.6897 17.115 27.1974 16.4962 26.5769C15.8774 25.9565 15.387 25.22 15.0533 24.4098C14.7195 23.5995 14.5489 22.7314 14.5512 21.8551C14.5512 20.5333 14.9434 19.2412 15.6781 18.1425C16.4128 17.0437 17.457 16.1876 18.6785 15.6826C19.9 15.1776 21.2438 15.0463 22.5399 15.3055C23.8361 15.5646 25.0262 16.2025 25.9596 17.1383C26.893 18.0742 27.5277 19.266 27.7835 20.5627C28.0392 21.8595 27.9045 23.2031 27.3962 24.4232C26.888 25.6434 26.0292 26.6853 24.9285 27.4172C23.8278 28.149 22.5347 28.5378 21.213 28.5343ZM28.2069 16.4872C27.8204 16.4463 27.4627 16.2638 27.2027 15.9748C26.9428 15.6859 26.7989 15.311 26.7989 14.9223C26.7989 14.5336 26.9428 14.1587 27.2027 13.8697C27.4627 13.5808 27.8204 13.3983 28.2069 13.3574C28.5935 13.3983 28.9512 13.5808 29.2111 13.8697C29.4711 14.1587 29.6149 14.5336 29.6149 14.9223C29.6149 15.311 29.4711 15.6859 29.2111 15.9748C28.9512 16.2638 28.5935 16.4463 28.2069 16.4872Z" fill="black"/>
</svg>
