<svg width="1049" height="219" viewBox="0 0 1049 219" fill="none" xmlns="http://www.w3.org/2000/svg">
<path d="M0.243457 205.856C127.447 189.476 531.179 140.414 1048.73 205.143C1050.87 205.406 1039.75 217.804 1037.61 217.695C918.701 213.821 583.984 186.113 13.2275 218.206C11.0868 218.33 -1.92831 206.135 0.243457 205.856ZM181.509 37.6255C190.041 37.6255 202.358 33.147 208.904 27.6613L241.868 0H191.018C182.486 0 170.153 4.47849 163.623 9.96426L130.643 37.6255H181.509ZM643.181 129.225L598.939 95.9234C632.911 91.4449 641.893 69.6723 641.893 49.1859C641.257 24.2056 623.945 1.14674 568.177 1.14674H462.396V129.225H509.834L510.47 28.0487H556.636C579.703 28.0487 593.866 35.0996 593.866 49.1859C593.866 65.1938 577.19 72.2293 558.606 72.2293H530.249C522.492 72.2293 521.127 76.2119 527.146 81.0933L586.125 129.225H643.181ZM854.106 129.225L809.864 95.9234C843.837 91.4449 852.819 69.6723 852.819 49.1859C852.183 24.2056 834.87 1.14674 779.087 1.14674H673.322V129.225H720.759L721.395 28.0487H767.499C790.566 28.0487 804.729 35.0996 804.729 49.1859C804.729 65.1938 788.069 72.2293 769.485 72.2293H741.128C733.371 72.2293 732.006 76.2119 738.025 81.0933L796.973 129.225H854.106ZM1048.34 1.08476H989.361L951.541 48.4731L913.085 1.08476H854.106L927.822 81.1398V129.163H975.26V81.1398L1048.34 1.08476ZM426.5 1.08476H265.587V129.163H426.5V100.355H313.661V76.0104H397.01V50.3947H313.661V27.9867H426.5V1.08476ZM236.098 129.225L130.612 37.6875L100.455 63.4117C100.104 63.7026 99.821 64.0672 99.6269 64.4797C99.4328 64.8922 99.3322 65.3424 99.3322 65.7982C99.3322 66.254 99.4328 66.7042 99.6269 67.1167C99.821 67.5292 100.104 67.8939 100.455 68.1847L171.813 129.225H236.098ZM43.1359 1.08476H91.2096V129.163H43.1359V1.08476Z" fill="#005776"/>
</svg>
