<svg width="43" height="43" viewBox="0 0 43 43" fill="none" xmlns="http://www.w3.org/2000/svg">
<path d="M36.0321 4.37036H6.41257C6.07962 4.36574 5.74902 4.42675 5.43965 4.5499C5.13028 4.67306 4.8482 4.85595 4.60952 5.08814C4.37084 5.32032 4.18024 5.59725 4.04859 5.90311C3.91695 6.20896 3.84685 6.53776 3.84229 6.87071V36.8399C3.84685 37.1728 3.91695 37.5016 4.04859 37.8075C4.18024 38.1133 4.37084 38.3903 4.60952 38.6225C4.8482 38.8546 5.13028 39.0375 5.43965 39.1607C5.74902 39.2838 6.07962 39.3449 6.41257 39.3402H36.0321C36.365 39.3449 36.6956 39.2838 37.005 39.1607C37.3143 39.0375 37.5964 38.8546 37.8351 38.6225C38.0738 38.3903 38.2644 38.1133 38.396 37.8075C38.5277 37.5016 38.5978 37.1728 38.6023 36.8399V6.87071C38.5978 6.53776 38.5277 6.20896 38.396 5.90311C38.2644 5.59725 38.0738 5.32032 37.8351 5.08814C37.5964 4.85595 37.3143 4.67306 37.005 4.5499C36.6956 4.42675 36.365 4.36574 36.0321 4.37036ZM14.3857 33.6401H9.14022V17.9037H14.3857V33.6401ZM11.763 15.7006C11.0395 15.7006 10.3458 15.4132 9.83422 14.9017C9.32269 14.3902 9.03531 13.6964 9.03531 12.973C9.03531 12.2495 9.32269 11.5557 9.83422 11.0442C10.3458 10.5327 11.0395 10.2453 11.763 10.2453C12.1471 10.2017 12.5361 10.2398 12.9045 10.357C13.2729 10.4742 13.6124 10.6679 13.9008 10.9254C14.1891 11.1829 14.4198 11.4984 14.5778 11.8513C14.7358 12.2041 14.8174 12.5864 14.8174 12.973C14.8174 13.3595 14.7358 13.7418 14.5778 14.0946C14.4198 14.4475 14.1891 14.763 13.9008 15.0205C13.6124 15.278 13.2729 15.4717 12.9045 15.5889C12.5361 15.7061 12.1471 15.7442 11.763 15.7006ZM33.3044 33.6401H28.0589V25.1949C28.0589 23.0792 27.3071 21.6979 25.4012 21.6979C24.8114 21.7023 24.237 21.8873 23.7556 22.228C23.2741 22.5688 22.9087 23.049 22.7085 23.6038C22.5717 24.0148 22.5124 24.4476 22.5337 24.8802V33.6227H17.2882C17.2882 33.6227 17.2882 19.32 17.2882 17.8862H22.5337V20.1068C23.0102 19.28 23.7033 18.5988 24.5382 18.1366C25.3732 17.6744 26.3184 17.4488 27.2721 17.4841C30.7691 17.4841 33.3044 19.7396 33.3044 24.583V33.6401Z" fill="black"/>
</svg>
