<svg width="122" height="123" viewBox="0 0 122 123" fill="none" xmlns="http://www.w3.org/2000/svg">
<path d="M14.5524 16.7807V5.08812C14.5524 2.83183 16.3868 1.00276 18.6497 1.00276H31.2241C33.4869 1.00276 35.3214 2.83183 35.3214 5.08812V16.7807C35.3214 19.037 33.4869 20.866 31.2241 20.866H18.6497C16.3868 20.866 14.5524 19.037 14.5524 16.7807Z" fill="black" fill-opacity="0.09"/>
<path d="M0.141285 30.7273V24.5288C0.141285 23.4395 1.02686 22.5565 2.11928 22.5565H8.7597C9.85212 22.5565 10.7377 23.4395 10.7377 24.5288V30.7273C10.7377 31.8165 9.85212 32.6995 8.7597 32.6995H2.11928C1.02686 32.6995 0.141285 31.8165 0.141285 30.7273Z" fill="black" fill-opacity="0.09"/>
<path d="M4.66242 84.0482H22.556C24.1084 84.0482 25.3701 82.7995 25.3816 81.2517L25.6874 40.3499C25.7412 33.1526 31.608 27.3463 38.8266 27.3463H77.4951C81.4746 27.3463 84.7006 24.1296 84.7006 20.1617V4.27042C84.7006 2.03095 86.5088 0.20892 88.7547 0.185286L106.334 0.000288549C109.164 -0.0294916 111.474 2.24966 111.474 5.07149V19.9504C111.474 23.2959 108.754 26.008 105.399 26.008H91.4127C87.8506 26.008 84.9523 28.8669 84.9139 32.4183L84.4028 79.6969C84.3723 82.519 86.6583 84.823 89.4888 84.823H115.218C118.964 84.823 122 87.8505 122 91.585V115.956C122 119.846 118.837 123 114.936 123H90.8186C86.7217 123 83.3854 119.717 83.3311 115.633L83.0151 91.8644C82.9703 88.4976 80.2382 85.7822 76.8614 85.7485L29.3677 85.2737C27.8149 85.2582 26.5404 86.4951 26.5141 88.0433L26.232 104.641C26.1797 107.715 23.6652 110.18 20.5814 110.18H3.10828C1.39162 110.18 0 108.793 0 107.081V88.6971C0 86.1296 2.08744 84.0482 4.66242 84.0482Z" fill="black" fill-opacity="0.09"/>
</svg>
