<svg width="1049" height="120" viewBox="0 0 1049 120" fill="none" xmlns="http://www.w3.org/2000/svg">
<path fill-rule="evenodd" clip-rule="evenodd" d="M537.306 0.794922C567.574 0.794922 591.256 21.284 591.256 59.8673C591.256 98.4506 567.574 119.206 537.306 119.206C507.038 119.206 483.489 98.118 483.489 59.8673C483.489 21.6166 507.038 0.794922 537.306 0.794922ZM306.205 28.3354C316.915 28.2024 327.426 31.0629 336.673 36.5177L327.758 50.4875C321.572 46.2301 314.188 43.9018 306.604 43.9683C299.287 43.9683 290.705 46.2966 290.705 53.9467C290.705 58.8694 293.765 61.5303 300.284 62.8608L313.855 65.5882L313.988 65.8543C329.288 68.6483 337.87 76.365 337.87 91.7983C337.87 110.358 322.902 119.139 304.608 119.139C292.036 119.538 279.862 114.882 270.815 106.167L281.458 93.0622C287.712 99.3154 296.16 102.908 305.008 103.041C314.188 103.041 318.911 99.0493 318.911 92.9957C318.911 87.6073 316.316 84.5473 309.531 83.2168L295.827 80.5559C279.729 77.4293 272.012 69.5131 272.012 55.7429C272.012 37.316 288.044 28.3354 306.205 28.3354ZM165.709 28.3354C190.189 28.3354 204.225 44.6335 204.225 72.9058C204.225 76.0323 203.693 78.8263 203.693 81.9529H146.284C147.348 93.3948 156.994 102.176 168.503 102.109C177.284 102.176 185.799 98.8497 192.185 92.8626L201.165 106.899C191.852 114.815 180.078 119.073 167.904 119.073C141.694 119.073 127.524 98.7167 127.524 73.438C127.524 50.1549 142.026 28.4685 165.842 28.4685L165.709 28.3354ZM386.698 28.4685C412.642 28.4685 427.077 47.6936 427.077 73.571C427.077 99.3819 412.974 119.006 386.698 119.006C360.421 119.006 346.518 99.1158 346.518 73.571C346.518 48.0262 360.554 28.4685 386.698 28.4685ZM783.307 28.4685C809.251 28.4685 823.687 47.6936 823.687 73.571C823.687 99.3819 809.584 119.006 783.307 119.006C756.964 119.006 743.061 99.1158 743.061 73.571C743.061 48.0262 757.164 28.4685 783.307 28.4685ZM235.358 2.05886V29.6659H260.238V46.7623H235.358V90.5343C235.025 104.238 249.794 102.442 259.173 97.9849L263.963 113.817C257.111 117.343 249.461 119.139 241.744 119.006C226.244 119.006 216.466 109.161 216.466 93.794V2.05886H235.358ZM710.931 2.05886V29.6659H735.877V46.7623H710.931V90.5343C710.598 104.238 725.366 102.442 734.812 97.9849L739.801 113.817C732.95 117.343 725.299 119.139 717.583 119.006C702.016 119.006 692.238 109.161 692.238 93.794V2.05886H710.931ZM855.086 2.05886V29.6659H880.032V46.7623H855.086V90.4013L855.152 90.5343C854.886 104.238 869.654 102.442 879.034 97.9849L883.757 113.817C876.905 117.343 869.322 119.139 861.605 119.006C846.039 119.006 836.26 109.161 836.26 93.794V2.05886H855.086ZM1015.74 28.4685C1029.11 28.6015 1041.55 35.3203 1049 46.4962L1035.23 57.3394C1030.84 50.7536 1023.59 46.6957 1015.67 46.4296C1001.77 46.4296 993.786 56.0755 993.786 73.571C993.786 91 1001.77 101.045 1015.67 101.045C1023.59 100.779 1030.84 96.721 1035.23 90.2017L1049 100.978C1041.55 112.154 1029.11 118.873 1015.74 119.006C989.795 119.006 974.827 98.8497 974.827 73.571C974.827 48.2258 989.795 28.4685 1015.74 28.4685ZM925.534 28.3354C950.014 28.3354 963.984 44.6335 963.984 72.8392C963.984 76.0323 963.718 78.7598 963.518 81.8864H905.843C906.907 93.3948 916.553 102.176 928.061 102.109C936.909 102.176 945.357 98.8497 951.81 92.7961L960.724 106.899C951.411 114.749 939.636 119.073 927.463 119.006C901.253 119.006 887.083 98.6501 887.083 73.438C887.083 50.0884 901.585 28.4685 925.4 28.4685L925.534 28.3354ZM625.315 29.6659V82.2855C625.382 92.8626 627.976 101.045 639.152 101.045C645.605 101.045 651.459 97.0536 656.714 90.5343V29.6659H675.74V117.809H659.708L657.513 109.36C651.725 115.281 643.809 118.74 635.56 119.006C614.805 119.006 606.29 105.236 606.29 85.0795V29.6659H625.315ZM19.9569 1.99233L57.2097 81.2211L94.5291 1.99233H114.486V117.742H95.0613V41.507L65.7247 103.639H48.6948L19.4247 41.507V117.742H0V1.99233H19.9569ZM458.21 85.7447L464.596 90.4013L466.991 97.8519L464.596 105.302L458.21 109.959H450.36L444.041 105.302L441.646 97.8519L444.041 90.4013L450.36 85.7447H458.21ZM386.764 46.2301C371.065 46.2301 365.543 58.1377 365.543 73.5045C365.543 91.4657 373.061 101.378 386.764 101.378C400.535 101.378 407.919 91.4657 407.919 73.5045C407.919 55.6098 400.601 46.2301 386.764 46.2301ZM783.307 46.2301C767.675 46.2301 762.153 58.1377 762.153 73.5045C762.153 91.4657 769.67 101.378 783.307 101.378C797.078 101.378 804.528 91.4657 804.528 73.5045C804.528 55.6098 797.144 46.2301 783.307 46.2301ZM537.306 19.2883C517.548 19.2883 503.446 31.7946 503.446 60.1334C503.446 88.4721 517.548 100.912 537.306 100.912C557.263 100.912 571.365 88.4721 571.365 60.1334C571.365 31.7946 557.13 19.2883 537.306 19.2883ZM166.041 44.8331C157.925 44.8331 148.014 51.2193 146.816 66.0539H185.133V65.6548C184.734 52.2171 177.949 44.8331 166.041 44.8331ZM925.733 44.7001C917.551 44.7001 907.705 51.1528 906.441 65.9874H944.825V65.5882C944.426 52.1506 937.641 44.7001 925.733 44.7001ZM458.21 37.3825L464.596 42.0391L466.991 49.4897L464.596 57.0068L458.21 61.5969H450.36L444.041 57.0068L441.646 49.4897L444.041 42.0391L450.36 37.3825H458.21Z" fill="black"/>
</svg>
