<svg width="1049" height="662" viewBox="0 0 1049 662" fill="none" xmlns="http://www.w3.org/2000/svg">
<path d="M345.719 172.738C345.719 77.3894 423.013 0.0947266 518.362 0.0947266C613.71 0.0947266 691.005 77.3894 691.005 172.738C691.005 268.086 613.71 345.381 518.362 345.381C423.013 345.381 345.719 268.086 345.719 172.738Z" fill="#009E59"/>
<path d="M354.846 172.737C354.846 82.4237 428.048 9.20605 518.377 9.20605C608.691 9.20605 681.893 82.4237 681.893 172.737C681.893 263.051 608.691 336.269 518.377 336.269C428.048 336.269 354.846 263.051 354.846 172.737Z" fill="white"/>
<path d="M366.412 172.738C366.412 88.8175 434.441 20.7734 518.361 20.7734C602.296 20.7734 670.325 88.8175 670.325 172.738C670.325 256.658 602.296 324.686 518.361 324.686C434.441 324.686 366.412 256.658 366.412 172.738Z" fill="#009E59"/>
<path d="M444.155 202.204C433.205 213.972 431.831 227.254 434.719 245.74C434.719 246.157 435.537 247.516 435.537 247.516C435.537 247.516 434.719 246.697 433.483 246.157C422.117 239.439 414.04 226.852 413.762 213.972C413.623 204.799 416.233 196.32 422.519 190.56C423.476 189.742 424.989 189.062 424.989 189.062C424.989 189.062 423.893 189.325 422.796 189.603C403.894 194.266 392.682 183.178 382.952 174.422C381.856 173.449 381.037 173.186 380.219 172.769C381.037 172.63 381.856 172.352 382.952 171.117C392.682 162.499 403.894 151.272 422.796 155.92C423.893 156.198 424.989 156.615 424.989 156.615C424.989 156.615 423.476 155.781 422.519 154.978C416.233 149.218 413.623 140.724 413.762 131.689C414.04 118.686 422.117 106.362 433.483 99.3816C434.719 98.8256 435.537 98.0071 435.537 98.0071C435.537 98.0071 434.719 99.3816 434.719 99.7831C431.831 118.269 433.205 131.689 444.155 143.596C460.587 160.986 494.269 154.144 501.944 157.017C497.975 151.55 507.411 115.813 489.203 98.5476C477.281 87.7372 463.876 86.2391 445.39 89.1116C444.973 89.1116 443.599 89.9301 443.599 89.9301C443.599 89.9301 444.433 89.1117 444.973 87.8762C451.954 76.5098 464.293 68.4328 477.281 68.1548C486.331 68.0312 494.809 70.6258 500.57 76.9267C501.388 77.8842 502.207 79.3822 502.207 79.3822C502.207 79.3822 501.805 78.3012 501.527 77.1892C496.863 58.3018 508.091 47.2134 517.002 37.3604C517.959 36.2639 518.237 35.4455 518.361 34.627C518.778 35.4455 519.04 36.2639 520.013 37.3604C528.77 47.2134 539.858 58.3018 535.21 77.1892C534.932 78.3012 534.53 79.3822 534.53 79.3822C534.53 79.3822 535.333 77.8842 536.445 76.9267C541.912 70.6258 550.422 68.0312 559.58 68.1548C572.444 68.4328 585.046 76.5098 591.748 87.8762C592.304 89.1117 593.123 89.9301 593.123 89.9301C593.123 89.9301 591.748 89.1116 591.347 89.1116C572.861 86.2391 559.58 87.4746 547.812 98.5476C529.465 115.674 538.623 150.855 534.793 157.017C541.912 153.743 575.873 161.264 592.582 143.596C603.671 131.689 605.169 118.269 602.018 99.7831C602.018 99.3816 601.2 98.0071 601.2 98.0071C601.2 98.0071 602.018 98.8256 603.254 99.3816C614.898 106.362 622.975 118.686 623.114 131.689C623.114 140.724 620.504 149.218 614.203 154.978C613.246 155.781 611.748 156.615 611.748 156.615C611.748 156.615 612.968 156.198 614.064 155.92C633.106 151.272 644.056 162.499 653.908 171.117C655.005 172.352 655.7 172.63 656.519 172.769C655.7 173.186 655.005 173.449 653.908 174.422C644.056 183.178 633.106 194.266 614.064 189.603C612.968 189.325 611.748 189.062 611.748 189.062C611.748 189.062 613.246 189.742 614.203 190.56C620.504 196.32 623.114 204.799 623.114 213.972C622.975 226.852 614.898 239.439 603.254 246.157C602.018 246.697 601.2 247.516 601.2 247.516C601.2 247.516 602.018 246.157 602.018 245.74C605.169 227.254 603.671 213.972 592.582 202.204C576.15 184.259 542.051 191.657 534.793 188.645C539.04 194.127 529.326 229.864 547.812 246.975C559.58 257.925 572.861 259.577 591.347 256.427C591.748 256.427 593.123 255.608 593.123 255.608C593.123 255.608 592.304 256.427 591.748 257.662C585.046 269.291 572.444 277.105 559.58 277.507C550.422 277.507 541.912 274.912 536.445 268.611C535.333 267.654 534.53 266.141 534.53 266.141C534.53 266.141 534.932 267.237 535.21 268.473C539.858 287.499 528.77 298.448 520.013 308.317C519.04 309.413 518.778 310.232 518.361 310.911C518.237 310.232 517.959 309.413 517.002 308.317C508.091 298.448 496.863 287.499 501.527 268.473C501.805 267.237 502.207 266.141 502.207 266.141C502.207 266.141 501.388 267.654 500.57 268.611C494.809 274.912 486.331 277.507 477.281 277.507C464.293 277.105 451.954 269.291 444.973 257.662C444.433 256.427 443.599 255.608 443.599 255.608C443.599 255.608 444.973 256.427 445.39 256.427C463.876 259.577 477.281 257.925 489.203 246.975C507.411 229.864 497.975 194.266 501.944 188.645C494.269 191.657 460.587 184.537 444.155 202.204Z" fill="white"/>
<path d="M63.7045 386.183C56.307 386.183 41.2033 386.955 28.1844 386.955C15.8605 387.372 0 387.341 0 387.341V391.974H7.72175C16.8952 391.974 18.9183 394.522 18.9183 407.804V516.294C18.9183 526.163 16.2929 532.124 6.56349 532.124H0.772175V536.757H59.0714V532.124H52.1218C43.9059 532.124 38.6088 526.441 38.6088 515.908V470.35C43.8132 471.987 49.1567 473.438 62.1601 473.438C88.167 473.438 108.491 452.327 108.491 426.722C108.491 405.224 92.3213 386.183 63.7045 386.183ZM57.141 393.132C79.8738 393.132 86.4836 410.398 86.4836 429.424C86.4836 452.157 74.0825 466.01 55.5966 465.331C48.3536 465.192 42.2998 463.292 38.6088 460.698V395.063C41.2187 394.105 50.84 393.132 57.141 393.132ZM868.697 417.842C837.748 417.842 813.873 442.644 813.873 479.616C813.873 517.267 838.196 541.004 868.311 541.004C899.939 541.004 922.749 515.074 922.749 479.616C922.749 439.911 896.495 417.842 868.697 417.842ZM655.963 419.386C622.559 419.108 595.378 439.108 596.891 481.546C597.71 515.923 618.188 538.317 651.716 540.232C676.642 541.73 689.321 534.672 699.591 528.649V494.673C699.591 486.04 701.32 482.705 708.857 482.705H711.173V478.071H664.457V482.705H671.406C677.445 482.705 682.217 486.859 682.217 494.673V525.56C678.51 528.989 670.094 533.282 657.893 533.282C636.813 533.282 618.126 514.286 618.126 479.23C618.126 446.103 632.103 425.564 656.735 425.564C675.221 425.564 687.143 438.706 693.027 451.431L696.502 450.659L693.027 420.544H688.78C688.24 425.054 686.649 426.197 681.445 424.405C677.337 422.907 667.746 419.386 655.963 419.386ZM118.529 422.089V426.722H123.162C129.725 426.722 132.428 431.648 132.428 439.463V522.085C132.428 529.066 130.745 532.124 122.39 532.124H118.529V536.757H167.176V532.124H163.315C156.752 532.124 152.891 530.255 152.891 520.541V438.304C152.891 429.95 154.728 426.722 162.543 426.722H167.176V422.089H118.529ZM185.708 422.089V426.722H190.341C197.059 426.722 199.607 430.505 199.607 438.304V520.541C199.607 527.923 198.171 532.124 189.955 532.124H185.708V536.757H267.559L276.439 505.484L272.578 504.712C265.319 523.182 256.98 529.035 242.463 529.035H225.089C220.302 529.035 220.456 525.607 220.456 520.541V438.304C220.456 429.95 222.186 426.722 229.722 426.722H234.355V422.089H185.708ZM280.3 422.089V426.722H284.933C293.149 426.722 293.813 428.992 293.813 438.304V520.541C293.813 529.854 291.99 532.124 283.774 532.124H280.3V536.757H328.561V532.124H325.086C318.924 532.124 313.503 530.672 313.503 520.541V478.071C313.503 478.071 349.44 518.24 353.27 522.472C358.073 527.815 356.096 532.124 349.795 532.124H345.934V536.757H396.126V531.738H393.037C387.153 531.738 380.312 525.468 375.663 520.541L329.719 470.736C344.653 456.095 359.71 442.042 366.011 435.602C371.478 430.135 375.679 426.722 381.841 426.722H386.86V422.089H347.479V426.722H351.726C357.069 426.722 357.641 429.996 355.587 433.285C351.757 439.169 333.363 458.319 313.503 474.597V438.304C313.503 431.463 314.476 426.722 323.927 426.722H328.561V422.089H280.3ZM403.075 422.089V426.722H407.708C414.55 426.722 416.975 431.648 416.975 439.463V522.085C416.975 529.066 415.538 532.124 407.322 532.124H403.075V536.757H451.722V532.124H447.862C441.684 532.124 437.823 530.255 437.823 520.541V438.304C437.823 429.95 439.553 426.722 447.089 426.722H451.722V422.089H403.075ZM467.552 422.089V426.722C471.12 426.861 477.281 427.448 484.54 438.691V520.927C484.54 529.823 481.853 532.124 472.957 532.124H469.096V536.757H510.794V532.124H506.161C497.265 532.124 494.578 529.298 494.578 520.541V449.115L572.182 541.776V439.077C572.182 427.71 575.116 426.336 581.834 426.336H586.081V422.089H547.472V426.336H550.947C561.078 426.336 562.916 429.502 562.916 438.691V500.078L496.509 422.089H467.552ZM712.718 422.089L711.559 450.273H715.42C716.779 439.725 718.54 429.811 735.111 429.811H749.782V520.927C749.782 528.186 747.852 532.124 739.358 532.124H735.111V536.757H783.758V532.124H779.897C773.596 532.124 769.859 530.533 769.859 520.541V429.811H785.302C795.433 429.811 803.325 433.563 805.379 450.273H808.854L808.081 422.089H712.718ZM930.471 422.089V426.722C934.162 426.861 940.108 427.448 947.073 438.691V520.927C947.073 529.823 944.756 532.124 935.876 532.124H931.629V536.757H973.713V532.124H969.08C960.045 532.124 957.497 529.298 957.497 520.541V449.115L1035.1 541.776V439.077C1035.1 427.71 1038.17 426.336 1044.75 426.336H1049V422.089H1010.39V426.336H1013.87C1024 426.336 1025.83 429.502 1025.83 438.691V500.078L959.428 422.089H930.471ZM868.697 425.177C888.001 425.177 900.742 443.463 900.742 479.616C900.742 513.437 886.797 534.054 868.311 534.054C848.729 534.054 836.266 515.074 836.266 479.616C836.266 445.393 848.435 425.177 868.697 425.177ZM70.654 596.986C61.5115 596.986 51.7357 602.083 51.7357 612.43C51.7357 621.912 59.2876 624.738 66.7932 626.715C74.2369 628.692 81.8506 629.758 81.8506 635.209C81.8506 640.383 75.7041 641.387 71.8123 641.387C65.8665 641.387 60.6157 638.854 60.6158 632.12H49.8053C49.6663 644.583 60.2451 650.267 71.4262 650.267C85.1709 650.267 92.661 643.348 92.661 634.051C92.661 622.592 81.2946 619.905 77.6036 618.993C64.9245 615.719 62.5462 615.565 62.5462 611.658C62.5462 607.411 66.7314 605.866 70.2679 605.866C75.596 605.866 79.5649 607.503 79.9201 613.588H90.7306C90.7306 601.897 81.2019 596.986 70.654 596.986ZM122.004 596.986C106.344 596.986 97.2941 609.001 97.2941 624.013C97.2941 638.607 106.344 650.267 122.004 650.267C126.899 650.267 132.011 648.336 135.903 643.317L137.061 648.722H144.011V621.696H122.776V629.804H133.972C133.324 636.815 129.231 640.614 122.004 640.614C112.012 640.614 108.491 632.429 108.491 624.013C108.491 615.163 112.012 606.639 122.004 606.639C127.239 606.639 131.532 609.527 132.814 615.133H143.238C142.034 603.643 132.351 596.986 122.004 596.986ZM196.905 596.986C181.245 596.986 171.809 609.001 171.809 624.013C171.809 638.607 181.245 650.267 196.905 650.267C201.785 650.267 206.912 648.336 210.804 643.317L211.962 648.722H218.912V621.696H197.677V629.804H208.873C208.225 636.815 204.132 640.614 196.905 640.614C186.913 640.614 183.006 632.429 183.006 624.013C183.006 615.163 186.913 606.639 196.905 606.639C202.14 606.639 206.047 609.527 207.329 615.133H218.139C216.919 603.643 207.252 596.986 196.905 596.986ZM568.321 596.986C552.677 596.986 543.611 609.001 543.611 624.013C543.611 638.607 552.677 650.267 568.321 650.267C573.217 650.267 578.328 648.336 582.22 643.317L583.378 648.722H590.714V621.696H569.479V629.804H580.676C580.043 636.815 575.548 640.614 568.321 640.614C558.329 640.614 554.808 632.429 554.808 624.013C554.808 615.163 558.329 606.639 568.321 606.639C573.572 606.639 577.85 609.527 579.131 615.133H589.942C588.737 603.643 578.668 596.986 568.321 596.986ZM0.772175 598.145V648.722H11.1965V615.133L32.4314 648.722H43.6279V598.145H33.2035V632.12H32.8174L11.9687 598.145H0.772175ZM399.987 598.145V648.722H411.183V627.873H432.032V619.38H411.183V607.797H435.507V598.145H399.987ZM439.754 598.145V648.722H449.792V598.145H439.754ZM598.05 598.145V648.722H608.088V598.145H598.05ZM753.643 598.145V648.722H778.353C787.495 648.722 796.113 644.321 796.113 634.051C796.113 627.75 793.008 623.086 786.846 621.31C791.232 619.194 793.796 615.843 793.796 610.886C793.796 601.465 787.217 598.145 777.58 598.145H753.643ZM879.894 598.531V606.639H889.932V598.531H879.894ZM501.528 601.233V612.43H495.35V618.993H501.528V640.614C501.528 647.904 506.964 649.494 513.11 649.494C515.103 649.494 517.203 649.386 518.902 649.108V641C517.852 641.201 516.879 641.387 515.813 641.387C512.415 641.387 511.566 640.537 511.566 637.14V618.993H518.902V612.43H511.566V601.233H501.528ZM764.84 607.025H775.264C779.233 607.025 782.986 607.998 782.986 612.816C782.986 617.063 779.943 618.993 776.036 618.993H764.84V607.025ZM247.482 611.272C242.602 611.272 237.753 614.391 235.9 618.993H235.513V612.43H226.247V648.722H236.286V632.507C236.286 626.051 238.587 620.538 245.938 620.538C247.142 620.538 248.888 620.708 249.799 620.924V611.658C249.165 611.442 248.193 611.272 247.482 611.272ZM270.647 611.272C259.173 611.272 251.729 618.885 251.729 630.576C251.729 642.19 259.173 649.88 270.647 649.88C282.199 649.88 289.566 642.19 289.566 630.576C289.566 618.885 282.199 611.272 270.647 611.272ZM356.745 611.272C352.22 611.272 347.958 613.171 345.548 617.063V612.43H335.896V661.849H345.934V644.475H346.321C348.73 648.089 352.745 649.88 357.131 649.88C367.833 649.88 373.347 640.738 373.347 630.962C373.347 620.553 368.219 611.272 356.745 611.272ZM473.729 611.272C465.514 611.272 456.911 614.191 456.356 623.626H466.394C466.749 619.658 469.143 618.221 472.957 618.221C476.494 618.221 479.521 618.53 479.521 622.854C479.521 626.962 473.714 626.947 467.552 627.873C461.328 628.723 455.197 630.777 455.197 639.07C455.197 646.576 460.618 649.88 467.552 649.88C472.015 649.88 476.725 648.583 479.907 645.247C479.984 646.452 480.324 647.595 480.679 648.722H491.103C490.177 647.24 489.559 643.935 489.559 640.614V621.696C489.559 612.924 481.034 611.272 473.729 611.272ZM632.411 611.272C624.196 611.272 615.609 614.191 615.038 623.626H625.076C625.416 619.658 628.211 618.221 632.025 618.221C635.577 618.221 638.203 618.53 638.203 622.854C638.203 626.962 632.782 626.947 626.62 627.873C620.381 628.723 613.879 630.777 613.879 639.07C613.879 646.576 619.671 649.88 626.62 649.88C631.068 649.88 635.794 648.583 638.975 645.247C639.052 646.452 639.021 647.595 639.361 648.722H649.785C648.859 647.24 648.627 643.935 648.627 640.614V621.696C648.627 612.924 639.716 611.272 632.411 611.272ZM671.792 611.272C663.916 611.272 655.963 613.897 655.963 623.24C655.963 629.696 661.739 631.611 667.545 632.893C674.773 634.437 679.128 635.642 679.128 638.684C679.128 642.22 675.468 643.317 672.565 643.317C668.596 643.317 664.905 641.525 664.843 637.14H655.191C655.608 646.838 663.685 649.88 672.179 649.88C680.533 649.88 689.166 646.776 689.166 637.14C689.166 630.344 683.452 628.059 677.584 626.715C671.839 625.372 666.001 624.924 666.001 621.31C666.001 618.329 669.136 618.221 671.406 618.221C675.02 618.221 678.062 618.947 678.356 622.854H688.008C687.22 613.851 679.792 611.272 671.792 611.272ZM710.015 611.272C702.154 611.272 694.186 613.897 694.185 623.24C694.185 629.696 699.961 631.611 705.768 632.893C712.996 634.437 717.351 635.642 717.351 638.684C717.351 642.22 713.691 643.317 710.787 643.317C706.818 643.317 703.143 641.525 703.065 637.14H693.413C693.83 646.838 702.278 649.88 710.787 649.88C719.142 649.88 727.389 646.776 727.389 637.14C727.389 630.344 721.675 628.059 715.806 626.715C710.061 625.372 704.224 624.924 704.224 621.31C704.224 618.329 707.76 618.221 710.015 618.221C713.629 618.221 716.687 618.947 716.965 622.854H726.231C725.443 613.851 718.015 611.272 710.015 611.272ZM858.273 611.272C850.412 611.272 842.057 613.897 842.057 623.24C842.057 629.696 847.833 631.611 853.64 632.893C860.867 634.437 865.222 635.642 865.222 638.684C865.222 642.22 861.562 643.317 858.659 643.317C854.69 643.317 851.014 641.525 850.937 637.14H841.285C841.702 646.838 850.165 649.88 858.659 649.88C867.029 649.88 875.261 646.776 875.261 637.14C875.261 630.344 869.562 628.059 863.678 626.715C857.948 625.372 852.095 624.924 852.095 621.31C852.095 618.329 855.632 618.221 857.887 618.221C861.516 618.221 864.558 618.947 864.836 622.854H874.102C873.33 613.851 866.272 611.272 858.273 611.272ZM917.73 611.272C913.483 611.272 909.066 613.341 906.534 617.449H906.148V612.43H896.881V648.722H906.92V629.804C906.92 622.36 909.19 619.38 914.642 619.38C919.321 619.38 921.205 622.237 921.205 628.26V648.722H931.243V626.329C931.243 617.248 928.433 611.272 917.73 611.272ZM955.181 611.272C944.061 611.272 936.648 619.596 936.648 630.576C936.648 641.912 943.629 649.88 955.181 649.88C963.474 649.88 969.713 646.174 972.555 637.526H963.675C963.041 639.796 959.598 642.159 955.567 642.159C949.976 642.159 946.98 639.271 946.687 632.893H972.941C973.651 621.634 967.644 611.272 955.181 611.272ZM994.562 611.272C986.701 611.272 978.732 613.897 978.732 623.24C978.732 629.696 984.508 631.611 990.315 632.893C997.542 634.437 1001.9 635.642 1001.9 638.684C1001.9 642.22 998.237 643.317 995.334 643.317C991.365 643.317 987.674 641.525 987.612 637.14H977.96C978.392 646.838 986.454 649.88 994.948 649.88C1003.3 649.88 1011.94 646.776 1011.94 637.14C1011.94 630.344 1006.22 628.059 1000.35 626.715C994.608 625.372 988.77 624.924 988.77 621.31C988.77 618.329 992.291 618.221 994.562 618.221C998.175 618.221 1000.85 618.947 1001.13 622.854H1010.78C1009.99 613.851 1002.58 611.272 994.562 611.272ZM1032.01 611.272C1024.15 611.272 1015.8 613.897 1015.8 623.24C1015.8 629.696 1021.96 631.611 1027.77 632.893C1034.99 634.437 1038.96 635.642 1038.96 638.684C1038.96 642.22 1035.3 643.317 1032.4 643.317C1028.43 643.317 1024.75 641.525 1024.68 637.14H1015.02C1015.44 646.838 1023.9 649.88 1032.4 649.88C1040.75 649.88 1049 646.776 1049 637.14C1049 630.344 1043.29 628.059 1037.42 626.715C1031.67 625.372 1026.22 624.924 1026.22 621.31C1026.22 618.329 1029.36 618.221 1031.63 618.221C1035.24 618.221 1038.28 618.947 1038.58 622.854H1048.23C1047.44 613.851 1040.03 611.272 1032.01 611.272ZM295.357 612.43V634.823C295.357 643.888 298.168 649.88 308.87 649.88C313.117 649.88 317.518 647.811 320.067 643.703V648.722H329.719V612.43H319.681V631.348C319.681 638.777 317.426 642.159 311.959 642.159C307.295 642.159 305.395 638.916 305.395 632.893V612.43H295.357ZM801.132 612.43V634.823C801.132 643.888 803.943 649.88 814.645 649.88C818.907 649.88 823.293 647.811 825.841 643.703V648.722H835.494V612.43H825.455V631.348C825.455 638.777 823.185 642.159 817.734 642.159C813.054 642.159 811.17 638.916 811.17 632.893V612.43H801.132ZM879.894 612.43V648.722H889.932V612.43H879.894ZM270.647 618.993C277.52 618.993 279.527 624.708 279.527 630.576C279.527 636.383 277.52 642.159 270.647 642.159C263.852 642.159 261.767 636.383 261.767 630.576C261.767 624.708 263.852 618.993 270.647 618.993ZM354.428 618.993C360.884 618.993 363.308 624.769 363.308 630.576C363.308 636.522 361.007 642.159 354.428 642.159C347.911 642.159 345.548 636.522 345.548 630.576C345.548 624.63 347.849 618.993 354.428 618.993ZM955.181 618.993C960.061 618.993 961.976 621.619 962.902 626.715H946.687C946.841 623.889 948.803 618.993 955.181 618.993ZM764.84 626.329H777.194C781.951 626.329 784.916 628.491 784.916 633.665C784.916 638.916 781.194 640.228 776.808 640.228H764.84V626.329ZM479.521 630.962V634.823C479.521 637.016 479.274 643.317 471.413 643.317C468.17 643.317 465.236 642.437 465.236 638.684C465.236 635.008 468.293 633.912 471.413 633.279C474.533 632.707 477.822 632.46 479.521 630.962ZM638.203 630.962V634.823C638.203 637.016 637.956 643.317 630.095 643.317C626.852 643.317 623.918 642.437 623.918 638.684C623.918 635.008 626.975 633.912 630.095 633.279C633.199 632.707 636.504 632.46 638.203 630.962Z" fill="#231F20"/>
</svg>
