<svg width="161" height="213" viewBox="0 0 161 213" fill="none" xmlns="http://www.w3.org/2000/svg">
<path fill-rule="evenodd" clip-rule="evenodd" d="M70.911 9.57304C70.911 4.286 75.2032 0 80.4978 0C85.7925 0 90.0847 4.286 90.0847 9.57304V23.3355C99.9038 27.1652 106.862 36.6993 106.862 47.8652C106.862 54.6695 104.273 60.8724 100.035 65.5412C100.968 67.3671 102.231 69.9029 103.745 72.9768C106.682 78.943 110.595 87.0059 114.934 96.003C119.242 92.138 122.937 87.6049 125.856 82.5661C126.519 81.422 127.985 81.0311 129.13 81.6929C130.276 82.3547 130.668 83.8188 130.005 84.9629C126.6 90.8397 122.223 96.0854 117.092 100.48C126.494 120.006 137.411 142.876 144.745 158.295C145.881 160.683 144.864 163.538 142.472 164.672C140.081 165.806 137.222 164.79 136.086 162.402C133.737 157.464 131.02 151.761 128.103 145.649L110.845 143.187L95.8667 112.204C90.9829 113.716 85.8316 114.62 80.5013 114.83V122.057C80.5013 123.378 79.4282 124.45 78.1046 124.45C76.7809 124.45 75.7078 123.378 75.7078 122.057V114.83C68.4923 114.546 61.605 112.989 55.265 110.376L26.1025 162.677C24.8147 164.987 21.8956 165.816 19.5827 164.53C17.2697 163.244 16.4387 160.33 17.7265 158.02L24.1211 146.552L16.4774 131.507L35.7851 97.4009C32.0739 93.7036 28.846 89.5233 26.2042 84.9629C25.5414 83.8188 25.9329 82.3547 27.0787 81.6929C28.2245 81.0311 29.6906 81.422 30.3534 82.5661C32.5618 86.3783 35.2143 89.901 38.2403 93.064L57.0306 59.8719C55.1789 56.2691 54.134 52.1844 54.134 47.8652C54.134 36.6993 61.0918 27.1652 70.911 23.3355V9.57304ZM95.1413 77.2002C98.2449 83.5044 102.454 92.1843 107.118 101.859C105.688 102.744 104.214 103.566 102.701 104.321L87.659 73.2071C89.2638 72.7556 90.807 72.1562 92.2723 71.4248C93.0631 72.9956 94.0286 74.9402 95.1413 77.2002ZM117.258 134.431L104.785 108.632C106.296 107.88 107.771 107.067 109.206 106.195C113.723 115.581 118.555 125.664 123.147 135.271L117.258 134.431ZM77.4021 74.011L93.7569 107.84C89.5278 109.088 85.087 109.843 80.5013 110.039V105.304C80.5013 103.982 79.4282 102.911 78.1046 102.911C76.7809 102.911 75.7078 103.982 75.7078 105.304V110.039C69.3374 109.767 63.2466 108.416 57.6146 106.163L75.6861 73.7528C76.2523 73.8572 76.8245 73.9434 77.4021 74.011ZM66.6538 70.2729L49.0545 101.836C47.8737 101.103 46.7226 100.327 45.6036 99.5104L63.4647 67.9595C64.466 68.8065 65.5317 69.5805 66.6538 70.2729ZM27.3516 131.752L43.23 103.703C44.3645 104.515 45.5285 105.289 46.7202 106.022L29.746 136.464L27.3516 131.752ZM80.4978 31.1124C79.2097 31.1124 77.9611 31.2565 76.7651 31.5275C69.2945 33.2202 63.7208 39.8984 63.7208 47.8652C63.7208 51.3159 64.7605 54.5096 66.5431 57.169C68.5425 60.1515 71.4722 62.4544 74.9051 63.666C76.6481 64.2812 78.5284 64.618 80.4978 64.618C84.4977 64.618 88.159 63.2263 91.0415 60.8971C94.8521 57.8181 97.2748 53.1259 97.2748 47.8652C97.2748 39.8984 91.7011 33.2202 84.2305 31.5275C83.1003 31.2714 81.9231 31.1286 80.7102 31.1137L80.4978 31.1124Z" fill="#000033"/>
<path d="M160.793 153.557C161.56 151.028 160.129 148.355 157.595 147.589C155.062 146.822 152.385 148.252 151.618 150.782C150.195 155.471 148.319 159.965 146.041 164.212C144.791 166.543 145.67 169.444 148.003 170.692C150.337 171.94 153.242 171.063 154.492 168.732C157.065 163.935 159.185 158.858 160.793 153.557Z" fill="#357080"/>
<path d="M9.38219 150.782C8.61458 148.252 5.93841 146.822 3.40481 147.589C0.871204 148.355 -0.560418 151.028 0.207192 153.558C1.81531 158.858 3.93487 163.935 6.50802 168.732C7.75797 171.063 10.6631 171.94 12.9967 170.692C15.3304 169.444 16.2089 166.543 14.959 164.212C12.6807 159.965 10.805 155.471 9.38219 150.782Z" fill="#357080"/>
<path d="M145.345 182.378C147.025 180.336 146.729 177.319 144.684 175.641C142.638 173.963 139.618 174.258 137.937 176.301C134.847 180.057 131.394 183.504 127.633 186.59C125.587 188.269 125.292 191.285 126.972 193.327C128.653 195.37 131.673 195.665 133.719 193.987C137.963 190.505 141.858 186.616 145.345 182.378Z" fill="#357080"/>
<path d="M23.0628 176.301C21.3822 174.258 18.3616 173.963 16.3161 175.641C14.2707 177.319 13.9749 180.336 15.6555 182.378C19.1422 186.616 23.0374 190.505 27.2811 193.987C29.3266 195.665 32.3472 195.37 34.0278 193.327C35.7084 191.285 35.4126 188.269 33.3671 186.59C29.6058 183.504 26.1532 180.057 23.0628 176.301Z" fill="#357080"/>
<path d="M45.4732 194.683C43.1395 193.434 40.2344 194.312 38.9844 196.642C37.7345 198.972 38.613 201.873 40.9467 203.121C45.7507 205.691 50.8355 207.807 56.1433 209.413C58.6769 210.18 61.3531 208.75 62.1207 206.22C62.8883 203.69 61.4567 201.018 58.9231 200.251C54.2269 198.831 49.7267 196.958 45.4732 194.683Z" fill="#357080"/>
<path d="M120.053 203.121C122.387 201.873 123.266 198.972 122.016 196.642C120.766 194.312 117.861 193.434 115.527 194.683C111.273 196.958 106.773 198.831 102.077 200.251C99.5433 201.018 98.1117 203.69 98.8793 206.22C99.6469 208.75 102.323 210.18 104.857 209.413C110.165 207.807 115.249 205.691 120.053 203.121Z" fill="#357080"/>
<path d="M73.209 203.075C70.5741 202.819 68.2302 204.744 67.9738 207.375C67.7174 210.006 69.6455 212.347 72.2804 212.603C74.986 212.866 77.728 213 80.5 213C83.272 213 86.014 212.866 88.7196 212.603C91.3545 212.347 93.2826 210.006 93.0262 207.375C92.7698 204.744 90.4259 202.819 87.791 203.075C85.3935 203.308 82.9614 203.427 80.5 203.427C78.0386 203.427 75.6065 203.308 73.209 203.075Z" fill="#357080"/>
</svg>
