<svg width="194" height="293" viewBox="0 0 194 293" fill="none" xmlns="http://www.w3.org/2000/svg">
<path d="M174.829 220.781C158.467 237.133 131.938 237.139 115.58 220.781M174.829 220.781C191.19 204.42 191.19 177.894 174.829 161.533C158.468 145.171 131.941 145.171 115.58 161.533C99.2193 177.894 99.2193 204.42 115.58 220.781M174.829 220.781L174.82 285.95L145.2 262.251L115.58 285.95V220.781M133.351 191.152L145.2 203.002C145.2 203.002 165.153 182.216 174.408 172.961" stroke="#000033" stroke-width="12.5487" stroke-linecap="round" stroke-linejoin="round"/>
<path d="M118.919 125.561C107.659 118.076 94.1434 113.715 79.6092 113.715C40.3426 113.715 8.51074 145.547 8.51074 184.813V184.813C8.51074 191.358 13.8161 196.663 20.3605 196.663H79.6092M103.309 30.7668C116.398 43.8557 116.398 65.077 103.309 78.1658C90.2198 91.2547 68.9986 91.2547 55.9097 78.1658C42.8208 65.077 42.8208 43.8557 55.9097 30.7668C68.9986 17.678 90.2198 17.678 103.309 30.7668Z" stroke="#357080" stroke-width="12.5487" stroke-linecap="round" stroke-linejoin="round"/>
<path d="M12.6204 71.9502L14.6996 82.4913L25.2407 84.5706L14.6996 86.6498L12.6204 97.1909L10.5411 86.6498L0 84.5706L10.5411 82.4913L12.6204 71.9502Z" fill="#357080"/>
<path d="M37.1204 0.950195L38.2935 6.89743L44.2407 8.07055L38.2935 9.24367L37.1204 15.1909L35.9472 9.24367L30 8.07055L35.9472 6.89743L37.1204 0.950195Z" fill="#357080"/>
<path d="M152.12 101.95L153.87 110.821L162.741 112.571L153.87 114.32L152.12 123.191L150.371 114.32L141.5 112.571L150.371 110.821L152.12 101.95Z" fill="#357080"/>
</svg>
