<svg width="173" height="243" viewBox="0 0 173 243" fill="none" xmlns="http://www.w3.org/2000/svg">
<path d="M142 0.950195L145.295 17.6551L162 20.9502L145.295 24.2453L142 40.9502L138.705 24.2453L122 20.9502L138.705 17.6551L142 0.950195Z" fill="#357080"/>
<path d="M162 45.9502L163.812 55.1379L173 56.9502L163.812 58.7625L162 67.9502L160.188 58.7625L151 56.9502L160.188 55.1379L162 45.9502Z" fill="#357080"/>
<path d="M11 142.95L12.8123 152.138L22 153.95L12.8123 155.763L11 164.95L9.18769 155.763L0 153.95L9.18769 152.138L11 142.95Z" fill="#357080"/>
<path fill-rule="evenodd" clip-rule="evenodd" d="M76.5 31.3647C41.7061 31.3647 13.5 59.3413 13.5 93.8521C13.5 115.969 25.0808 135.407 42.5807 146.519C52.3691 152.735 64.0022 156.339 76.5 156.339C88.9978 156.339 100.631 152.735 110.419 146.519C127.919 135.407 139.5 115.969 139.5 93.8521C139.5 59.3413 111.294 31.3647 76.5 31.3647ZM3 93.8521C3 53.5895 35.9071 20.9502 76.5 20.9502C117.093 20.9502 150 53.5895 150 93.8521C150 118.476 137.688 140.244 118.859 153.436L130.109 242.95L76.5 219.318L22.8908 242.95L34.1412 153.436C15.3118 140.244 3 118.476 3 93.8521ZM43.9915 159.252L35.6091 225.947L76.5 207.921L117.391 225.947L109.009 159.252C99.204 164.055 88.1646 166.754 76.5 166.754C64.8354 166.754 53.796 164.055 43.9915 159.252Z" fill="#000033"/>
<path d="M100.219 88.3623C99.5027 87.4683 98.606 86.7486 97.5925 86.2541C96.579 85.7596 95.4734 85.5023 94.3538 85.5003H82.7248L84.1529 81.7108C84.7469 80.0516 84.9447 78.2674 84.7294 76.5113C84.514 74.7552 83.892 73.0796 82.9165 71.6282C81.941 70.1768 80.6413 68.9929 79.1288 68.1782C77.6163 67.3634 75.9362 66.9421 74.2325 66.9503C73.742 66.9514 73.2621 67.0994 72.8505 67.3768C72.4389 67.6541 72.1129 68.0489 71.9118 68.5138L64.6437 85.5003H58.6507C56.6216 85.5003 54.6756 86.3379 53.2408 87.8288C51.8061 89.3197 51 91.3418 51 93.4503V112C51 114.109 51.8061 116.131 53.2408 117.622C54.6756 119.113 56.6216 119.95 58.6507 119.95H91.115C92.9048 119.95 94.6377 119.297 96.0122 118.106C97.3868 116.915 98.316 115.261 98.6381 113.431L101.877 94.8813C102.077 93.7348 102.033 92.5566 101.746 91.4301C101.46 90.3036 100.938 89.2563 100.219 88.3623ZM63.7511 114.65H58.6507C57.9743 114.65 57.3256 114.371 56.8474 113.874C56.3691 113.377 56.1004 112.703 56.1004 112V93.4503C56.1004 92.7474 56.3691 92.0734 56.8474 91.5764C57.3256 91.0795 57.9743 90.8003 58.6507 90.8003H63.7511V114.65ZM96.904 93.9273L93.6652 112.477C93.5566 113.095 93.2406 113.652 92.7736 114.05C92.3066 114.448 91.7188 114.66 91.115 114.65H68.8516V88.7068L75.7882 72.4888C76.5022 72.7051 77.1653 73.0729 77.7356 73.5689C78.306 74.0649 78.7712 74.6784 79.1019 75.3707C79.4326 76.0629 79.6216 76.8189 79.657 77.5908C79.6924 78.3628 79.5734 79.134 79.3075 79.8558L77.9558 83.6453C77.6678 84.4463 77.5706 85.3077 77.6724 86.1562C77.7743 87.0047 78.0722 87.815 78.5407 88.5179C79.0092 89.2209 79.6344 89.7956 80.363 90.193C81.0916 90.5904 81.9019 90.7988 82.7248 90.8003H94.3538C94.7284 90.7996 95.0986 90.8848 95.438 91.0497C95.7774 91.2146 96.0777 91.4551 96.3174 91.7543C96.5631 92.0493 96.7431 92.397 96.8445 92.7726C96.9459 93.1483 96.9662 93.5425 96.904 93.9273Z" fill="#357080"/>
</svg>
