<svg width="161" height="129" viewBox="0 0 161 129" fill="none" xmlns="http://www.w3.org/2000/svg">
<path fill-rule="evenodd" clip-rule="evenodd" d="M111.217 0C113.557 0 115.454 1.89362 115.454 4.22951V12.6885H144.053V24.3786L150.908 38.0656H161V42.6579C161 47.6095 159.03 52.3583 155.522 55.8596C152.015 59.3609 147.258 61.3279 142.298 61.3279H137.334C132.374 61.3279 127.617 59.3609 124.109 55.8596C120.602 52.3583 118.632 47.6095 118.632 42.6579V38.0656H128.724L135.579 24.3786V21.1475H115.454V56.9325L126.212 67.6721H137.697C140.037 67.6721 141.934 69.5658 141.934 71.9016C141.934 74.2375 140.037 76.1311 137.697 76.1311H84.7368C82.3969 76.1311 80.5 74.2375 80.5 71.9016C80.5 69.5658 82.3969 67.6721 84.7368 67.6721H96.222L106.98 56.9325V21.1475H86.8553V24.3786L93.7106 38.0656H103.803V42.6579C103.803 47.6095 101.832 52.3583 98.3249 55.8596C94.8175 59.3609 90.0605 61.3279 85.1003 61.3279H80.1365C75.1764 61.3279 70.4194 59.3609 66.912 55.8596C63.4046 52.3583 61.4342 47.6095 61.4342 42.6579V38.0656H71.5262L78.3816 24.3786V12.6885H106.98V4.22951C106.98 1.89362 108.877 0 111.217 0ZM82.6184 34.8345L81.0001 38.0656H84.2367L82.6184 34.8345ZM72.9038 49.8781C74.822 51.7931 77.4237 52.8689 80.1365 52.8689H85.1003C87.8131 52.8689 90.4148 51.7931 92.333 49.8781C93.3028 48.9101 94.0577 47.7676 94.5672 46.5246H70.6696C71.1791 47.7676 71.934 48.9101 72.9038 49.8781ZM139.816 34.8345L138.197 38.0656H141.434L139.816 34.8345ZM130.101 49.8781C132.019 51.7931 134.621 52.8689 137.334 52.8689H142.298C145.01 52.8689 147.612 51.7931 149.53 49.8781C150.5 48.9101 151.255 47.7676 151.765 46.5246H127.867C128.376 47.7676 129.131 48.9101 130.101 49.8781Z" fill="#357080"/>
<path fill-rule="evenodd" clip-rule="evenodd" d="M12.7105 12.6885H74.1447V21.1475H24.6978C25.1662 22.4704 25.4211 23.894 25.4211 25.3771V116.311C25.4211 118.647 27.3179 120.541 29.6579 120.541C31.9978 120.541 33.8947 118.647 33.8947 116.311V111.236C33.8947 107.031 37.3092 103.623 41.5211 103.623H97.4474V80.3607H105.921V103.623H124.987V116.311C124.987 123.319 119.296 129 112.276 129H29.6579C22.6381 129 16.9474 123.319 16.9474 116.311V40.1803H0V25.3771C0 18.3694 5.6907 12.6885 12.7105 12.6885ZM16.9474 31.7213V25.3771C16.9474 23.0412 15.0505 21.1475 12.7105 21.1475C10.3706 21.1475 8.47368 23.0412 8.47368 25.3771V31.7213H16.9474ZM41.6452 120.541H112.276C114.616 120.541 116.513 118.647 116.513 116.311V112.082H42.3684V116.311C42.3684 117.794 42.1136 119.218 41.6452 120.541Z" fill="#000033"/>
<path d="M58.6789 50.7541C59.8188 53.7646 61.5924 56.5307 63.9161 58.8503C64.0388 58.9728 64.1627 59.0937 64.2879 59.2131H36.0132C33.6732 59.2131 31.7763 57.3195 31.7763 54.9836C31.7763 52.6477 33.6732 50.7541 36.0132 50.7541H58.6789Z" fill="#000033"/>
<path d="M57.1974 33.8361V42.2951H36.0132C33.6732 42.2951 31.7763 40.4015 31.7763 38.0656C31.7763 35.7297 33.6732 33.8361 36.0132 33.8361H57.1974Z" fill="#000033"/>
<path d="M76.2632 71.9016C76.2632 70.3609 76.6758 68.9163 77.3968 67.6721H36.0132C33.6732 67.6721 31.7763 69.5658 31.7763 71.9016C31.7763 74.2375 33.6732 76.1311 36.0132 76.1311H77.3968C76.6758 74.8869 76.2632 73.4424 76.2632 71.9016Z" fill="#000033"/>
<path d="M31.7763 88.8197C31.7763 86.4838 33.6732 84.5902 36.0132 84.5902H84.7368C87.0768 84.5902 88.9737 86.4838 88.9737 88.8197C88.9737 91.1556 87.0768 93.0492 84.7368 93.0492H36.0132C33.6732 93.0492 31.7763 91.1556 31.7763 88.8197Z" fill="#000033"/>
</svg>
