<svg width="198" height="253" viewBox="0 0 198 253" fill="none" xmlns="http://www.w3.org/2000/svg">
<path fill-rule="evenodd" clip-rule="evenodd" d="M160.285 40.502C166.433 40.502 171.416 45.5166 171.416 51.7025V163.708C171.416 169.894 166.433 174.908 160.285 174.908C154.138 174.908 149.154 169.894 149.154 163.708V51.7025C149.154 45.5166 154.138 40.502 160.285 40.502ZM115.762 62.903C121.909 62.903 126.893 67.9176 126.893 74.1035V163.708C126.893 169.894 121.909 174.908 115.762 174.908C109.614 174.908 104.631 169.894 104.631 163.708V74.1035C104.631 67.9176 109.614 62.903 115.762 62.903ZM71.2378 85.304C77.3852 85.304 82.3687 90.3187 82.3687 96.5046V163.708C82.3687 169.894 77.3852 174.908 71.2378 174.908C65.0903 174.908 60.1068 169.894 60.1068 163.708V96.5046C60.1068 90.3187 65.0903 85.304 71.2378 85.304ZM26.714 107.705C32.8614 107.705 37.8449 112.72 37.8449 118.906V163.708C37.8449 169.894 32.8614 174.908 26.714 174.908C20.5665 174.908 15.583 169.894 15.583 163.708V118.906C15.583 112.72 20.5665 107.705 26.714 107.705Z" fill="#357080"/>
<path fill-rule="evenodd" clip-rule="evenodd" d="M8.5 196.335C6.93519 196.335 5.66667 197.644 5.66667 199.257V222.632C5.66667 224.246 6.93519 225.554 8.5 225.554H178.5C180.065 225.554 181.333 224.246 181.333 222.632V199.257C181.333 197.644 180.065 196.335 178.5 196.335H175.667V205.101C175.667 206.715 174.398 208.023 172.833 208.023C171.269 208.023 170 206.715 170 205.101V196.335H164.333V210.945C164.333 212.559 163.065 213.867 161.5 213.867C159.935 213.867 158.667 212.559 158.667 210.945V196.335H153V205.101C153 206.715 151.731 208.023 150.167 208.023C148.602 208.023 147.333 206.715 147.333 205.101V196.335H141.667V210.945C141.667 212.559 140.398 213.867 138.833 213.867C137.269 213.867 136 212.559 136 210.945V196.335H130.333V205.101C130.333 206.715 129.065 208.023 127.5 208.023C125.935 208.023 124.667 206.715 124.667 205.101V196.335H119V210.945C119 212.559 117.731 213.867 116.167 213.867C114.602 213.867 113.333 212.559 113.333 210.945V196.335H107.667V205.101C107.667 206.715 106.398 208.023 104.833 208.023C103.269 208.023 102 206.715 102 205.101V196.335H96.3333V210.945C96.3333 212.559 95.0648 213.867 93.5 213.867C91.9352 213.867 90.6667 212.559 90.6667 210.945V196.335H85V205.101C85 206.715 83.7315 208.023 82.1667 208.023C80.6019 208.023 79.3333 206.715 79.3333 205.101V196.335H73.6667V210.945C73.6667 212.559 72.3981 213.867 70.8333 213.867C69.2685 213.867 68 212.559 68 210.945V196.335H62.3333V205.101C62.3333 206.715 61.0648 208.023 59.5 208.023C57.9352 208.023 56.6667 206.715 56.6667 205.101V196.335H51V210.945C51 212.559 49.7315 213.867 48.1667 213.867C46.6019 213.867 45.3333 212.559 45.3333 210.945V196.335H39.6667V205.101C39.6667 206.715 38.3981 208.023 36.8333 208.023C35.2685 208.023 34 206.715 34 205.101V196.335H28.3333V210.945C28.3333 212.559 27.0648 213.867 25.5 213.867C23.9352 213.867 22.6667 212.559 22.6667 210.945V196.335H17V205.101C17 206.715 15.7315 208.023 14.1667 208.023C12.6019 208.023 11.3333 206.715 11.3333 205.101V196.335H8.5ZM0 199.257C0 194.416 3.80558 190.492 8.5 190.492H178.5C183.194 190.492 187 194.416 187 199.257V222.632C187 227.473 183.194 231.398 178.5 231.398H8.5C3.80558 231.398 0 227.473 0 222.632V199.257Z" fill="#000033"/>
<path d="M186.62 230.95L188.37 239.821L197.241 241.571L188.37 243.32L186.62 252.191L184.871 243.32L176 241.571L184.871 239.821L186.62 230.95Z" fill="#000033"/>
<path d="M13.5 86.9502L15.7242 98.226L27 100.45L15.7242 102.674L13.5 113.95L11.2758 102.674L0 100.45L11.2758 98.226L13.5 86.9502Z" fill="#000033"/>
<path d="M131 0.950195L134.295 17.6551L151 20.9502L134.295 24.2453L131 40.9502L127.705 24.2453L111 20.9502L127.705 17.6551L131 0.950195Z" fill="#357080"/>
</svg>
