<svg width="91" height="81" viewBox="0 0 91 81" fill="none" xmlns="http://www.w3.org/2000/svg">
<path d="M37.2771 40.32V10.44C37.2771 4.67415 42.0222 0 47.8755 0H80.4016C86.2549 0 91 4.67415 91 10.44V40.32C91 46.0859 86.2549 50.76 80.4016 50.76H47.8755C42.0222 50.76 37.2771 46.0859 37.2771 40.32Z" fill="#E2E2E2"/>
<path d="M0 75.96V60.12C0 57.3365 2.29072 55.08 5.11647 55.08H22.2932C25.1189 55.08 27.4096 57.3365 27.4096 60.12V75.96C27.4096 78.7435 25.1189 81 22.2932 81H5.11647C2.29072 81 0 78.7435 0 75.96Z" fill="#E2E2E2"/>
</svg>
