<svg width="81" height="73" viewBox="0 0 81 73" fill="none" xmlns="http://www.w3.org/2000/svg">
<path d="M72.2308 0H42.3077C36.7848 0 32.3077 4.47715 32.3077 10V35.5499C32.3077 41.0728 36.7848 45.5499 42.3077 45.5499H71.2308C76.2013 45.5499 80.2308 41.5205 80.2308 36.5499V8C80.2308 3.58172 76.6491 0 72.2308 0Z" fill="#357080"/>
<path d="M20.9615 49.5928H3C1.34315 49.5928 0 50.9359 0 52.5928V69.772C0 71.4289 1.34315 72.772 3 72.772H20.9615C22.6184 72.772 23.9615 71.4289 23.9615 69.772V52.5928C23.9615 50.9359 22.6184 49.5928 20.9615 49.5928Z" fill="#357080"/>
</svg>
