<svg width="82" height="75" viewBox="0 0 82 75" fill="none" xmlns="http://www.w3.org/2000/svg">
<path d="M73.8236 0H43.2406C37.596 0 33.0201 4.59534 33.0201 10.264V36.4884C33.0201 42.157 37.596 46.7523 43.2406 46.7523H72.8015C77.8817 46.7523 82 42.6165 82 37.5148V8.21118C82 3.67627 78.3393 0 73.8236 0Z" fill="#D0AB87"/>
<path d="M21.4238 50.9019H3.06615C1.37276 50.9019 0 52.2805 0 53.9811V71.6139C0 73.3145 1.37276 74.6931 3.06615 74.6931H21.4238C23.1172 74.6931 24.4899 73.3145 24.4899 71.6139V53.9811C24.4899 52.2806 23.1172 50.9019 21.4238 50.9019Z" fill="#D0AB87"/>
</svg>
