<svg width="593" height="350" viewBox="0 0 593 350" fill="none" xmlns="http://www.w3.org/2000/svg">
<path d="M20.1765 0H3.29412C1.47483 0 0 1.47483 0 3.29412V350H592.941V39.1176C592.941 37.2984 591.466 35.8235 589.647 35.8235H560.412C558.592 35.8235 557.118 34.3487 557.118 32.5294V30.0588C557.118 28.2395 555.643 26.7647 553.823 26.7647H525.823C524.004 26.7647 522.529 25.2899 522.529 23.4706V21C522.529 19.1807 521.055 17.7059 519.235 17.7059H498.235C496.416 17.7059 494.941 19.1807 494.941 21V25.5294C494.941 27.3487 493.466 28.8235 491.647 28.8235H466.529C464.71 28.8235 463.235 27.3487 463.235 25.5294V13.1765C463.235 11.3572 461.76 9.88235 459.941 9.88235H438.118C436.298 9.88235 434.824 11.3572 434.824 13.1765V17.2941C434.824 19.1134 433.349 20.5882 431.529 20.5882H400.647C398.828 20.5882 397.353 22.0631 397.353 23.8824V31.7059C397.353 33.5252 395.878 35 394.059 35H387.471C385.651 35 384.176 33.5252 384.176 31.7059V23.8824C384.176 22.0631 382.702 20.5882 380.882 20.5882H336.412C334.592 20.5882 333.118 22.0631 333.118 23.8824V40.7647C333.118 42.584 331.643 44.0588 329.824 44.0588H233.882C232.063 44.0588 230.588 42.584 230.588 40.7647V18.5294C230.588 16.7101 229.113 15.2353 227.294 15.2353H196C194.181 15.2353 192.706 16.7101 192.706 18.5294V49.8235C192.706 51.6428 194.181 53.1176 196 53.1176H204.235C206.055 53.1176 207.529 54.5925 207.529 56.4118C207.529 58.2311 206.055 59.7059 204.235 59.7059H158.118C156.298 59.7059 154.824 58.2311 154.824 56.4118V29.2353C154.824 27.416 153.349 25.9412 151.529 25.9412H109.529C107.71 25.9412 106.235 27.416 106.235 29.2353V42.8235C106.235 44.6428 104.76 46.1176 102.941 46.1176H93.8823C92.0631 46.1176 90.5882 47.5925 90.5882 49.4118V56.4118C90.5882 58.2311 89.1134 59.7059 87.2941 59.7059H67.9412C66.1219 59.7059 64.6471 58.2311 64.6471 56.4118V47.3529C64.6471 45.5337 66.1219 44.0588 67.9412 44.0588H83.1765C84.9958 44.0588 86.4706 42.584 86.4706 40.7647V23.8824C86.4706 22.0631 84.9958 20.5882 83.1765 20.5882H66.2941C64.4748 20.5882 63 22.0631 63 23.8824V37.8824C63 39.7016 61.5252 41.1765 59.7059 41.1765H44.4706C42.6513 41.1765 41.1765 39.7016 41.1765 37.8824V23.8824C41.1765 22.0631 39.7016 20.5882 37.8824 20.5882H26.7647C24.9454 20.5882 23.4706 19.1134 23.4706 17.2941V3.29412C23.4706 1.47483 21.9958 0 20.1765 0Z" fill="#E0E0E0"/>
<path d="M560.412 1.23529C558.592 1.23529 557.118 2.71012 557.118 4.52941V15.2353C557.118 17.0546 558.592 18.5294 560.412 18.5294H571.118C572.937 18.5294 574.412 17.0546 574.412 15.2353V4.52941C574.412 2.71012 572.937 1.23529 571.118 1.23529H560.412Z" fill="#E0E0E0"/>
<path d="M482.176 9.88235C482.176 8.06306 483.651 6.58824 485.471 6.58824H490C491.819 6.58824 493.294 8.06306 493.294 9.88235V14.4118C493.294 16.2311 491.819 17.7059 490 17.7059H485.471C483.651 17.7059 482.176 16.2311 482.176 14.4118V9.88235Z" fill="#E0E0E0"/>
<path d="M169.647 18.9412C171.466 18.9412 172.941 20.416 172.941 22.2353V29.2353C172.941 31.0546 171.466 32.5294 169.647 32.5294H162.647C160.828 32.5294 159.353 31.0546 159.353 29.2353V22.2353C159.353 20.416 160.828 18.9412 162.647 18.9412H169.647Z" fill="#E0E0E0"/>
<path d="M147 15.2353C147 13.416 148.475 11.9412 150.294 11.9412H150.706C152.525 11.9412 154 13.416 154 15.2353V15.6471C154 17.4663 152.525 18.9412 150.706 18.9412H150.294C148.475 18.9412 147 17.4663 147 15.6471V15.2353Z" fill="#E0E0E0"/>
<path d="M0 283.677C0 279.258 3.58172 275.677 8 275.677H15.4706C19.8889 275.677 23.4706 279.258 23.4706 283.677V288.265C23.4706 292.683 27.0523 296.265 31.4706 296.265H33.1765C37.5947 296.265 41.1765 299.847 41.1765 304.265V308.853C41.1765 313.272 44.7582 316.853 49.1765 316.853H55C59.4183 316.853 63 313.272 63 308.853V304.265C63 299.847 66.5817 296.265 71 296.265H78.4706C82.8889 296.265 86.4706 299.847 86.4706 304.265V311.736C86.4706 316.154 82.8889 319.736 78.4706 319.736H72.4706C68.1498 319.736 64.6471 323.238 64.6471 327.559V327.559C64.6471 331.88 68.1498 335.383 72.4706 335.383H83.7941C87.5464 335.383 90.5882 332.341 90.5882 328.589V328.589C90.5882 324.836 93.6301 321.794 97.3823 321.794H98.4118C102.733 321.794 106.235 318.292 106.235 313.971V309.618C106.235 305.2 109.817 301.618 114.235 301.618H146.824C151.242 301.618 154.824 305.2 154.824 309.618V327.383C154.824 331.801 158.405 335.383 162.824 335.383H204.235C206.055 335.383 207.529 333.908 207.529 332.089V332.089C207.529 330.269 206.055 328.794 204.235 328.794H200.118C196.024 328.794 192.706 325.476 192.706 321.383V298.912C192.706 294.494 196.288 290.912 200.706 290.912H222.588C227.006 290.912 230.588 294.494 230.588 298.912V311.736C230.588 316.154 234.17 319.736 238.588 319.736H325.118C329.536 319.736 333.118 316.154 333.118 311.736V304.265C333.118 299.847 336.699 296.265 341.118 296.265H376.971C380.95 296.265 384.176 299.491 384.176 303.471V304.089C384.176 307.727 387.126 310.677 390.765 310.677V310.677C394.403 310.677 397.353 307.727 397.353 304.089V303.471C397.353 299.491 400.579 296.265 404.559 296.265H429.471C432.427 296.265 434.824 293.868 434.824 290.912V290.912C434.824 287.956 437.22 285.559 440.176 285.559H455.235C459.654 285.559 463.235 289.141 463.235 293.559V296.5C463.235 300.919 466.817 304.5 471.235 304.5H489.382C492.452 304.5 494.941 302.012 494.941 298.941V298.941C494.941 295.871 497.43 293.383 500.5 293.383H518C520.501 293.383 522.529 295.411 522.529 297.912V297.912C522.529 300.414 524.557 302.441 527.059 302.441H552.588C555.09 302.441 557.118 304.469 557.118 306.971V306.971C557.118 309.472 559.146 311.5 561.647 311.5H584.941C589.359 311.5 592.941 315.082 592.941 319.5V350H0V283.677Z" fill="#D3D3D3"/>
<path d="M557.118 284.912C557.118 280.494 560.699 276.912 565.118 276.912H566.412C570.83 276.912 574.412 280.494 574.412 284.912V286.206C574.412 290.624 570.83 294.206 566.412 294.206H565.118C560.699 294.206 557.118 290.624 557.118 286.206V284.912Z" fill="#D3D3D3"/>
<path d="M482.176 287.824C482.176 284.754 484.665 282.265 487.735 282.265V282.265C490.805 282.265 493.294 284.754 493.294 287.824V287.824C493.294 290.894 490.805 293.383 487.735 293.383V293.383C484.665 293.383 482.176 290.894 482.176 287.824V287.824Z" fill="#D3D3D3"/>
<path d="M172.941 301.412C172.941 297.66 169.899 294.618 166.147 294.618V294.618C162.395 294.618 159.353 297.66 159.353 301.412V301.412C159.353 305.164 162.395 308.206 166.147 308.206V308.206C169.899 308.206 172.941 305.164 172.941 301.412V301.412Z" fill="#D3D3D3"/>
<path d="M147 291.118C147 289.185 148.567 287.618 150.5 287.618V287.618C152.433 287.618 154 289.185 154 291.118V291.118C154 293.051 152.433 294.618 150.5 294.618V294.618C148.567 294.618 147 293.051 147 291.118V291.118Z" fill="#D3D3D3"/>
</svg>
