<svg width="932" height="550" viewBox="0 0 932 550" fill="none" xmlns="http://www.w3.org/2000/svg">
<path d="M31.9403 0H5.41085C2.55196 0 0.234375 2.31758 0.234375 5.17647V550H931.999V61.4706C931.999 58.6117 929.682 56.2941 926.823 56.2941H880.881C878.023 56.2941 875.705 53.9765 875.705 51.1176V47.2353C875.705 44.3764 873.387 42.0588 870.529 42.0588H826.529C823.67 42.0588 821.352 39.7412 821.352 36.8824V33C821.352 30.1411 819.035 27.8235 816.176 27.8235H783.176C780.317 27.8235 777.999 30.1411 777.999 33V40.1176C777.999 42.9765 775.682 45.2941 772.823 45.2941H733.352C730.493 45.2941 728.176 42.9765 728.176 40.1176V20.7059C728.176 17.847 725.858 15.5294 722.999 15.5294H688.705C685.846 15.5294 683.529 17.847 683.529 20.7059V27.1765C683.529 30.0354 681.211 32.3529 678.352 32.3529H629.823C626.964 32.3529 624.646 34.6705 624.646 37.5294V49.8235C624.646 52.6824 622.329 55 619.47 55H609.117C606.258 55 603.94 52.6824 603.94 49.8235V37.5294C603.94 34.6705 601.623 32.3529 598.764 32.3529H528.881C526.023 32.3529 523.705 34.6705 523.705 37.5294V64.0588C523.705 66.9177 521.387 69.2353 518.529 69.2353H367.764C364.905 69.2353 362.587 66.9177 362.587 64.0588V29.1176C362.587 26.2588 360.27 23.9412 357.411 23.9412H308.234C305.376 23.9412 303.058 26.2588 303.058 29.1176V78.2941C303.058 81.153 305.376 83.4706 308.234 83.4706H321.176C324.034 83.4706 326.352 85.7882 326.352 88.6471C326.352 91.5059 324.034 93.8235 321.176 93.8235H248.705C245.846 93.8235 243.529 91.5059 243.529 88.6471V45.9412C243.529 43.0823 241.211 40.7647 238.352 40.7647H172.352C169.493 40.7647 167.176 43.0823 167.176 45.9412V67.2941C167.176 70.153 164.858 72.4706 161.999 72.4706H147.764C144.905 72.4706 142.587 74.7882 142.587 77.6471V88.6471C142.587 91.5059 140.27 93.8235 137.411 93.8235H106.999C104.14 93.8235 101.823 91.5059 101.823 88.6471V74.4118C101.823 71.5529 104.14 69.2353 106.999 69.2353H130.94C133.799 69.2353 136.117 66.9177 136.117 64.0588V37.5294C136.117 34.6705 133.799 32.3529 130.94 32.3529H104.411C101.552 32.3529 99.2344 34.6705 99.2344 37.5294V59.5294C99.2344 62.3883 96.9168 64.7059 94.0579 64.7059H70.1167C67.2578 64.7059 64.9403 62.3883 64.9403 59.5294V37.5294C64.9403 34.6705 62.6227 32.3529 59.7638 32.3529H42.2932C39.4343 32.3529 37.1167 30.0354 37.1167 27.1765V5.17647C37.1167 2.31759 34.7991 0 31.9403 0Z" fill="#E0E0E0"/>
<path d="M880.881 1.94118C878.023 1.94118 875.705 4.25876 875.705 7.11765V23.9412C875.705 26.8001 878.023 29.1176 880.881 29.1176H897.705C900.564 29.1176 902.881 26.8001 902.881 23.9412V7.11765C902.881 4.25876 900.564 1.94118 897.705 1.94118H880.881Z" fill="#E0E0E0"/>
<path d="M757.94 15.5294C757.94 12.6705 760.258 10.3529 763.117 10.3529H770.234C773.093 10.3529 775.411 12.6705 775.411 15.5294V22.6471C775.411 25.5059 773.093 27.8235 770.234 27.8235H763.117C760.258 27.8235 757.94 25.5059 757.94 22.6471V15.5294Z" fill="#E0E0E0"/>
<path d="M266.823 29.7647C269.682 29.7647 271.999 32.0823 271.999 34.9412V45.9412C271.999 48.8001 269.682 51.1176 266.823 51.1176H255.823C252.964 51.1176 250.646 48.8001 250.646 45.9412V34.9412C250.646 32.0823 252.964 29.7647 255.823 29.7647H266.823Z" fill="#E0E0E0"/>
<path d="M231.234 23.9412C231.234 21.0823 233.552 18.7647 236.411 18.7647H237.058C239.917 18.7647 242.234 21.0823 242.234 23.9412V24.5882C242.234 27.4471 239.917 29.7647 237.058 29.7647H236.411C233.552 29.7647 231.234 27.4471 231.234 24.5882V23.9412Z" fill="#E0E0E0"/>
<path d="M0.234375 441.206C0.234375 436.787 3.8161 433.206 8.23438 433.206H29.1167C33.535 433.206 37.1167 436.787 37.1167 441.206V457.559C37.1167 461.977 40.6984 465.559 45.1167 465.559H56.9403C61.3585 465.559 64.9403 469.14 64.9403 473.559V489.911C64.9403 494.33 68.522 497.911 72.9403 497.911H91.2344C95.6527 497.911 99.2344 494.33 99.2344 489.911V473.559C99.2344 469.14 102.816 465.559 107.234 465.559H128.117C132.535 465.559 136.117 469.14 136.117 473.559V494.441C136.117 498.859 132.535 502.441 128.117 502.441H109.823C105.404 502.441 101.823 506.023 101.823 510.441V519.029C101.823 523.447 105.404 527.029 109.823 527.029H134.587C139.006 527.029 142.587 523.447 142.587 519.029V513.676C142.587 509.258 146.169 505.676 150.587 505.676H159.176C163.594 505.676 167.176 502.094 167.176 497.676V481.97C167.176 477.552 170.757 473.97 175.176 473.97H235.529C239.947 473.97 243.529 477.552 243.529 481.97V519.029C243.529 523.447 247.11 527.029 251.529 527.029H321.176C324.034 527.029 326.352 524.712 326.352 521.853V521.853C326.352 518.994 324.034 516.676 321.176 516.676H311.058C306.64 516.676 303.058 513.094 303.058 508.676V465.147C303.058 460.728 306.64 457.147 311.058 457.147H354.587C359.006 457.147 362.587 460.728 362.587 465.147V494.441C362.587 498.859 366.169 502.441 370.587 502.441H515.705C520.123 502.441 523.705 498.859 523.705 494.441V473.559C523.705 469.14 527.287 465.559 531.705 465.559H595.94C600.359 465.559 603.94 469.14 603.94 473.559V480.206C603.94 484.624 607.522 488.206 611.94 488.206H616.646C621.064 488.206 624.646 484.624 624.646 480.206V473.559C624.646 469.14 628.228 465.559 632.646 465.559H675.529C679.947 465.559 683.529 461.977 683.529 457.559V456.735C683.529 452.317 687.11 448.735 691.529 448.735H720.176C724.594 448.735 728.176 452.317 728.176 456.735V470.5C728.176 474.918 731.757 478.5 736.176 478.5H769.999C774.417 478.5 777.999 474.918 777.999 470.5V469.029C777.999 464.611 781.581 461.029 785.999 461.029H814.234C818.165 461.029 821.352 464.216 821.352 468.147V468.147C821.352 472.078 824.539 475.264 828.47 475.264H868.587C872.518 475.264 875.705 478.451 875.705 482.382V482.382C875.705 486.313 878.892 489.5 882.823 489.5H923.999C928.417 489.5 931.999 493.081 931.999 497.5V550H0.234375V441.206Z" fill="#D3D3D3"/>
<path d="M875.705 443.147C875.705 438.728 879.287 435.147 883.705 435.147H894.881C899.3 435.147 902.881 438.728 902.881 443.147V454.323C902.881 458.741 899.3 462.323 894.881 462.323H883.705C879.287 462.323 875.705 458.741 875.705 454.323V443.147Z" fill="#D3D3D3"/>
<path d="M757.94 451.559C757.94 447.14 761.522 443.559 765.94 443.559H767.411C771.829 443.559 775.411 447.14 775.411 451.559V453.029C775.411 457.447 771.829 461.029 767.411 461.029H765.94C761.522 461.029 757.94 457.447 757.94 453.029V451.559Z" fill="#D3D3D3"/>
<path d="M271.999 470.97C271.999 466.552 268.417 462.97 263.999 462.97H258.646C254.228 462.97 250.646 466.552 250.646 470.97V476.323C250.646 480.741 254.228 484.323 258.646 484.323H263.999C268.417 484.323 271.999 480.741 271.999 476.323V470.97Z" fill="#D3D3D3"/>
<path d="M231.234 457.47C231.234 454.433 233.697 451.97 236.734 451.97V451.97C239.772 451.97 242.234 454.433 242.234 457.47V457.47C242.234 460.508 239.772 462.97 236.734 462.97V462.97C233.697 462.97 231.234 460.508 231.234 457.47V457.47Z" fill="#D3D3D3"/>
</svg>
