<svg width="188" height="162" viewBox="0 0 188 162" fill="none" xmlns="http://www.w3.org/2000/svg">
<path d="M58.6204 0.950195L60.6996 11.4913L71.2407 13.5706L60.6996 15.6498L58.6204 26.1909L56.5411 15.6498L46 13.5706L56.5411 11.4913L58.6204 0.950195Z" fill="#357080"/>
<path d="M141.62 94.9502L143.37 103.821L152.241 105.571L143.37 107.32L141.62 116.191L139.871 107.32L131 105.571L139.871 103.821L141.62 94.9502Z" fill="#000033"/>
<path d="M19.5 105.95L20.7357 112.215L27 113.45L20.7357 114.686L19.5 120.95L18.2643 114.686L12 113.45L18.2643 112.215L19.5 105.95Z" fill="#A17246"/>
<path fill-rule="evenodd" clip-rule="evenodd" d="M155.914 27.9302L187.472 59.4876L155.914 91.0451V68.2373C125.456 72.2561 101.949 98.3215 101.949 129.877V153.341C101.949 157.876 98.272 161.553 93.7365 161.553C89.2011 161.553 85.5244 157.876 85.5244 153.341V129.877C85.5244 89.24 116.363 55.8054 155.914 51.6993V27.9302Z" fill="#000033"/>
<path fill-rule="evenodd" clip-rule="evenodd" d="M31.5575 27.9302V51.6995C56.547 54.2946 78.0514 68.5999 90.4942 89.001C92.8558 92.8731 91.6314 97.9265 87.7593 100.288C83.8872 102.65 78.8338 101.425 76.4722 97.5532C66.8958 81.8517 50.5788 70.7459 31.5575 68.2371V91.0451L0 59.4876L31.5575 27.9302Z" fill="#A17246"/>
<path fill-rule="evenodd" clip-rule="evenodd" d="M93.7332 0.950195L125.291 32.5076H101.945V71.222C101.945 75.7574 98.2687 79.4341 93.7332 79.4341C89.1978 79.4341 85.5211 75.7574 85.5211 71.222V32.5076H62.1758L93.7332 0.950195Z" fill="#357080"/>
</svg>
