<svg width="1049" height="610" viewBox="0 0 1049 610" fill="none" xmlns="http://www.w3.org/2000/svg">
<path fill-rule="evenodd" clip-rule="evenodd" d="M526.562 41.584C571.947 41.584 617.023 36.084 660.571 25.072L666.074 23.6986L670.199 27.5205C701.368 56.4178 722.76 93.7175 732.238 135.454L733.456 140.96L729.486 145.087C666.534 210.059 620.383 290.326 596.09 376.854L594.562 382.356L589.059 384.038C569.195 390.152 548.108 393.364 526.562 393.364C505.475 393.364 484.389 390.152 463.913 383.732L458.564 382.051L457.037 376.702C432.589 290.326 386.442 210.215 323.335 145.087L319.361 140.96L320.583 135.454C330.056 93.8727 351.756 56.4178 383.232 27.2159L387.359 23.394L392.859 24.7675C437.478 35.9287 482.402 41.584 526.562 41.584Z" fill="#112C5C"/>
<path fill-rule="evenodd" clip-rule="evenodd" d="M344.422 182.234C344.422 133.463 363.37 87.7551 397.749 53.3518C432.132 18.9604 477.819 3.05176e-05 526.411 3.05176e-05C575.159 3.05176e-05 620.844 18.9604 655.224 53.3518C689.604 87.7551 708.555 133.463 708.555 182.234C708.555 282.524 626.8 364.314 526.411 364.314C477.819 364.314 432.132 345.359 397.749 310.959C363.37 276.564 344.422 230.85 344.422 182.234Z" fill="#112C5C"/>
<path d="M391.917 41.211C378.525 54.0205 366.93 68.7169 357.599 84.8706C348.481 100.66 341.517 117.841 337.133 136.007C368.539 168.845 396.021 205.351 418.803 244.854C441.132 283.563 458.991 325.23 471.645 369.19C480.022 371.642 488.674 373.594 497.567 374.961C507.012 376.414 516.695 377.194 526.562 377.194C536.62 377.194 546.425 376.463 555.963 375.043C564.647 373.748 573.105 371.891 581.33 369.495C594.008 325.44 611.878 283.623 634.237 244.758C656.954 205.285 684.351 168.78 715.687 136.007C711.3 117.847 704.394 100.666 695.327 84.8586C686.136 68.8364 674.741 54.2534 661.509 41.5156C640.122 46.7767 618.259 50.8375 596.025 53.6024C573.236 56.433 550.048 57.9022 526.562 57.9022C502.822 57.9022 479.425 56.3136 456.373 53.3278C434.405 50.4792 412.932 46.3885 391.917 41.211ZM347.639 79.1019C358.073 61.0493 371.164 44.7105 386.343 30.6411L388.644 28.5031L391.658 29.2675C413.377 34.7376 435.427 39.0194 457.816 41.9217C480.183 44.818 503.088 46.3587 526.562 46.3587C549.594 46.3587 572.317 44.9196 594.629 42.1487C617.495 39.3061 639.919 35.0721 661.771 29.5721L664.797 28.8077L667.089 30.9456C682.16 44.9912 695.059 61.2224 705.331 79.1317C715.43 96.7424 723.005 116.019 727.607 136.485L728.293 139.512L726.144 141.734C694.617 174.346 667.059 210.875 644.241 250.533C621.792 289.547 603.982 331.505 591.549 375.654L590.701 378.672L587.693 379.598C577.91 382.622 567.882 384.919 557.634 386.448C547.493 387.961 537.126 388.738 526.562 388.738C516.13 388.738 505.874 387.91 495.856 386.368C485.422 384.763 475.205 382.363 465.279 379.293L462.277 378.365L461.428 375.348C449.017 331.295 431.218 289.493 408.798 250.623C385.913 210.952 358.268 174.411 326.673 141.734L324.531 139.518L325.212 136.485C329.796 116.031 337.45 96.7425 347.639 79.1019Z" fill="#DEDDDE"/>
<path d="M349.043 182.236C349.043 133.195 368.899 88.8074 400.99 56.6733C433.107 24.5154 477.458 4.62344 526.411 4.62344C575.445 4.62344 619.829 24.4975 651.947 56.6316C684.065 88.7716 703.929 133.172 703.929 182.236C703.929 231.216 684.053 275.586 651.911 307.72C619.787 339.827 575.427 359.692 526.411 359.692C477.451 359.692 433.107 339.818 401.006 307.702C368.905 275.586 349.043 231.222 349.043 182.236ZM409.145 64.7889C379.143 94.8329 360.582 136.349 360.582 182.236C360.582 228.039 379.15 269.513 409.165 299.545C439.176 329.568 480.633 348.148 526.411 348.148C572.27 348.148 613.771 329.575 643.8 299.557C673.822 269.543 692.391 228.057 692.391 182.236C692.391 136.361 673.822 94.8388 643.794 64.7949C613.759 34.745 572.264 16.1669 526.411 16.1669C480.61 16.1669 439.146 34.745 409.145 64.7889Z" fill="#DEDDDE"/>
<path d="M466.123 173.446C471.845 172.335 477.553 172.711 482.617 174.562C487.569 176.366 491.894 179.567 495.018 184.129L497.811 190.686L491.279 188.285C481.563 183.036 471.782 185.944 462.174 188.805C449.95 192.436 437.972 195.995 425.471 185.425C422.927 183.627 420.835 180.904 419.175 178.127C417.564 175.434 416.361 172.711 415.566 170.806L411.537 161.132L419.938 167.39C419.987 167.426 437.345 180.779 465.953 173.475L466.123 173.446Z" fill="#DEDDDE"/>
<path fill-rule="evenodd" clip-rule="evenodd" d="M522.588 125.665C510.366 125.665 499.058 127.964 494.625 134.228C494.625 134.228 489.736 138.815 488.82 142.792C488.82 142.792 457.495 121.538 447.717 167.712C447.717 167.712 466.663 154.102 477.512 162.97C477.512 162.97 483.012 170.769 493.099 173.367C506.85 177.04 505.323 179.787 505.933 182.695C505.933 182.695 504.098 186.971 492.182 194.465C480.417 202.109 473.693 198.443 462.844 194.925C462.844 194.925 462.079 210.977 483.623 210.673C483.623 210.673 487.139 210.977 491.417 210.517C491.417 210.517 465.593 221.374 475.371 247.972C475.371 247.972 484.234 237.271 494.015 234.823C494.015 234.823 466.052 266.622 503.031 297.663C503.031 297.663 503.031 269.226 513.574 260.507C513.574 260.507 519.38 283.134 517.547 295.52C517.547 295.52 517.088 306.37 513.725 312.03C513.725 312.03 557.579 311.113 545.051 258.369C545.051 258.369 562.623 264.335 558.958 288.336C558.958 288.336 598.382 268.611 572.405 228.098C572.405 228.098 587.226 228.098 591.81 245.834C591.81 245.834 612.898 213.27 578.058 182.235C578.058 182.235 591.201 179.022 598.382 189.879C598.382 189.879 597.462 165.108 574.083 153.033C568.735 150.131 577.139 141.568 575.002 136.826L522.588 125.665Z" fill="#CE0F3E"/>
<path fill-rule="evenodd" clip-rule="evenodd" d="M549.791 144.628C549.791 144.628 563.997 126.587 585.24 129.035C585.24 129.035 579.283 155.634 555.903 160.524L549.791 144.628Z" fill="#CE0F3E"/>
<path fill-rule="evenodd" clip-rule="evenodd" d="M556.666 147.225C556.666 147.225 564.766 139.277 574.542 137.598C574.542 137.598 569.654 149.064 558.498 151.357L556.666 147.225Z" fill="#DEDDDE"/>
<path fill-rule="evenodd" clip-rule="evenodd" d="M514.797 172.906C512.2 171.073 508.838 170.309 506.086 171.688C514.491 171.987 515.867 183.918 525.034 181.47C526.716 181.01 528.245 180.246 529.618 179.326C523.659 181.774 518.77 176.274 514.797 172.906Z" fill="#DEDDDE"/>
<path fill-rule="evenodd" clip-rule="evenodd" d="M562.613 207.031C561.557 202.104 559.88 198.378 557.522 195.452C554.49 191.689 550.324 189.253 544.898 187.282C546.104 192.549 547.554 197.804 547.59 203.245C547.626 208.321 546.521 212.692 544.29 216.329C542.66 218.938 540.602 220.832 538.619 222.199C540.515 217.171 540.639 212.883 540.032 209.473C538.899 203.107 535.264 199.775 531.15 195.386C530.972 199.297 531.035 203.316 530.049 207.138C528.794 211.999 526.377 214.943 523.903 216.735C525.684 211.247 524.402 206.087 523.049 203.484L517.855 206.236C517.936 206.487 520.259 211.175 517.64 216.532C515.896 220.103 512.366 222.886 509.604 225.651C520.114 225.024 529.648 223.913 534.544 212.16C535.024 220.037 530.214 226.314 525.953 232.381C535.346 230.5 543.24 228.595 549.022 219.536C552.639 213.946 553.941 207.144 553.141 199.064C558.566 206.35 557.886 215.833 557.886 224.432C565.025 215.779 570.331 207.628 570.247 195.481C570.188 187.414 567.281 178.026 558.041 168.782L556.06 174.897C566.469 188.13 565.245 199.811 562.613 207.031Z" fill="#DEDDDE"/>
<path d="M479.42 179.56C475.685 178.449 471.534 178.282 467.333 179.076C448.305 183.925 433.635 180.27 425.053 176.657C426.178 178.312 427.461 179.81 428.876 180.784L429.014 180.879L429.1 180.957C439.27 189.604 449.802 186.475 460.553 183.28C466.734 181.441 472.98 179.584 479.42 179.56Z" fill="#CE0F3E"/>
<path fill-rule="evenodd" clip-rule="evenodd" d="M532.52 109.768C536.188 115.883 542.147 123.987 549.635 123.987C557.275 123.987 561.859 120.625 565.529 114.51C563.387 114.814 562.778 114.814 560.635 114.199C555.902 112.521 553.61 107.779 554.523 101.664C556.057 96.3137 561.399 93.2562 566.598 94.785C568.43 95.4001 569.958 96.3137 571.027 97.5379C569.809 95.2448 569.35 92.3365 570.108 89.7448C571.642 84.3941 577.903 80.1063 583.406 81.026L562.014 133.769H491.417L469.871 83.4744C475.22 82.5548 481.485 86.8365 483.012 92.1872C483.777 94.7849 483.32 96.7735 482.096 98.9174C483.166 97.6932 484.847 95.4001 486.528 94.785C491.723 93.2562 497.682 97.8425 499.209 103.044C500.128 109.159 498.142 112.981 493.404 114.659C491.263 115.119 489.431 114.814 487.293 114.51C490.958 120.625 496.46 123.987 504.098 123.987C511.587 123.987 517.088 115.883 520.755 109.768C519.074 110.992 517.088 111.607 514.947 111.607C509.447 111.607 505.169 107.17 505.169 101.664C505.169 96.1644 509.447 91.5781 514.947 91.5781C516.63 91.5781 518.463 92.0379 519.839 92.9516C518.006 91.1183 516.782 88.5205 516.782 85.7675C516.782 80.2616 521.214 75.8305 526.561 75.8305C532.063 75.8305 536.496 80.2616 536.496 85.7675C536.496 88.5205 535.12 91.2735 533.285 93.1069C534.814 92.1872 536.496 91.5781 538.328 91.5781C543.831 91.5781 548.107 96.1644 548.107 101.664C548.107 107.17 543.831 111.607 538.328 111.607C536.188 111.607 532.52 109.768 532.52 109.768Z" fill="#E2AD25"/>
<path d="M509.207 146.911C508.316 146.839 507.281 146.821 506.08 146.911C505.938 149.819 503.697 151.963 500.741 151.963C498.118 151.963 495.95 150.273 495.383 147.866C494.301 147.747 493.331 147.544 492.471 147.287C493.147 150.44 494.91 154.179 499.421 155.027C499.438 155.032 505.789 156.376 508.498 148.601L508.507 148.565C508.729 147.956 508.962 147.407 509.207 146.911ZM499.039 133.785C498.223 134.424 497.528 135.123 496.982 135.899L496.824 136.12L496.621 136.317C496.614 136.323 493.954 138.831 492.48 141.399C493.961 142.193 497.02 143.095 502.354 141.757L502.574 141.715C509.601 140.527 513.996 142.104 516.097 143.238C519.081 144.152 521.599 147.012 521.611 147.024L517.458 150.787C517.451 150.775 514.744 147.723 513.753 150.464C509.426 162.832 498.426 160.521 498.393 160.515C488.579 158.669 486.796 149.264 486.509 144.737C482.366 142.295 461.482 131.749 452.238 161.697C459.34 158.084 471.074 153.993 479.328 160.736L479.654 161.004L479.846 161.267C479.86 161.291 484.765 168.242 493.809 170.571L493.833 170.583C507.792 174.303 508.214 177.785 508.636 181.29C508.673 181.601 508.715 181.917 508.752 182.108L508.939 182.992L508.584 183.816C508.577 183.834 506.395 188.928 493.714 196.901V196.895C482.562 204.132 475.64 202.269 466.523 199.194C467.978 202.974 472.079 207.942 483.593 207.787H483.795C483.804 207.787 487.192 208.074 491.114 207.656L510.053 205.625L492.557 213.168C492.494 213.192 472.254 221.707 476.729 242.363C480.431 238.786 486.624 233.704 493.32 232.026L502.07 229.841L496.202 236.696C496.134 236.78 472.518 263.629 500.426 291.392C501.11 282.124 503.48 265.116 511.739 258.29L515.225 255.406L516.357 259.783C516.374 259.855 522.245 282.733 520.431 295.709C520.389 296.515 520.025 302.917 518.293 308.565C528.54 306.584 551.457 297.799 542.247 259.031L541.021 253.865L546.02 255.651C546.074 255.669 562.804 261.36 562.338 282.804C571.357 276.253 588.637 258.744 569.978 229.656L567.09 225.135L572.438 225.207C572.479 225.213 585.479 225.219 592.17 238.548C596.146 228.336 600.497 206.079 576.144 184.384L572.014 180.711L577.398 179.427C577.427 179.421 586.166 177.283 593.997 181.816C591.776 174.053 586.291 162.581 572.772 155.594L572.712 155.558C572.652 155.522 572.593 155.492 572.539 155.457C568.313 159.04 563.043 161.972 556.489 163.345L555.313 157.708C568.331 154.985 579.272 139.41 581.456 131.689C563.735 131.581 552.066 146.385 552.03 146.427L547.548 142.82C547.596 142.767 562.738 123.537 585.569 126.165L588.792 126.535L588.046 129.682C588.034 129.736 585.402 141.471 576.819 151.234C600.324 164.342 601.261 189.669 601.267 189.74L601.798 200.257L595.984 191.466C592.881 186.778 588.446 185.208 584.847 184.784C614.559 215.98 594.307 247.272 594.247 247.362L590.696 252.999L589.025 246.556C586.84 238.094 582.131 234.23 578.275 232.468C598.682 271.685 560.381 290.842 560.267 290.902L555.259 293.476L556.107 287.904C558.113 274.802 553.296 267.744 549.171 264.208C557.48 313.986 513.947 314.912 513.818 314.914L508.561 315.092L511.249 310.564C514.239 305.539 514.663 295.441 514.665 295.417L514.67 295.303L514.698 295.1C515.898 287.002 513.632 274.145 512.079 266.824C505.926 277.352 505.917 297.602 505.917 297.668L505.873 303.801L501.184 299.866C474.301 277.304 479.832 254.295 486.001 242.011C481.102 245.576 477.586 249.81 477.572 249.834L474.38 253.62L472.672 248.962C466.09 231.059 474.182 219.671 481.438 213.532C459.113 212.738 459.96 194.858 459.96 194.81L460.111 191.012L463.723 192.183C465.136 192.643 466.136 192.983 467.109 193.312C475.341 196.106 481.28 198.119 490.617 192.051L490.65 192.028C499.188 186.665 502.058 183.392 502.935 182.144C502.93 182.085 502.921 182.025 502.914 181.965C502.725 180.413 502.536 178.866 492.392 176.155L492.389 176.161C482.501 173.617 476.612 166.54 475.414 164.981C466.213 157.994 449.421 170.034 449.372 170.063L443.383 174.28L444.901 167.113C450.487 140.742 462.679 134.645 473.037 134.83C478.097 134.92 482.989 136.502 487.507 138.682C488.507 136.944 489.72 135.326 491.025 133.785H499.039Z" fill="#DEDDDE"/>
<path fill-rule="evenodd" clip-rule="evenodd" d="M983.905 445.343H891.461L843.018 565.049L843.173 445.189H780.985V606.02H889.777L899.56 581.559H977.184L988.334 606.02H1049L983.905 445.343ZM708.094 531.721L642.39 445.189H563.543V564.59L514.034 445.343H422.81L384.608 540.894H327.611C322.875 560.92 312.026 569.789 292.313 569.789C269.699 569.789 254.419 552.97 254.419 527.898C254.419 495.336 267.256 478.517 291.856 478.517C312.026 478.517 323.486 487.537 326.999 506.343H391.637L391.789 503.894C391.789 465.064 352.521 439.534 292.773 439.534C228.9 439.534 198.645 464.453 193.448 521.63C184.283 511.692 169.308 503.894 158 502.98L133.856 500.839L98.2538 500.227C82.9725 499.921 74.2623 494.571 74.2623 485.55C74.2623 475.307 83.1241 469.65 99.324 469.65C117.964 469.65 125.453 476.529 125.453 493.5H193.448V491.361C193.448 458.185 161.361 439.838 103.143 439.838C38.5077 439.838 6.87578 457.573 6.87578 493.5C6.87578 524.229 30.1024 540.739 74.5697 541.962L101.005 542.575C120.41 543.187 129.121 547.926 129.121 558.17C129.121 566.884 116.897 575.138 104.213 575.138C82.0563 575.138 70.4429 567.496 70.4429 553.124H0V554.652C0 589.51 35.146 608.619 99.0184 608.619C160.597 608.619 190.854 595.167 200.632 563.213C220.345 596.848 246.016 609.079 295.983 609.079C327.765 609.079 344.269 604.644 364.896 589.661L358.324 606.02H418.378L429.38 580.946H508.226L518.769 605.715H621.756V510.47L694.951 606.02H767.841V445.343H708.094V531.721ZM916.213 541.199L937.45 487.997L961.594 540.894L916.213 541.199ZM445.883 541.199L467.275 486.315L491.724 541.199H445.883Z" fill="#112C5C"/>
</svg>
