<svg width="1050" height="608" viewBox="0 0 1050 608" fill="none" xmlns="http://www.w3.org/2000/svg">
<path d="M696.111 0.000823975C662.245 23.5969 603.651 30.0289 551.269 35.6586L550.961 36.3297C551.489 66.5339 548.124 96.6943 540.966 126.063C528.234 177.191 503.505 224.097 467.55 265.429C451.992 283.23 434.872 299.592 416.389 314.303V314.479C493.675 290.256 587.037 245.032 647.027 161.27C706.27 78.5296 700.839 29.7213 696.254 0.000823975H696.111ZM364.898 109.526C329.405 153.914 317.343 219.941 328.074 311.345C328.888 319.856 329.855 326.772 330.614 331.632L331.032 331.906C369.714 313.016 520.636 226.89 519.954 39.2429L519.591 38.9355C447.418 46.5223 396.762 69.6234 364.898 109.526ZM717.618 94.5828C706.468 125.106 691.141 153.935 672.075 180.236C611.172 264.164 520.735 310.576 455.653 334.689C434.421 342.616 414.762 348.542 397.631 353.094V353.347C405.987 353.776 414.223 353.996 422.337 354.029H426.527C466.945 353.864 504.22 348.817 537.866 338.944C584.981 325.1 624.157 302.109 654.284 270.629C698.53 224.405 720.586 162.699 717.805 94.5828H717.618Z" fill="url(#paint0_radial_816_1908)"/>
<path d="M125.079 477.109C114.737 470.033 93.8976 461.943 72.352 461.943C49.9455 461.943 35.5082 471.413 35.5082 486.237C35.5082 499.327 47.3958 505.343 67.2084 507.782L86.1712 510.188C120.973 514.846 141.47 529.493 141.47 556.602C141.47 587.783 113.556 607.949 68.9303 607.949C48.7755 607.949 21.5456 603.126 0 586.922L13.1017 565.907C25.3867 575.377 41.7004 583.313 69.0628 583.313C95.9395 583.313 112.485 574.516 112.485 558.313C112.485 546.249 101.812 538.677 79.5706 535.917L60.6189 533.677C23.9849 529.151 6.24733 512.606 6.24733 487.793C6.24733 456.402 32.2521 437.472 72.054 437.472C97.9042 437.472 121.514 444.294 137.364 455.221L125.079 477.109Z" fill="#034EA2"/>
<path d="M313.062 535.868C313.062 585.317 277.576 607.889 238.458 607.889C198.999 607.889 163.667 585.317 163.667 535.868V440.723H191.934V533.263C191.934 566.685 211.747 581.509 238.458 581.509C265.17 581.509 284.861 566.685 284.861 533.263V440.723H313.117L313.062 535.868Z" fill="#034EA2"/>
<path d="M479.521 461.195L378.714 578.945H481.077V604.508H341.318V584.033L443.329 466.515H344.254V440.72H479.521V461.195Z" fill="#034EA2"/>
<path d="M523.279 522.612C523.279 555.174 546.028 581.543 579.615 581.543C612.706 581.543 635.797 556.211 635.797 522.612C635.797 489.014 612.706 463.859 579.615 463.859C545.509 463.837 523.279 490.029 523.279 522.612ZM662.332 604.501H634.075V582.669C621.15 598.011 602.033 608 576.359 608C530.354 608 494.471 572.161 494.471 522.712C494.471 473.263 530.31 437.402 576.359 437.402C602.033 437.402 621.15 447.413 634.075 462.91V440.724H662.332V604.501Z" fill="#034EA2"/>
<path d="M851.011 502.781V604.504H822.754V511.964C822.754 481.82 806.22 464.06 777.72 464.06C751.351 464.06 729.287 482.162 729.287 512.659V604.504H701.273V440.716H729.177V462.085C742.632 443.641 763.824 437.272 782.787 437.272C823.096 437.294 851.011 463.486 851.011 502.781Z" fill="#034EA2"/>
<path d="M904.596 522.614C904.596 556.897 929.408 581.544 962.312 581.544C995.226 581.544 1020.05 556.897 1020.05 522.614C1020.05 488.331 995.06 463.861 962.312 463.861C929.574 463.861 904.596 488.298 904.596 522.614ZM1049 522.614C1049 571.202 1011.96 607.902 962.312 607.902C912.675 607.902 875.82 571.191 875.82 522.614C875.82 474.037 912.675 437.315 962.312 437.315C1011.96 437.315 1049 474.015 1049 522.614Z" fill="#034EA2"/>
<defs>
<radialGradient id="paint0_radial_816_1908" cx="0" cy="0" r="1" gradientUnits="userSpaceOnUse" gradientTransform="translate(219.03 178.335) scale(576.931 576.931)">
<stop stop-color="#99CA45"/>
<stop offset="0.5" stop-color="#27B67D"/>
<stop offset="1" stop-color="#009368"/>
</radialGradient>
</defs>
</svg>
