<svg width="550" height="969" viewBox="0 0 550 969" fill="none" xmlns="http://www.w3.org/2000/svg">
<rect x="46" y="74" width="504" height="895" rx="31" fill="#E2E2E2"/>
<path d="M445 521.5C445 602.962 378.962 669 297.5 669C216.038 669 150 602.962 150 521.5C150 440.038 216.038 374 297.5 374C378.962 374 445 440.038 445 521.5ZM169.89 521.5C169.89 591.977 227.023 649.11 297.5 649.11C367.977 649.11 425.11 591.977 425.11 521.5C425.11 451.023 367.977 393.89 297.5 393.89C227.023 393.89 169.89 451.023 169.89 521.5Z" fill="#CDCDCD"/>
<path d="M355 520.5L268.75 568.564L268.75 472.436L355 520.5Z" fill="#CDCDCD"/>
<path d="M37.2771 40.32V10.44C37.2771 4.67415 42.0222 0 47.8755 0H80.4016C86.2549 0 91 4.67415 91 10.44V40.32C91 46.0859 86.2549 50.76 80.4016 50.76H47.8755C42.0222 50.76 37.2771 46.0859 37.2771 40.32Z" fill="#E2E2E2"/>
<path d="M0 75.96V60.12C0 57.3365 2.29072 55.08 5.11647 55.08H22.2932C25.1189 55.08 27.4096 57.3365 27.4096 60.12V75.96C27.4096 78.7435 25.1189 81 22.2932 81H5.11647C2.29072 81 0 78.7435 0 75.96Z" fill="#E2E2E2"/>
</svg>
