<svg width="512" height="512" viewBox="0 0 512 512" fill="none" xmlns="http://www.w3.org/2000/svg">
<path d="M512 256C512 397.46 397.31 512 256 512C114.54 512 0 397.31 0 256C0 114.69 114.69 0 256 0C397.31 0 512 114.54 512 256Z" fill="white"/>
<path d="M256 80.46C159.01 80.46 80.46 159.02 80.46 256C80.46 352.98 159.01 431.54 256 431.54C352.99 431.54 431.54 352.99 431.54 256C431.54 159.01 352.99 80.46 256 80.46ZM512 256C512 397.46 397.31 512 256 512C114.54 512 0 397.31 0 256C0 114.69 114.69 0 256 0C397.31 0 512 114.54 512 256Z" fill="#9DC9ED"/>
<path d="M334.56 236.11L369.66 192.22H333.53L316.27 213.87L334.56 236.11Z" fill="#ED1D24"/>
<path d="M287.451 283.79V284.23H355.031V283.79C355.031 283.79 354.011 283.64 352.981 283.5C348.451 282.91 344.931 281.74 342.301 280.57C332.061 276.33 323.581 267.99 316.261 259.5C316.261 259.5 310.851 266.67 306.021 271.79C298.861 279.55 291.111 282.77 287.451 283.79ZM251.761 283.79C247.371 282.62 243.131 280.28 241.961 279.4C227.771 270.48 218.411 255.12 218.411 236.68C218.411 208.59 241.231 185.77 269.321 185.77C283.221 185.77 296.971 191.04 307.941 203.91L308.531 204.64L308.971 204.35L254.111 109.41L153.311 284.09H251.611L251.761 283.79ZM269.171 214.31C276.191 214.31 282.191 217.38 286.581 222.5C288.191 224.4 288.631 224.99 289.801 226.45C293.901 231.72 295.361 233.76 297.851 236.84C295.361 239.77 294.051 241.81 289.801 247.23C288.631 248.69 288.041 249.28 286.581 251.18C282.191 256.45 276.191 259.37 269.171 259.37C256.741 259.37 246.641 249.28 246.641 236.84C246.641 224.4 256.731 214.31 269.171 214.31Z" fill="#2B3189"/>
<path d="M252.93 336.16V331.481C252.93 331.481 252.78 331.771 251.91 332.07C250.59 332.66 248.69 333.09 246.64 333.53C244.15 334.12 239.18 334.99 239.33 338.5C239.48 342.16 243.13 342.89 246.06 342.6C250.44 342.16 252.78 339.53 252.93 336.16ZM240.64 325.34L232.45 325.05C232.74 323.44 232.74 313.351 246.79 313.641C254.25 313.791 261.86 316.131 261.86 325.641V344.951C261.86 345.681 262.01 346.411 262.3 347.141C262.59 347.731 262.89 347.87 263.32 348.31H253.67C253.67 348.31 253.38 347.58 253.08 346.12C252.93 345.1 252.93 345.1 252.79 344.36C252.79 344.36 251.33 348.89 243.72 349.33C237.14 349.62 230.55 345.82 230.12 339.38C229.83 335.14 232.61 331.77 235.97 330.16C238.6 328.84 242.26 328.11 247.67 327.38C250.89 326.94 252.64 326.361 252.64 324.451C252.79 321.821 250.15 320.35 247.08 320.21C240.05 320.22 240.64 325.34 240.64 325.34ZM184.91 321.391H189.59V338.65C189.59 341.43 189.88 344.94 192.52 346.99C195.15 348.89 198.81 348.75 202.32 348.6C203.78 348.6 205.25 348.6 205.25 348.6V341.72H203.06C201.6 341.72 200.72 341.57 199.84 340.99C198.67 340.11 198.82 338.65 198.82 337.77V321.391H204.96V314.951H198.82V304.27H189.6V314.951H184.92V321.391M210.51 348.6H219.87V333.24C219.87 329 220.75 325.05 224.55 323.15C226.6 322.13 228.06 321.98 230.4 322.27V314.22C230.11 314.07 229.08 313.93 227.91 313.93C224.84 313.78 222.06 315.54 220.3 318.61C220.15 318.9 220.01 319.05 219.71 319.78L219.42 314.951H210.5V348.6M166.91 321.24C160.33 321.24 159.6 327.68 159.6 327.68H174.52C174.52 327.68 173.49 321.1 166.91 321.24ZM150.09 332.8C149.5 322.56 156.23 313.78 166.77 313.93C185.35 314.22 184.32 334.261 184.32 334.261H159.31C159.31 334.261 159.6 342.31 167.5 342.31C172.77 342.31 174.38 338.07 174.38 338.07L183.89 338.66C183.89 338.66 181.26 349.491 167.51 349.921C161.35 349.921 150.67 345.23 150.09 332.8ZM143.07 348.6V310.13H157.26V301.791H119.08V310.13H133.12V348.6H143.07ZM336.46 336.16V331.481C336.46 331.481 336.31 331.771 335.44 332.07C333.98 332.66 332.22 333.09 330.17 333.53C327.68 334.12 322.71 334.99 322.86 338.5C323.01 342.16 326.66 342.89 329.44 342.6C333.82 342.31 336.16 339.68 336.46 336.16ZM324.02 325.49L315.83 325.201C316.12 323.591 316.12 313.5 330.31 313.79C337.77 313.94 345.38 316.281 345.38 325.791V345.1C345.38 345.83 345.53 346.561 345.82 347.291C346.11 347.881 346.41 348.02 346.84 348.46H337.33C337.33 348.46 337.04 347.73 336.74 346.27C336.59 345.25 336.59 345.251 336.45 344.511C336.45 344.511 334.99 349.041 327.38 349.481C320.8 349.771 314.21 345.97 313.78 339.53C313.49 335.29 316.27 331.92 319.63 330.31C322.12 329.14 325.92 328.26 331.19 327.53C334.55 327.09 336.16 326.51 336.31 324.6C336.46 321.97 333.68 320.5 330.75 320.36C323.44 320.22 324.02 325.49 324.02 325.49ZM289.65 309.83V324.31H296.67C301.79 324.46 305.59 322.261 305.59 317.141C305.59 312.021 302.08 309.68 296.37 309.97H289.64V309.83H289.65ZM289.65 348.6H279.7V301.791H295.94C307.35 301.351 315.25 306.76 315.25 317C315.25 329.43 306.33 332.651 294.92 332.511C294.92 332.511 292.29 332.511 289.65 332.511V348.6ZM351.96 348.6V301.791H361.32V327.24L373.02 314.81H384L371.57 327.68L385.47 348.451H374.2L364.84 333.53L361.18 337.19V348.451H351.96" fill="#2B3189"/>
<path d="M398.19 298.57H400.53C402.43 298.57 404.63 298.42 404.63 296.08C404.63 293.74 402.44 293.59 400.53 293.74H398.19V298.57ZM394.97 291.11H401.7C405.8 291.11 407.84 293.01 407.84 296.38C407.84 299.45 406.08 300.91 403.74 301.21L408.27 308.52H404.91L400.67 301.5H398.33V308.52H394.97V291.11ZM400.82 312.17C407.7 312.17 413.25 306.61 413.25 299.74C413.25 292.86 407.69 287.31 400.82 287.31C393.94 287.31 388.39 292.87 388.39 299.74C388.39 306.61 393.95 312.17 400.82 312.17ZM400.82 284.67C409.16 284.67 415.89 291.4 415.89 299.74C415.89 308.08 409.16 314.81 400.82 314.81C392.48 314.81 385.75 308.08 385.75 299.74C385.61 291.4 392.48 284.67 400.82 284.67Z" fill="#2B3189"/>
<path d="M56.9096 224.55C56.7596 231.57 51.0596 237.28 43.8896 237.13C36.7196 236.98 31.1596 231.13 31.3096 224.11C31.4596 216.94 37.3096 211.38 44.3296 211.38C51.3496 211.53 56.9096 217.38 56.9096 224.55Z" fill="white"/>
<path d="M455.239 224.55C455.389 231.57 461.089 237.28 468.409 237.13C475.429 236.98 481.139 231.13 480.989 224.11C480.839 216.94 475.139 211.38 467.969 211.38C460.649 211.53 455.089 217.38 455.239 224.55Z" fill="white"/>
<path d="M78.9904 333.39L84.7004 342.31L64.8004 363.52L64.9504 363.67L93.6204 356.06L98.4504 363.52L79.1404 387.07H79.2904L107.52 377.56L112.93 385.76L69.0504 398.92L64.2204 391.75L84.5504 367.03V366.88L53.6904 375.37L49.1504 368.35L78.9904 333.39Z" fill="white"/>
<path d="M118.049 388.97L125.509 395.26L114.829 407.84L129.169 419.99L139.849 407.55L147.159 413.84L118.639 447.34L111.319 441.05L123.609 426.57L109.279 414.28L96.9893 428.76L89.5293 422.62L118.049 388.97Z" fill="white"/>
<path d="M161.651 436.37L150.531 446.02L160.041 450.99L161.651 436.37ZM164.281 423.2L171.451 426.86L168.091 474.84L158.441 469.72L159.461 459.63L144.251 451.73L136.641 458.31L127.131 453.34L164.281 423.2Z" fill="white"/>
<path d="M193.1 445.15L181.1 441.49L183.59 433.3L216.94 443.39L214.45 451.58L202.46 447.93L192.07 481.87L182.86 479.09L193.1 445.15Z" fill="white"/>
<path d="M227.769 462.26L219.869 461.24L226.889 444.42L235.809 445.73L227.769 462.26Z" fill="white"/>
<path d="M263.459 457.58C261.999 455.53 258.779 454.65 256.439 454.51C253.659 454.51 249.859 455.68 249.859 458.9C249.709 466.95 270.049 462.12 269.899 477.48C269.749 487.28 261.709 491.82 252.639 491.67C246.929 491.52 241.959 489.77 237.869 485.96L244.889 478.5C246.789 481.13 250.009 482.74 253.229 482.74C256.449 482.74 259.959 481.42 259.959 478.21C260.109 470.16 239.329 474.11 239.629 459.49C239.779 450.13 247.969 445.3 256.599 445.45C261.569 445.45 266.399 446.91 270.059 450.28L263.459 457.58Z" fill="white"/>
<path d="M347.429 469.72C342.899 474.4 337.339 477.47 331.189 479.52C318.169 483.76 305.739 478.35 301.349 464.89C296.959 451.43 303.689 439.73 316.709 435.49C323.289 433.3 329.729 432.86 335.139 435.34L331.039 444.56C327.679 442.8 324.159 442.37 319.629 443.97C311.729 446.6 308.509 453.92 310.999 461.67C313.629 469.42 320.509 473.52 328.409 470.89C332.359 469.57 334.989 467.53 336.459 465.92L334.269 459.19L326.809 461.68L324.029 453.2L340.409 447.79L347.429 469.72Z" fill="white"/>
<path d="M378.591 446.9C385.611 442.37 386.931 434.47 382.391 427.59C378.001 420.71 370.101 418.67 363.231 423.06C356.211 427.59 354.891 435.49 359.431 442.37C363.811 449.24 371.571 451.44 378.591 446.9ZM358.401 415.45C369.961 407.99 383.271 410.18 390.881 422.03C398.491 433.88 394.981 446.9 383.421 454.36C371.861 461.82 358.551 459.63 350.941 447.78C343.331 435.93 346.841 422.91 358.401 415.45Z" fill="white"/>
<path d="M423.64 408.87C429.2 402.73 428.47 394.68 422.32 389.27C416.18 383.71 408.13 383.71 402.57 389.86C397.01 396 397.74 404.05 403.74 409.46C409.89 415.01 417.94 415.01 423.64 408.87ZM396 383.71C405.22 373.62 418.67 372.3 429.06 381.81C439.45 391.32 439.45 404.78 430.08 415.02C420.86 425.11 407.41 426.43 397.02 416.92C386.63 407.41 386.78 393.95 396 383.71Z" fill="white"/>
<path d="M451.15 369.81L453.49 365.42C457.73 357.37 457.88 349.91 448.96 345.09C441.35 340.99 434.48 345.24 430.67 352.55L428.04 357.67L451.15 369.81ZM415.6 362.06L422.48 349.19C429.06 336.61 440.03 329 454.22 336.46C466.8 343.19 468.12 356.94 461.97 368.64L454.51 382.68L415.6 362.06Z" fill="white"/>
<path d="M100.211 103.42L104.891 98.8896C107.381 96.5496 108.991 93.3296 106.061 90.4096C102.841 87.1896 99.1806 89.9696 96.5506 92.4596L93.0406 95.9696L100.211 103.42ZM80.3105 96.8396L92.0106 85.4296C98.5906 78.9896 106.051 75.9196 113.371 83.3796C120.541 90.8396 117.761 98.0096 111.031 104.45L105.911 109.42L117.911 121.71L110.891 128.44L80.3105 96.8396Z" fill="white"/>
<path d="M135.901 73.44L140.731 70.51C143.801 68.61 147.611 66.12 145.121 62.03C142.781 58.23 139.121 59.84 136.051 61.74L130.641 65.1L135.901 73.44ZM118.051 63.05L132.531 54.13C140.141 49.45 148.331 47.99 153.741 56.76C156.961 62.03 156.671 67.88 151.981 71.97L171.291 81.92L161.341 88.06L144.221 77.97L140.121 80.46L149.341 95.38L141.151 100.5L118.051 63.05Z" fill="white"/>
<path d="M197.491 64.2201C205.391 61.7301 208.901 54.4201 206.41 46.6701C204.07 38.7701 197.05 34.6701 189.15 37.0201C181.25 39.5101 177.74 46.6701 180.23 54.5701C182.71 62.4601 189.591 66.7101 197.491 64.2201ZM186.66 28.5301C199.83 24.5801 211.97 30.2901 216.06 43.7401C220.16 57.2001 213.28 68.7501 200.11 72.8501C186.94 76.8001 174.801 71.0901 170.711 57.6401C166.471 44.1801 173.49 32.4801 186.66 28.5301Z" fill="white"/>
<path d="M237.42 28.6697L224.84 29.3997L224.4 20.9197L259.22 18.7197L259.66 27.3597L247.08 28.0897L249.27 63.4897L239.62 64.0697L237.42 28.6697Z" fill="white"/>
<path d="M277.211 19.8896L306.911 24.2796L305.441 33.2096L285.551 30.1296L284.231 38.3297L303.101 41.1096L301.791 50.0296L282.921 47.0996L281.601 56.0296L302.671 59.2496L301.351 68.0196L270.631 63.3396L277.211 19.8896Z" fill="white"/>
<path d="M351.38 51.64C350.5 48.71 348.31 46.52 344.94 45.2C338.21 42.42 330.9 45.93 327.82 53.54C324.74 61.15 327.53 68.75 334.11 71.39C337.77 72.85 341.28 72.41 344.35 70.37L349.62 79C344.21 82.51 337.62 82.36 331.92 80.17C319.19 75.05 313.2 62.91 318.61 49.74C323.88 36.72 336.6 32.04 349.33 37.16C353.86 39.06 358.98 42.87 360.74 48.72L351.38 51.64Z" fill="white"/>
<path d="M380.341 64.8004L369.961 57.6404L374.781 50.6104L403.601 70.2204L398.771 77.3904L388.391 70.2204L368.351 99.4704L360.301 94.0603L380.341 64.8004Z" fill="white"/>
<path d="M424.52 105.33C424.81 102.84 423.35 99.9202 421.74 98.1602C419.84 96.2602 416.33 94.3601 413.99 96.7001C408.28 102.26 425.99 113.23 414.87 124.06C407.85 130.94 398.92 128.45 392.63 121.87C388.68 117.77 386.49 113.09 386.34 107.39L396.58 107.1C396.14 110.32 397.17 113.68 399.51 116.02C401.7 118.36 405.22 119.82 407.56 117.63C413.41 112.07 395.86 100.22 406.54 89.9801C413.27 83.4001 422.49 85.8801 428.48 92.1701C431.99 95.8301 434.33 100.07 434.48 105.04L424.52 105.33Z" fill="white"/>
</svg>
