<svg width="1049" height="220" viewBox="0 0 1049 220" fill="none" xmlns="http://www.w3.org/2000/svg">
<path d="M260.061 220V191.366H253.288C249.797 191.159 246.504 189.676 244.036 187.198C241.568 184.72 240.098 181.422 239.906 177.931V40.6924C240.105 37.137 241.602 33.7783 244.114 31.2539C246.627 28.7296 249.979 27.2154 253.534 26.9988L260.484 26.96L260.541 0.0258798H172.243V26.96H178.766C182.342 27.1868 185.714 28.7043 188.255 31.2302C190.796 33.7561 192.333 37.1186 192.58 40.6924V177.845C192.333 181.311 190.844 184.573 188.386 187.03C185.928 189.488 182.665 190.976 179.198 191.223H171.751V219.974L260.061 220ZM945.058 0.0301931L874.801 0.0690457L874.922 27.0463L881.57 26.9729C887.963 26.9729 894.767 34.4606 894.767 41.8836L894.888 177.931C894.749 181.423 893.297 184.734 890.823 187.203C888.348 189.672 885.033 191.117 881.54 191.249H874.667V219.888H947.683V191.249L941.113 191.296C937.708 191.148 934.468 189.787 931.977 187.461C929.487 185.134 927.911 181.995 927.532 178.608L927.566 79.2746L982.335 219.888H1028.75L1028.8 40.2868C1029.07 36.6824 1030.69 33.3141 1033.35 30.8582C1036 28.4022 1039.48 27.0405 1043.1 27.0463H1049V0.0301931H976.097V27.0463H983.198C986.678 27.1887 989.983 28.6088 992.48 31.035C994.978 33.4612 996.493 36.723 996.736 40.1961V128.521L945.058 0.0301931ZM700.037 191.249C693.074 191.249 692.133 188.793 685.593 180.184C685.593 180.184 638.051 113.092 630.337 101.764C635.413 94.319 678.409 32.0309 678.409 32.0309C679.321 30.417 680.664 29.0889 682.288 28.1955C683.912 27.302 685.753 26.8787 687.604 26.9729H695.591V0.0992389L621.44 0.0301931V26.9729H626.024C626.983 26.8641 627.953 27.0056 628.841 27.3838C629.728 27.762 630.503 28.364 631.088 29.1308C633.436 32.0913 628.93 38.1592 627.76 39.6999L590.803 93.6458L590.768 40.166C590.92 36.6982 592.37 33.4142 594.831 30.9649C597.291 28.5157 600.582 27.0801 604.051 26.9427H611.006L610.919 0H521.323V26.9729H528.316C531.722 27.1908 534.927 28.6615 537.313 31.1016C539.699 33.5416 541.096 36.7783 541.237 40.1875V177.797C541.056 181.314 539.578 184.64 537.088 187.131C534.598 189.623 531.273 191.104 527.755 191.288L520.887 191.24V219.901H611.58V191.24H604.802C601.184 191.195 597.717 189.783 595.097 187.288C592.478 184.793 590.899 181.399 590.678 177.788L590.747 117.658C594.256 121.728 633.842 180.904 633.842 180.904C638.893 191.24 631.442 191.24 628.062 191.24H622.856L622.765 219.901H702.04L701.971 191.262L700.037 191.249ZM713.117 219.888H860.133V163.417L835.57 163.469L835.595 178.073C835.349 181.538 833.841 184.792 831.357 187.22C828.872 189.648 825.584 191.081 822.114 191.249H782.399L782.424 117.693L798.233 117.732C801.65 118.159 804.828 119.712 807.265 122.145C809.701 124.579 811.258 127.754 811.689 131.171L811.745 139.772L835.82 139.793V71.2172H811.745L811.689 79.65C811.756 81.36 811.474 83.0658 810.859 84.6629C810.245 86.2599 809.31 87.7146 808.113 88.9378C806.915 90.1609 805.481 91.1267 803.897 91.776C802.313 92.4253 800.614 92.7443 798.902 92.7136L782.399 92.6186L782.368 27.0204L819.588 26.9686C823.078 27.0951 826.394 28.5222 828.884 30.9692C831.374 33.4163 832.858 36.7061 833.044 40.1918L833.178 54.3861H857.223V0.0086266H713.614V26.9513H720.249C723.68 27.1042 726.937 28.504 729.409 30.8879C731.881 33.2718 733.398 36.4758 733.674 39.8984V178.142C733.192 181.544 731.578 184.684 729.094 187.058C726.609 189.431 723.398 190.9 719.977 191.227H713.117V219.888ZM121.533 219.901V191.249H112.334C110.581 191.238 108.848 190.881 107.233 190.199C105.619 189.516 104.155 188.522 102.925 187.273C101.695 186.025 100.725 184.546 100.068 182.921C99.4111 181.296 99.0816 179.558 99.0981 177.806V26.9729H118.369C121.935 26.9729 125.355 28.3885 127.877 30.9086C130.4 33.4286 131.818 36.8469 131.82 40.4119V59.5606H153.227V0.0301931H0.0302344L0 59.6598L21.4376 59.6339L21.4635 40.4853C21.4624 38.7201 21.8093 36.9721 22.4844 35.3411C23.1596 33.7101 24.1497 32.2281 25.3983 30.98C26.6467 29.7318 28.1291 28.742 29.7606 28.067C31.392 27.392 33.1406 27.0452 34.9062 27.0463L54.1897 27.0031L54.1336 177.879C54.153 179.628 53.8255 181.363 53.1701 182.984C52.5148 184.605 51.5445 186.08 50.3153 187.324C49.0862 188.568 47.6226 189.556 46.0092 190.232C44.3957 190.907 42.6644 191.255 40.9153 191.258H31.742V219.896L121.533 219.901ZM301.551 40.4206C301.389 36.9076 299.921 33.5816 297.434 31.0942C294.948 28.6067 291.622 27.137 288.108 26.9729H281.305L281.331 0.0301931H351.937L390.552 131.106L429.322 0.0301931H500.2V26.9729H493.552C490.019 27.1638 486.678 28.6454 484.165 31.1364C481.652 33.6273 480.141 36.9542 479.92 40.4853V178.267C480.101 181.72 481.58 184.976 484.062 187.384C486.544 189.791 489.845 191.172 493.302 191.249H499.928V219.888H419.6L419.544 191.249H423.684C429.883 191.249 434.515 185.488 434.515 178.073L434.653 79.7234L393.505 219.888H373.163L333.513 80.5261L333.362 178.125C333.202 179.706 333.358 181.304 333.823 182.824C334.287 184.344 335.05 185.757 336.067 186.979C337.084 188.201 338.335 189.208 339.745 189.941C341.156 190.674 342.699 191.119 344.284 191.249H348.385V219.888H281.028V191.249L287.897 191.296C291.41 191.178 294.752 189.75 297.265 187.292C299.778 184.835 301.281 181.526 301.477 178.017C301.477 178.017 301.572 47.8867 301.572 40.4206" fill="#FF8300"/>
</svg>
