<svg width="1049" height="174" viewBox="0 0 1049 174" fill="none" xmlns="http://www.w3.org/2000/svg">
<path fill-rule="evenodd" clip-rule="evenodd" d="M124.149 164.702C110.259 156.002 100.027 125.979 100.027 90.3072C100.027 88.9982 100.035 87.7081 100.064 86.4181L100.081 86.4369C61.4492 80.3655 33.5367 63.732 32.8219 44.0628L32.7085 44.2896C23.256 56.0367 17.8606 69.6187 17.8606 84.0909C17.8606 126.676 64.6066 161.569 123.899 164.655L124.149 164.702ZM0 87.198C0 39.5481 59.2973 0.914062 132.45 0.914062C205.6 0.914062 264.899 39.5481 264.899 87.198C264.899 134.848 205.599 173.483 132.45 173.483C59.2973 173.483 0 134.847 0 87.198ZM132.45 13.3666C146.571 13.3666 158.583 34.7877 163.032 64.6768L163.049 64.6316C190.522 60.3552 209.757 50.4901 209.757 39.0107C209.757 23.6032 175.142 11.1276 132.45 11.1276C89.7542 11.1276 55.1415 23.6043 55.1415 39.0107C55.1415 50.4901 74.3741 60.3552 101.85 64.6316L101.867 64.6768C106.316 34.7888 118.331 13.3666 132.45 13.3666ZM140.998 164.654C200.29 161.569 247.043 126.675 247.043 84.0898C247.043 69.6187 241.641 56.0367 232.189 44.2885L232.074 44.0618C231.359 63.731 203.454 80.3645 164.818 86.4359L164.835 86.417C164.861 87.7071 164.875 88.9972 164.875 90.3061C164.875 125.978 154.635 156.001 140.754 164.701L140.998 164.654ZM132.45 66.8979C138.776 66.8979 144.926 66.6281 150.811 66.1096L150.802 66.119C147.874 46.959 140.761 33.4368 132.45 33.4368C124.138 33.4368 117.026 46.959 114.093 66.119L114.086 66.1096C119.971 66.6281 126.123 66.8979 132.45 66.8979ZM132.45 137.851C143.081 137.851 151.753 115.727 152.216 87.9768L152.273 87.9968C145.865 88.5899 139.236 88.8995 132.451 88.8995C125.659 88.8995 119.036 88.5899 112.628 87.9968L112.688 87.9768C113.144 115.726 121.814 137.851 132.45 137.851Z" fill="#E2001A"/>
<path fill-rule="evenodd" clip-rule="evenodd" d="M675.846 87.198C675.846 50.7778 705.377 21.252 741.789 21.252C778.219 21.252 807.746 50.7767 807.746 87.198C807.746 123.622 778.219 153.144 741.789 153.144C705.377 153.144 675.846 123.622 675.846 87.198ZM741.789 128.962C762.131 128.962 778.619 110.262 778.619 87.198C778.619 64.1352 762.131 45.4327 741.789 45.4327C721.461 45.4327 704.976 64.1352 704.976 87.198C704.976 110.261 721.461 128.962 741.789 128.962Z" fill="#E2001A"/>
<path fill-rule="evenodd" clip-rule="evenodd" d="M882.572 48.7284V150.15H854.788V48.7284H854.879H816.021V25.7988H921.332V48.7284H882.663H882.572Z" fill="#E2001A"/>
<path fill-rule="evenodd" clip-rule="evenodd" d="M954.947 122.17L954.919 122.197L944.261 150.149H911.812L963.114 25.7969H980.412H997.693L1049 150.149H1016.55L1005.89 122.197L1005.86 122.17H980.413H954.947ZM980.411 101.183H997.892L997.881 101.188L980.53 55.6744H980.286L962.924 101.188L962.918 101.183H980.411Z" fill="#E2001A"/>
<path fill-rule="evenodd" clip-rule="evenodd" d="M370.379 48.7284V150.15H342.592V48.7284H342.687H303.826V25.7988H409.141V48.7284H370.476H370.379Z" fill="#E2001A"/>
<path fill-rule="evenodd" clip-rule="evenodd" d="M416.248 87.198C416.248 50.7778 445.778 21.252 482.203 21.252C518.625 21.252 548.152 50.7767 548.152 87.198C548.152 123.622 518.625 153.144 482.203 153.144C445.778 153.144 416.248 123.622 416.248 87.198ZM482.203 128.962C502.534 128.962 519.024 110.262 519.024 87.198C519.024 64.1352 502.535 45.4327 482.203 45.4327C461.868 45.4327 445.378 64.1352 445.378 87.198C445.378 110.261 461.868 128.962 482.203 128.962Z" fill="#E2001A"/>
<path fill-rule="evenodd" clip-rule="evenodd" d="M611.999 150.15H626.088V103.513V102.931L674.562 25.7988H642.119L611.999 78.0663L581.883 25.7988H549.43L597.909 102.931V103.513V150.15H611.999Z" fill="#E2001A"/>
</svg>
