<svg width="208" height="253" viewBox="0 0 208 253" fill="none" xmlns="http://www.w3.org/2000/svg">
<path d="M20 109L23.2951 125.705L40 129L23.2951 132.295L20 149L16.7049 132.295L0 129L16.7049 125.705L20 109Z" fill="#357080"/>
<path d="M196.5 0L198.395 9.60531L208 11.5L198.395 13.3947L196.5 23L194.605 13.3947L185 11.5L194.605 9.60531L196.5 0Z" fill="#357080"/>
<path fill-rule="evenodd" clip-rule="evenodd" d="M54.1777 24.2398C54.1777 19.6616 57.5603 15.9502 61.733 15.9502H167.508C171.68 15.9502 175.063 19.6616 175.063 24.2398C175.063 28.818 171.68 32.5294 167.508 32.5294H122.176V113.649L128.327 120.399H149.482L175.17 148.584H54.0703L79.7584 120.399H100.913L107.065 113.649V32.5294H61.733C57.5603 32.5294 54.1777 28.818 54.1777 24.2398Z" fill="#000033"/>
<path fill-rule="evenodd" clip-rule="evenodd" d="M66.5654 27.6875L93.0349 71.3621C93.3147 71.8064 93.4765 72.3325 93.4765 72.8964C93.4765 87.6638 81.2575 99.5672 66.5654 99.5672C51.8733 99.5672 39.6543 87.6638 39.6543 72.8964V70.013H40.9136L66.5654 27.6875ZM45.6235 75.7797C47.0605 85.933 55.9668 93.8005 66.5654 93.8005C77.164 93.8005 86.0703 85.933 87.5074 75.7797H45.6235ZM85.4742 70.013H47.6566L66.5654 38.8136L85.4742 70.013ZM162.677 27.6875L189.146 71.3621C189.426 71.8064 189.588 72.3325 189.588 72.8964C189.588 87.6638 177.369 99.5672 162.677 99.5672C147.984 99.5672 135.765 87.6638 135.765 72.8964V72.0908L136.156 71.4464C136.173 71.418 136.19 71.3899 136.207 71.3622L162.677 27.6875ZM141.735 75.7797C143.172 85.933 152.078 93.8005 162.677 93.8005C173.275 93.8005 182.181 85.933 183.618 75.7797H141.735ZM181.585 70.013H143.768L162.677 38.8136L181.585 70.013Z" fill="#357080"/>
<path fill-rule="evenodd" clip-rule="evenodd" d="M189.833 168.148C187.545 165.86 183.871 165.749 181.449 167.895L161.5 185.572C153.721 192.464 143.688 196.27 133.295 196.27H92.0129C87.6644 196.27 84.1392 192.744 84.1392 188.396C84.1392 184.047 87.6644 180.522 92.0129 180.522H115.777C118.778 180.522 121.211 178.089 121.211 175.088C121.211 172.087 118.778 169.654 115.777 169.654H75.9942C67.5162 169.654 59.3054 172.621 52.7854 178.04L28.4736 198.247L39.1561 240.977L61.1139 219.019H113.689C135.411 219.019 156.243 210.391 171.602 195.031L189.833 176.8C192.222 174.411 192.222 170.537 189.833 168.148ZM193.911 164.07C189.466 159.626 182.329 159.411 177.625 163.579L157.676 181.255C150.952 187.213 142.279 190.503 133.295 190.503H92.0129C90.8492 190.503 89.9059 189.56 89.9059 188.396C89.9059 187.232 90.8492 186.289 92.0129 186.289H115.777C121.963 186.289 126.977 181.274 126.977 175.088C126.977 168.902 121.963 163.888 115.777 163.888H75.9942C66.1697 163.888 56.6548 167.326 49.0994 173.605L22 196.13L36.0318 252.257L63.5026 224.786H113.689C136.94 224.786 159.239 215.55 175.68 199.109L193.911 180.878C198.552 176.237 198.552 168.712 193.911 164.07Z" fill="#357080"/>
</svg>
