<svg width="511" height="565" viewBox="0 0 511 565" fill="none" xmlns="http://www.w3.org/2000/svg">
<path d="M411.598 115.525C413.617 130.295 436.022 150.198 442.087 149.733C446.145 149.733 447.69 130.45 447.69 115.525C447.69 106.971 448.167 100.283 443.65 98.7276C436.491 113.194 417.664 116.149 411.598 115.525ZM412.84 108.991C429.014 108.991 443.809 96.0903 443.809 84.737C443.809 79.4482 441.314 75.1008 434.932 74.3251C436.022 75.7249 436.488 76.8144 436.488 79.2931C436.488 87.8503 423.429 97.3384 409.259 97.3384C404.118 97.3384 402.569 100.907 402.569 102.772C402.573 107.126 406.768 108.991 412.84 108.991ZM409.414 91.4256C407.244 91.4256 404.122 91.4256 402.421 88.0055C401.01 85.2059 401.483 80.6964 398.836 78.6725C401.483 79.4482 404.281 79.4482 406.458 79.4482C413.465 79.4482 420.158 74.6354 425.285 74.6354C428.711 74.6354 429.791 76.8144 429.791 78.9828C429.791 85.823 415.959 91.4256 409.414 91.4256ZM61.3604 213.318C66.6424 213.318 65.5451 180.979 74.1084 180.979C76.1373 180.979 76.7583 183.003 76.7583 185.485C76.7583 192.794 73.1769 203.523 73.1769 209.433C73.1769 212.384 73.9567 213.318 75.354 213.318C79.094 213.318 85.6251 177.714 92.0079 177.714C94.0297 177.714 94.9612 179.734 94.9612 181.758C94.9612 189.215 85.4698 210.674 85.4698 216.731C85.4698 217.665 85.7839 218.441 86.5566 218.441C90.4519 218.441 98.2355 201.651 100.723 193.259C102.12 188.905 103.987 186.574 105.695 186.574C107.251 186.574 108.651 188.288 108.651 191.86C108.651 200.255 100.878 220.003 94.0262 233.218C88.7336 243.475 80.4913 258.252 80.4913 266.495C80.4913 270.691 81.2746 275.042 87.3328 280.331C77.3757 279.71 73.3357 278.779 69.5956 271.005C52.9452 304.112 100.25 300.862 84.0691 330.243C81.1193 324.957 57.7755 319.513 57.7755 288.733C57.7755 262.137 81.1193 246.592 81.1193 235.552C81.1193 233.377 80.336 231.512 78.3178 229.805C73.1769 225.451 73.0252 221.872 68.9782 221.872C66.0249 221.872 62.4471 228.715 66.1766 234.773C67.4221 236.793 68.5159 238.041 68.5159 239.91C68.5159 244.265 61.6744 255.921 56.8476 255.921C52.0243 255.921 48.2877 243.954 48.2877 224.675C48.2877 207.567 52.176 190.315 57.0028 190.315C58.4001 190.315 58.8694 191.246 58.8694 192.491C58.8694 194.511 58.2448 198.545 58.2448 205.392C58.2413 212.694 59.9561 213.318 61.3604 213.318ZM299.717 60.4756C302.211 60.4756 302.681 66.5471 303.143 70.1223C303.453 71.9875 303.764 72.1462 304.547 72.1462C306.414 72.1462 309.371 64.9887 311.385 64.9887C314.356 64.9887 322.288 73.2356 335.505 73.2356C354.333 73.2356 372.077 60.0137 372.077 36.6936C372.077 14.1458 356.199 0.927303 334.263 0.927303C323.837 0.927303 316.216 6.05743 312.169 6.05743C309.681 6.21257 305.944 0 304.071 0C303.291 0 302.522 1.54786 302.522 4.19225C302.522 5.90229 302.522 11.3497 300.648 11.3497C296.919 11.3497 282.449 0.613499 282.449 4.50605C282.449 8.0848 292.096 18.9727 292.096 21.7651C292.096 24.5682 282.608 27.2091 282.608 29.0742C282.608 32.4979 292.724 33.1184 292.724 37.4728C292.724 41.8202 282.131 45.2438 282.131 48.5123C282.131 51.1567 292.724 49.288 292.724 52.5565C292.724 55.8214 284.944 66.6987 284.944 69.812C284.944 70.5948 285.095 70.5948 285.723 70.5948C288.669 70.5912 297.547 60.4756 299.717 60.4756ZM100.099 290.284C99.9397 287.174 102.12 284.216 105.384 283.906C108.651 283.437 111.612 285.926 111.919 289.191C112.236 292.46 109.897 295.263 106.626 295.724C103.366 295.887 100.413 293.549 100.099 290.284ZM82.8306 295.104C83.4551 300.393 88.4266 304.423 94.0297 303.806C96.0515 303.647 97.925 303.027 99.1635 302.244C100.413 307.226 104.294 310.336 110.052 309.712C115.81 309.25 119.861 304.423 119.236 298.683C119.236 297.131 118.771 296.197 118.305 295.104L119.395 294.949C124.836 294.328 129.035 289.35 128.566 283.906C127.948 278.303 122.818 274.263 117.525 274.728C115.5 275.197 113.789 275.814 112.547 276.903C111.142 272.246 107.095 268.512 101.344 269.136C95.8962 269.446 91.6904 274.728 92.3149 280.479C92.3149 281.261 92.6219 282.506 93.0947 283.592L92.0044 283.744C86.5566 284.523 82.3613 289.039 82.8306 295.104ZM429.487 9.94998C429.481 10.4621 429.578 10.9703 429.771 11.4447C429.964 11.919 430.25 12.3501 430.612 12.7124C430.974 13.0747 431.406 13.361 431.88 13.5545C432.355 13.7479 432.863 13.8447 433.376 13.839C435.553 13.839 437.271 12.1325 437.271 9.94998C437.271 7.771 435.556 6.05743 433.376 6.05743C431.192 6.05743 429.487 7.771 429.487 9.94998ZM342.671 157.345C342.671 160.924 345.628 163.878 349.199 163.878C350.929 163.868 352.586 163.177 353.81 161.953C355.033 160.73 355.724 159.074 355.733 157.345C355.721 155.617 355.029 153.963 353.806 152.741C352.583 151.519 350.928 150.827 349.199 150.815C345.628 150.815 342.671 153.777 342.671 157.345ZM343.134 176.931C343.133 177.891 343.321 178.841 343.687 179.727C344.054 180.614 344.592 181.42 345.27 182.099C345.948 182.778 346.754 183.317 347.64 183.685C348.527 184.053 349.477 184.243 350.437 184.244C351.397 184.245 352.348 184.057 353.236 183.69C354.123 183.324 354.929 182.787 355.609 182.109C356.288 181.431 356.828 180.626 357.196 179.741C357.564 178.855 357.754 177.905 357.755 176.945C357.757 175.008 356.989 173.149 355.619 171.777C354.249 170.406 352.39 169.635 350.452 169.633C348.513 169.631 346.652 170.399 345.28 171.767C343.908 173.136 343.135 174.994 343.134 176.931ZM320.728 190.15C320.733 192.994 321.866 195.72 323.878 197.731C325.891 199.742 328.619 200.874 331.465 200.879C334.31 200.87 337.035 199.737 339.046 197.727C341.056 195.716 342.189 192.992 342.195 190.15C342.189 187.308 341.056 184.585 339.045 182.575C337.034 180.566 334.309 179.434 331.465 179.428C328.62 179.43 325.891 180.561 323.879 182.571C321.866 184.581 320.733 187.306 320.728 190.15ZM326.483 168.233C326.483 171.66 329.281 174.456 332.707 174.456C336.133 174.456 338.938 171.66 338.938 168.233C338.938 164.813 336.133 162.013 332.707 162.013C329.281 162.013 326.483 164.813 326.483 168.233ZM306.093 180.669C306.093 182.319 306.749 183.902 307.917 185.069C309.085 186.236 310.669 186.892 312.32 186.892C313.972 186.892 315.556 186.236 316.724 185.069C317.892 183.902 318.548 182.319 318.548 180.669C318.493 179.054 317.814 177.524 316.652 176.402C315.49 175.279 313.937 174.651 312.32 174.651C310.704 174.651 309.151 175.279 307.989 176.402C306.827 177.524 306.147 179.054 306.093 180.669ZM322.129 144.289C322.146 146.923 323.2 149.444 325.064 151.307C326.927 153.17 329.45 154.225 332.086 154.242C334.722 154.224 337.244 153.169 339.108 151.306C340.971 149.444 342.026 146.923 342.043 144.289C342.027 141.655 340.972 139.134 339.109 137.271C337.245 135.409 334.722 134.355 332.086 134.339C329.451 134.355 326.928 135.409 325.064 137.271C323.2 139.134 322.146 141.655 322.129 144.289ZM333.801 125.161C333.781 125.949 333.919 126.733 334.207 127.467C334.495 128.201 334.926 128.869 335.477 129.434C336.027 129.999 336.685 130.447 337.412 130.754C338.138 131.061 338.919 131.219 339.707 131.22C340.496 131.221 341.277 131.064 342.004 130.758C342.731 130.453 343.39 130.005 343.941 129.442C344.493 128.878 344.926 128.21 345.215 127.477C345.504 126.743 345.643 125.96 345.625 125.172C345.588 123.63 344.95 122.163 343.847 121.085C342.743 120.007 341.261 119.403 339.718 119.401C338.175 119.4 336.692 120.001 335.586 121.078C334.481 122.154 333.84 123.619 333.801 125.161ZM305.63 140.086C305.63 141.654 306.254 143.158 307.363 144.267C308.473 145.376 309.978 145.999 311.548 145.999C313.117 145.999 314.622 145.376 315.732 144.267C316.841 143.158 317.465 141.654 317.465 140.086C317.465 136.817 314.818 134.184 311.544 134.184C308.277 134.184 305.63 136.817 305.63 140.086ZM304.851 160.3C304.851 165.589 309.053 169.791 314.353 169.791C315.601 169.798 316.839 169.557 317.993 169.082C319.148 168.607 320.196 167.908 321.079 167.025C321.961 166.142 322.659 165.093 323.132 163.939C323.606 162.784 323.845 161.547 323.837 160.3C323.845 159.053 323.605 157.816 323.131 156.662C322.658 155.509 321.959 154.46 321.077 153.578C320.195 152.696 319.146 151.997 317.992 151.523C316.838 151.049 315.601 150.808 314.353 150.815C313.103 150.807 311.865 151.046 310.709 151.52C309.553 151.993 308.503 152.691 307.619 153.574C306.735 154.456 306.035 155.505 305.56 156.659C305.085 157.814 304.844 159.051 304.851 160.3ZM285.254 170.257C285.254 175.08 289.298 179.117 294.124 179.117C298.941 179.117 302.988 175.08 302.988 170.257C302.988 165.437 298.944 161.393 294.124 161.393C289.298 161.393 285.254 165.437 285.254 170.257ZM290.54 148.333C290.54 151.753 293.345 154.556 296.771 154.556C298.419 154.549 299.998 153.89 301.162 152.725C302.327 151.559 302.983 149.98 302.988 148.333C302.988 144.909 300.19 142.11 296.771 142.11C295.12 142.114 293.538 142.77 292.37 143.936C291.202 145.103 290.544 146.683 290.54 148.333ZM269.849 377.521C269.849 380.927 272.647 383.723 276.073 383.723C279.485 383.723 282.29 380.927 282.29 377.521C282.287 375.872 281.632 374.292 280.467 373.125C279.302 371.958 277.723 371.298 276.073 371.291C272.647 371.291 269.849 374.087 269.849 377.521ZM102.438 119.872C102.438 123.296 105.232 126.095 108.651 126.095C110.302 126.092 111.884 125.435 113.052 124.269C114.22 123.103 114.878 121.522 114.882 119.872C114.875 118.224 114.216 116.646 113.048 115.482C111.881 114.319 110.3 113.663 108.651 113.66C105.232 113.66 102.438 116.459 102.438 119.872ZM94.3402 105.882C94.3448 107.531 95.003 109.112 96.1706 110.278C97.3383 111.444 98.9205 112.101 100.571 112.105C103.987 112.105 106.781 109.305 106.781 105.882C106.781 102.461 103.987 99.6584 100.571 99.6584C98.9205 99.6622 97.3383 100.319 96.1706 101.485C95.003 102.651 94.3448 104.232 94.3402 105.882ZM101.034 258.872C107.565 258.872 113.016 254.049 113.016 243.327V227.471C113.016 221.403 113.475 214.556 117.525 209.743C117.059 211.767 117.059 213.942 117.059 215.955C117.059 229.333 124.526 238.507 124.526 251.419C124.526 256.231 123.128 258.876 119.395 258.876C115.81 258.876 116.124 255.611 115.348 255.611C114.727 255.611 113.792 257.631 113.792 259.803C113.792 263.075 116.128 268.205 122.666 268.205C128.262 268.205 132.775 263.075 132.775 257.317C132.775 243.33 121.893 227.785 121.893 212.856C121.893 206.323 123.59 201.972 124.995 198.545C124.995 229.495 151.292 252.043 151.292 264.944C151.292 267.898 149.115 270.233 145.844 270.233C142.273 270.233 140.558 267.433 140.558 265.254C140.558 264.161 140.403 263.854 139.938 263.854C139.002 263.854 136.197 266.964 136.197 271.008C136.197 276.131 140.4 282.354 148.18 282.354C157.05 282.354 161.881 274.89 161.881 268.205C161.881 251.884 129.977 227.154 129.977 200.724C129.977 196.211 130.753 188.909 134.024 183.313C113.478 196.521 107.102 214.101 107.102 229.491C107.102 242.858 106.633 249.546 99.7915 249.546C96.2138 249.546 95.2823 246.281 94.0368 246.281C93.1017 246.281 92.6325 249.084 92.6325 249.86C92.6219 255.607 96.8277 258.872 101.034 258.872ZM370.676 103.551C377.518 103.551 382.659 100.438 382.659 98.5725C382.659 97.9484 381.72 97.4936 379.695 97.4936C377.676 97.4936 373.622 97.3384 366.001 96.0903C359.459 95.0043 354.477 92.5186 352.611 92.5186C351.983 92.5186 351.679 92.8253 351.679 93.2907C351.686 97.3349 359.156 103.551 370.676 103.551ZM336.758 83.8027C338.776 82.558 347.481 84.5783 358.853 78.9793C360.084 78.2852 361.471 77.9129 362.886 77.8968C368.344 77.8968 366.936 84.1129 371.925 84.1129C375.814 84.1129 380.796 80.848 383.752 80.848C388.403 80.848 395.103 95.4662 395.103 102.306C395.103 110.232 383.131 115.056 368.965 115.056C348.264 115.056 335.823 97.0176 335.823 85.354C335.823 84.4232 336.289 84.1129 336.758 83.8027ZM104.29 317.49C99.16 318.738 90.9141 326.823 90.9141 339.583C90.9141 354.804 107.251 378.293 134.172 378.293C156.891 378.293 162.484 362.582 162.484 352.004C162.484 328.536 148.014 312.046 129.19 312.046C118.919 312.046 109.738 319.513 109.738 330.553C109.738 340.82 117.518 356.207 136.035 356.207C144.743 356.207 149.88 349.98 149.88 342.826C149.88 335.845 143.494 326.199 134.165 326.199C131.36 326.199 129.338 328.064 129.338 331.022C129.338 334.752 134.479 338.486 140.858 338.486C142.414 338.486 143.649 338.176 144.277 337.862C144.588 338.331 144.743 339.11 144.743 339.731C144.743 343.295 141.328 345.471 136.035 345.471C128.096 345.471 120.475 339.576 120.475 330.239C120.475 324.64 125.291 320.592 132.302 320.592C146.14 320.592 154.393 332.887 154.393 345.157C154.393 356.207 148.321 362.578 135.88 362.578C110.987 362.582 98.853 340.196 104.29 317.49ZM88.7371 148.488C85.1558 149.422 77.6933 153.777 77.6933 161.544C77.6933 167.147 82.0473 170.726 87.4916 170.726C90.2931 170.726 92.3184 170.098 93.5604 169.167C89.2029 164.971 87.6469 160.303 87.6469 155.646C87.6469 152.377 88.1126 150.353 88.7371 148.488ZM50.6165 150.664C50.4612 151.439 50.4612 152.218 50.4612 152.994C50.4612 160.3 54.353 164.344 59.4939 164.344C63.3786 164.344 67.8914 162.01 71.935 156.876C70.0853 157.192 68.2118 157.347 66.3354 157.342C60.5736 157.345 54.353 155.797 50.6165 150.664ZM45.1757 164.503C45.1757 176.318 48.7429 181.913 55.1328 181.913C60.1113 181.913 66.8011 178.338 74.74 171.501C68.6677 172.901 64.0067 173.832 59.8044 173.832C54.1978 173.832 49.8367 171.657 45.1757 164.503ZM281.98 408.608C289.449 408.608 288.98 407.984 291.323 407.984C293.659 407.984 293.803 409.384 293.803 410.315C293.803 413.742 286.175 417.934 272.647 417.934C264.701 417.934 259.885 413.742 258.491 409.074C250.701 414.049 238.884 418.558 227.223 418.558C195.323 418.558 187.225 404.716 177.271 400.203C169.646 396.783 157.978 403.468 141.645 385.274C143.815 385.74 146.772 385.895 149.111 385.895C163.426 385.895 171.051 378.91 171.051 367.715C171.051 366.316 170.896 364.754 170.74 363.361C175.101 365.068 185.055 372.539 187.384 385.743C187.698 387.298 194.077 388.698 198.128 388.698C203.724 388.698 210.883 386.364 211.973 377.2C230.645 375.652 243.238 364.602 245.884 350.605C252.578 352.783 260.192 358.848 262.065 361.961C264.705 361.023 267.82 360.561 271.402 360.561C276.384 360.561 281.98 361.496 288.673 363.52C288.984 361.496 289.301 359.007 292.417 359.007C297.081 359.007 295.836 364.14 297.392 367.095C298.171 368.65 302.056 369.581 302.056 372.698C302.056 375.656 299.562 376.738 298.016 376.738C297.388 376.738 296.612 376.587 296.143 376.431C293.034 377.524 292.875 399.9 279.803 399.9C270.156 399.9 261.286 391.97 257.408 382.016C256.314 379.069 253.978 377.204 251.798 377.204C249.303 377.204 247.91 377.68 244.953 380.93C236.559 390.105 222.558 398.034 205.287 398.034C199.998 398.034 195.799 397.572 194.702 397.572C194.081 397.572 194.081 397.728 194.081 397.883C194.081 398.972 199.373 403.168 210.886 403.168C238.267 403.168 244.953 387.771 249.307 387.771C249.938 387.771 251.801 387.771 252.892 390.26C259.271 405.192 273.12 408.616 281.831 408.616H281.98V408.608ZM193.608 96.0903C203.868 96.0903 208.543 104.951 208.543 114.904C208.543 119.255 207.301 125.63 205.28 125.63C203.254 125.63 203.565 122.051 203.254 118.783C202.944 114.594 202.164 113.66 200.774 113.66C198.128 113.66 196.416 119.872 196.416 125.63C196.416 129.209 197.03 133.249 199.835 133.249C201.384 133.249 202.789 132.47 203.724 131.543C203.099 138.69 197.814 144.909 190.344 144.909C176.647 144.909 171.513 128.895 169.957 119.565C161.722 128.274 154.09 134.649 140.396 134.649C127.638 134.649 121.886 125.32 121.886 116.459C121.886 113.811 122.818 106.971 126.074 106.971C129.97 106.971 126.54 119.721 134.172 119.721C136.039 119.721 139.461 118.166 141.331 113.039C142.421 109.929 143.035 106.661 143.035 103.858C143.035 99.6584 142.107 97.0211 138.992 97.0211C136.342 97.0211 133.075 99.0414 131.988 100.124C135.725 88.9328 144.743 83.1786 154.704 83.1786C166.997 83.1786 173.535 94.0664 173.535 106.192C173.533 107.964 173.376 109.732 173.065 111.477C178.369 102.768 185.676 96.0903 193.608 96.0903ZM154.556 3.41656C154.556 2.48221 149.891 1.54786 143.505 1.54786C133.396 1.54786 134.8 9.94998 127.02 9.94998C118.929 9.94998 120.951 1.24111 110.684 1.24111C104.453 1.24111 98.7048 2.3306 98.7048 3.73036C98.7048 5.59554 106.012 4.81985 106.012 9.9535C106.012 15.3974 90.3002 16.9559 90.3002 20.2102C90.3002 21.2997 91.5457 21.7651 93.1017 21.7651C96.5243 21.7651 101.976 20.2102 105.853 20.2102C108.037 20.2102 110.059 20.6827 110.059 22.703C110.059 26.592 101.665 33.5873 101.665 36.7007C101.665 37.6386 102.445 37.9488 103.221 37.9488C106.326 37.9488 111.622 30.0121 116.601 30.0121C124.847 30.0121 119.406 47.585 123.908 47.585C128.576 47.585 126.554 30.3259 133.248 30.3259C138.695 30.3259 142.746 42.2962 146.476 42.2962C147.404 42.2962 148.183 41.5205 148.183 40.4275C148.183 37.1696 143.512 30.4811 143.512 26.1231C143.512 23.4787 145.382 22.2341 147.873 22.2341C151.454 22.2341 156.281 24.4131 158.924 24.4131C159.859 24.4131 160.79 24.1028 160.79 23.0133C160.79 19.2794 146.938 15.2423 146.938 10.4189C146.931 5.59201 154.556 5.59201 154.556 3.41656ZM376.279 309.56C373.005 309.56 354.95 333.666 343.289 333.666C340.491 333.666 338.155 328.378 338.155 324.337C338.155 322.158 339.552 320.596 344.545 319.517C371.297 313.449 365.377 293.397 388.244 293.397C400.854 293.397 414.866 301.958 414.866 321.231C414.866 341.744 385.619 367.257 381.258 367.257C377.68 367.257 373.788 362.12 373.788 358.7C373.788 357.61 374.258 356.214 377.373 354.966C392.298 349.05 400.858 335.38 400.858 328.381C400.858 326.83 400.085 325.271 398.06 325.271C395.407 325.271 384.063 351.073 371.459 351.073C362.734 351.073 353.867 343.144 353.867 339.424C353.867 333.201 379.077 321.689 379.077 312.977C379.07 309.712 377.521 309.56 376.279 309.56ZM393.074 299.924C390.89 299.924 388.555 301.641 388.555 305.823C388.555 310.491 392.146 313.445 394.165 314.376C395.544 315.156 397.094 315.583 398.677 315.621C403.19 315.621 406.768 314.376 406.768 310.642C406.768 305.823 399.768 299.924 393.074 299.924ZM191.117 19.2759C191.117 22.0754 200.926 28.1434 205.431 28.1434C208.078 28.1434 208.857 24.5647 208.857 20.8273C208.857 16.1731 206.829 16.0109 202.785 16.0109C197.662 16.0109 191.117 17.4142 191.117 19.2759ZM207.305 50.0637C207.305 40.7307 181.795 23.4717 181.795 16.4834C181.795 16.1731 181.795 16.0145 181.943 15.7042C183.813 10.5705 204.969 6.99178 204.969 2.79248C204.969 0.768637 201.24 0.768639 199.373 0.768639C184.896 0.768639 163.74 6.05743 163.74 11.1946C163.74 16.4834 182.723 29.3881 182.723 35.7663C182.723 37.4728 181.639 38.1004 179.928 38.1004C174.639 38.1004 163.115 31.7222 157.675 31.7222C155.184 31.7222 154.256 33.4287 154.256 35.9179C154.256 43.3751 163.115 57.5315 163.115 61.7237C163.115 62.1891 162.96 62.8132 162.346 62.8132C159.545 62.8132 146.317 47.2677 141.652 47.2677C139.941 47.2677 139.782 49.6018 139.782 53.0184V58.3071C139.782 61.8788 139.627 64.0543 137.916 64.0543C133.869 64.0543 131.999 52.7081 128.11 52.7081C124.06 52.7081 123.294 72.9254 119.402 72.9254C114.889 72.9254 118.774 50.6842 114.413 50.6842C109.593 50.6842 104.142 65.4576 100.73 65.4576C99.481 65.4576 99.1705 64.213 99.1705 63.12C99.1705 58.621 101.82 51.3083 101.82 46.9539C101.82 44.7749 101.196 43.5338 99.3258 43.5338C94.5025 43.5338 83.9279 51.3119 79.8773 51.3119C79.2563 51.3119 78.4801 51.0016 78.4801 50.374C78.4801 46.6401 95.441 34.8284 95.441 29.5397C95.441 24.406 72.0973 27.8261 72.0973 21.9168C72.0973 16.9488 88.7442 11.8116 88.7442 6.67798C88.7442 2.17193 68.9817 0.15514 61.3675 0.15514C52.1795 0.15514 47.201 1.23758 47.201 3.88197C47.201 7.92261 68.0502 9.17076 68.0502 12.746C68.0502 16.1731 46.4212 25.3404 46.4212 30.6292C46.4212 35.2903 76.9206 30.9324 76.9206 35.7628C76.9206 41.041 50.3095 63.8956 50.3095 71.5221C50.3095 73.2356 51.5585 74.0113 53.2627 74.0113C61.3639 74.0113 82.3649 58.621 88.1161 58.621C90.1379 58.621 90.2967 61.0996 90.2967 63.2751C90.2967 67.3228 88.8994 73.5389 88.8994 78.052C88.8994 81.6237 89.8274 84.1094 92.9465 84.1094C98.7013 84.1094 103.99 74.3181 107.879 74.3181C112.864 74.3181 109.9 103.075 117.377 103.075C123.746 103.075 126.392 71.984 130.443 71.984C134.493 71.984 137.76 80.9961 141.494 80.9961C146.155 80.9961 143.977 65.2919 148.96 65.2919C154.404 65.2919 169.961 83.9507 176.964 83.9507C179.145 83.9507 179.925 82.2372 179.925 80.0617C179.925 71.8288 168.412 53.17 168.412 47.2571C168.412 45.6987 168.874 45.2333 170.589 45.2333C176.654 45.2333 194.395 53.6354 202.792 53.6354C205.587 53.6424 207.305 52.0875 207.305 50.0637ZM419.696 229.022C422.184 221.244 425.285 215.793 430.412 207.405C425.285 204.764 411.757 199.165 411.757 189.995C411.757 179.269 425.147 170.881 427.924 170.881C429.173 170.881 429.487 171.97 429.487 173.991C429.487 179.583 426.834 188.598 426.834 193.415C426.834 197.762 429.639 201.965 432.119 201.965C434.773 201.965 442.084 192.635 442.084 183.468C442.084 166.988 427.61 162.013 423.119 162.013C418.909 162.013 411.281 168.853 393.374 168.853C359.925 168.853 352.307 135.732 352.307 121.272C352.307 120.651 352.452 120.496 352.611 120.496C353.398 120.496 356.661 124.537 367.24 124.537C372.691 124.537 377.673 123.141 385.612 123.141C404.273 123.141 412.53 136.052 424.047 152.532C431.033 156.88 447.683 163.878 447.683 183.623C447.683 201.03 429.166 210.674 424.668 229.329C431.812 228.557 436.018 215.797 443.336 215.797C447.073 215.797 448.78 218.758 448.78 223.42C448.78 230.27 444.892 240.524 437.416 246.902C437.574 246.278 437.574 245.499 437.574 244.571C437.574 240.213 435.86 233.994 430.877 233.994C423.119 233.994 420.624 242.389 416.259 249.388C411.754 233.528 405.674 219.22 394.786 210.519C383.745 201.651 364.752 206.474 364.752 190.308C364.752 185.95 367.55 179.734 367.55 174.766C367.55 173.06 367.24 171.501 366.308 170.257C381.247 175.845 375.955 185.795 385.143 196.052C390.883 202.585 406.761 208.805 415.952 235.7C416.097 234.928 416.256 232.908 416.256 231.512C416.256 208.502 385.767 185.954 383.121 176.631C400.844 178.652 403.959 183.006 412.368 206.319C414.086 211.143 419.696 223.109 419.696 229.022ZM85.4698 102.306C86.3846 99.3868 86.8556 96.3465 86.8671 93.2872C86.8671 85.8194 83.4516 74.4768 72.8629 74.4768C66.7941 74.4768 62.4436 79.2895 62.4436 85.0437C62.4471 97.3349 74.7365 102.306 85.4698 102.306ZM72.2419 141.489C67.1081 141.489 61.5121 135.118 61.5121 129.367C61.5121 126.254 63.8514 122.361 65.5451 122.361C66.1731 122.361 66.4836 122.827 66.6424 123.916C67.5739 131.543 72.556 135.894 77.2275 138.062C77.6933 138.376 78.0073 138.535 78.0073 138.841C78.0073 139.931 75.0435 141.489 72.2419 141.489ZM90.6072 126.875C90.6072 129.05 89.3581 131.853 86.8671 131.853C81.4298 131.853 77.0687 123.606 77.0687 118.941C77.0687 115.994 78.78 115.68 81.1158 115.68C82.2026 115.68 82.6648 115.835 83.4516 116.301C84.8453 117.08 84.8453 120.186 86.553 122.517C87.4916 124.072 90.6072 125.785 90.6072 126.875ZM85.1558 110.546C84.2314 110.391 82.9823 110.391 81.7368 110.391C76.603 110.391 69.7509 111.326 63.6926 115.37C49.9919 124.234 52.1689 138.217 49.9919 141.8C49.6742 142.315 49.5124 142.911 49.5262 143.517C49.5262 144.913 51.0822 146.464 52.4794 146.464C53.732 146.464 54.5083 146.161 55.1293 146.161C58.8658 146.161 63.0646 148.805 69.1334 148.805C72.7112 148.805 76.9135 147.712 82.2061 145.068C93.4087 139.472 97.7698 125.633 97.7698 123.299C97.7698 120.345 95.434 120.81 93.4122 118.011C91.2317 114.753 92.3184 113.512 90.9212 111.639C89.9791 110.86 87.9609 110.86 85.1558 110.546ZM101.658 135.583C98.2355 139.617 94.6507 146.461 94.6507 153.467C94.6507 161.855 99.7845 168.853 107.72 168.853C115.348 168.853 118.926 162.32 118.926 155.642C118.926 145.22 109.428 137.911 101.658 135.583ZM68.3536 105.726C68.3536 105.726 63.8514 109.147 58.2413 109.147C51.5515 109.147 46.2589 104.168 46.2589 97.1762C46.2589 92.3564 48.7429 87.3814 54.5083 84.8921C54.353 85.8265 54.353 86.6022 54.353 87.5365C54.353 96.4005 59.3351 103.079 68.3536 105.726ZM345.159 196.207C345.159 193.104 347.95 190.456 351.065 190.456C354.484 190.456 357.138 193.104 357.138 196.207C357.138 199.782 354.484 202.272 351.065 202.272C347.95 202.272 345.159 199.782 345.159 196.207ZM349.199 375.028C349.979 375.028 350.907 375.494 350.907 378.293C350.907 381.703 349.351 386.209 343.769 389.791C339.87 392.435 334.581 394.607 326.794 394.766C328.036 391.032 328.971 387.15 328.971 383.413C328.971 382.168 328.812 381.23 328.66 379.852H330.678C342.982 379.852 348.26 375.028 349.199 375.028ZM350.437 359.627C351.686 358.538 351.986 356.831 351.986 355.118V351.539C351.986 347.029 345.155 344.381 335.819 344.381C324.461 344.381 318.386 349.515 318.386 351.694V358.848C318.386 361.806 325.234 364.757 333.642 364.757C340.336 364.757 346.408 363.051 350.437 359.627ZM358.535 361.341C354.484 364.447 345 371.449 329.281 371.449C320.88 371.449 317.151 368.805 315.905 368.805C314.356 368.805 312.638 370.356 310.923 372.38C307.186 376.735 302.363 384.809 302.363 393.669C302.363 399.9 307.186 406.119 316.216 406.119C345.318 406.119 367.095 387.919 367.095 373.159C367.095 364.757 362.113 361.341 358.535 361.341ZM363.972 230.577C363.972 234.459 365.225 238.965 369.12 238.965C372.387 238.965 375.193 233.99 375.193 228.553C375.193 222.33 374.095 217.51 374.095 215.018C374.095 213.939 374.564 213.47 375.193 213.47C377.521 213.625 379.698 220.003 382.193 220.003C384.998 220.003 389.186 214.869 390.89 214.869C391.36 214.869 391.518 215.49 391.518 215.645C391.518 217.979 387.934 223.109 387.934 225.133C387.934 226.843 396.97 227.154 396.97 228.712C396.97 231.046 387.475 231.046 382.973 233.063C378.619 234.925 375.965 237.255 375.965 240.365C375.965 243.475 379.074 244.099 383.435 244.099C393.854 244.099 401.172 238.5 403.504 238.5C403.974 238.5 404.284 238.807 404.284 239.275C404.284 240.834 398.991 245.968 398.991 248.302C398.991 250.946 408.645 254.045 408.486 255.604C408.335 256.066 407.714 256.221 406.62 256.221C404.912 256.221 402.266 255.759 400.237 255.759C398.988 255.759 397.901 255.907 397.439 256.531C396.342 257.779 397.749 266.019 395.565 266.019C393.547 266.019 388.248 247.671 376.283 247.671C374.568 247.671 373.319 249.07 373.319 251.404C373.319 257.62 379.398 264.771 385.153 268.195C387.785 269.912 392.146 271.618 392.146 272.553C392.146 274.407 382.196 272.704 382.196 275.807C382.196 278.61 383.438 282.809 383.438 285.299C383.438 286.074 383.294 287.005 382.348 287.005C380.489 287.005 375.965 278.455 373.788 278.455C371.929 278.455 367.875 283.585 366.167 283.585C365.698 283.585 365.38 283.12 365.38 282.651C365.38 279.072 371.142 270.994 371.142 263.061C371.142 259.327 370.68 251.246 366.167 251.246C362.423 251.246 358.228 257.145 356.354 263.061C355.264 266.484 356.051 279.696 353.556 279.696C351.228 279.696 351.842 270.835 348.733 270.835C346.411 270.835 341.436 275.028 339.718 275.028C339.408 275.028 339.097 274.873 339.097 274.562C339.097 272.701 343.603 266.636 343.603 265.395C343.603 263.061 333.328 262.751 333.328 260.882C333.328 259.789 337.372 259.017 341.115 258.393C349.047 256.993 360.716 251.246 360.716 243.157C360.716 234.135 351.99 230.256 346.256 226.522C343.292 224.654 340.025 223.095 340.025 221.854C340.025 220.606 343.769 220.606 345.318 220.606C347.632 220.606 349.975 220.454 349.975 218.586C349.975 217.186 349.651 214.397 349.651 212.222C349.651 210.663 349.809 209.422 350.437 209.422C352.773 209.422 356.048 217.034 357.604 217.034C360.084 217.034 363.517 210.822 365.853 210.822C366.626 210.822 366.936 211.287 366.936 212.683C366.936 218.441 363.972 224.975 363.972 230.577ZM289.76 185.027C291.475 198.234 309.215 191.546 309.215 207.56C309.215 209.894 308.587 213.318 308.587 216.266C308.587 219.689 308.898 222.644 311.544 222.644C314.19 222.644 314.818 220.779 314.818 218.286C314.818 215.793 314.19 212.694 314.19 210.984C314.19 205.54 318.086 204.295 320.414 204.295C326.328 204.295 330.841 210.363 339.718 210.363C337.693 220.31 317.154 217.665 317.154 228.557C317.154 233.994 322.591 235.242 326.176 235.242C329.443 235.242 330.53 234.769 330.53 231.98C330.53 230.422 330.22 228.715 330.22 227.622C330.22 227.002 330.682 226.385 331.469 226.385C334.895 226.385 351.686 239.127 351.686 243.02C351.686 246.595 333.956 250.17 328.815 250.17C327.27 250.17 326.956 249.084 326.956 248.464C326.956 247.371 329.602 244.106 329.602 242.237C329.602 240.841 327.274 239.907 321.042 239.907C318.086 239.907 315.909 240.217 315.909 242.551C315.909 246.747 322.747 251.88 322.747 255.766C322.747 258.872 320.887 260.737 315.909 260.737C311.706 260.737 305.323 257.472 305.323 252.039C305.323 247.681 309.843 243.327 309.843 240.686C309.843 239.907 309.215 238.662 307.349 238.662C301.587 238.662 300.038 253.897 279.644 255.611C282.918 252.66 285.723 249.391 285.723 242.706C285.723 239.438 284.944 236.79 284.944 233.222C284.944 228.557 287.113 226.223 290.229 226.223C295.991 226.223 298.789 234.304 302.522 234.304C304.547 234.304 306.717 232.446 306.717 229.65C306.717 217.824 284.001 219.534 284.001 202.903C284.005 198.386 285.554 192.794 289.76 185.027ZM319.324 286.081C319.324 288.26 320.88 289.974 323.054 289.974C325.548 289.974 327.111 287.795 327.111 285.309C327.111 282.041 324.147 277.531 321.342 277.531C320.1 277.531 320.57 279.393 320.252 281.413C320.104 282.971 319.324 284.84 319.324 286.081ZM311.234 265.406C327.573 268.512 336.447 280.796 336.447 292.304C336.447 300.238 331.465 307.529 322.74 307.529C314.815 307.529 309.053 302.089 309.053 293.39C309.053 286.86 314.187 280.017 314.187 273.325C314.19 270.691 313.418 268.046 311.234 265.406ZM290.54 291.843C292.096 293.39 292.565 294.949 292.565 296.504C292.565 298.831 291.475 301.324 291.475 303.954C291.475 307.688 294.273 310.946 298.323 310.946C302.677 310.946 305.627 307.526 305.627 303.485C305.63 297.593 299.558 291.843 290.54 291.843ZM342.043 281.885C343.134 283.592 343.599 285.309 343.599 286.864C343.599 291.215 340.643 295.263 340.643 299.769C340.643 304.888 344.541 309.091 350.434 309.091C356.824 309.091 361.178 303.957 361.178 297.907C361.181 289.667 353.712 282.661 342.043 281.885ZM294.273 273.642C301.425 274.576 303.143 277.062 303.143 279.082C303.143 282.51 300.034 283.596 297.078 283.596C294.901 283.596 292.413 283.13 289.76 283.13C286.334 283.13 282.918 283.909 280.113 287.174C282.131 287.485 285.095 288.881 285.095 291.994C285.095 301.017 260.037 293.546 260.037 316.714C260.037 329.002 272.806 342.361 292.096 342.361C302.053 342.361 308.428 339.11 308.428 335.376C308.428 332.422 303.143 334.442 303.143 331.956C303.143 330.86 305.009 328.843 305.009 327.133C305.009 326.357 304.388 324.957 303.143 324.957C300.338 324.957 295.059 329.463 284.315 329.463C275.914 329.463 267.665 324.644 267.665 318.11C267.665 316.714 268.293 315.931 269.221 315.931C270.149 315.931 271.398 316.559 272.488 316.559C273.427 316.559 273.579 315.931 273.579 314.221C273.579 312.515 273.579 307.688 276.542 307.688C279.485 307.688 285.095 318.576 306.569 318.576C313.728 318.576 327.573 317.179 332.707 312.511C332.556 329.626 319.165 352.156 291.168 352.156C262.065 352.156 246.512 328.843 246.512 307.374C246.512 283.592 265.954 261.978 292.568 261.978C299.41 261.978 305.172 264.316 305.172 267.264C305.168 271.315 295.059 268.826 294.273 273.642ZM181.636 114.435C181.636 111.791 181.011 111.17 180.387 111.17C178.834 111.17 177.113 113.036 174.632 117.228C174.943 122.823 175.878 125.316 177.427 125.316C179.141 125.32 181.636 119.872 181.636 114.435ZM160.31 120.807C162.025 120.807 164.199 118.941 168.249 114.435C168.56 112.415 168.56 110.543 168.56 108.212C168.56 105.102 167.311 101.675 165.441 101.675C160.783 101.675 158.447 114.122 158.447 117.383C158.447 119.255 159.386 120.807 160.31 120.807ZM185.676 134.646C189.568 134.646 193.922 119.717 193.922 110.391C193.922 108.371 193.611 106.195 192.68 106.195C189.412 106.195 183.954 121.582 183.954 129.988C183.958 133.249 184.737 134.646 185.676 134.646ZM147.552 126.095C152.844 126.095 158.917 97.49 158.917 92.6667C158.917 91.422 158.447 90.4877 157.364 90.4877C152.537 90.4877 145.84 117.697 145.84 123.758C145.837 124.847 146.151 126.095 147.552 126.095ZM164.513 137.911C157.823 137.911 157.516 146.002 157.516 162.324C152.534 151.598 144.284 140.089 134.641 140.089C128.103 140.089 125.612 144.444 125.612 152.063C125.612 153.625 125.768 155.956 126.074 157.352C126.858 154.718 129.345 153.629 132.464 153.629C139.154 153.629 147.241 158.752 152.534 165.751C146.465 164.661 140.551 163.572 135.573 163.572C132.464 163.572 129.659 163.882 127.327 164.971C122.818 166.992 116.742 173.68 116.742 183.785C116.742 185.34 116.901 187.04 117.218 188.909C122.663 176.78 137.132 171.346 146.469 171.346C148.328 171.346 149.732 171.501 150.823 171.66C145.996 176 144.909 183.627 144.598 188.753C144.443 191.243 143.505 191.401 141.804 191.401C141.804 196.521 145.84 204.144 145.84 208.033C145.84 209.433 145.064 210.677 144.288 210.987C144.288 217.824 151.13 222.799 151.13 227.154C151.13 228.243 150.823 229.174 150.353 229.646C150.823 232.442 158.292 237.259 159.227 239.279C160.783 242.547 161.873 242.854 162.646 242.854C165.289 242.854 169.491 239.748 169.491 236.941C169.491 236.014 168.715 234.925 168.094 234.456C165.134 232.284 163.581 227.615 162.339 224.506C161.677 224.513 161.031 224.304 160.498 223.912C159.966 223.519 159.575 222.964 159.386 222.33C158.758 220.306 158.444 213.001 157.205 209.429C155.177 208.96 154.249 208.184 154.249 203.982C154.249 201.961 155.491 194.032 155.491 191.236C154.552 191.236 153.31 190.612 153.31 188.746C153.31 183.778 158.292 179.886 159.693 173.518C168.56 180.045 170.737 186.726 170.737 192.635C170.737 195.738 170.267 198.693 169.646 201.496C176.188 198.231 185.983 193.415 185.983 183.623C185.983 177.873 183.337 171.501 165.751 169.009C171.199 166.988 178.051 165.899 183.806 165.899C193.763 165.899 199.521 169.009 200.77 176C202.785 172.901 204.341 169.322 204.341 166.057C204.341 158.435 197.972 153.47 189.871 153.47C180.383 153.47 171.975 158.438 162.946 164.503C166.997 156.111 169.798 151.136 174.78 151.136C175.557 151.136 176.333 151.284 177.109 151.443C175.25 144.599 168.249 137.911 164.513 137.911ZM65.2416 41.041C65.2416 44.1473 53.4145 54.5733 49.2157 54.5733C47.6597 54.5733 47.1939 52.7046 47.1939 50.998C47.1939 47.8847 48.5912 43.5303 50.3024 42.127C52.3242 40.2618 56.9958 39.338 60.5736 39.338C62.7576 39.3416 65.2416 39.7964 65.2416 41.041ZM426.686 250.008C434.466 250.008 440.69 260.117 440.69 271.939C440.69 284.523 434.776 298.217 424.212 307.533C424.054 286.55 398.37 293.239 398.37 277.996C398.37 271.47 403.035 267.112 408.645 267.112C413.62 267.112 417.523 268.515 420.321 271.315C417.523 268.674 416.111 264.94 416.111 261.361C416.104 255.452 419.848 250.008 426.686 250.008ZM311.234 90.9566C309.992 88.9328 305.32 87.8468 303.143 87.8468C296.301 87.8468 291.633 92.6702 290.698 97.0211C290.007 95.3428 289.635 93.5504 289.601 91.7358C289.601 84.8886 294.273 76.4971 305.63 76.4971C315.595 76.4971 319.483 81.7823 320.88 81.7823C322.429 81.7823 323.996 80.2274 325.234 80.2274C326.949 80.2274 326.949 82.8718 326.949 84.737C326.949 90.9601 324.144 101.682 317.151 105.575C315.902 102.927 313.414 99.9793 309.371 98.1071C308.904 97.9266 308.504 97.6067 308.225 97.191C307.947 96.7752 307.803 96.2837 307.815 95.7835C307.815 94.07 309.371 91.8875 311.234 90.9566ZM287.742 102.306C291.792 106.192 295.363 107.902 299.72 107.902C301.428 107.902 303.457 107.433 304.551 107.433C305.948 107.433 306.879 108.057 306.879 109.143C306.879 110.857 305.323 113.656 303.453 115.211C305.32 115.99 307.349 116.297 309.526 116.297C318.389 116.297 328.505 110.698 328.505 96.7108C330.371 99.1895 331.469 104.323 331.469 106.654C331.469 123.599 319.01 130.132 307.508 130.132C300.038 130.132 296.301 127.647 295.366 127.647C292.417 127.647 292.568 133.553 290.543 133.397C286.965 132.78 283.702 124.844 283.702 116.452C283.694 111.477 284.944 106.192 287.742 102.306ZM179.611 57.0625C179.611 62.4994 199.059 89.0914 202.789 89.0914C205.897 89.0914 208.233 83.6475 208.233 78.9793C208.233 77.7417 207.922 76.4971 207.301 75.5662C204.496 71.6772 184.734 56.1282 180.387 56.1282C179.921 56.1317 179.611 56.5971 179.611 57.0625ZM404.122 44.306C404.122 33.2735 377.68 30.474 377.68 27.9812C377.68 25.9609 392.457 22.5373 400.085 22.3786C388.403 7.46072 371.77 9.01563 371.77 6.37123C371.77 4.8128 384.222 1.69594 395.724 1.69594C405.371 1.69594 414.407 3.87845 414.407 11.1876C414.407 15.2317 411.133 19.4345 411.133 25.6471C411.133 29.0672 412.84 32.0254 417.364 32.0254C422.187 32.0254 423.277 26.8917 423.277 21.4478C423.277 16.9488 422.498 13.5217 422.498 11.3462C422.498 4.8128 426.996 0.46189 433.379 0.46189C438.672 0.46189 439.914 2.78896 447.694 2.78896C443.499 5.27821 441.939 9.79132 441.939 11.9668C441.939 18.5002 446.148 23.0062 446.148 36.3834C446.148 60.9445 423.126 69.6534 394.944 69.6534C387.164 69.6534 378.929 69.0293 370.839 67.7847C369.586 67.6295 369.275 67.3228 369.275 66.5436C369.275 64.5197 380.33 63.4338 380.33 53.4803C380.33 49.5948 379.077 45.8573 379.077 44.4611C379.075 44.2964 379.107 44.1329 379.169 43.9804C379.231 43.8279 379.323 43.6894 379.44 43.573C379.557 43.4567 379.696 43.3649 379.849 43.3031C380.001 43.2412 380.165 43.2106 380.33 43.2129C382.666 43.2129 387.316 52.2391 396.028 52.2391C398.367 52.2427 404.122 51.4635 404.122 44.306ZM430.412 28.6053C430.412 42.4443 420.317 53.0184 402.103 55.9766C404.122 56.1317 405.999 56.1317 407.865 56.1317C429.173 56.1317 436.953 46.4885 436.953 38.4072C436.953 33.8941 434.466 29.8535 430.412 28.6053ZM415.645 153.622C415.645 150.353 407.396 150.043 406.616 140.865C406.458 139.469 405.995 136.98 404.281 136.98C401.483 136.98 403.652 145.53 400.544 145.53C393.378 145.53 391.049 131.543 388.403 131.543C387.782 131.543 387.006 132.008 387.006 133.873C387.006 135.583 387.316 136.673 387.316 138.69C387.316 140.706 386.847 142.11 385.001 142.11C380.799 142.11 377.063 132.315 373.478 132.315C372.698 132.315 371.929 132.787 371.929 133.56C371.929 135.432 375.037 138.841 375.037 140.551C375.037 144.289 364.914 142.258 364.914 145.375C364.914 146.778 366.319 147.243 368.189 147.243C371.463 147.243 376.597 145.84 379.236 145.84C380.799 145.84 383.135 146.157 383.135 148.174C383.135 150.353 377.525 153.156 377.525 155.173C377.525 156.111 378.463 156.569 379.233 156.569C383.435 156.569 390.894 149.267 396.186 149.267C397.125 149.267 399.468 149.736 399.468 151.136C399.468 153.156 394.168 156.725 394.168 159.679C394.168 160.458 394.637 161.393 395.565 161.393C398.37 161.393 402.107 154.084 407.4 154.084C409.418 154.084 412.382 154.866 413.934 154.866C415.183 154.866 415.645 154.084 415.645 153.622ZM304.23 34.9836C304.23 33.2735 298.164 30.0051 298.164 28.1434C298.164 27.8296 298.482 27.6745 298.937 27.6745C300.645 27.6745 303.602 28.295 305.944 28.295C307.963 28.295 308.273 19.5967 309.84 19.5967C310.923 19.5967 312.797 27.8296 314.504 27.8296C316.523 27.8296 320.252 25.4955 321.815 25.4955C322.126 25.4955 322.429 25.6506 322.429 25.9644C322.429 27.0575 318.541 31.2497 318.541 32.4979C318.541 33.8976 327.266 35.6077 327.266 36.8558C327.266 38.4072 318.382 38.2556 318.382 39.6448C318.382 40.7343 321.656 45.0852 321.656 46.492C321.656 46.8023 321.498 46.9574 321.187 46.9574C319.945 46.9574 315.129 44.7784 313.725 44.7784C312.017 44.7784 309.212 51.1567 307.811 51.1567C307.342 51.1567 307.031 50.5291 307.031 49.7534L306.714 43.5338C306.714 42.9097 306.41 42.2892 305.623 42.2892C303.757 42.2892 300.179 42.1305 299.089 42.1305C298.316 42.1305 298.006 41.9754 298.006 41.6616C298.016 40.4205 304.23 36.0696 304.23 34.9836ZM334.581 64.5232C323.678 64.5232 316.526 59.0793 316.526 56.2868C316.526 54.8871 317.465 53.9527 318.696 53.9527C322.129 53.9527 329.599 59.2309 332.086 59.2309C332.707 59.2309 333.177 58.9242 333.177 57.9934C333.177 55.1973 330.53 50.5291 330.53 48.1985C330.53 47.578 331 47.109 331.935 47.109C336.13 47.109 342.361 48.8226 345.628 48.8226C346.726 48.8226 347.025 48.195 347.025 47.5744C347.025 44.1473 336.917 37.4693 336.917 35.449C336.917 33.5838 349.506 30.7843 349.506 27.8261C349.506 24.7163 332.393 26.8917 332.393 23.9335C332.393 21.7581 335.661 18.0313 335.661 16.3247C335.661 15.542 335.04 15.2352 333.953 15.2352C332.556 15.2352 325.075 18.1899 321.97 18.1899C320.414 18.1899 318.544 17.8796 318.544 15.7007C318.544 12.1254 324.617 8.23289 334.112 8.23289C349.506 8.23289 358.694 18.8105 358.694 36.5385C358.694 58.9242 342.982 64.5232 334.581 64.5232ZM229.244 333.518C229.244 334.911 228.772 336.469 227.526 338.021C225.822 334.907 220.988 333.352 218.825 333.352C202.789 333.352 208.861 356.517 191.741 356.517C184.582 356.517 183.954 355.583 181.322 355.583C180.228 355.583 179.607 356.052 179.607 356.979C179.607 361.02 185.362 370.984 201.384 370.984C217.424 370.984 232.815 361.182 232.815 349.043C232.783 346.845 232.306 344.676 231.411 342.668C232.039 341.733 233.591 341.113 234.989 341.113C237.483 341.113 238.884 343.916 241.216 343.916C243.707 343.916 245.57 342.051 245.57 339.579C245.57 337.555 244.48 336.156 242.61 335.214C243.859 334.287 244.791 332.732 244.791 331.025C244.791 328.377 242.92 325.892 239.819 325.892C238.415 325.892 237.483 326.361 236.396 327.443C236.082 324.644 234.53 321.999 231.57 321.999C229.244 321.999 227.526 323.713 227.526 326.357C227.526 328.843 229.244 330.863 229.244 333.518ZM187.384 339.421C182.719 339.421 175.722 334.442 175.722 331.642C175.722 329.308 177.903 328.064 179.611 328.064C183.502 328.064 190.499 332.887 190.499 336.931C190.499 338.021 189.719 339.421 187.384 339.421ZM143.974 304.578C156.429 307.691 162.646 314.376 163.892 322.309C165.137 329.932 166.69 336.159 169.65 339.265C173.542 343.602 181.17 347.491 187.853 347.491C193.456 347.491 197.976 345.633 197.976 340.513C197.976 334.911 190.348 322.313 179.141 322.313C178.055 322.313 176.65 322.472 175.098 322.472C173.697 322.472 171.668 322.158 170.423 321.072C167.928 318.9 167.155 307.229 162.484 300.245C157.357 292.467 151.754 290.291 144.129 290.291C138.681 290.291 132.616 293.246 132.616 297.6C132.62 300.238 134.02 302.092 143.974 304.578ZM222.082 285.619C222.082 278.624 207.615 278.465 207.615 267.895C207.615 265.25 209.32 260.737 212.756 255.914C214.15 264.002 217.428 268.202 224.418 270.846C238.263 275.973 240.133 283.744 240.133 291.994C240.133 305.978 230.331 323.402 205.128 323.402C184.896 323.402 170.426 305.357 170.426 290.125C170.426 285.926 171.517 281.258 174.166 281.258C176.495 281.258 177.275 283.123 179.145 284.992C186.142 291.991 193.77 293.856 204.814 293.856C214.775 293.859 222.082 289.819 222.082 285.619ZM222.703 296.818C217.266 298.989 215.244 298.831 215.244 304.264C215.244 306.288 214.778 308.932 214.778 310.332C214.778 312.201 215.089 313.29 217.269 313.29C222.862 313.29 231.728 303.806 231.728 295.724C231.728 293.549 230.49 292.618 229.093 292.618C227.84 292.618 226.439 295.104 222.703 296.818ZM173.073 218.286C173.073 208.34 196.727 203.051 196.727 190.77C196.727 188.75 195.947 185.182 194.546 182.534C202.789 187.036 208.861 194.663 208.861 200.875C208.861 211.608 197.662 216.576 197.662 223.265C197.662 231.046 209.641 232.287 209.641 241.927C209.641 249.857 198.283 259.027 198.283 269.295C198.283 277.217 203.872 283.747 212.439 284.84C209.641 285.464 207.146 285.93 204.5 285.93C188.788 285.93 172.603 273.021 172.603 257.631C172.603 250.012 175.878 243.327 180.856 238.507C185.207 242.237 189.568 244.73 192.362 244.73C194.857 244.73 195.947 243.482 195.947 241.62C195.947 235.855 173.073 230.577 173.073 218.286ZM205.16 550.926C209.56 550.926 217.114 549.498 223.063 539.971C219.665 532.437 217.237 517.17 216.892 511.62C215.141 483.226 226.094 456.514 238.08 455.781C246.869 455.256 253.897 463.566 254.705 477.003C256.875 512.406 245.062 527.183 239.173 539.908C240.168 544.865 248.545 553.274 256.473 553.274C259.402 553.274 262.93 551.815 263.812 550.627C262.997 547.872 262.597 545.012 262.626 542.14C262.626 521.64 275.837 504.328 287.262 504.328C296.365 504.328 301.615 516.341 301.615 524.281C301.615 533.639 293.704 541.269 281.983 548.596C284.051 550.627 287.84 552.107 291.086 552.107C307.797 552.107 316.579 531.901 323.043 513.415C324.214 509.899 326.282 504.921 330.368 504.921C337.411 504.921 340.353 551.215 352.06 551.215C357.057 551.215 361.15 540.959 361.15 533.071C361.15 527.204 359.103 526.619 359.103 518.108C359.103 508.743 364.085 500.827 370.846 500.827C374.938 500.827 376.413 504.924 376.413 509.903C376.413 528.664 362.928 563.538 342.996 563.538C328.022 563.538 329.186 537.729 323.929 537.729C318.05 537.729 309.836 563.838 280.815 563.838C276.108 563.838 271.133 561.493 267.04 556.779C259.998 561.493 254.12 563.538 247.373 563.538C236.534 563.538 231.838 552.393 227.452 552.393C222.163 552.393 216.32 563.838 198.71 563.838C184.624 563.838 182.282 545.087 177.31 545.087C172.907 545.087 166.164 563.838 158.839 563.838C146.497 563.838 143.882 531.312 133.025 531.312C124.515 531.312 97.6534 564.339 90.3531 563.584C87.421 563.274 86.1932 561.088 86.5001 558.151C86.9129 554.1 90.399 543.25 91.828 538.103C94.1991 529.21 96.3761 519.423 97.5898 516.309C98.793 513.171 102.064 510.932 104.664 511.172C105.98 511.299 106.376 513.753 106.785 515.77C108.256 523.04 110.338 530.42 112.674 530.42C116.788 530.42 130.397 504.328 138.304 504.328C147.989 504.328 149.157 545.366 162.35 545.366C166.753 545.366 169.996 540.088 172.914 533.642C173.214 522.786 176.139 507.276 184.935 507.276C191.106 507.276 194.035 521.031 189.624 533.068C189.621 547.404 198.999 550.926 205.16 550.926ZM423.912 523.389C423.912 516.066 417.18 505.799 407.209 505.799C394.013 505.799 381.124 520.16 381.124 540.084C381.124 557.943 392.238 563.831 403.384 563.831C422.741 563.831 434.484 547.975 440.633 534.806C443.576 543.596 445.305 563.831 452.658 563.831C455.587 563.831 457.64 562.361 461.176 554.445C469.947 534.806 478.451 512.244 490.197 512.244C494.579 512.244 491.954 520.16 502.504 520.16C507.493 520.16 511 516.066 511 511.352C511 504.614 504.846 499.346 495.461 499.346C467.915 499.346 462.051 540.673 457.64 540.673C450.308 540.673 452.658 507.562 447.373 507.562C442.68 507.562 440.33 513.136 439.744 515.759C435.927 530.998 425.094 552.985 408.656 552.985C404.852 552.985 398.106 551.515 398.106 547.704C398.106 543.596 423.912 543.028 423.912 523.389ZM245.207 484.919C244.702 476.739 242.712 473.044 238.323 473.336C232.476 473.696 229.784 492.048 230.97 511.338C231.728 523.936 233.602 525.864 235.356 525.748C238.588 525.558 246.329 503.063 245.207 484.919ZM197.528 467.723C197.249 463.02 193.438 459.804 188.453 459.804C182.878 459.804 177.585 465.66 178.196 472.984C178.196 477.373 181.41 481.777 186.999 481.777C193.442 481.777 198.131 474.468 197.528 467.723ZM288.74 527.486C288.74 522.522 286.094 518.4 282.876 518.4C280.223 518.4 274.083 521.33 274.083 530.705C274.083 538.032 276.708 541.537 277.901 543.028C286.383 540.377 288.74 533.339 288.74 527.486ZM403.384 517.536C409.545 517.536 411.316 524.842 409.848 529.246C408.373 533.635 403.109 538.614 394.888 540.081C393.131 535.677 392.242 517.536 403.384 517.536ZM0.061764 522.222C-0.231092 510.185 0.35815 498.183 5.35081 481.192C7.98299 472.123 10.3399 468.879 18.5364 467.138C24.9863 465.96 24.4111 472.687 22.9469 480.607C19.7254 498.179 18.2365 506.677 19.4255 526.612C20.5758 547.7 30.2718 555.912 40.8181 555.912C56.6535 556.212 63.6962 543.032 66.6247 523.975C68.9605 508.736 67.1999 501.395 65.7321 496.723C64.8605 494.086 62.5142 488.219 61.6321 483.836C60.4677 472.691 65.7321 467.441 70.1425 465.964C75.4245 464.49 77.4851 467.141 79.521 473.301C82.1708 482.669 82.4636 494.957 81.578 512.53C80.4101 536.551 68.3819 565.59 38.4753 564.991C12.6687 564.42 1.25083 547.704 0.061764 522.222Z" fill="#2267AE"/>
</svg>
