<svg width="1049" height="148" viewBox="0 0 1049 148" fill="none" xmlns="http://www.w3.org/2000/svg">
<path d="M976.91 0L1049 96.8997H1001.06L1036.94 145.138H976.021L940.456 97.3591H963.822L928.151 49.404H964.925L928.151 0H976.91ZM416.892 45.1987C401.734 45.1987 390.649 49.5515 382.714 64.5645C382.714 62.3322 382.856 50.7239 382.856 47.6371H337.475V145.314H385.025V84.6724C385.025 79.8169 388.959 75.9083 393.846 75.9083C398.732 75.9083 402.666 79.8169 402.666 84.6724V145.314H449.469V84.8844L449.54 84.6724C449.54 79.8169 453.474 75.9083 458.36 75.9083C463.247 75.9083 467.18 79.8169 467.18 84.6724V145.314H513.984V74.8128C513.984 55.6893 500.109 45.1987 481.406 45.1987C466.498 45.1987 455.562 49.4334 447.655 63.8577C443.351 51.7189 431.641 45.1987 416.892 45.1987ZM274.703 4.7001V37.2474H322.573V4.7001H274.703ZM274.703 48.3438V145.314H322.573V48.3438H274.703ZM145.069 47.6371V145.314H192.619V84.6724C192.619 79.8169 196.553 75.9083 201.439 75.9083C206.326 75.9083 210.26 79.8169 210.26 84.6724V145.314H257.063V74.8094C257.063 55.686 243.199 45.1899 224.496 45.1899C209.338 45.1899 198.254 49.5684 190.319 64.5814C190.319 62.3491 190.457 50.7239 190.457 47.6371H145.069ZM582.375 45.7641C581.409 45.7532 580.424 45.7835 579.423 45.7994C515.362 46.8206 523.231 95.4763 523.231 102.625C523.231 109.773 529.417 145.961 585.931 147.223C616.42 147.903 627.72 141.427 627.72 141.427V116.937C625.665 120.001 568.815 132.575 569.5 108.067H634.94C634.94 99.6899 643.221 46.4516 582.375 45.7641ZM581.593 68.7345C589.049 68.7345 595.107 76.8933 595.107 86.9694C595.107 87.1 595.109 87.2283 595.107 87.3582H568.113C568.111 87.2283 568.113 87.1 568.113 86.9694C568.113 76.8933 574.136 68.7345 581.593 68.7345ZM715.565 5.23018V60.0764C710.996 54.0187 702.009 45.3428 687.754 45.2693C668.571 45.1705 644.293 52.8691 644.293 97.7832C644.293 142.697 670.679 148.005 687.363 147.823C707.032 147.609 714.072 138.824 718.909 128.776V145.42H762.902V5.23018H715.565ZM705.109 74.4594C711.392 74.4594 716.419 79.6575 716.419 86.1213V104.639C716.419 111.103 711.392 116.336 705.109 116.336C698.827 116.336 693.764 111.103 693.764 104.639V86.1213C693.764 79.6575 698.827 74.4594 705.109 74.4594ZM0 14.1003V68.8052V78.5941V93.2598C0 123.582 24.5741 148 55.09 148H77.4603C107.976 148 132.55 123.582 132.55 93.2598V78.5941V68.8052V14.1003H82.4394V97.8892C82.4394 106.51 75.467 113.474 66.7908 113.474C58.1147 113.474 51.1067 106.51 51.1067 97.8892V14.1003H0ZM880.004 0L807.914 96.8997H855.856L819.971 145.138H880.893L916.458 97.3591H893.092L928.764 49.404H891.989L928.764 0H880.004Z" fill="#018553"/>
</svg>
