<svg width="480" height="479" viewBox="0 0 480 479" fill="none" xmlns="http://www.w3.org/2000/svg">
<path d="M216.621 257.705H274.671V238.358H268.347C268.347 245.833 262.986 251.193 254.548 251.193H245.735V222.266H255.315V215.755H216.611V222.266H226.378V251.193H216.611V257.705H216.621Z" fill="black"/>
<path d="M302.655 257.706H325.267L344.614 222.258H354.194V215.737H325.267V222.258H333.696L319.513 248.126L305.527 222.258H315.687V215.737H273.531V222.258H283.111L302.655 257.706Z" fill="black"/>
<path d="M100.904 215.737H58.9355V222.258H68.5155L88.0591 257.706H110.671L129.831 222.258H139.411V215.737H110.484V222.258H118.913L104.927 248.126L90.7441 222.258H100.904V215.737Z" fill="black"/>
<path d="M145.156 236.814C145.156 249.079 155.12 259.043 175.047 259.043C194.974 259.043 204.741 249.276 204.741 236.814C204.741 224.549 194.394 214.969 174.851 214.969C155.503 214.782 145.156 224.559 145.156 236.814ZM185.207 236.814C185.02 244.477 181.951 252.335 174.673 252.139C167.581 251.952 164.522 244.093 164.522 236.431C164.709 228.385 168.545 221.294 175.253 221.49C181.951 221.49 185.394 228.769 185.207 236.814Z" fill="black"/>
<path d="M359.75 236.814C359.75 249.079 369.714 259.043 389.641 259.043C409.568 259.043 419.335 249.276 419.335 236.814C419.335 224.549 408.988 214.969 389.444 214.969C370.097 214.782 359.75 224.559 359.75 236.814ZM389.828 221.49C396.536 221.677 399.979 228.769 399.791 236.814C399.604 244.477 396.536 252.335 389.257 252.139C382.166 251.952 379.106 244.093 379.106 236.431C379.294 228.385 383.129 221.294 389.828 221.49Z" fill="black"/>
<path d="M437.157 103.462L412.824 127.796C433.705 159.988 445.783 198.308 445.783 239.5C445.783 353.122 353.622 445.283 240 445.283C126.378 445.283 34.2171 353.122 34.2171 239.5C34.2171 125.878 126.378 33.7171 240 33.7171C281.389 33.7171 319.709 45.9821 351.891 66.8635L376.225 42.53C337.718 15.7078 290.585 0 240 0C107.798 0 0.5 107.298 0.5 239.5C0.5 371.702 107.798 479 240 479C372.202 479 479.5 371.702 479.5 239.5C479.5 188.915 463.792 141.979 437.157 103.462Z" fill="black"/>
<path d="M360.518 9.39258V16.1004C375.075 23.959 388.687 33.3426 401.326 43.6897L367.225 77.7904C380.061 87.9411 391.746 99.439 401.906 112.275L436.007 78.174C446.541 90.8226 455.738 104.613 463.596 118.795H470.108V9.39258H360.518Z" fill="black"/>
</svg>
