<svg width="64" height="64" viewBox="0 0 64 64" fill="none" xmlns="http://www.w3.org/2000/svg">
<g filter="url(#filter0_b_721_689)">
<rect width="64" height="64" rx="13.1765" fill="#EEEEEE" fill-opacity="0.7"/>
<path d="M40.6591 35.7637C40.2826 35.5755 37.8356 34.4461 37.4591 34.2578C37.0826 34.0696 36.7062 34.0696 36.3297 34.4461C35.9532 34.8225 35.2003 35.9519 34.8238 36.3284C34.6356 36.7049 34.2591 36.7049 33.8826 36.5167C32.565 35.9519 31.2473 35.199 30.1179 34.2578C29.1768 33.3167 28.2356 32.1872 27.4826 31.0578C27.2944 30.6814 27.4826 30.3049 27.6709 30.1167C27.8591 29.9284 28.0473 29.5519 28.4238 29.3637C28.6121 29.1755 28.8003 28.799 28.8003 28.6108C28.9885 28.4225 28.9885 28.0461 28.8003 27.8578C28.6121 27.6696 27.6709 25.4108 27.2944 24.4696C27.1062 23.1519 26.7297 23.1519 26.3532 23.1519H25.4121C25.0356 23.1519 24.4709 23.5284 24.2826 23.7167C23.1532 24.8461 22.5885 26.1637 22.5885 27.6696C22.7768 29.3637 23.3415 31.0578 24.4709 32.5637C26.5415 35.5755 29.1768 38.0225 32.3768 39.5284C33.3179 39.9049 34.0709 40.2814 35.0121 40.4696C35.9532 40.8461 36.8944 40.8461 38.0238 40.6578C39.3415 40.4696 40.4709 39.5284 41.2238 38.399C41.6003 37.6461 41.6003 36.8931 41.4121 36.1402L40.6591 35.7637ZM45.365 18.6343C38.0238 11.2931 26.165 11.2931 18.8238 18.6343C12.8003 24.6578 11.6709 33.8814 15.8121 41.2225L13.1768 50.8225L23.1532 48.1872C25.9768 49.6931 28.9885 50.4461 32.0003 50.4461C42.3532 50.4461 50.6356 42.1637 50.6356 31.8108C50.8238 26.9167 48.7532 22.2108 45.365 18.6343ZM40.2826 44.9872C37.8356 46.4931 35.0121 47.4343 32.0003 47.4343C29.1768 47.4343 26.5415 46.6814 24.0944 45.3637L23.5297 44.9872L17.6944 46.4931L19.2003 40.8461L18.8238 40.2814C14.3062 32.7519 16.565 23.3402 23.9062 18.6343C31.2473 13.9284 40.6591 16.3755 45.1768 23.5284C49.6944 30.8696 47.6238 40.4696 40.2826 44.9872Z" fill="black"/>
</g>
<defs>
<filter id="filter0_b_721_689" x="-18.8235" y="-18.8235" width="101.647" height="101.647" filterUnits="userSpaceOnUse" color-interpolation-filters="sRGB">
<feFlood flood-opacity="0" result="BackgroundImageFix"/>
<feGaussianBlur in="BackgroundImageFix" stdDeviation="9.41177"/>
<feComposite in2="SourceAlpha" operator="in" result="effect1_backgroundBlur_721_689"/>
<feBlend mode="normal" in="SourceGraphic" in2="effect1_backgroundBlur_721_689" result="shape"/>
</filter>
</defs>
</svg>
