<svg width="1049" height="287" viewBox="0 0 1049 287" fill="none" xmlns="http://www.w3.org/2000/svg">
<mask id="mask0_811_940" style="mask-type:luminance" maskUnits="userSpaceOnUse" x="0" y="0" width="1049" height="287">
<path d="M0 286.751H1049V0.000396729H0V286.751Z" fill="white"/>
</mask>
<g mask="url(#mask0_811_940)">
<path d="M346.789 239.288C346.789 254.518 348.477 275.572 342.092 283.92H441.911C435.526 275.572 437.214 254.518 437.214 239.288V47.4582C437.214 32.2247 435.526 11.1807 441.911 2.82645H342.092C348.477 11.1807 346.789 32.2247 346.789 47.4582V239.288Z" fill="#0081BF"/>
<path d="M167.722 93.7382L216.221 20.0266C223.592 9.70374 228.077 2.82645 245.277 2.82645H332.614C321.31 12.164 315.704 20.0266 307.842 30.8372L212.443 164.993V248.357C212.443 261.128 211.93 278.03 216.436 283.92H119.008C123.512 278.03 123.003 261.128 123.003 248.357V164.993L27.6003 30.8372C19.7377 20.0266 14.1303 12.164 2.83008 2.82645H90.1648C107.365 2.82645 111.85 9.70374 119.223 20.0266L167.722 93.7382Z" fill="#0081BF"/>
<path d="M433.704 137.476L517.225 257.386C528.04 271.139 537.867 283.92 561.455 283.92H650.708C638.831 278.526 628.325 264.58 626.04 262.295L532.262 135.231L622.658 24.1132C628.345 18.4323 635.722 11.0493 644.363 2.82645H556.556C532.968 2.82645 525.257 15.6037 514.446 29.3623L433.02 137.476H433.704Z" fill="#0081BF"/>
<path d="M667.766 239.288C667.766 254.518 669.448 275.572 663.062 283.92H762.88C756.494 275.572 758.186 254.518 758.186 239.288V47.4582C758.186 32.2247 756.494 11.1807 762.88 2.82645H663.062C669.448 11.1807 667.766 32.2247 667.766 47.4582V239.288Z" fill="#0081BF"/>
<path d="M754.677 137.476L838.196 257.386C849.014 271.139 858.84 283.92 882.429 283.92H971.683C959.806 278.526 949.297 264.58 947.014 262.295L853.232 135.231L943.632 24.1132C949.317 18.4323 956.694 11.0493 965.335 2.82645H877.531C853.941 2.82645 846.234 15.6037 835.417 29.3623L753.996 137.476H754.677Z" fill="#0081BF"/>
</g>
</svg>
